G04 ================== begin FILE IDENTIFICATION RECORD ==================*
G04 Layout Name:  D:/Project/2023/1_SG2042_EVB_V_2_0/Gerber/SG2042_EVB_V2_0.brd*
G04 Film Name:    SOLDERMASK_BOTTOM*
G04 File Format:  Gerber RS274X*
G04 File Origin:  Cadence Allegro 17.4-S029*
G04 Origin Date:  Fri Mar  3 18:18:45 2023*
G04 *
G04 Layer:  BOARD GEOMETRY/DESIGN_OUTLINE*
G04 Layer:  BOARD GEOMETRY/CUTOUT*
G04 Layer:  PIN/SOLDERMASK_BOTTOM*
G04 Layer:  PACKAGE GEOMETRY/SOLDERMASK_BOTTOM*
G04 Layer:  BOARD GEOMETRY/SOLDERMASK_BOTTOM*
G04 *
G04 Offset:    (0.00 0.00)*
G04 Mirror:    No*
G04 Mode:      Positive*
G04 Rotation:  0*
G04 FullContactRelief:  No*
G04 UndefLineWidth:     6.00*
G04 ================== end FILE IDENTIFICATION RECORD ====================*
%FSLAX25Y25*MOIN*%
%IR0*IPPOS*OFA0.00000B0.00000*MIA0B0*SFA1.00000B1.00000*%
%ADD37C,.042*%
%ADD43C,.034*%
%ADD11C,.08*%
%ADD47C,.064*%
%ADD51C,.04016*%
%ADD38O,.10039X.05118*%
%ADD57C,.05512*%
%ADD39R,.042X.042*%
%ADD28C,.058*%
%ADD26R,.024X.024*%
%ADD33R,.118X.099*%
%ADD27C,.05118*%
%ADD48C,.04921*%
%ADD46R,.064X.064*%
%ADD24C,.04724*%
%ADD18C,.02953*%
%ADD34C,.07087*%
%ADD49C,.0689*%
%ADD10C,.08465*%
%ADD55C,.05991*%
%ADD21C,.06299*%
%ADD15C,.04598*%
%ADD13C,.07874*%
%ADD52O,.19685X.05118*%
%ADD32R,.07087X.07087*%
%ADD56R,.05991X.05991*%
%ADD41O,.024X.026*%
%ADD42O,.026X.024*%
%ADD29R,.036X.034*%
%ADD22R,.034X.036*%
%ADD40C,.12402*%
%ADD36C,.10236*%
%ADD45R,.054X.049*%
%ADD54C,.11417*%
%ADD35R,.049X.054*%
%ADD12O,.0748X.04331*%
%ADD53R,.11417X.11417*%
%ADD25C,.13386*%
%ADD23R,.059X.069*%
%ADD17O,.08661X.04331*%
%ADD16C,.3189*%
%ADD14C,.13189*%
%ADD20C,.12598*%
%ADD30R,.01575X.01575*%
%ADD50C,.25984*%
%ADD44R,.01575X.01575*%
%ADD19O,.09449X.05512*%
%ADD31R,.03346X.01969*%
%ADD58C,.006*%
G75*
%LPD*%
G75*
G36*
G01X210715Y614272D02*
G03I-2100J0D01*
G37*
G36*
G01X204416Y617618D02*
G03I-2100J0D01*
G37*
G36*
G01X210715Y1122934D02*
G03I-2100J0D01*
G37*
G36*
G01X204416Y1126280D02*
G03I-2100J0D01*
G37*
G36*
G01X225676Y614272D02*
G03I-2100J0D01*
G37*
G36*
G01X219377Y617618D02*
G03I-2100J0D01*
G37*
G36*
G01Y1126280D02*
G03I-2100J0D01*
G37*
G36*
G01X225676Y1122934D02*
G03I-2100J0D01*
G37*
G36*
G01X241416Y617618D02*
G03I-2100J0D01*
G37*
G36*
G01Y1126280D02*
G03I-2100J0D01*
G37*
G36*
G01X247715Y614272D02*
G03I-2100J0D01*
G37*
G36*
G01X256377Y617618D02*
G03I-2100J0D01*
G37*
G36*
G01X247715Y1122934D02*
G03I-2100J0D01*
G37*
G36*
G01X256377Y1126280D02*
G03I-2100J0D01*
G37*
G36*
G01X262676Y614272D02*
G03I-2100J0D01*
G37*
G36*
G01Y1122934D02*
G03I-2100J0D01*
G37*
G36*
G01X667115Y614272D02*
G03I-2100J0D01*
G37*
G36*
G01X660816Y617618D02*
G03I-2100J0D01*
G37*
G36*
G01X667115Y1122934D02*
G03I-2100J0D01*
G37*
G36*
G01X660816Y1126280D02*
G03I-2100J0D01*
G37*
G36*
G01X682076Y614272D02*
G03I-2100J0D01*
G37*
G36*
G01X675777Y617618D02*
G03I-2100J0D01*
G37*
G36*
G01Y1126280D02*
G03I-2100J0D01*
G37*
G36*
G01X682076Y1122934D02*
G03I-2100J0D01*
G37*
G36*
G01X697816Y617618D02*
G03I-2100J0D01*
G37*
G36*
G01Y1126280D02*
G03I-2100J0D01*
G37*
G36*
G01X704115Y614272D02*
G03I-2100J0D01*
G37*
G36*
G01X712777Y617618D02*
G03I-2100J0D01*
G37*
G36*
G01X704115Y1122934D02*
G03I-2100J0D01*
G37*
G36*
G01X712777Y1126280D02*
G03I-2100J0D01*
G37*
G36*
G01X719076Y614272D02*
G03I-2100J0D01*
G37*
G36*
G01Y1122934D02*
G03I-2100J0D01*
G37*
G54D10*
X-17716Y19685D03*
Y1180315D03*
X21260Y694390D03*
X977716Y39370D03*
Y1160630D03*
G54D20*
X28858Y887697D03*
Y951673D03*
G54D11*
X-13748Y31496D03*
Y1168504D03*
X20000Y20000D03*
Y1180000D03*
X910000Y40000D03*
X973748Y51181D03*
Y1148819D03*
G54D30*
X89300Y660176D03*
Y662224D03*
Y666624D03*
Y664576D03*
Y668976D03*
Y671024D03*
Y675424D03*
Y673376D03*
Y684224D03*
Y682176D03*
Y677776D03*
Y679824D03*
Y686576D03*
Y688624D03*
Y693024D03*
Y690976D03*
X100200Y756376D03*
Y768276D03*
Y770324D03*
Y758424D03*
Y762824D03*
Y760776D03*
Y774724D03*
Y772676D03*
Y780076D03*
Y782124D03*
Y784476D03*
Y786524D03*
Y826876D03*
Y828924D03*
Y843076D03*
Y833324D03*
Y831276D03*
Y838676D03*
Y840724D03*
Y845124D03*
Y850476D03*
Y852524D03*
Y856924D03*
Y854876D03*
G54D12*
X10315Y610079D03*
Y644095D03*
G54D21*
X25354Y905630D03*
Y913661D03*
Y929724D03*
Y921693D03*
X32362Y917677D03*
Y909646D03*
Y925709D03*
Y933740D03*
X51338Y901693D03*
Y892677D03*
Y946693D03*
Y937677D03*
G54D31*
X103958Y769925D03*
X111242D03*
X103958Y773075D03*
X111242D03*
X103958Y843475D03*
X111242D03*
X103958Y840325D03*
X111242D03*
G54D40*
X315949Y1172338D03*
X519932Y263832D03*
X603351Y1172338D03*
X636468Y380367D03*
X681432Y338732D03*
X797968Y455267D03*
G54D22*
X19200Y972700D03*
X13400D03*
X19200Y977400D03*
X13400D03*
X94400Y972700D03*
Y977400D03*
X100200Y972700D03*
Y977400D03*
X126600Y581800D03*
X132600D03*
X131100Y1069000D03*
X137100D03*
X131100Y1074000D03*
X137100D03*
X408200Y421200D03*
X414200D03*
X419646Y824377D03*
X425446D03*
Y916175D03*
X419646D03*
X430046Y824377D03*
X435846D03*
X440446D03*
Y916175D03*
X435846D03*
X430046D03*
X452600Y177000D03*
X446246Y824377D03*
X450846D03*
X456646D03*
X446246Y916175D03*
X456646D03*
X450846D03*
X458600Y177000D03*
X462646Y824377D03*
X468446D03*
Y916175D03*
X462646D03*
X473046Y824377D03*
X478846D03*
X483446D03*
X478846Y916175D03*
X473046D03*
X483446D03*
X489246Y824377D03*
X493846D03*
X499646D03*
X489246Y916175D03*
X499646D03*
X493846D03*
X525100Y325900D03*
X531100D03*
X544100Y319100D03*
X549900D03*
X567200Y322100D03*
X563900Y345200D03*
X558100D03*
X573000Y322100D03*
X592400Y322000D03*
X586600D03*
X611700Y306300D03*
X609000Y362600D03*
X603200D03*
X609000Y367600D03*
X617500Y306300D03*
X628300D03*
X622300D03*
X615000Y367600D03*
X740400Y395400D03*
X734600D03*
X756700Y405000D03*
X762500D03*
X890400Y623000D03*
X896400D03*
G54D13*
X14173Y663484D03*
Y725296D03*
G54D50*
X785393Y161181D03*
X856260D03*
X935000D03*
G54D14*
X15354Y894685D03*
Y944685D03*
G54D23*
X20400Y983900D03*
X31400D03*
X89900D03*
X100900D03*
G54D41*
X355315Y797410D03*
Y801410D03*
X351378Y927332D03*
Y931332D03*
Y951016D03*
Y947016D03*
X363189Y797410D03*
Y801410D03*
Y805284D03*
Y809284D03*
X367126Y828906D03*
Y832906D03*
X359252Y927332D03*
X367126D03*
X359252Y943080D03*
X367126Y939142D03*
Y943142D03*
X359252Y931332D03*
X367126D03*
X359252Y947080D03*
X375000Y797410D03*
X378937D03*
X382874D03*
X378937Y813158D03*
X382874D03*
X371063Y809284D03*
Y805284D03*
X375000D03*
Y809284D03*
X382874Y805284D03*
Y809284D03*
X375000Y801410D03*
X378937D03*
X382874D03*
X375000Y828906D03*
X378937D03*
X382874D03*
Y821032D03*
Y825032D03*
X378937Y817158D03*
X382874D03*
X378937Y840780D03*
Y836780D03*
X382874D03*
Y840780D03*
X375000Y832906D03*
X378937D03*
X382874D03*
X375000Y836780D03*
Y840780D03*
X382874Y852528D03*
Y856528D03*
X378937Y848654D03*
Y844654D03*
X382874D03*
Y848654D03*
Y868276D03*
Y872276D03*
Y860402D03*
Y864402D03*
Y884024D03*
Y876150D03*
Y880150D03*
Y899772D03*
Y891898D03*
Y895898D03*
Y888024D03*
Y915520D03*
X378937Y911646D03*
Y907646D03*
X382874D03*
Y911646D03*
Y903772D03*
X375000Y927332D03*
X382874Y923394D03*
Y927394D03*
Y919520D03*
X371063Y927332D03*
X378937Y943142D03*
Y939142D03*
X382874D03*
Y943142D03*
X375000Y931332D03*
X382874Y931268D03*
Y935268D03*
X371063Y931332D03*
X378937Y951016D03*
Y947016D03*
X382874D03*
Y951016D03*
X386811Y797410D03*
Y813158D03*
X390748D03*
X386811Y809284D03*
Y805284D03*
X390748D03*
Y809284D03*
X386811Y801410D03*
X398622Y805284D03*
Y809284D03*
X394685D03*
Y805284D03*
X398622Y813158D03*
X394685D03*
X386811Y828906D03*
X390748D03*
X386811Y825032D03*
Y821032D03*
X390748D03*
Y825032D03*
X386811Y817158D03*
X390748D03*
X398622Y821032D03*
Y825032D03*
Y817158D03*
X394685D03*
Y825032D03*
Y821032D03*
X398622Y828906D03*
X394685D03*
X386811Y840780D03*
Y836780D03*
X390748D03*
Y840780D03*
X386811Y832906D03*
X390748D03*
X398622D03*
X394685D03*
X398622Y836780D03*
Y840780D03*
X394685D03*
Y836780D03*
X386811Y856528D03*
Y852528D03*
X390748D03*
Y856528D03*
X386811Y848654D03*
Y844654D03*
X390748D03*
Y848654D03*
X398622Y852528D03*
Y856528D03*
Y844654D03*
Y848654D03*
X394685D03*
Y844654D03*
Y856528D03*
Y852528D03*
X386811Y872276D03*
Y868276D03*
X390748D03*
Y872276D03*
X386811Y864402D03*
Y860402D03*
X390748D03*
Y864402D03*
X398622Y860402D03*
Y864402D03*
X394685D03*
Y860402D03*
X398622Y868276D03*
Y872276D03*
X394685D03*
Y868276D03*
X386811Y884024D03*
X390748D03*
X386811Y880150D03*
Y876150D03*
X390748D03*
Y880150D03*
X398622Y884024D03*
Y876150D03*
Y880150D03*
X394685D03*
Y876150D03*
Y884024D03*
X386811Y899772D03*
X390748D03*
X386811Y895898D03*
Y891898D03*
X390748D03*
Y895898D03*
X386811Y888024D03*
X390748D03*
X398622D03*
X394685D03*
X398622Y891898D03*
Y895898D03*
X394685D03*
Y891898D03*
X398622Y899772D03*
X394685D03*
X386811Y915520D03*
X390748D03*
X386811Y911646D03*
Y907646D03*
X390748D03*
Y911646D03*
X386811Y903772D03*
X390748D03*
X394685Y915520D03*
X398622D03*
Y903772D03*
X394685D03*
X398622Y907646D03*
Y911646D03*
X394685D03*
Y907646D03*
X386811Y927394D03*
Y923394D03*
X390748D03*
Y927394D03*
X386811Y919520D03*
X390748D03*
X394685Y927394D03*
Y923394D03*
X398622D03*
Y927394D03*
X394685Y919520D03*
X398622D03*
X386811Y943142D03*
Y939142D03*
X390748D03*
Y943142D03*
X386811Y935268D03*
Y931268D03*
X390748D03*
Y935268D03*
X394685Y943142D03*
Y939142D03*
X398622D03*
Y943142D03*
X394685Y935268D03*
Y931268D03*
X398622D03*
Y935268D03*
X386811Y951016D03*
Y947016D03*
X390748D03*
Y951016D03*
X410433Y801346D03*
Y805346D03*
X402559Y813158D03*
Y809284D03*
Y805284D03*
X410433Y813158D03*
X402559Y828906D03*
Y825032D03*
Y821032D03*
Y817158D03*
X410433Y828906D03*
Y817158D03*
Y825032D03*
Y821032D03*
X402559Y840780D03*
Y836780D03*
Y832906D03*
X410433D03*
Y840780D03*
Y836780D03*
Y856464D03*
X402559Y848654D03*
Y844654D03*
X410433Y848654D03*
Y844654D03*
X402559Y856528D03*
Y852528D03*
X410433Y868338D03*
Y864338D03*
Y860464D03*
Y872214D03*
X402559Y864402D03*
Y860402D03*
Y868276D03*
Y872276D03*
X410433Y880088D03*
Y884088D03*
Y876214D03*
X402559Y880150D03*
Y876150D03*
Y884024D03*
X410433Y899836D03*
Y895836D03*
Y887962D03*
Y891962D03*
X402559Y888024D03*
Y895898D03*
Y891898D03*
Y899772D03*
Y915520D03*
X410433Y911646D03*
Y907646D03*
Y915520D03*
X402559Y903772D03*
Y911646D03*
Y907646D03*
Y927394D03*
Y923394D03*
Y919520D03*
X410433Y927394D03*
Y923394D03*
Y919520D03*
X402559Y943142D03*
Y939142D03*
Y935268D03*
Y931268D03*
X410433Y943142D03*
Y939142D03*
Y935268D03*
Y931268D03*
X418307Y801346D03*
Y805346D03*
X422244D03*
Y801346D03*
X426181D03*
Y805346D03*
X414370D03*
Y801346D03*
X418307Y813158D03*
X426181D03*
X414370D03*
X422244D03*
X419007Y828906D03*
X426681D03*
X418307Y817158D03*
X426181D03*
X422844Y828906D03*
X414370Y817158D03*
X422244D03*
X419007Y832906D03*
X426681D03*
X422844Y836780D03*
Y840780D03*
Y832906D03*
X419007Y840780D03*
Y836780D03*
X426681Y840780D03*
Y836780D03*
X422844Y852528D03*
Y856528D03*
X419007Y848654D03*
Y844654D03*
X426681Y848654D03*
Y844654D03*
X419007Y856528D03*
Y852528D03*
X426681Y856528D03*
Y852528D03*
X422844Y844654D03*
Y848654D03*
X419007Y872276D03*
Y868276D03*
X422844D03*
Y872276D03*
X426681D03*
Y868276D03*
X419007Y864402D03*
Y860402D03*
X426681Y864402D03*
Y860402D03*
X422844D03*
Y864402D03*
Y884024D03*
X419007Y880150D03*
Y876150D03*
X426681Y880150D03*
Y876150D03*
X419007Y884024D03*
X426681D03*
X422844Y876150D03*
Y880150D03*
Y899772D03*
X419007Y895898D03*
Y891898D03*
X426681Y895898D03*
Y891898D03*
X422844Y888024D03*
X419007Y899772D03*
X426681D03*
X422844Y891898D03*
Y895898D03*
X419007Y888024D03*
X426681D03*
X419007Y911646D03*
Y907646D03*
X426681Y911646D03*
Y907646D03*
X422844Y903772D03*
Y907646D03*
Y911646D03*
X419007Y903772D03*
X426681D03*
X418307Y927394D03*
Y923394D03*
X426181Y927394D03*
Y923394D03*
X414370D03*
Y927394D03*
X422244Y923394D03*
Y927394D03*
X418307Y943142D03*
Y939142D03*
X426181Y943142D03*
Y939142D03*
X414370Y931268D03*
Y935268D03*
X422244Y931268D03*
Y935268D03*
X414370Y939142D03*
Y943142D03*
X422244Y939142D03*
Y943142D03*
X418307Y935268D03*
Y931268D03*
X426181Y935268D03*
Y931268D03*
X430118Y805346D03*
Y801346D03*
X434055D03*
Y805346D03*
X437992D03*
Y801346D03*
X441929D03*
Y805346D03*
X430118Y813158D03*
X434055D03*
X437992D03*
X441929D03*
X430118Y817158D03*
X434055D03*
X437992D03*
X441929D03*
X434355Y828906D03*
X442029D03*
X430518D03*
X438192D03*
X434355Y832906D03*
X442029D03*
X430518Y836780D03*
Y840780D03*
X438192Y836780D03*
Y840780D03*
X434355D03*
Y836780D03*
X442029Y840780D03*
Y836780D03*
X430518Y832906D03*
X438192D03*
X430518Y852528D03*
Y856528D03*
X438192Y852528D03*
Y856528D03*
X434355Y848654D03*
Y844654D03*
X442029Y848654D03*
Y844654D03*
X434355Y856528D03*
Y852528D03*
X442029Y856528D03*
Y852528D03*
X430518Y844654D03*
Y848654D03*
X438192Y844654D03*
Y848654D03*
X430518Y868276D03*
Y872276D03*
X434355D03*
Y868276D03*
X438192D03*
Y872276D03*
X442029D03*
Y868276D03*
X434355Y864402D03*
Y860402D03*
X442029Y864402D03*
Y860402D03*
X430518D03*
Y864402D03*
X438192Y860402D03*
Y864402D03*
X430518Y884024D03*
X438192D03*
X434355Y880150D03*
Y876150D03*
X442029Y880150D03*
Y876150D03*
X434355Y884024D03*
X442029D03*
X430518Y876150D03*
Y880150D03*
X438192Y876150D03*
Y880150D03*
X430518Y899772D03*
X438192D03*
X434355Y895898D03*
Y891898D03*
X442029Y895898D03*
Y891898D03*
X430518Y888024D03*
X438192D03*
X434355Y899772D03*
X442029D03*
X430518Y891898D03*
Y895898D03*
X438192Y891898D03*
Y895898D03*
X434355Y888024D03*
X442029D03*
X434355Y911646D03*
Y907646D03*
X442029Y911646D03*
Y907646D03*
X430518Y903772D03*
X438192D03*
X430518Y907646D03*
Y911646D03*
X438192Y907646D03*
Y911646D03*
X434355Y903772D03*
X442029D03*
X434055Y927394D03*
Y923394D03*
X441929Y927394D03*
Y923394D03*
X430118D03*
Y927394D03*
X437992Y923394D03*
Y927394D03*
X434055Y943142D03*
Y939142D03*
X441929Y943142D03*
Y939142D03*
X430118Y931268D03*
Y935268D03*
X437992Y931268D03*
Y935268D03*
X430118Y939142D03*
Y943142D03*
X437992Y939142D03*
Y943142D03*
X434055Y935268D03*
Y931268D03*
X441929Y935268D03*
Y931268D03*
X445866Y805346D03*
Y801346D03*
X449803D03*
Y805346D03*
X453740D03*
Y801346D03*
X449803Y813158D03*
X445866D03*
X453740D03*
X449803Y817158D03*
X445866D03*
X453740D03*
X445866Y828906D03*
X453640D03*
X449803D03*
X453640Y836780D03*
Y840780D03*
X445866Y836780D03*
Y840780D03*
X449803D03*
Y836780D03*
X445866Y832906D03*
X453640D03*
X449803D03*
X445866Y852528D03*
Y856528D03*
X453640Y852528D03*
Y856528D03*
X449803Y848654D03*
Y844654D03*
Y856528D03*
Y852528D03*
X445866Y844654D03*
Y848654D03*
X453640Y844654D03*
Y848654D03*
X445866Y868276D03*
Y872276D03*
X449803D03*
Y868276D03*
X453640D03*
Y872276D03*
X449803Y864402D03*
Y860402D03*
X445866D03*
Y864402D03*
X453640Y860402D03*
Y864402D03*
X445866Y884024D03*
X453640D03*
X449803Y880150D03*
Y876150D03*
Y884024D03*
X445866Y876150D03*
Y880150D03*
X453640Y876150D03*
Y880150D03*
X445866Y899772D03*
X453640D03*
X449803Y895898D03*
Y891898D03*
X445866Y888024D03*
X453640D03*
X449803Y899772D03*
X445866Y891898D03*
Y895898D03*
X453640Y891898D03*
Y895898D03*
X449803Y888024D03*
Y911646D03*
Y907646D03*
X445866Y903772D03*
X453640D03*
X445866Y907646D03*
Y911646D03*
X453640Y907646D03*
Y911646D03*
X449803Y903772D03*
Y927394D03*
Y923394D03*
X445866D03*
Y927394D03*
X453640Y923394D03*
Y927394D03*
X449803Y943142D03*
Y939142D03*
X445866Y931268D03*
Y935268D03*
X453640Y931268D03*
Y935268D03*
X445866Y939142D03*
Y943142D03*
X453640Y939142D03*
Y943142D03*
X449803Y935268D03*
Y931268D03*
X457677Y801346D03*
Y805346D03*
X465552Y801346D03*
Y805346D03*
X469489D03*
Y801346D03*
X461615Y813158D03*
X469489D03*
X457677D03*
X461615Y805346D03*
Y801346D03*
Y817158D03*
X469489D03*
X457677D03*
X465652Y828906D03*
X457477D03*
X461815D03*
X469489D03*
X465652Y832906D03*
X457477Y840780D03*
Y836780D03*
X461815D03*
Y840780D03*
X457477Y832906D03*
X461815D03*
X465652Y840780D03*
Y836780D03*
X469489Y832906D03*
Y836780D03*
Y840780D03*
X457477Y856528D03*
Y852528D03*
X461815D03*
Y856528D03*
X457477Y848654D03*
Y844654D03*
X461815D03*
Y848654D03*
X469489Y852528D03*
Y856528D03*
X465652Y848654D03*
Y844654D03*
Y856528D03*
Y852528D03*
X469489Y844654D03*
Y848654D03*
X465652Y872276D03*
Y868276D03*
X469489D03*
Y872276D03*
X457477Y864402D03*
Y860402D03*
X461815D03*
Y864402D03*
X465652D03*
Y860402D03*
X469489D03*
Y864402D03*
X457477Y884024D03*
X461815D03*
X457477Y880150D03*
Y876150D03*
X461815D03*
Y880150D03*
X469489Y884024D03*
X465652Y880150D03*
Y876150D03*
Y884024D03*
X469489Y876150D03*
Y880150D03*
X457477Y899772D03*
Y895898D03*
Y891898D03*
X461815D03*
Y895898D03*
X457477Y888024D03*
X461815D03*
Y899772D03*
X469489D03*
X465652Y895898D03*
Y891898D03*
X469489Y888024D03*
X465652Y899772D03*
X469489Y891898D03*
Y895898D03*
X465652Y888024D03*
X457477Y911646D03*
Y907646D03*
X461815D03*
Y911646D03*
X457477Y903772D03*
X461815D03*
X465652Y911646D03*
Y907646D03*
X469489Y903772D03*
Y907646D03*
Y911646D03*
X465652Y903772D03*
X457477Y927394D03*
Y923394D03*
X465652Y927394D03*
Y923394D03*
X461815D03*
Y927394D03*
X469489Y923394D03*
Y927394D03*
X457477Y943142D03*
Y939142D03*
X465652Y943142D03*
Y939142D03*
X461815Y931268D03*
Y935268D03*
X469489Y931268D03*
Y935268D03*
X461815Y939142D03*
Y943142D03*
X469489Y939142D03*
Y943142D03*
X457477Y935268D03*
Y931268D03*
X465652Y935268D03*
Y931268D03*
X473426Y801346D03*
Y805346D03*
X477363D03*
Y801346D03*
X481300D03*
Y805346D03*
X473426Y813158D03*
X481300D03*
X477363D03*
X473426Y817158D03*
X481300D03*
X481100Y828906D03*
X473426D03*
X477363Y817158D03*
X477263Y828906D03*
X484937D03*
Y836780D03*
Y840780D03*
X481100Y832906D03*
X477263Y836780D03*
Y840780D03*
X473426Y832906D03*
Y840780D03*
Y836780D03*
X481100Y840780D03*
Y836780D03*
X477263Y832906D03*
X484937D03*
X477263Y852528D03*
Y856528D03*
X484937Y852528D03*
Y856528D03*
X473426Y848654D03*
Y844654D03*
X481100Y848654D03*
Y844654D03*
X473426Y856528D03*
Y852528D03*
X481100Y856528D03*
Y852528D03*
X477263Y844654D03*
Y848654D03*
X484937Y844654D03*
Y848654D03*
X473426Y872276D03*
Y868276D03*
X477263D03*
Y872276D03*
X481100D03*
Y868276D03*
X484937D03*
Y872276D03*
X473426Y864402D03*
Y860402D03*
X481100Y864402D03*
Y860402D03*
X477263D03*
Y864402D03*
X484937Y860402D03*
Y864402D03*
X477263Y884024D03*
X484937D03*
X473426Y880150D03*
Y876150D03*
X481100Y880150D03*
Y876150D03*
X473426Y884024D03*
X481100D03*
X477263Y876150D03*
Y880150D03*
X484937Y876150D03*
Y880150D03*
X477263Y899772D03*
X484937D03*
X473426Y895898D03*
Y891898D03*
X481100Y895898D03*
Y891898D03*
X477263Y888024D03*
X484937D03*
X473426Y899772D03*
X481100D03*
X477263Y891898D03*
Y895898D03*
X484937Y891898D03*
Y895898D03*
X473426Y888024D03*
X481100D03*
X473426Y911646D03*
Y907646D03*
X481100Y911646D03*
Y907646D03*
X477263Y903772D03*
X484937D03*
X477263Y907646D03*
Y911646D03*
X484937Y907646D03*
Y911646D03*
X473426Y903772D03*
X481100D03*
X473426Y927394D03*
Y923394D03*
X481300Y927394D03*
Y923394D03*
X477363D03*
Y927394D03*
X473426Y943142D03*
Y939142D03*
X481300Y943142D03*
Y939142D03*
X477363Y931268D03*
Y935268D03*
Y939142D03*
Y943142D03*
X473426Y935268D03*
Y931268D03*
X481300Y935268D03*
Y931268D03*
X485237Y805346D03*
Y801346D03*
X489174D03*
Y805346D03*
X493111D03*
Y801346D03*
X497048D03*
Y805346D03*
X485237Y813158D03*
X489174D03*
X485237Y817158D03*
X489174D03*
X488774Y828906D03*
X496448D03*
X492611D03*
Y836780D03*
Y840780D03*
X488774Y832906D03*
X496448D03*
X488774Y840780D03*
Y836780D03*
X496448Y840780D03*
Y836780D03*
X492611Y832906D03*
Y852528D03*
Y856528D03*
X488774Y848654D03*
Y844654D03*
X496448Y848654D03*
Y844654D03*
X488774Y856528D03*
Y852528D03*
X496448Y856528D03*
Y852528D03*
X492611Y844654D03*
Y848654D03*
X488774Y872276D03*
Y868276D03*
X492611D03*
Y872276D03*
X496448D03*
Y868276D03*
X488774Y864402D03*
Y860402D03*
X496448Y864402D03*
Y860402D03*
X492611D03*
Y864402D03*
Y884024D03*
X488774Y880150D03*
Y876150D03*
X496448Y880150D03*
Y876150D03*
X488774Y884024D03*
X496448D03*
X492611Y876150D03*
Y880150D03*
Y899772D03*
X488774Y895898D03*
Y891898D03*
X496448Y895898D03*
Y891898D03*
X492611Y888024D03*
X488774Y899772D03*
X496448D03*
X492611Y891898D03*
Y895898D03*
X488774Y888024D03*
X496448D03*
X488774Y911646D03*
Y907646D03*
X496448Y911646D03*
Y907646D03*
X492611Y903772D03*
Y907646D03*
Y911646D03*
X488774Y903772D03*
X496448D03*
X489174Y927394D03*
Y923394D03*
X497048Y927394D03*
Y923394D03*
X485237D03*
Y927394D03*
X493111Y923394D03*
Y927394D03*
X489174Y943142D03*
Y939142D03*
X497048Y943142D03*
Y939142D03*
X485237Y931268D03*
Y935268D03*
X493111Y931268D03*
Y935268D03*
X485237Y939142D03*
Y943142D03*
X493111Y939142D03*
Y943142D03*
X489174Y935268D03*
Y931268D03*
X497048Y935268D03*
Y931268D03*
X500985Y805346D03*
Y801346D03*
X504922D03*
Y805346D03*
X508859D03*
Y801346D03*
X512796D03*
Y805346D03*
X508859Y813158D03*
X500285Y828906D03*
X508859D03*
Y817158D03*
Y821032D03*
Y825032D03*
X500285Y836780D03*
Y840780D03*
X508859Y836780D03*
Y840780D03*
X500285Y832906D03*
X508859D03*
Y856464D03*
X500285Y852528D03*
Y856528D03*
Y844654D03*
Y848654D03*
X508859Y844654D03*
Y848654D03*
Y868338D03*
Y864338D03*
Y860464D03*
X500285Y868276D03*
Y872276D03*
X508859Y872214D03*
X500285Y860402D03*
Y864402D03*
Y884024D03*
X508859Y876214D03*
Y880088D03*
Y884088D03*
X500285Y876150D03*
Y880150D03*
X508859Y899836D03*
Y895836D03*
Y887962D03*
Y891962D03*
X500285Y899772D03*
Y888024D03*
Y891898D03*
Y895898D03*
X508859Y915520D03*
X500285Y903772D03*
Y907646D03*
Y911646D03*
X508859Y907646D03*
Y911646D03*
X504922Y927394D03*
Y923394D03*
X508859Y919520D03*
X500985Y923394D03*
Y927394D03*
X508859Y923394D03*
Y927394D03*
X504922Y943142D03*
Y939142D03*
X500985Y931268D03*
Y935268D03*
X508859Y931268D03*
Y935268D03*
X500985Y939142D03*
Y943142D03*
X508859Y939142D03*
Y943142D03*
X504922Y935268D03*
Y931268D03*
X516733Y813158D03*
Y805346D03*
Y801346D03*
X524607Y809284D03*
Y805284D03*
X520670D03*
Y809284D03*
X524607Y813158D03*
X520670D03*
X516733Y825032D03*
Y821032D03*
Y817158D03*
Y828906D03*
X520670D03*
Y821032D03*
Y825032D03*
X524607Y817158D03*
X520670D03*
X524607Y825032D03*
Y821032D03*
Y828906D03*
X516733Y840780D03*
Y836780D03*
Y832906D03*
X520670D03*
X524607Y840780D03*
Y836780D03*
X520670D03*
Y840780D03*
X524607Y832906D03*
X516733Y848654D03*
Y844654D03*
X520670Y852528D03*
Y856528D03*
X524607Y848654D03*
Y844654D03*
X520670D03*
Y848654D03*
X524607Y856528D03*
Y852528D03*
X516733Y856528D03*
Y852528D03*
X520670Y868276D03*
Y872276D03*
X516733Y868276D03*
Y872276D03*
X524607Y864402D03*
Y860402D03*
X520670D03*
Y864402D03*
X516733D03*
Y860402D03*
X524607Y872276D03*
Y868276D03*
X520670Y884024D03*
X524607Y880150D03*
Y876150D03*
X520670D03*
Y880150D03*
X516733D03*
Y876150D03*
X524607Y884024D03*
X516733D03*
X520670Y888024D03*
X524607D03*
X516733D03*
X524607Y895898D03*
Y891898D03*
X520670D03*
Y895898D03*
X516733D03*
Y891898D03*
X524607Y899772D03*
X520670D03*
X516733D03*
X520670Y915520D03*
X524607Y903772D03*
X520670D03*
X516733D03*
X524607Y911646D03*
Y907646D03*
X520670D03*
Y911646D03*
X516733D03*
Y907646D03*
X524607Y915520D03*
X516733D03*
X520670Y919520D03*
X524607D03*
X516733D03*
X524607Y927394D03*
Y923394D03*
X520670D03*
Y927394D03*
X516733D03*
Y923394D03*
X524607Y935268D03*
Y931268D03*
X520670D03*
Y935268D03*
X516733D03*
Y931268D03*
X524607Y943142D03*
Y939142D03*
X520670D03*
Y943142D03*
X516733D03*
Y939142D03*
X528544Y797410D03*
X532481D03*
X536418D03*
X540355D03*
X528544Y813158D03*
X532481D03*
X536418D03*
X540355D03*
X528544Y805284D03*
Y809284D03*
X536418Y805284D03*
Y809284D03*
X528544Y801410D03*
X532481D03*
X536418D03*
X540355D03*
X532481Y809284D03*
Y805284D03*
X528544Y828906D03*
X532481D03*
X536418D03*
X540355D03*
X528544Y821032D03*
Y825032D03*
X532481D03*
Y821032D03*
X536418D03*
Y825032D03*
X528544Y817158D03*
X532481D03*
X536418D03*
X540355D03*
X528544Y836780D03*
Y840780D03*
X532481D03*
Y836780D03*
X536418D03*
Y840780D03*
X540355D03*
Y836780D03*
X528544Y832906D03*
X532481D03*
X536418D03*
X540355D03*
X528544Y852528D03*
Y856528D03*
Y844654D03*
Y848654D03*
X532481D03*
Y844654D03*
X536418D03*
Y848654D03*
X540355D03*
Y844654D03*
X532481Y856528D03*
Y852528D03*
X536418D03*
Y856528D03*
X528544Y868276D03*
Y872276D03*
X532481D03*
Y868276D03*
X536418D03*
Y872276D03*
X528544Y860402D03*
Y864402D03*
X532481D03*
Y860402D03*
X536418D03*
Y864402D03*
X528544Y884024D03*
X532481D03*
X536418D03*
X528544Y876150D03*
Y880150D03*
X536418Y876150D03*
Y880150D03*
X532481D03*
Y876150D03*
X528544Y899772D03*
X532481D03*
X536418D03*
X528544Y891898D03*
Y895898D03*
X532481D03*
Y891898D03*
X536418D03*
Y895898D03*
X528544Y888024D03*
X532481D03*
X536418D03*
X528544Y915520D03*
X536418D03*
X528544Y907646D03*
Y911646D03*
X532481D03*
Y907646D03*
X540355Y911646D03*
Y907646D03*
X532481Y915520D03*
X528544Y903772D03*
X532481D03*
X536418D03*
Y907646D03*
Y911646D03*
X528544Y923394D03*
Y927394D03*
X532481D03*
Y923394D03*
X536418D03*
Y927394D03*
X528544Y919520D03*
X536418D03*
X532481D03*
X528544Y939142D03*
Y943142D03*
X536418Y939142D03*
Y943142D03*
X540355D03*
Y939142D03*
X532481Y943142D03*
Y939142D03*
Y935268D03*
Y931268D03*
X528544D03*
Y935268D03*
X536418Y931268D03*
Y935268D03*
X532481Y951016D03*
Y947016D03*
X540355Y951016D03*
Y947016D03*
X536418D03*
Y951016D03*
X528544Y947016D03*
Y951016D03*
X544292Y797410D03*
X556103D03*
X544292Y805284D03*
Y809284D03*
X548229D03*
Y805284D03*
X544292Y801410D03*
X556103Y805284D03*
Y809284D03*
Y801410D03*
X544292Y828906D03*
X552166D03*
X544292Y836780D03*
Y840780D03*
Y832906D03*
X552166D03*
X544292Y927332D03*
X548229D03*
X552166D03*
X544292Y931332D03*
X552166Y939142D03*
Y943142D03*
X548229Y931332D03*
X552166D03*
X563977Y797410D03*
Y801410D03*
X560040Y927332D03*
X567914D03*
X560040Y943080D03*
Y931332D03*
X567914D03*
Y951016D03*
Y947016D03*
X560040Y947080D03*
G54D32*
X152800Y577619D03*
X747500Y32781D03*
X833300D03*
X864000Y1180519D03*
G54D42*
X378968Y793504D03*
X374968D03*
X382842D03*
X390716Y797441D03*
X394716D03*
X398590D03*
X386842Y793504D03*
X398590Y801378D03*
X394716D03*
X390716D03*
X406464Y797441D03*
X410464D03*
X402590D03*
X410402Y809252D03*
X402590Y801378D03*
X410464Y903741D03*
X406464D03*
X414338Y797441D03*
X418338D03*
X422212D03*
X426212D03*
X414402Y809252D03*
X418276D03*
X422276D03*
X426150D03*
X437960Y797441D03*
X441960D03*
X430086D03*
X434086D03*
X434024Y809252D03*
X438024D03*
X441898D03*
X430150D03*
X445834Y797441D03*
X449834D03*
X453708D03*
X445898Y809252D03*
X449772D03*
X453772D03*
X457708Y797441D03*
X461584D03*
X465584D03*
X469458D03*
X457646Y809252D03*
X461646D03*
X465520D03*
X469520D03*
X473458Y797441D03*
X477332D03*
X481332D03*
X485206D03*
X473394Y809252D03*
X477394D03*
X481268D03*
X485268D03*
X493080Y797441D03*
X497080D03*
X489206D03*
X493080Y813189D03*
X497080D03*
X489142Y809252D03*
X493142D03*
X497016D03*
X497080Y817126D03*
X493080D03*
X500954Y797441D03*
X504954D03*
X508828D03*
X512828D03*
X504890Y809252D03*
X508890D03*
X512764D03*
X501016D03*
X500954Y813189D03*
X504954D03*
Y817126D03*
X500954D03*
X508828Y852559D03*
X512828D03*
X516702Y797441D03*
X520702D03*
X516764Y809252D03*
X532512Y793504D03*
X528512D03*
X540386D03*
X536386D03*
G54D15*
X12992Y1088583D03*
Y1120079D03*
G54D24*
X40945Y684547D03*
X35039Y681595D03*
X40945Y678642D03*
X35039Y699311D03*
X40945Y696359D03*
X35039Y693406D03*
X40945Y690453D03*
X35039Y687500D03*
Y711122D03*
X40945Y708170D03*
X35039Y705217D03*
X40945Y702264D03*
X46850Y681595D03*
Y675689D03*
Y699311D03*
Y693406D03*
Y687500D03*
Y711122D03*
Y705217D03*
X58582Y680610D03*
X68897D03*
X58582Y690453D03*
Y698327D03*
X68897Y690453D03*
Y698327D03*
X58582Y708170D03*
X68897D03*
G54D33*
X155400Y770792D03*
Y794808D03*
X175200Y770792D03*
Y794808D03*
X349000Y1108792D03*
Y1132808D03*
X368800Y1108792D03*
Y1132808D03*
X389300Y1108792D03*
Y1132808D03*
X399500Y597192D03*
Y621208D03*
X409100Y1108792D03*
Y1132808D03*
X419300Y597192D03*
Y621208D03*
X429600Y1108792D03*
Y1132808D03*
X454000Y606192D03*
Y630208D03*
X449400Y1108792D03*
Y1132808D03*
X469900Y1108792D03*
Y1132808D03*
X489700Y1108792D03*
Y1132808D03*
X510200Y1108792D03*
Y1132808D03*
X530000Y1108792D03*
Y1132808D03*
X550500Y1108792D03*
Y1132808D03*
X570300Y1108792D03*
Y1132808D03*
X744000Y770792D03*
Y794808D03*
X763800Y770792D03*
Y794808D03*
G54D51*
X799213Y234450D03*
X792520D03*
X788366Y228544D03*
X814213Y234450D03*
X807520D03*
X803366Y228544D03*
X818366D03*
X872953Y234450D03*
X868799Y228544D03*
X887953Y234450D03*
X883799Y228544D03*
X879646Y234450D03*
X898799Y228544D03*
X894646Y234450D03*
G54D16*
X40000Y65000D03*
Y375000D03*
Y555000D03*
X130000Y1175000D03*
X302166Y712795D03*
Y1027756D03*
X617126Y712795D03*
Y1027756D03*
X650000Y65000D03*
Y555000D03*
Y1175000D03*
X935000Y65000D03*
Y555000D03*
Y1175000D03*
G54D25*
X37126Y745591D03*
Y797323D03*
Y816063D03*
Y867795D03*
X59488Y745591D03*
Y797323D03*
Y816063D03*
Y867795D03*
G54D52*
X930600Y701415D03*
Y721100D03*
G54D34*
X162800Y577619D03*
X182800D03*
X172800D03*
X717500Y32781D03*
X727500D03*
X737500D03*
X778110Y232481D03*
X803300Y32781D03*
X813300D03*
X823300D03*
X828622Y228544D03*
X858543Y232481D03*
X874000Y1180519D03*
X884000D03*
X894000D03*
X909055Y228544D03*
G54D43*
X378937Y809252D03*
Y805315D03*
Y821063D03*
Y825000D03*
X375000D03*
X378937Y927363D03*
Y923426D03*
Y919489D03*
X375000Y935237D03*
X378937D03*
X542200Y111600D03*
Y101600D03*
Y121600D03*
Y131600D03*
Y141600D03*
X540355Y809252D03*
Y805315D03*
Y821063D03*
Y825000D03*
Y927363D03*
Y923426D03*
Y919489D03*
Y935237D03*
X544292Y825000D03*
Y935237D03*
G54D44*
X375024Y821000D03*
X372976D03*
X375124Y919500D03*
X373076D03*
X544276Y821000D03*
X546324D03*
X544176Y919500D03*
X546224D03*
G54D17*
X26771Y610079D03*
Y644095D03*
G54D53*
X923386Y783009D03*
G54D35*
X169600Y731300D03*
X162600D03*
X169600Y738200D03*
X162600D03*
X758200Y731300D03*
X751200D03*
X758200Y738200D03*
X751200D03*
G54D26*
X39200Y980700D03*
Y983900D03*
X52400Y626500D03*
Y629900D03*
X54200Y980700D03*
Y983900D03*
X55600Y626500D03*
Y629900D03*
X69200Y980700D03*
Y983900D03*
X90500Y584700D03*
X93700D03*
Y591800D03*
X90500D03*
X93700Y598600D03*
X90500D03*
X93700Y588100D03*
X90500D03*
Y595200D03*
X93700D03*
Y602300D03*
X90500D03*
X96900Y610300D03*
Y613500D03*
X84200Y980700D03*
Y983900D03*
X89800Y1048700D03*
X86600D03*
X108600Y584900D03*
Y581700D03*
X107400Y610300D03*
Y613500D03*
X100600Y610300D03*
Y613500D03*
X111100Y610300D03*
Y613500D03*
X104000D03*
Y610300D03*
X109800Y757900D03*
X103100D03*
X106300D03*
X109800Y761300D03*
X103100D03*
X106300D03*
X106000Y769800D03*
X109200D03*
X109800Y785000D03*
Y781600D03*
X103100D03*
X106300D03*
X103100Y785000D03*
X106300D03*
X106000Y773200D03*
X109200D03*
X109800Y828400D03*
X103100D03*
X106300D03*
X109800Y831800D03*
X103100D03*
X106300D03*
X106000Y840200D03*
X109200D03*
X106000Y843600D03*
X109200D03*
X109800Y852000D03*
Y855400D03*
X103100Y852000D03*
X106300D03*
X103100Y855400D03*
X106300D03*
X109400Y1043400D03*
Y1046600D03*
X109700Y1050100D03*
X106500D03*
X109700Y1056700D03*
X106500D03*
X111000Y1060200D03*
Y1063400D03*
X107600Y1060200D03*
Y1063400D03*
X112000Y584900D03*
Y581700D03*
X122300Y581800D03*
X119100D03*
Y588200D03*
X122300D03*
X119100Y596600D03*
X122300D03*
X119100Y592900D03*
X122300D03*
Y600000D03*
X119100D03*
Y603400D03*
X122300D03*
X115700Y610300D03*
Y613500D03*
X119100Y607000D03*
X122300D03*
Y610400D03*
X119100D03*
X113000Y757900D03*
Y761300D03*
Y785000D03*
Y781600D03*
Y828400D03*
Y831800D03*
Y852000D03*
Y855400D03*
X117300Y1043400D03*
X114100D03*
X123300Y1053200D03*
Y1049800D03*
Y1046400D03*
Y1056600D03*
Y1063400D03*
X114400Y1060200D03*
Y1063400D03*
X123300Y1060000D03*
X114600Y1068500D03*
X117800D03*
X122900D03*
X126100D03*
X118700Y1063400D03*
Y1060200D03*
X134400Y1040600D03*
X137600D03*
X134400Y1044000D03*
X137600D03*
X126500Y1053200D03*
Y1049800D03*
X129900Y1053100D03*
Y1049900D03*
X126500Y1046400D03*
Y1056600D03*
X134400Y1047400D03*
X137600D03*
X134400Y1057600D03*
X137600D03*
X134400Y1054200D03*
X137600D03*
X134400Y1050800D03*
X137600D03*
X134800Y1061300D03*
X131600D03*
X126500Y1063400D03*
X134800Y1064700D03*
X131600D03*
X126500Y1060000D03*
X152200Y981500D03*
Y978300D03*
X148800Y981500D03*
Y978300D03*
X145400Y981500D03*
Y978300D03*
X152200Y1015500D03*
Y1012300D03*
X148800Y1015500D03*
Y1012300D03*
X145400Y1015500D03*
Y1012300D03*
X169200Y981500D03*
Y978300D03*
X165800Y981500D03*
Y978300D03*
X162400Y981500D03*
Y978300D03*
X159000Y981500D03*
Y978300D03*
X155600Y981500D03*
Y978300D03*
X169200Y1015500D03*
Y1012300D03*
X165800Y1015500D03*
Y1012300D03*
X162400Y1015500D03*
Y1012300D03*
X159000Y1015500D03*
Y1012300D03*
X155600Y1015500D03*
Y1012300D03*
X169200Y1005300D03*
Y1002100D03*
X165800Y1005300D03*
Y1002100D03*
X406496Y856864D03*
Y872614D03*
Y867938D03*
Y864738D03*
Y860064D03*
Y880488D03*
Y883688D03*
Y875814D03*
Y899436D03*
Y896236D03*
Y888362D03*
Y891562D03*
X424700Y421200D03*
Y424400D03*
X418800Y421200D03*
Y424400D03*
X414200Y433700D03*
X417400D03*
X414200Y427800D03*
X417400D03*
X419200Y441000D03*
X415800D03*
X422600D03*
X419200Y444200D03*
X426000D03*
X415800D03*
X422600D03*
X436400Y252700D03*
X433200D03*
X436400Y266300D03*
X433200D03*
X436400Y269700D03*
X433200D03*
X436400Y259500D03*
X433200D03*
X436400Y262900D03*
X433200D03*
X436400Y256100D03*
X433200D03*
X431500Y421200D03*
Y424400D03*
X428100Y421200D03*
Y424400D03*
X432600Y441000D03*
X437200Y433700D03*
X434000D03*
X437200Y427800D03*
X434000D03*
X432600Y444200D03*
X429200D03*
X455300Y123600D03*
Y126800D03*
Y138200D03*
Y134800D03*
Y143600D03*
Y146800D03*
Y154100D03*
X448400Y247500D03*
Y244300D03*
X445000Y247500D03*
Y244300D03*
X455200Y247500D03*
Y244300D03*
X451800Y247500D03*
Y244300D03*
X468000Y108500D03*
X464800D03*
X468000Y103600D03*
X464800D03*
X463500Y115900D03*
Y119100D03*
X466900Y115900D03*
Y119100D03*
X458500Y138200D03*
Y134800D03*
Y154100D03*
X462900Y172100D03*
X466100D03*
X462900Y177000D03*
X466100D03*
X463800Y252700D03*
X467000D03*
X463800Y249300D03*
X467000D03*
X463800Y259500D03*
X467000D03*
X463800Y256100D03*
X467000D03*
X463800Y266300D03*
X467000D03*
X463800Y262900D03*
X467000D03*
X482000Y95300D03*
X485100Y108500D03*
Y111700D03*
X482000Y98500D03*
X475300Y168900D03*
X471900D03*
X478700Y182100D03*
X482100D03*
X475300Y172100D03*
X471900D03*
X478700Y185300D03*
X482100D03*
X478100Y1070000D03*
Y1066800D03*
X474700Y1063600D03*
Y1066800D03*
Y1070000D03*
Y1066800D03*
X478100Y1063600D03*
Y1066800D03*
X485400Y95300D03*
X488800D03*
X492200D03*
X488500Y111700D03*
Y108500D03*
X485400Y98500D03*
X488800D03*
X492200D03*
X512600Y95300D03*
X509200D03*
X511300Y108500D03*
X508100D03*
X511300Y103600D03*
X508100D03*
X512600Y98500D03*
X509200D03*
X512796Y856864D03*
Y872614D03*
Y867938D03*
Y864738D03*
Y860064D03*
Y880488D03*
Y883688D03*
Y875814D03*
Y899436D03*
Y896236D03*
Y888362D03*
Y891562D03*
X518900Y164500D03*
Y161300D03*
X523800Y164500D03*
Y161300D03*
X532100Y111400D03*
X528900D03*
X532100Y121600D03*
X528900D03*
X532100Y114800D03*
X528900D03*
Y131800D03*
X532100D03*
X528900Y128400D03*
X532100D03*
Y152200D03*
X528900D03*
X553000Y299300D03*
X556200D03*
X555300Y311100D03*
Y314300D03*
X547500Y338600D03*
X550700D03*
X547400Y359900D03*
Y363100D03*
X547300Y356500D03*
X544100D03*
X567300Y300700D03*
Y303900D03*
X560000Y309100D03*
X563200D03*
X560000Y312500D03*
X563200D03*
X560000Y315900D03*
X563200D03*
X560000Y319300D03*
X563200D03*
X560000Y325300D03*
X563200D03*
X566300Y329100D03*
Y332300D03*
X560000Y337700D03*
X563200D03*
X560000Y341100D03*
X563200D03*
X567900Y346600D03*
Y343400D03*
X571300Y346600D03*
Y343400D03*
X581300Y300700D03*
Y303900D03*
X584700Y300700D03*
Y303900D03*
X575200Y300700D03*
Y303900D03*
X571800Y300700D03*
Y303900D03*
X581300Y346600D03*
Y343400D03*
X575100Y346600D03*
Y343400D03*
X588100Y300700D03*
Y303900D03*
X592400Y300700D03*
Y303900D03*
X599600Y309100D03*
X596400D03*
X599600Y319300D03*
X596400D03*
Y328500D03*
Y331700D03*
X599600Y337300D03*
X596400D03*
X586000Y346600D03*
Y343400D03*
X589400Y346600D03*
Y343400D03*
X597400Y346600D03*
Y343400D03*
X594000Y346600D03*
Y343400D03*
X613000Y297600D03*
X609600D03*
X604100D03*
X613000Y300800D03*
X609600D03*
X604100D03*
X601000Y312600D03*
Y315800D03*
X606600Y333900D03*
X603400D03*
X610000Y334700D03*
Y337900D03*
X613400Y334700D03*
Y337900D03*
X612900Y353100D03*
X609700D03*
X612900Y349700D03*
X609700D03*
X612900Y356500D03*
X609700D03*
X615300Y346600D03*
X618500D03*
X697500Y408100D03*
Y404700D03*
X706700Y363200D03*
X703500D03*
X713000Y366300D03*
X709800D03*
X709100Y394900D03*
Y398100D03*
X712500Y394900D03*
Y398100D03*
X700700Y408100D03*
Y404700D03*
X712200Y411100D03*
X712500Y402600D03*
Y405800D03*
X704200Y402400D03*
X707400D03*
X712200Y414300D03*
X713100Y417700D03*
X726300Y380400D03*
Y377200D03*
X726200Y401700D03*
Y405100D03*
X716100Y402500D03*
X719300D03*
X716100Y407200D03*
X719300D03*
X715600Y411100D03*
Y414300D03*
X716300Y417700D03*
X742800Y358300D03*
X731800Y380600D03*
X735000D03*
X738800Y386000D03*
X742000D03*
X729400Y401700D03*
Y405100D03*
X741300Y411200D03*
Y408000D03*
Y403300D03*
Y400100D03*
X735000Y417200D03*
Y414000D03*
X738400Y421100D03*
Y424300D03*
X746000Y358300D03*
X755400Y369400D03*
X752200D03*
X755400Y358300D03*
X753800Y376500D03*
Y379700D03*
X744400Y376500D03*
Y379700D03*
X756700Y383200D03*
Y393100D03*
Y389900D03*
Y386400D03*
X751000Y395400D03*
X747800D03*
X744400Y389400D03*
Y392600D03*
X756700Y410200D03*
X747500Y416800D03*
Y413600D03*
X753900Y416800D03*
Y413600D03*
X758600Y358300D03*
X759900Y410200D03*
X766800Y410400D03*
X770200D03*
X766800Y413600D03*
X770200D03*
X762400Y431600D03*
Y428400D03*
X773600Y410400D03*
Y413600D03*
X854300Y625900D03*
X857500D03*
Y633000D03*
X854300D03*
X857500Y639800D03*
X854300D03*
X857500Y629300D03*
X854300D03*
Y636400D03*
X857500D03*
Y643500D03*
X854300D03*
X853400Y1098400D03*
X856600D03*
X864500Y268400D03*
X861300D03*
X864500Y271800D03*
X861300D03*
X864500Y275200D03*
X861300D03*
X864500Y279100D03*
X861300D03*
X871500Y290800D03*
Y294000D03*
X864400Y290800D03*
Y294000D03*
X864500Y287000D03*
X861300D03*
X872400Y626100D03*
Y622900D03*
X871200Y651500D03*
Y654700D03*
X864400Y651500D03*
Y654700D03*
X860700Y651500D03*
Y654700D03*
X867800D03*
Y651500D03*
X862500Y1086900D03*
X862100Y1081900D03*
Y1078700D03*
X872300D03*
Y1081900D03*
X868900Y1078700D03*
Y1081900D03*
X865500Y1078700D03*
Y1081900D03*
X862500Y1090100D03*
X871300Y1098000D03*
X858600Y1094000D03*
Y1090800D03*
X871300Y1090100D03*
X865900Y1101400D03*
X869100D03*
X872500Y1108300D03*
X869300D03*
X864500D03*
X861300D03*
X885900Y269300D03*
X876200Y269400D03*
Y266200D03*
X885900Y279100D03*
Y290900D03*
X874900Y290800D03*
Y294000D03*
X875800Y626100D03*
Y622900D03*
X886100Y623000D03*
X882900D03*
Y629400D03*
X886100D03*
X882900Y637800D03*
X886100D03*
X882900Y634100D03*
X886100D03*
Y641200D03*
X882900D03*
Y644600D03*
X886100D03*
X879500Y651500D03*
Y654700D03*
X882900Y648200D03*
X886100D03*
X874900Y651500D03*
Y654700D03*
X886100Y651600D03*
X882900D03*
X880700Y1086300D03*
Y1083100D03*
Y1079600D03*
Y1076400D03*
X875700Y1078700D03*
Y1081900D03*
X874500Y1098000D03*
Y1090100D03*
X889100Y269300D03*
Y279100D03*
Y290900D03*
G54D54*
X923386Y799545D03*
Y816080D03*
Y832615D03*
Y849151D03*
Y865686D03*
Y882222D03*
Y898757D03*
Y915293D03*
Y931828D03*
Y948363D03*
Y964899D03*
X939922Y783009D03*
Y799545D03*
Y816080D03*
Y832615D03*
Y849151D03*
Y865686D03*
Y882222D03*
Y898757D03*
Y915293D03*
Y931828D03*
Y948363D03*
Y964899D03*
G54D45*
X375600Y1172800D03*
Y1165800D03*
X392700Y563700D03*
Y570700D03*
X415900Y1172800D03*
Y1165800D03*
X456200Y1172800D03*
Y1165800D03*
X496500Y1172800D03*
Y1165800D03*
X536800Y1172800D03*
Y1165800D03*
X577100Y1172800D03*
Y1165800D03*
G54D36*
X212946Y598721D03*
Y1141831D03*
X249946Y598721D03*
Y1141831D03*
X669346Y598721D03*
Y1141831D03*
X706346Y598721D03*
Y1141831D03*
G54D18*
X24803Y615709D03*
Y638465D03*
G54D27*
X50906Y755709D03*
X45000Y757677D03*
X50906Y771457D03*
Y763583D03*
X45000Y767520D03*
X50906Y787205D03*
Y779331D03*
X45000Y775394D03*
Y785237D03*
X50906Y826181D03*
X45000Y828149D03*
X50906Y841929D03*
Y834055D03*
X45000Y837992D03*
X50906Y857677D03*
Y849803D03*
X45000Y845866D03*
Y855709D03*
X63504Y755709D03*
X57599Y757677D03*
X63504Y771457D03*
Y763583D03*
X57599Y767520D03*
X63504Y787205D03*
Y779331D03*
X57599Y775394D03*
Y785237D03*
X63504Y826181D03*
X57599Y828149D03*
X63504Y841929D03*
Y834055D03*
X57599Y837992D03*
X63504Y857677D03*
Y849803D03*
X57599Y845866D03*
Y855709D03*
X225394Y161181D03*
Y241181D03*
Y321181D03*
Y401181D03*
Y481181D03*
X261417Y161181D03*
X316535Y241181D03*
Y401181D03*
X383465Y321181D03*
X513386Y481181D03*
G54D19*
X24409Y656988D03*
Y731792D03*
X55708Y656988D03*
Y731792D03*
G54D55*
X940275Y237914D03*
Y247914D03*
Y257914D03*
Y289803D03*
Y299803D03*
Y309803D03*
G54D46*
X424600Y24600D03*
X557800Y148500D03*
X745800Y962500D03*
X735900Y1180300D03*
X777300Y962500D03*
X908800Y412500D03*
X930300Y1107300D03*
X940300Y412500D03*
G54D28*
X83600Y183120D03*
Y212648D03*
G54D37*
X208615Y627658D03*
X202316Y624311D03*
X208615Y620965D03*
Y641044D03*
X202316Y637697D03*
X208615Y634351D03*
X202316Y631004D03*
Y657776D03*
X208615Y654430D03*
X202316Y651083D03*
X208615Y647737D03*
X202316Y644390D03*
Y671162D03*
X208615Y667815D03*
X202316Y664469D03*
X208615Y661122D03*
X202316Y684548D03*
X208615Y681201D03*
X202316Y677855D03*
X208615Y674508D03*
Y701280D03*
X202316Y697933D03*
X208615Y694587D03*
X202316Y691241D03*
X208615Y687894D03*
Y714666D03*
X202316Y711319D03*
X208615Y707973D03*
X202316Y704626D03*
X208615Y728052D03*
X202316Y724705D03*
X208615Y721359D03*
X202316Y718012D03*
X208615Y741437D03*
X202316Y738091D03*
X208615Y734745D03*
X202316Y731398D03*
Y758170D03*
X208615Y754823D03*
X202316Y751477D03*
X208615Y748130D03*
X202316Y744784D03*
Y771556D03*
X208615Y768209D03*
X202316Y764863D03*
X208615Y761516D03*
X202316Y784941D03*
X208615Y781595D03*
X202316Y778248D03*
X208615Y774902D03*
Y801674D03*
X202316Y798327D03*
X208615Y794981D03*
X202316Y791634D03*
X208615Y788288D03*
Y815059D03*
X202316Y811713D03*
X208615Y808367D03*
X202316Y805020D03*
X208615Y828445D03*
X202316Y825099D03*
X208615Y821752D03*
X202316Y818406D03*
X208615Y841831D03*
X202316Y838485D03*
X208615Y835138D03*
X202316Y831792D03*
Y871949D03*
X208615Y868603D03*
X202316Y865256D03*
Y885335D03*
X208615Y881989D03*
X202316Y878642D03*
X208615Y875296D03*
Y902067D03*
X202316Y898721D03*
X208615Y895374D03*
X202316Y892028D03*
X208615Y888682D03*
Y915453D03*
X202316Y912107D03*
X208615Y908760D03*
X202316Y905414D03*
X208615Y928839D03*
X202316Y925493D03*
X208615Y922146D03*
X202316Y918800D03*
X208615Y942225D03*
X202316Y938878D03*
X208615Y935532D03*
X202316Y932185D03*
Y958957D03*
X208615Y955611D03*
X202316Y952264D03*
X208615Y948918D03*
X202316Y945571D03*
Y972343D03*
X208615Y968996D03*
X202316Y965650D03*
X208615Y962304D03*
X202316Y985729D03*
X208615Y982382D03*
X202316Y979036D03*
X208615Y975689D03*
Y1002461D03*
X202316Y999115D03*
X208615Y995768D03*
X202316Y992422D03*
X208615Y989075D03*
Y1015847D03*
X202316Y1012500D03*
X208615Y1009154D03*
X202316Y1005807D03*
X208615Y1029233D03*
X202316Y1025886D03*
X208615Y1022540D03*
X202316Y1019193D03*
Y1045965D03*
X208615Y1042619D03*
X202316Y1039272D03*
X208615Y1035926D03*
X202316Y1032579D03*
Y1059351D03*
X208615Y1056004D03*
X202316Y1052658D03*
X208615Y1049311D03*
X202316Y1072737D03*
X208615Y1069390D03*
X202316Y1066044D03*
X208615Y1062697D03*
X202316Y1086122D03*
X208615Y1082776D03*
X202316Y1079430D03*
X208615Y1076083D03*
Y1102855D03*
X202316Y1099508D03*
X208615Y1096162D03*
X202316Y1092815D03*
X208615Y1089469D03*
Y1116241D03*
X202316Y1112894D03*
X208615Y1109548D03*
X202316Y1106201D03*
X223576Y627658D03*
X217277Y624311D03*
X223576Y620965D03*
Y641044D03*
X217277Y637697D03*
X223576Y634351D03*
X217277Y631004D03*
Y657776D03*
X223576Y654430D03*
X217277Y651083D03*
X223576Y647737D03*
X217277Y644390D03*
Y671162D03*
X223576Y667815D03*
X217277Y664469D03*
X223576Y661122D03*
X217277Y684548D03*
X223576Y681201D03*
X217277Y677855D03*
X223576Y674508D03*
Y701280D03*
X217277Y697933D03*
X223576Y694587D03*
X217277Y691241D03*
X223576Y687894D03*
Y714666D03*
X217277Y711319D03*
X223576Y707973D03*
X217277Y704626D03*
X223576Y728052D03*
X217277Y724705D03*
X223576Y721359D03*
X217277Y718012D03*
X223576Y741437D03*
X217277Y738091D03*
X223576Y734745D03*
X217277Y731398D03*
Y758170D03*
X223576Y754823D03*
X217277Y751477D03*
X223576Y748130D03*
X217277Y744784D03*
Y771556D03*
X223576Y768209D03*
X217277Y764863D03*
X223576Y761516D03*
X217277Y784941D03*
X223576Y781595D03*
X217277Y778248D03*
X223576Y774902D03*
Y801674D03*
X217277Y798327D03*
X223576Y794981D03*
X217277Y791634D03*
X223576Y788288D03*
Y815059D03*
X217277Y811713D03*
X223576Y808367D03*
X217277Y805020D03*
X223576Y828445D03*
X217277Y825099D03*
X223576Y821752D03*
X217277Y818406D03*
X223576Y841831D03*
X217277Y838485D03*
X223576Y835138D03*
X217277Y831792D03*
Y871949D03*
X223576Y868603D03*
X217277Y865256D03*
Y885335D03*
X223576Y881989D03*
X217277Y878642D03*
X223576Y875296D03*
Y902067D03*
X217277Y898721D03*
X223576Y895374D03*
X217277Y892028D03*
X223576Y888682D03*
Y915453D03*
X217277Y912107D03*
X223576Y908760D03*
X217277Y905414D03*
X223576Y928839D03*
X217277Y925493D03*
X223576Y922146D03*
X217277Y918800D03*
X223576Y942225D03*
X217277Y938878D03*
X223576Y935532D03*
X217277Y932185D03*
Y958957D03*
X223576Y955611D03*
X217277Y952264D03*
X223576Y948918D03*
X217277Y945571D03*
Y972343D03*
X223576Y968996D03*
X217277Y965650D03*
X223576Y962304D03*
X217277Y985729D03*
X223576Y982382D03*
X217277Y979036D03*
X223576Y975689D03*
Y1002461D03*
X217277Y999115D03*
X223576Y995768D03*
X217277Y992422D03*
X223576Y989075D03*
Y1015847D03*
X217277Y1012500D03*
X223576Y1009154D03*
X217277Y1005807D03*
X223576Y1029233D03*
X217277Y1025886D03*
X223576Y1022540D03*
X217277Y1019193D03*
Y1045965D03*
X223576Y1042619D03*
X217277Y1039272D03*
X223576Y1035926D03*
X217277Y1032579D03*
Y1059351D03*
X223576Y1056004D03*
X217277Y1052658D03*
X223576Y1049311D03*
X217277Y1072737D03*
X223576Y1069390D03*
X217277Y1066044D03*
X223576Y1062697D03*
X217277Y1086122D03*
X223576Y1082776D03*
X217277Y1079430D03*
X223576Y1076083D03*
Y1102855D03*
X217277Y1099508D03*
X223576Y1096162D03*
X217277Y1092815D03*
X223576Y1089469D03*
Y1116241D03*
X217277Y1112894D03*
X223576Y1109548D03*
X217277Y1106201D03*
Y1119587D03*
X239316Y624311D03*
Y637697D03*
Y631004D03*
Y657776D03*
Y651083D03*
Y644390D03*
Y671162D03*
Y664469D03*
Y684548D03*
Y677855D03*
Y697933D03*
Y691241D03*
Y711319D03*
Y704626D03*
Y724705D03*
Y718012D03*
Y738091D03*
Y731398D03*
Y758170D03*
Y751477D03*
Y744784D03*
Y771556D03*
Y764863D03*
Y784941D03*
Y778248D03*
Y798327D03*
Y791634D03*
Y811713D03*
Y805020D03*
Y825099D03*
Y818406D03*
Y838485D03*
Y831792D03*
Y871949D03*
Y865256D03*
Y885335D03*
Y878642D03*
Y898721D03*
Y892028D03*
Y912107D03*
Y905414D03*
Y925493D03*
Y918800D03*
Y938878D03*
Y932185D03*
Y958957D03*
Y952264D03*
Y945571D03*
Y972343D03*
Y965650D03*
Y985729D03*
Y979036D03*
Y999115D03*
Y992422D03*
Y1012500D03*
Y1005807D03*
Y1025886D03*
Y1019193D03*
Y1045965D03*
Y1039272D03*
Y1032579D03*
Y1059351D03*
Y1052658D03*
Y1072737D03*
Y1066044D03*
Y1086122D03*
Y1079430D03*
Y1099508D03*
Y1092815D03*
Y1112894D03*
Y1106201D03*
X245615Y627658D03*
Y620965D03*
X254277Y624311D03*
X245615Y641044D03*
Y634351D03*
X254277Y637697D03*
Y631004D03*
X245615Y654430D03*
Y647737D03*
X254277Y657776D03*
Y651083D03*
Y644390D03*
X245615Y667815D03*
Y661122D03*
X254277Y671162D03*
Y664469D03*
X245615Y681201D03*
Y674508D03*
X254277Y684548D03*
Y677855D03*
X245615Y701280D03*
Y694587D03*
Y687894D03*
X254277Y697933D03*
Y691241D03*
X245615Y714666D03*
Y707973D03*
X254277Y711319D03*
Y704626D03*
X245615Y728052D03*
Y721359D03*
X254277Y724705D03*
Y718012D03*
X245615Y741437D03*
Y734745D03*
X254277Y738091D03*
Y731398D03*
X245615Y754823D03*
Y748130D03*
X254277Y758170D03*
Y751477D03*
Y744784D03*
X245615Y768209D03*
Y761516D03*
X254277Y771556D03*
Y764863D03*
X245615Y781595D03*
Y774902D03*
X254277Y784941D03*
Y778248D03*
X245615Y801674D03*
Y794981D03*
Y788288D03*
X254277Y798327D03*
Y791634D03*
X245615Y815059D03*
Y808367D03*
X254277Y811713D03*
Y805020D03*
X245615Y828445D03*
Y821752D03*
X254277Y825099D03*
Y818406D03*
X245615Y841831D03*
Y835138D03*
X254277Y838485D03*
Y831792D03*
X245615Y868603D03*
X254277Y871949D03*
Y865256D03*
X245615Y881989D03*
Y875296D03*
X254277Y885335D03*
Y878642D03*
X245615Y902067D03*
Y895374D03*
Y888682D03*
X254277Y898721D03*
Y892028D03*
X245615Y915453D03*
Y908760D03*
X254277Y912107D03*
Y905414D03*
X245615Y928839D03*
Y922146D03*
X254277Y925493D03*
Y918800D03*
X245615Y942225D03*
Y935532D03*
X254277Y938878D03*
Y932185D03*
X245615Y955611D03*
Y948918D03*
X254277Y958957D03*
Y952264D03*
Y945571D03*
X245615Y968996D03*
Y962304D03*
X254277Y972343D03*
Y965650D03*
X245615Y982382D03*
Y975689D03*
X254277Y985729D03*
Y979036D03*
X245615Y1002461D03*
Y995768D03*
Y989075D03*
X254277Y999115D03*
Y992422D03*
X245615Y1015847D03*
Y1009154D03*
X254277Y1012500D03*
Y1005807D03*
X245615Y1029233D03*
Y1022540D03*
X254277Y1025886D03*
Y1019193D03*
X245615Y1042619D03*
Y1035926D03*
X254277Y1045965D03*
Y1039272D03*
Y1032579D03*
X245615Y1056004D03*
Y1049311D03*
X254277Y1059351D03*
Y1052658D03*
X245615Y1069390D03*
Y1062697D03*
X254277Y1072737D03*
Y1066044D03*
X245615Y1082776D03*
Y1076083D03*
X254277Y1086122D03*
Y1079430D03*
X245615Y1102855D03*
Y1096162D03*
Y1089469D03*
X254277Y1099508D03*
Y1092815D03*
X245615Y1116241D03*
Y1109548D03*
X254277Y1112894D03*
Y1106201D03*
Y1119587D03*
X260576Y627658D03*
Y620965D03*
Y641044D03*
Y634351D03*
Y654430D03*
Y647737D03*
Y667815D03*
Y661122D03*
Y681201D03*
Y674508D03*
Y701280D03*
Y694587D03*
Y687894D03*
Y714666D03*
Y707973D03*
Y728052D03*
Y721359D03*
Y741437D03*
Y734745D03*
Y754823D03*
Y748130D03*
Y768209D03*
Y761516D03*
Y781595D03*
Y774902D03*
Y801674D03*
Y794981D03*
Y788288D03*
Y815059D03*
Y808367D03*
Y828445D03*
Y821752D03*
Y841831D03*
Y835138D03*
Y868603D03*
Y881989D03*
Y875296D03*
Y902067D03*
Y895374D03*
Y888682D03*
Y915453D03*
Y908760D03*
Y928839D03*
Y922146D03*
Y942225D03*
Y935532D03*
Y955611D03*
Y948918D03*
Y968996D03*
Y962304D03*
Y982382D03*
Y975689D03*
Y1002461D03*
Y995768D03*
Y989075D03*
Y1015847D03*
Y1009154D03*
Y1029233D03*
Y1022540D03*
Y1042619D03*
Y1035926D03*
Y1056004D03*
Y1049311D03*
Y1069390D03*
Y1062697D03*
Y1082776D03*
Y1076083D03*
Y1102855D03*
Y1096162D03*
Y1089469D03*
Y1116241D03*
Y1109548D03*
X665015Y627658D03*
X658716Y624311D03*
X665015Y620965D03*
Y641044D03*
X658716Y637697D03*
X665015Y634351D03*
X658716Y631004D03*
Y657776D03*
X665015Y654430D03*
X658716Y651083D03*
X665015Y647737D03*
X658716Y644390D03*
Y671162D03*
X665015Y667815D03*
X658716Y664469D03*
X665015Y661122D03*
X658716Y684548D03*
X665015Y681201D03*
X658716Y677855D03*
X665015Y674508D03*
Y701280D03*
X658716Y697933D03*
X665015Y694587D03*
X658716Y691241D03*
X665015Y687894D03*
Y714666D03*
X658716Y711319D03*
X665015Y707973D03*
X658716Y704626D03*
X665015Y728052D03*
X658716Y724705D03*
X665015Y721359D03*
X658716Y718012D03*
X665015Y741437D03*
X658716Y738091D03*
X665015Y734745D03*
X658716Y731398D03*
Y758170D03*
X665015Y754823D03*
X658716Y751477D03*
X665015Y748130D03*
X658716Y744784D03*
Y771556D03*
X665015Y768209D03*
X658716Y764863D03*
X665015Y761516D03*
X658716Y784941D03*
X665015Y781595D03*
X658716Y778248D03*
X665015Y774902D03*
Y801674D03*
X658716Y798327D03*
X665015Y794981D03*
X658716Y791634D03*
X665015Y788288D03*
Y815059D03*
X658716Y811713D03*
X665015Y808367D03*
X658716Y805020D03*
X665015Y828445D03*
X658716Y825099D03*
X665015Y821752D03*
X658716Y818406D03*
X665015Y841831D03*
X658716Y838485D03*
X665015Y835138D03*
X658716Y831792D03*
Y871949D03*
X665015Y868603D03*
X658716Y865256D03*
Y885335D03*
X665015Y881989D03*
X658716Y878642D03*
X665015Y875296D03*
Y902067D03*
X658716Y898721D03*
X665015Y895374D03*
X658716Y892028D03*
X665015Y888682D03*
Y915453D03*
X658716Y912107D03*
X665015Y908760D03*
X658716Y905414D03*
X665015Y928839D03*
X658716Y925493D03*
X665015Y922146D03*
X658716Y918800D03*
X665015Y942225D03*
X658716Y938878D03*
X665015Y935532D03*
X658716Y932185D03*
Y958957D03*
X665015Y955611D03*
X658716Y952264D03*
X665015Y948918D03*
X658716Y945571D03*
Y972343D03*
X665015Y968996D03*
X658716Y965650D03*
X665015Y962304D03*
X658716Y985729D03*
X665015Y982382D03*
X658716Y979036D03*
X665015Y975689D03*
Y1002461D03*
X658716Y999115D03*
X665015Y995768D03*
X658716Y992422D03*
X665015Y989075D03*
Y1015847D03*
X658716Y1012500D03*
X665015Y1009154D03*
X658716Y1005807D03*
X665015Y1029233D03*
X658716Y1025886D03*
X665015Y1022540D03*
X658716Y1019193D03*
Y1045965D03*
X665015Y1042619D03*
X658716Y1039272D03*
X665015Y1035926D03*
X658716Y1032579D03*
Y1059351D03*
X665015Y1056004D03*
X658716Y1052658D03*
X665015Y1049311D03*
X658716Y1072737D03*
X665015Y1069390D03*
X658716Y1066044D03*
X665015Y1062697D03*
X658716Y1086122D03*
X665015Y1082776D03*
X658716Y1079430D03*
X665015Y1076083D03*
Y1102855D03*
X658716Y1099508D03*
X665015Y1096162D03*
X658716Y1092815D03*
X665015Y1089469D03*
Y1116241D03*
X658716Y1112894D03*
X665015Y1109548D03*
X658716Y1106201D03*
X679976Y627658D03*
X673677Y624311D03*
X679976Y620965D03*
Y641044D03*
X673677Y637697D03*
X679976Y634351D03*
X673677Y631004D03*
Y657776D03*
X679976Y654430D03*
X673677Y651083D03*
X679976Y647737D03*
X673677Y644390D03*
Y671162D03*
X679976Y667815D03*
X673677Y664469D03*
X679976Y661122D03*
X673677Y684548D03*
X679976Y681201D03*
X673677Y677855D03*
X679976Y674508D03*
Y701280D03*
X673677Y697933D03*
X679976Y694587D03*
X673677Y691241D03*
X679976Y687894D03*
Y714666D03*
X673677Y711319D03*
X679976Y707973D03*
X673677Y704626D03*
X679976Y728052D03*
X673677Y724705D03*
X679976Y721359D03*
X673677Y718012D03*
X679976Y741437D03*
X673677Y738091D03*
X679976Y734745D03*
X673677Y731398D03*
Y758170D03*
X679976Y754823D03*
X673677Y751477D03*
X679976Y748130D03*
X673677Y744784D03*
Y771556D03*
X679976Y768209D03*
X673677Y764863D03*
X679976Y761516D03*
X673677Y784941D03*
X679976Y781595D03*
X673677Y778248D03*
X679976Y774902D03*
Y801674D03*
X673677Y798327D03*
X679976Y794981D03*
X673677Y791634D03*
X679976Y788288D03*
Y815059D03*
X673677Y811713D03*
X679976Y808367D03*
X673677Y805020D03*
X679976Y828445D03*
X673677Y825099D03*
X679976Y821752D03*
X673677Y818406D03*
X679976Y841831D03*
X673677Y838485D03*
X679976Y835138D03*
X673677Y831792D03*
Y871949D03*
X679976Y868603D03*
X673677Y865256D03*
Y885335D03*
X679976Y881989D03*
X673677Y878642D03*
X679976Y875296D03*
Y902067D03*
X673677Y898721D03*
X679976Y895374D03*
X673677Y892028D03*
X679976Y888682D03*
Y915453D03*
X673677Y912107D03*
X679976Y908760D03*
X673677Y905414D03*
X679976Y928839D03*
X673677Y925493D03*
X679976Y922146D03*
X673677Y918800D03*
X679976Y942225D03*
X673677Y938878D03*
X679976Y935532D03*
X673677Y932185D03*
Y958957D03*
X679976Y955611D03*
X673677Y952264D03*
X679976Y948918D03*
X673677Y945571D03*
Y972343D03*
X679976Y968996D03*
X673677Y965650D03*
X679976Y962304D03*
X673677Y985729D03*
X679976Y982382D03*
X673677Y979036D03*
X679976Y975689D03*
Y1002461D03*
X673677Y999115D03*
X679976Y995768D03*
X673677Y992422D03*
X679976Y989075D03*
Y1015847D03*
X673677Y1012500D03*
X679976Y1009154D03*
X673677Y1005807D03*
X679976Y1029233D03*
X673677Y1025886D03*
X679976Y1022540D03*
X673677Y1019193D03*
Y1045965D03*
X679976Y1042619D03*
X673677Y1039272D03*
X679976Y1035926D03*
X673677Y1032579D03*
Y1059351D03*
X679976Y1056004D03*
X673677Y1052658D03*
X679976Y1049311D03*
X673677Y1072737D03*
X679976Y1069390D03*
X673677Y1066044D03*
X679976Y1062697D03*
X673677Y1086122D03*
X679976Y1082776D03*
X673677Y1079430D03*
X679976Y1076083D03*
Y1102855D03*
X673677Y1099508D03*
X679976Y1096162D03*
X673677Y1092815D03*
X679976Y1089469D03*
Y1116241D03*
X673677Y1112894D03*
X679976Y1109548D03*
X673677Y1106201D03*
Y1119587D03*
X695716Y624311D03*
Y637697D03*
Y631004D03*
Y657776D03*
Y651083D03*
Y644390D03*
Y671162D03*
Y664469D03*
Y684548D03*
Y677855D03*
Y697933D03*
Y691241D03*
Y711319D03*
Y704626D03*
Y724705D03*
Y718012D03*
Y738091D03*
Y731398D03*
Y758170D03*
Y751477D03*
Y744784D03*
Y771556D03*
Y764863D03*
Y784941D03*
Y778248D03*
Y798327D03*
Y791634D03*
Y811713D03*
Y805020D03*
Y825099D03*
Y818406D03*
Y838485D03*
Y831792D03*
Y871949D03*
Y865256D03*
Y885335D03*
Y878642D03*
Y898721D03*
Y892028D03*
Y912107D03*
Y905414D03*
Y925493D03*
Y918800D03*
Y938878D03*
Y932185D03*
Y958957D03*
Y952264D03*
Y945571D03*
Y972343D03*
Y965650D03*
Y985729D03*
Y979036D03*
Y999115D03*
Y992422D03*
Y1012500D03*
Y1005807D03*
Y1025886D03*
Y1019193D03*
Y1045965D03*
Y1039272D03*
Y1032579D03*
Y1059351D03*
Y1052658D03*
Y1072737D03*
Y1066044D03*
Y1086122D03*
Y1079430D03*
Y1099508D03*
Y1092815D03*
Y1112894D03*
Y1106201D03*
X702015Y627658D03*
Y620965D03*
X710677Y624311D03*
X702015Y641044D03*
Y634351D03*
X710677Y637697D03*
Y631004D03*
X702015Y654430D03*
Y647737D03*
X710677Y657776D03*
Y651083D03*
Y644390D03*
X702015Y667815D03*
Y661122D03*
X710677Y671162D03*
Y664469D03*
X702015Y681201D03*
Y674508D03*
X710677Y684548D03*
Y677855D03*
X702015Y701280D03*
Y694587D03*
Y687894D03*
X710677Y697933D03*
Y691241D03*
X702015Y714666D03*
Y707973D03*
X710677Y711319D03*
Y704626D03*
X702015Y728052D03*
Y721359D03*
X710677Y724705D03*
Y718012D03*
X702015Y741437D03*
Y734745D03*
X710677Y738091D03*
Y731398D03*
X702015Y754823D03*
Y748130D03*
X710677Y758170D03*
Y751477D03*
Y744784D03*
X702015Y768209D03*
Y761516D03*
X710677Y771556D03*
Y764863D03*
X702015Y781595D03*
Y774902D03*
X710677Y784941D03*
Y778248D03*
X702015Y801674D03*
Y794981D03*
Y788288D03*
X710677Y798327D03*
Y791634D03*
X702015Y815059D03*
Y808367D03*
X710677Y811713D03*
Y805020D03*
X702015Y828445D03*
Y821752D03*
X710677Y825099D03*
Y818406D03*
X702015Y841831D03*
Y835138D03*
X710677Y838485D03*
Y831792D03*
X702015Y868603D03*
X710677Y871949D03*
Y865256D03*
X702015Y881989D03*
Y875296D03*
X710677Y885335D03*
Y878642D03*
X702015Y902067D03*
Y895374D03*
Y888682D03*
X710677Y898721D03*
Y892028D03*
X702015Y915453D03*
Y908760D03*
X710677Y912107D03*
Y905414D03*
X702015Y928839D03*
Y922146D03*
X710677Y925493D03*
Y918800D03*
X702015Y942225D03*
Y935532D03*
X710677Y938878D03*
Y932185D03*
X702015Y955611D03*
Y948918D03*
X710677Y958957D03*
Y952264D03*
Y945571D03*
X702015Y968996D03*
Y962304D03*
X710677Y972343D03*
Y965650D03*
X702015Y982382D03*
Y975689D03*
X710677Y985729D03*
Y979036D03*
X702015Y1002461D03*
Y995768D03*
Y989075D03*
X710677Y999115D03*
Y992422D03*
X702015Y1015847D03*
Y1009154D03*
X710677Y1012500D03*
Y1005807D03*
X702015Y1029233D03*
Y1022540D03*
X710677Y1025886D03*
Y1019193D03*
X702015Y1042619D03*
Y1035926D03*
X710677Y1045965D03*
Y1039272D03*
Y1032579D03*
X702015Y1056004D03*
Y1049311D03*
X710677Y1059351D03*
Y1052658D03*
X702015Y1069390D03*
Y1062697D03*
X710677Y1072737D03*
Y1066044D03*
X702015Y1082776D03*
Y1076083D03*
X710677Y1086122D03*
Y1079430D03*
X702015Y1102855D03*
Y1096162D03*
Y1089469D03*
X710677Y1099508D03*
Y1092815D03*
X702015Y1116241D03*
Y1109548D03*
X710677Y1112894D03*
Y1106201D03*
Y1119587D03*
X716976Y627658D03*
Y620965D03*
Y641044D03*
Y634351D03*
Y654430D03*
Y647737D03*
Y667815D03*
Y661122D03*
Y681201D03*
Y674508D03*
Y701280D03*
Y694587D03*
Y687894D03*
Y714666D03*
Y707973D03*
Y728052D03*
Y721359D03*
Y741437D03*
Y734745D03*
Y754823D03*
Y748130D03*
Y768209D03*
Y761516D03*
Y781595D03*
Y774902D03*
Y801674D03*
Y794981D03*
Y788288D03*
Y815059D03*
Y808367D03*
Y828445D03*
Y821752D03*
Y841831D03*
Y835138D03*
Y868603D03*
Y881989D03*
Y875296D03*
Y902067D03*
Y895374D03*
Y888682D03*
Y915453D03*
Y908760D03*
Y928839D03*
Y922146D03*
Y942225D03*
Y935532D03*
Y955611D03*
Y948918D03*
Y968996D03*
Y962304D03*
Y982382D03*
Y975689D03*
Y1002461D03*
Y995768D03*
Y989075D03*
Y1015847D03*
Y1009154D03*
Y1029233D03*
Y1022540D03*
Y1042619D03*
Y1035926D03*
Y1056004D03*
Y1049311D03*
Y1069390D03*
Y1062697D03*
Y1082776D03*
Y1076083D03*
Y1102855D03*
Y1096162D03*
Y1089469D03*
Y1116241D03*
Y1109548D03*
G54D29*
X91300Y606500D03*
Y612500D03*
X103300Y1069400D03*
Y1063400D03*
X123400Y614700D03*
Y620700D03*
X414724Y827376D03*
Y821576D03*
Y841976D03*
Y837576D03*
Y831776D03*
Y857976D03*
Y852176D03*
Y847776D03*
Y872576D03*
Y868176D03*
Y862376D03*
Y882776D03*
Y878376D03*
Y898776D03*
Y892976D03*
Y888576D03*
Y913376D03*
Y908976D03*
Y903176D03*
Y919176D03*
X459600Y123600D03*
Y129600D03*
X504568Y821576D03*
Y827376D03*
Y841976D03*
Y831776D03*
Y837576D03*
Y852176D03*
Y857976D03*
Y847776D03*
Y872576D03*
Y862376D03*
Y868176D03*
Y882776D03*
Y878376D03*
Y892976D03*
Y898776D03*
Y888576D03*
Y913376D03*
Y903176D03*
Y908976D03*
Y919176D03*
X578300Y309850D03*
Y315650D03*
Y339400D03*
Y333600D03*
X597800Y297700D03*
Y303500D03*
X600400Y323900D03*
Y329700D03*
X617500Y338100D03*
Y332300D03*
X716600Y398600D03*
Y392800D03*
X855100Y647700D03*
Y653700D03*
X849100Y1098400D03*
Y1104400D03*
X886100Y655900D03*
Y661900D03*
G54D56*
X940275Y267914D03*
Y319803D03*
G54D38*
X212946Y848327D03*
X249946D03*
X669346D03*
X706346D03*
G54D47*
X424600Y34600D03*
X434600Y24600D03*
Y34600D03*
X444600Y24600D03*
X454600D03*
X444600Y34600D03*
X454600D03*
X464600Y24600D03*
Y34600D03*
X474600Y24600D03*
X484600D03*
X474600Y34600D03*
X484600D03*
X494600Y24600D03*
Y34600D03*
X504600Y24600D03*
X514600D03*
X504600Y34600D03*
X514600D03*
X524600Y24600D03*
Y34600D03*
X534600Y24600D03*
Y34600D03*
X557800Y98500D03*
Y108500D03*
Y118500D03*
Y128500D03*
Y138500D03*
X745800Y972500D03*
X735800Y962500D03*
Y972500D03*
X745800Y982500D03*
X735800D03*
X745800Y992500D03*
Y1002500D03*
X735800Y992500D03*
Y1002500D03*
X745800Y1012500D03*
X735800D03*
X745800Y1022500D03*
Y1032500D03*
X735800Y1022500D03*
Y1032500D03*
X745800Y1042500D03*
X735800D03*
X745800Y1052500D03*
X735800D03*
X745800Y1062500D03*
Y1072500D03*
X735800Y1062500D03*
Y1072500D03*
X735900Y1160300D03*
Y1150300D03*
Y1170300D03*
X767300Y962500D03*
Y972500D03*
Y982500D03*
Y992500D03*
Y1002500D03*
Y1012500D03*
Y1022500D03*
Y1032500D03*
Y1042500D03*
Y1052500D03*
Y1062500D03*
Y1072500D03*
X777300Y972500D03*
Y982500D03*
Y992500D03*
Y1002500D03*
Y1012500D03*
Y1022500D03*
Y1032500D03*
Y1042500D03*
Y1052500D03*
Y1062500D03*
Y1072500D03*
X898800Y412500D03*
Y422500D03*
Y432500D03*
Y442500D03*
Y452500D03*
Y462500D03*
Y472500D03*
Y482500D03*
Y492500D03*
Y502500D03*
Y512500D03*
Y522500D03*
X908800Y422500D03*
Y432500D03*
Y442500D03*
Y452500D03*
Y462500D03*
Y472500D03*
Y482500D03*
Y492500D03*
Y502500D03*
Y512500D03*
Y522500D03*
X930300Y412500D03*
Y422500D03*
Y432500D03*
Y442500D03*
Y452500D03*
Y462500D03*
Y472500D03*
Y482500D03*
Y492500D03*
Y502500D03*
Y512500D03*
Y522500D03*
Y1017300D03*
Y1027300D03*
Y1047300D03*
Y1037300D03*
Y1057300D03*
Y1067300D03*
Y1087300D03*
Y1077300D03*
Y1097300D03*
X940300Y422500D03*
Y432500D03*
Y442500D03*
Y452500D03*
Y462500D03*
Y472500D03*
Y482500D03*
Y492500D03*
Y502500D03*
Y512500D03*
Y522500D03*
Y1017300D03*
Y1027300D03*
Y1047300D03*
Y1037300D03*
Y1057300D03*
Y1067300D03*
Y1087300D03*
Y1077300D03*
Y1097300D03*
Y1107300D03*
G54D48*
X626929Y121811D03*
G54D39*
X202316Y1119587D03*
X239316D03*
X658716D03*
X695716D03*
G54D57*
X932363Y599467D03*
X940237Y607341D03*
Y615215D03*
X932363Y607341D03*
Y615215D03*
X940237Y623089D03*
X932363D03*
X940237Y630963D03*
Y638837D03*
X932363Y630963D03*
Y638837D03*
X940237Y646711D03*
Y654585D03*
X932363Y646711D03*
Y654585D03*
X940237Y662459D03*
Y670333D03*
X932363Y662459D03*
Y670333D03*
G54D58*
G01X0Y11811D02*
Y1188189D01*
G02X11811Y1200000I11811J0D01*
G01X948189D01*
G02X960000Y1188189I0J-11811D01*
G01Y11811D01*
G02X948189Y0I-11811J0D01*
G01X11811D01*
G02X0Y11811I0J11811D01*
G01X2700Y-206667D02*
X5100Y-208750D01*
X7800Y-210000D01*
X10200D01*
X12600Y-208750D01*
X14400Y-206667D01*
X15300Y-203750D01*
X14700Y-200834D01*
X13200Y-198334D01*
X10500Y-196666D01*
X6900Y-195833D01*
X4800Y-194167D01*
X3900Y-191250D01*
X4500Y-188333D01*
X6000Y-186250D01*
X8100Y-185000D01*
X10200D01*
X12300Y-185833D01*
X14100Y-187917D01*
G01X35100Y-197500D02*
X41100D01*
Y-205000D01*
X39300Y-207501D01*
X37200Y-209167D01*
X34200Y-210000D01*
X31200Y-209167D01*
X29100Y-207501D01*
X27300Y-205000D01*
X26100Y-202083D01*
X25500Y-198750D01*
Y-195833D01*
X26100Y-193334D01*
X27300Y-190416D01*
X29100Y-187917D01*
X30900Y-186250D01*
X33300Y-185000D01*
X35400D01*
X37800Y-185833D01*
X39600Y-187500D01*
G01X51900Y-189167D02*
X53700Y-186667D01*
X55800Y-185417D01*
X58200Y-185000D01*
X61200Y-185833D01*
X63300Y-187917D01*
X63900Y-190416D01*
X63600Y-192917D01*
X62400Y-195000D01*
X56400Y-199167D01*
X53700Y-202083D01*
X51900Y-206251D01*
X51300Y-210000D01*
X63900D01*
G01X81900Y-185000D02*
X79500Y-185833D01*
X77700Y-187917D01*
X76500Y-190416D01*
X75600Y-193750D01*
X75300Y-197500D01*
X75600Y-201250D01*
X76500Y-204584D01*
X77700Y-207084D01*
X79500Y-209167D01*
X81900Y-210000D01*
X84300Y-209167D01*
X86100Y-207084D01*
X87300Y-204584D01*
X88200Y-201250D01*
X88500Y-197500D01*
X88200Y-193750D01*
X87300Y-190416D01*
X86100Y-187917D01*
X84300Y-185833D01*
X81900Y-185000D01*
G01X109800Y-210000D02*
Y-185000D01*
X98700Y-202917D01*
X113700D01*
G01X124800Y-189167D02*
X126600Y-186667D01*
X128700Y-185417D01*
X131100Y-185000D01*
X134100Y-185833D01*
X136200Y-187917D01*
X136800Y-190416D01*
X136500Y-192917D01*
X135300Y-195000D01*
X129300Y-199167D01*
X126600Y-202083D01*
X124800Y-206251D01*
X124200Y-210000D01*
X136800D01*
G01X145800Y-218333D02*
X163800D01*
G01X185100Y-210000D02*
X173100D01*
Y-185000D01*
X185100D01*
G01X180300Y-197083D02*
X173100D01*
G01X195900Y-185000D02*
X203400Y-210000D01*
X210900Y-185000D01*
G01X230100Y-196666D02*
X231300Y-195417D01*
X232200Y-193334D01*
X232800Y-190416D01*
X232200Y-187917D01*
X231000Y-186250D01*
X228900Y-185000D01*
X220800D01*
Y-210000D01*
X230700D01*
X232800Y-208334D01*
X234000Y-205833D01*
X234600Y-202917D01*
X234000Y-200001D01*
X232200Y-197500D01*
X230100Y-196666D01*
X220800D01*
G01X243000Y-218333D02*
X261000D01*
G01X268800Y-185000D02*
X276300Y-210000D01*
X283800Y-185000D01*
G01X294900Y-189167D02*
X296700Y-186667D01*
X298800Y-185417D01*
X301200Y-185000D01*
X304200Y-185833D01*
X306300Y-187917D01*
X306900Y-190416D01*
X306600Y-192917D01*
X305400Y-195000D01*
X299400Y-199167D01*
X296700Y-202083D01*
X294900Y-206251D01*
X294300Y-210000D01*
X306900D01*
G01X315900Y-218333D02*
X333900D01*
G01X349200Y-185000D02*
X346800Y-185833D01*
X345000Y-187917D01*
X343800Y-190416D01*
X342900Y-193750D01*
X342600Y-197500D01*
X342900Y-201250D01*
X343800Y-204584D01*
X345000Y-207084D01*
X346800Y-209167D01*
X349200Y-210000D01*
X351600Y-209167D01*
X353400Y-207084D01*
X354600Y-204584D01*
X355500Y-201250D01*
X355800Y-197500D01*
X355500Y-193750D01*
X354600Y-190416D01*
X353400Y-187917D01*
X351600Y-185833D01*
X349200Y-185000D01*
G01X414600Y-210000D02*
X422100Y-185000D01*
X429600Y-210000D01*
G01X426900Y-201250D02*
X417300D01*
G01X440400Y-210000D02*
Y-185000D01*
X447900D01*
X450300Y-186250D01*
X451800Y-187917D01*
X452400Y-191250D01*
X451800Y-194584D01*
X450000Y-196666D01*
X447900Y-197917D01*
X440400D01*
G01X447900D02*
X452400Y-210000D01*
G01X470700Y-185000D02*
Y-210000D01*
G01X463800Y-185000D02*
X477600D01*
G01X486000D02*
X490200Y-210000D01*
X495000Y-185000D01*
X499800Y-210000D01*
X504000Y-185000D01*
G01X519300Y-210000D02*
X516900Y-209583D01*
X514800Y-207917D01*
X513000Y-205417D01*
X511800Y-202500D01*
X511200Y-199167D01*
Y-195833D01*
X511800Y-192500D01*
X513000Y-189583D01*
X514800Y-187084D01*
X516900Y-185417D01*
X519300Y-185000D01*
X521700Y-185417D01*
X523800Y-187084D01*
X525600Y-189583D01*
X526800Y-192500D01*
X527400Y-195833D01*
Y-199167D01*
X526800Y-202500D01*
X525600Y-205417D01*
X523800Y-207917D01*
X521700Y-209583D01*
X519300Y-210000D01*
G01X537600D02*
Y-185000D01*
X545100D01*
X547500Y-186250D01*
X549000Y-187917D01*
X549600Y-191250D01*
X549000Y-194584D01*
X547200Y-196666D01*
X545100Y-197917D01*
X537600D01*
G01X545100D02*
X549600Y-210000D01*
G01X561300D02*
Y-185000D01*
G01X572700D02*
X561300Y-200417D01*
G01X574500Y-210000D02*
X566400Y-193334D01*
G01X634500Y-206667D02*
X636900Y-208750D01*
X639600Y-210000D01*
X642000D01*
X644400Y-208750D01*
X646200Y-206667D01*
X647100Y-203750D01*
X646500Y-200834D01*
X645000Y-198334D01*
X642300Y-196666D01*
X638700Y-195833D01*
X636600Y-194167D01*
X635700Y-191250D01*
X636300Y-188333D01*
X637800Y-186250D01*
X639900Y-185000D01*
X642000D01*
X644100Y-185833D01*
X645900Y-187917D01*
G01X665100Y-210000D02*
X662700Y-209583D01*
X660600Y-207917D01*
X658800Y-205417D01*
X657600Y-202500D01*
X657000Y-199167D01*
Y-195833D01*
X657600Y-192500D01*
X658800Y-189583D01*
X660600Y-187084D01*
X662700Y-185417D01*
X665100Y-185000D01*
X667500Y-185417D01*
X669600Y-187084D01*
X671400Y-189583D01*
X672600Y-192500D01*
X673200Y-195833D01*
Y-199167D01*
X672600Y-202500D01*
X671400Y-205417D01*
X669600Y-207917D01*
X667500Y-209583D01*
X665100Y-210000D01*
G01X683400Y-185000D02*
Y-210000D01*
X695400D01*
G01X707100D02*
Y-185000D01*
X713100D01*
X715500Y-186250D01*
X717300Y-187917D01*
X718800Y-190416D01*
X720000Y-193334D01*
X720300Y-197500D01*
X720000Y-201667D01*
X718800Y-204584D01*
X717300Y-207084D01*
X715500Y-208750D01*
X713100Y-210000D01*
X707100D01*
G01X744000D02*
X732000D01*
Y-185000D01*
X744000D01*
G01X739200Y-197083D02*
X732000D01*
G01X756300Y-210000D02*
Y-185000D01*
X763800D01*
X766200Y-186250D01*
X767700Y-187917D01*
X768300Y-191250D01*
X767700Y-194584D01*
X765900Y-196666D01*
X763800Y-197917D01*
X756300D01*
G01X763800D02*
X768300Y-210000D01*
G01X778800D02*
Y-185000D01*
X786600Y-205833D01*
X794400Y-185000D01*
Y-210000D01*
G01X803400D02*
X810900Y-185000D01*
X818400Y-210000D01*
G01X815700Y-201250D02*
X806100D01*
G01X828900Y-206667D02*
X831300Y-208750D01*
X834000Y-210000D01*
X836400D01*
X838800Y-208750D01*
X840600Y-206667D01*
X841500Y-203750D01*
X840900Y-200834D01*
X839400Y-198334D01*
X836700Y-196666D01*
X833100Y-195833D01*
X831000Y-194167D01*
X830100Y-191250D01*
X830700Y-188333D01*
X832200Y-186250D01*
X834300Y-185000D01*
X836400D01*
X838500Y-185833D01*
X840300Y-187917D01*
G01X852900Y-210000D02*
Y-185000D01*
G01X864300D02*
X852900Y-200417D01*
G01X866100Y-210000D02*
X858000Y-193334D01*
G01X874800Y-218333D02*
X892800D01*
G01X910500Y-196666D02*
X911700Y-195417D01*
X912600Y-193334D01*
X913200Y-190416D01*
X912600Y-187917D01*
X911400Y-186250D01*
X909300Y-185000D01*
X901200D01*
Y-210000D01*
X911100D01*
X913200Y-208334D01*
X914400Y-205833D01*
X915000Y-202917D01*
X914400Y-200001D01*
X912600Y-197500D01*
X910500Y-196666D01*
X901200D01*
G01X932400Y-210000D02*
X930000Y-209583D01*
X927900Y-207917D01*
X926100Y-205417D01*
X924900Y-202500D01*
X924300Y-199167D01*
Y-195833D01*
X924900Y-192500D01*
X926100Y-189583D01*
X927900Y-187084D01*
X930000Y-185417D01*
X932400Y-185000D01*
X934800Y-185417D01*
X936900Y-187084D01*
X938700Y-189583D01*
X939900Y-192500D01*
X940500Y-195833D01*
Y-199167D01*
X939900Y-202500D01*
X938700Y-205417D01*
X936900Y-207917D01*
X934800Y-209583D01*
X932400Y-210000D01*
G01X956700Y-185000D02*
Y-210000D01*
G01X949800Y-185000D02*
X963600D01*
G01X981000D02*
Y-210000D01*
G01X974100Y-185000D02*
X987900D01*
G01X1005300Y-210000D02*
X1002900Y-209583D01*
X1000800Y-207917D01*
X999000Y-205417D01*
X997800Y-202500D01*
X997200Y-199167D01*
Y-195833D01*
X997800Y-192500D01*
X999000Y-189583D01*
X1000800Y-187084D01*
X1002900Y-185417D01*
X1005300Y-185000D01*
X1007700Y-185417D01*
X1009800Y-187084D01*
X1011600Y-189583D01*
X1012800Y-192500D01*
X1013400Y-195833D01*
Y-199167D01*
X1012800Y-202500D01*
X1011600Y-205417D01*
X1009800Y-207917D01*
X1007700Y-209583D01*
X1005300Y-210000D01*
G01X1021800D02*
Y-185000D01*
X1029600Y-205833D01*
X1037400Y-185000D01*
Y-210000D01*
G54D49*
X626929Y200551D03*
M02*
