G04 ================== begin FILE IDENTIFICATION RECORD ==================*
G04 Layout Name:  D:/Project/2023/1_SG2042_EVB_V_2_0/Gerber/SG2042_EVB_V2_0.brd*
G04 Film Name:    PASTEMASK_BOTTOM*
G04 File Format:  Gerber RS274X*
G04 File Origin:  Cadence Allegro 17.4-S029*
G04 Origin Date:  Fri Mar  3 18:18:45 2023*
G04 *
G04 Layer:  BOARD GEOMETRY/DESIGN_OUTLINE*
G04 Layer:  BOARD GEOMETRY/CUTOUT*
G04 Layer:  PACKAGE GEOMETRY/PASTEMASK_BOTTOM*
G04 Layer:  PIN/PASTEMASK_BOTTOM*
G04 *
G04 Offset:    (0.00 0.00)*
G04 Mirror:    No*
G04 Mode:      Positive*
G04 Rotation:  0*
G04 FullContactRelief:  No*
G04 UndefLineWidth:     6.00*
G04 ================== end FILE IDENTIFICATION RECORD ====================*
%FSLAX25Y25*MOIN*%
%IR0*IPPOS*OFA0.00000B0.00000*MIA0B0*SFA1.00000B1.00000*%
%ADD10C,.04*%
%ADD17R,.114X.095*%
%ADD13R,.02X.02*%
%ADD19O,.02X.022*%
%ADD20O,.022X.02*%
%ADD14R,.032X.03*%
%ADD11R,.03X.032*%
%ADD22R,.05X.045*%
%ADD18R,.045X.05*%
%ADD15R,.01181X.01181*%
%ADD12R,.055X.065*%
%ADD21R,.01181X.01181*%
%ADD23C,.25591*%
%ADD16R,.02953X.01575*%
%ADD24C,.006*%
G75*
%LPD*%
G75*
G54D10*
X-13748Y31496D03*
Y1168504D03*
X20000Y20000D03*
Y1180000D03*
X910000Y40000D03*
X973748Y51181D03*
Y1148819D03*
G54D11*
X19200Y972700D03*
X13400D03*
X19200Y977400D03*
X13400D03*
X94400Y972700D03*
Y977400D03*
X100200Y972700D03*
Y977400D03*
X126600Y581800D03*
X132600D03*
X131100Y1069000D03*
X137100D03*
X131100Y1074000D03*
X137100D03*
X408200Y421200D03*
X414200D03*
X419646Y824377D03*
X425446D03*
Y916175D03*
X419646D03*
X430046Y824377D03*
X435846D03*
X440446D03*
Y916175D03*
X435846D03*
X430046D03*
X452600Y177000D03*
X446246Y824377D03*
X450846D03*
X456646D03*
X446246Y916175D03*
X456646D03*
X450846D03*
X458600Y177000D03*
X462646Y824377D03*
X468446D03*
Y916175D03*
X462646D03*
X473046Y824377D03*
X478846D03*
X483446D03*
X478846Y916175D03*
X473046D03*
X483446D03*
X489246Y824377D03*
X493846D03*
X499646D03*
X489246Y916175D03*
X499646D03*
X493846D03*
X525100Y325900D03*
X531100D03*
X544100Y319100D03*
X549900D03*
X567200Y322100D03*
X563900Y345200D03*
X558100D03*
X573000Y322100D03*
X592400Y322000D03*
X586600D03*
X611700Y306300D03*
X609000Y362600D03*
X603200D03*
X609000Y367600D03*
X617500Y306300D03*
X628300D03*
X622300D03*
X615000Y367600D03*
X740400Y395400D03*
X734600D03*
X756700Y405000D03*
X762500D03*
X890400Y623000D03*
X896400D03*
G54D20*
X378968Y793504D03*
X374968D03*
X382842D03*
X390716Y797441D03*
X394716D03*
X398590D03*
X386842Y793504D03*
X398590Y801378D03*
X394716D03*
X390716D03*
X406464Y797441D03*
X410464D03*
X402590D03*
X410402Y809252D03*
X402590Y801378D03*
X410464Y903741D03*
X406464D03*
X414338Y797441D03*
X418338D03*
X422212D03*
X426212D03*
X414402Y809252D03*
X418276D03*
X422276D03*
X426150D03*
X437960Y797441D03*
X441960D03*
X430086D03*
X434086D03*
X434024Y809252D03*
X438024D03*
X441898D03*
X430150D03*
X445834Y797441D03*
X449834D03*
X453708D03*
X445898Y809252D03*
X449772D03*
X453772D03*
X457708Y797441D03*
X461584D03*
X465584D03*
X469458D03*
X457646Y809252D03*
X461646D03*
X465520D03*
X469520D03*
X473458Y797441D03*
X477332D03*
X481332D03*
X485206D03*
X473394Y809252D03*
X477394D03*
X481268D03*
X485268D03*
X493080Y797441D03*
X497080D03*
X489206D03*
X493080Y813189D03*
X497080D03*
X489142Y809252D03*
X493142D03*
X497016D03*
X497080Y817126D03*
X493080D03*
X500954Y797441D03*
X504954D03*
X508828D03*
X512828D03*
X504890Y809252D03*
X508890D03*
X512764D03*
X501016D03*
X500954Y813189D03*
X504954D03*
Y817126D03*
X500954D03*
X508828Y852559D03*
X512828D03*
X516702Y797441D03*
X520702D03*
X516764Y809252D03*
X532512Y793504D03*
X528512D03*
X540386D03*
X536386D03*
G54D21*
X375024Y821000D03*
X372976D03*
X375124Y919500D03*
X373076D03*
X544276Y821000D03*
X546324D03*
X544176Y919500D03*
X546224D03*
G54D12*
X20400Y983900D03*
X31400D03*
X89900D03*
X100900D03*
G54D22*
X375600Y1172800D03*
Y1165800D03*
X392700Y563700D03*
Y570700D03*
X415900Y1172800D03*
Y1165800D03*
X456200Y1172800D03*
Y1165800D03*
X496500Y1172800D03*
Y1165800D03*
X536800Y1172800D03*
Y1165800D03*
X577100Y1172800D03*
Y1165800D03*
G54D13*
X39200Y980700D03*
Y983900D03*
X52400Y626500D03*
Y629900D03*
X54200Y980700D03*
Y983900D03*
X55600Y626500D03*
Y629900D03*
X69200Y980700D03*
Y983900D03*
X90500Y584700D03*
X93700D03*
Y591800D03*
X90500D03*
X93700Y598600D03*
X90500D03*
X93700Y588100D03*
X90500D03*
Y595200D03*
X93700D03*
Y602300D03*
X90500D03*
X96900Y610300D03*
Y613500D03*
X84200Y980700D03*
Y983900D03*
X89800Y1048700D03*
X86600D03*
X108600Y584900D03*
Y581700D03*
X107400Y610300D03*
Y613500D03*
X100600Y610300D03*
Y613500D03*
X111100Y610300D03*
Y613500D03*
X104000D03*
Y610300D03*
X109800Y757900D03*
X103100D03*
X106300D03*
X109800Y761300D03*
X103100D03*
X106300D03*
X106000Y769800D03*
X109200D03*
X109800Y785000D03*
Y781600D03*
X103100D03*
X106300D03*
X103100Y785000D03*
X106300D03*
X106000Y773200D03*
X109200D03*
X109800Y828400D03*
X103100D03*
X106300D03*
X109800Y831800D03*
X103100D03*
X106300D03*
X106000Y840200D03*
X109200D03*
X106000Y843600D03*
X109200D03*
X109800Y852000D03*
Y855400D03*
X103100Y852000D03*
X106300D03*
X103100Y855400D03*
X106300D03*
X109400Y1043400D03*
Y1046600D03*
X109700Y1050100D03*
X106500D03*
X109700Y1056700D03*
X106500D03*
X111000Y1060200D03*
Y1063400D03*
X107600Y1060200D03*
Y1063400D03*
X112000Y584900D03*
Y581700D03*
X122300Y581800D03*
X119100D03*
Y588200D03*
X122300D03*
X119100Y596600D03*
X122300D03*
X119100Y592900D03*
X122300D03*
Y600000D03*
X119100D03*
Y603400D03*
X122300D03*
X115700Y610300D03*
Y613500D03*
X119100Y607000D03*
X122300D03*
Y610400D03*
X119100D03*
X113000Y757900D03*
Y761300D03*
Y785000D03*
Y781600D03*
Y828400D03*
Y831800D03*
Y852000D03*
Y855400D03*
X117300Y1043400D03*
X114100D03*
X123300Y1053200D03*
Y1049800D03*
Y1046400D03*
Y1056600D03*
Y1063400D03*
X114400Y1060200D03*
Y1063400D03*
X123300Y1060000D03*
X114600Y1068500D03*
X117800D03*
X122900D03*
X126100D03*
X118700Y1063400D03*
Y1060200D03*
X134400Y1040600D03*
X137600D03*
X134400Y1044000D03*
X137600D03*
X126500Y1053200D03*
Y1049800D03*
X129900Y1053100D03*
Y1049900D03*
X126500Y1046400D03*
Y1056600D03*
X134400Y1047400D03*
X137600D03*
X134400Y1057600D03*
X137600D03*
X134400Y1054200D03*
X137600D03*
X134400Y1050800D03*
X137600D03*
X134800Y1061300D03*
X131600D03*
X126500Y1063400D03*
X134800Y1064700D03*
X131600D03*
X126500Y1060000D03*
X152200Y981500D03*
Y978300D03*
X148800Y981500D03*
Y978300D03*
X145400Y981500D03*
Y978300D03*
X152200Y1015500D03*
Y1012300D03*
X148800Y1015500D03*
Y1012300D03*
X145400Y1015500D03*
Y1012300D03*
X169200Y981500D03*
Y978300D03*
X165800Y981500D03*
Y978300D03*
X162400Y981500D03*
Y978300D03*
X159000Y981500D03*
Y978300D03*
X155600Y981500D03*
Y978300D03*
X169200Y1015500D03*
Y1012300D03*
X165800Y1015500D03*
Y1012300D03*
X162400Y1015500D03*
Y1012300D03*
X159000Y1015500D03*
Y1012300D03*
X155600Y1015500D03*
Y1012300D03*
X169200Y1005300D03*
Y1002100D03*
X165800Y1005300D03*
Y1002100D03*
X406496Y856864D03*
Y872614D03*
Y867938D03*
Y864738D03*
Y860064D03*
Y880488D03*
Y883688D03*
Y875814D03*
Y899436D03*
Y896236D03*
Y888362D03*
Y891562D03*
X424700Y421200D03*
Y424400D03*
X418800Y421200D03*
Y424400D03*
X414200Y433700D03*
X417400D03*
X414200Y427800D03*
X417400D03*
X419200Y441000D03*
X415800D03*
X422600D03*
X419200Y444200D03*
X426000D03*
X415800D03*
X422600D03*
X436400Y252700D03*
X433200D03*
X436400Y266300D03*
X433200D03*
X436400Y269700D03*
X433200D03*
X436400Y259500D03*
X433200D03*
X436400Y262900D03*
X433200D03*
X436400Y256100D03*
X433200D03*
X431500Y421200D03*
Y424400D03*
X428100Y421200D03*
Y424400D03*
X432600Y441000D03*
X437200Y433700D03*
X434000D03*
X437200Y427800D03*
X434000D03*
X432600Y444200D03*
X429200D03*
X455300Y123600D03*
Y126800D03*
Y138200D03*
Y134800D03*
Y143600D03*
Y146800D03*
Y154100D03*
X448400Y247500D03*
Y244300D03*
X445000Y247500D03*
Y244300D03*
X455200Y247500D03*
Y244300D03*
X451800Y247500D03*
Y244300D03*
X468000Y108500D03*
X464800D03*
X468000Y103600D03*
X464800D03*
X463500Y115900D03*
Y119100D03*
X466900Y115900D03*
Y119100D03*
X458500Y138200D03*
Y134800D03*
Y154100D03*
X462900Y172100D03*
X466100D03*
X462900Y177000D03*
X466100D03*
X463800Y252700D03*
X467000D03*
X463800Y249300D03*
X467000D03*
X463800Y259500D03*
X467000D03*
X463800Y256100D03*
X467000D03*
X463800Y266300D03*
X467000D03*
X463800Y262900D03*
X467000D03*
X482000Y95300D03*
X485100Y108500D03*
Y111700D03*
X482000Y98500D03*
X475300Y168900D03*
X471900D03*
X478700Y182100D03*
X482100D03*
X475300Y172100D03*
X471900D03*
X478700Y185300D03*
X482100D03*
X478100Y1070000D03*
Y1066800D03*
X474700Y1063600D03*
Y1066800D03*
Y1070000D03*
Y1066800D03*
X478100Y1063600D03*
Y1066800D03*
X485400Y95300D03*
X488800D03*
X492200D03*
X488500Y111700D03*
Y108500D03*
X485400Y98500D03*
X488800D03*
X492200D03*
X512600Y95300D03*
X509200D03*
X511300Y108500D03*
X508100D03*
X511300Y103600D03*
X508100D03*
X512600Y98500D03*
X509200D03*
X512796Y856864D03*
Y872614D03*
Y867938D03*
Y864738D03*
Y860064D03*
Y880488D03*
Y883688D03*
Y875814D03*
Y899436D03*
Y896236D03*
Y888362D03*
Y891562D03*
X518900Y164500D03*
Y161300D03*
X523800Y164500D03*
Y161300D03*
X532100Y111400D03*
X528900D03*
X532100Y121600D03*
X528900D03*
X532100Y114800D03*
X528900D03*
Y131800D03*
X532100D03*
X528900Y128400D03*
X532100D03*
Y152200D03*
X528900D03*
X553000Y299300D03*
X556200D03*
X555300Y311100D03*
Y314300D03*
X547500Y338600D03*
X550700D03*
X547400Y359900D03*
Y363100D03*
X547300Y356500D03*
X544100D03*
X567300Y300700D03*
Y303900D03*
X560000Y309100D03*
X563200D03*
X560000Y312500D03*
X563200D03*
X560000Y315900D03*
X563200D03*
X560000Y319300D03*
X563200D03*
X560000Y325300D03*
X563200D03*
X566300Y329100D03*
Y332300D03*
X560000Y337700D03*
X563200D03*
X560000Y341100D03*
X563200D03*
X567900Y346600D03*
Y343400D03*
X571300Y346600D03*
Y343400D03*
X581300Y300700D03*
Y303900D03*
X584700Y300700D03*
Y303900D03*
X575200Y300700D03*
Y303900D03*
X571800Y300700D03*
Y303900D03*
X581300Y346600D03*
Y343400D03*
X575100Y346600D03*
Y343400D03*
X588100Y300700D03*
Y303900D03*
X592400Y300700D03*
Y303900D03*
X599600Y309100D03*
X596400D03*
X599600Y319300D03*
X596400D03*
Y328500D03*
Y331700D03*
X599600Y337300D03*
X596400D03*
X586000Y346600D03*
Y343400D03*
X589400Y346600D03*
Y343400D03*
X597400Y346600D03*
Y343400D03*
X594000Y346600D03*
Y343400D03*
X613000Y297600D03*
X609600D03*
X604100D03*
X613000Y300800D03*
X609600D03*
X604100D03*
X601000Y312600D03*
Y315800D03*
X606600Y333900D03*
X603400D03*
X610000Y334700D03*
Y337900D03*
X613400Y334700D03*
Y337900D03*
X612900Y353100D03*
X609700D03*
X612900Y349700D03*
X609700D03*
X612900Y356500D03*
X609700D03*
X615300Y346600D03*
X618500D03*
X697500Y408100D03*
Y404700D03*
X706700Y363200D03*
X703500D03*
X713000Y366300D03*
X709800D03*
X709100Y394900D03*
Y398100D03*
X712500Y394900D03*
Y398100D03*
X700700Y408100D03*
Y404700D03*
X712200Y411100D03*
X712500Y402600D03*
Y405800D03*
X704200Y402400D03*
X707400D03*
X712200Y414300D03*
X713100Y417700D03*
X726300Y380400D03*
Y377200D03*
X726200Y401700D03*
Y405100D03*
X716100Y402500D03*
X719300D03*
X716100Y407200D03*
X719300D03*
X715600Y411100D03*
Y414300D03*
X716300Y417700D03*
X742800Y358300D03*
X731800Y380600D03*
X735000D03*
X738800Y386000D03*
X742000D03*
X729400Y401700D03*
Y405100D03*
X741300Y411200D03*
Y408000D03*
Y403300D03*
Y400100D03*
X735000Y417200D03*
Y414000D03*
X738400Y421100D03*
Y424300D03*
X746000Y358300D03*
X755400Y369400D03*
X752200D03*
X755400Y358300D03*
X753800Y376500D03*
Y379700D03*
X744400Y376500D03*
Y379700D03*
X756700Y383200D03*
Y393100D03*
Y389900D03*
Y386400D03*
X751000Y395400D03*
X747800D03*
X744400Y389400D03*
Y392600D03*
X756700Y410200D03*
X747500Y416800D03*
Y413600D03*
X753900Y416800D03*
Y413600D03*
X758600Y358300D03*
X759900Y410200D03*
X766800Y410400D03*
X770200D03*
X766800Y413600D03*
X770200D03*
X762400Y431600D03*
Y428400D03*
X773600Y410400D03*
Y413600D03*
X854300Y625900D03*
X857500D03*
Y633000D03*
X854300D03*
X857500Y639800D03*
X854300D03*
X857500Y629300D03*
X854300D03*
Y636400D03*
X857500D03*
Y643500D03*
X854300D03*
X853400Y1098400D03*
X856600D03*
X864500Y268400D03*
X861300D03*
X864500Y271800D03*
X861300D03*
X864500Y275200D03*
X861300D03*
X864500Y279100D03*
X861300D03*
X871500Y290800D03*
Y294000D03*
X864400Y290800D03*
Y294000D03*
X864500Y287000D03*
X861300D03*
X872400Y626100D03*
Y622900D03*
X871200Y651500D03*
Y654700D03*
X864400Y651500D03*
Y654700D03*
X860700Y651500D03*
Y654700D03*
X867800D03*
Y651500D03*
X862500Y1086900D03*
X862100Y1081900D03*
Y1078700D03*
X872300D03*
Y1081900D03*
X868900Y1078700D03*
Y1081900D03*
X865500Y1078700D03*
Y1081900D03*
X862500Y1090100D03*
X871300Y1098000D03*
X858600Y1094000D03*
Y1090800D03*
X871300Y1090100D03*
X865900Y1101400D03*
X869100D03*
X872500Y1108300D03*
X869300D03*
X864500D03*
X861300D03*
X885900Y269300D03*
X876200Y269400D03*
Y266200D03*
X885900Y279100D03*
Y290900D03*
X874900Y290800D03*
Y294000D03*
X875800Y626100D03*
Y622900D03*
X886100Y623000D03*
X882900D03*
Y629400D03*
X886100D03*
X882900Y637800D03*
X886100D03*
X882900Y634100D03*
X886100D03*
Y641200D03*
X882900D03*
Y644600D03*
X886100D03*
X879500Y651500D03*
Y654700D03*
X882900Y648200D03*
X886100D03*
X874900Y651500D03*
Y654700D03*
X886100Y651600D03*
X882900D03*
X880700Y1086300D03*
Y1083100D03*
Y1079600D03*
Y1076400D03*
X875700Y1078700D03*
Y1081900D03*
X874500Y1098000D03*
Y1090100D03*
X889100Y269300D03*
Y279100D03*
Y290900D03*
G54D23*
X785393Y161181D03*
X856260D03*
X935000D03*
G54D14*
X91300Y606500D03*
Y612500D03*
X103300Y1069400D03*
Y1063400D03*
X123400Y614700D03*
Y620700D03*
X414724Y827376D03*
Y821576D03*
Y841976D03*
Y837576D03*
Y831776D03*
Y857976D03*
Y852176D03*
Y847776D03*
Y872576D03*
Y868176D03*
Y862376D03*
Y882776D03*
Y878376D03*
Y898776D03*
Y892976D03*
Y888576D03*
Y913376D03*
Y908976D03*
Y903176D03*
Y919176D03*
X459600Y123600D03*
Y129600D03*
X504568Y821576D03*
Y827376D03*
Y841976D03*
Y831776D03*
Y837576D03*
Y852176D03*
Y857976D03*
Y847776D03*
Y872576D03*
Y862376D03*
Y868176D03*
Y882776D03*
Y878376D03*
Y892976D03*
Y898776D03*
Y888576D03*
Y913376D03*
Y903176D03*
Y908976D03*
Y919176D03*
X578300Y309850D03*
Y315650D03*
Y339400D03*
Y333600D03*
X597800Y297700D03*
Y303500D03*
X600400Y323900D03*
Y329700D03*
X617500Y338100D03*
Y332300D03*
X716600Y398600D03*
Y392800D03*
X855100Y647700D03*
Y653700D03*
X849100Y1098400D03*
Y1104400D03*
X886100Y655900D03*
Y661900D03*
G54D24*
G01X0Y11811D02*
Y1188189D01*
G02X11811Y1200000I11811J0D01*
G01X948189D01*
G02X960000Y1188189I0J-11811D01*
G01Y11811D01*
G02X948189Y0I-11811J0D01*
G01X11811D01*
G02X0Y11811I0J11811D01*
G01X2700Y-206667D02*
X5100Y-208750D01*
X7800Y-210000D01*
X10200D01*
X12600Y-208750D01*
X14400Y-206667D01*
X15300Y-203750D01*
X14700Y-200834D01*
X13200Y-198334D01*
X10500Y-196666D01*
X6900Y-195833D01*
X4800Y-194167D01*
X3900Y-191250D01*
X4500Y-188333D01*
X6000Y-186250D01*
X8100Y-185000D01*
X10200D01*
X12300Y-185833D01*
X14100Y-187917D01*
G01X35100Y-197500D02*
X41100D01*
Y-205000D01*
X39300Y-207501D01*
X37200Y-209167D01*
X34200Y-210000D01*
X31200Y-209167D01*
X29100Y-207501D01*
X27300Y-205000D01*
X26100Y-202083D01*
X25500Y-198750D01*
Y-195833D01*
X26100Y-193334D01*
X27300Y-190416D01*
X29100Y-187917D01*
X30900Y-186250D01*
X33300Y-185000D01*
X35400D01*
X37800Y-185833D01*
X39600Y-187500D01*
G01X51900Y-189167D02*
X53700Y-186667D01*
X55800Y-185417D01*
X58200Y-185000D01*
X61200Y-185833D01*
X63300Y-187917D01*
X63900Y-190416D01*
X63600Y-192917D01*
X62400Y-195000D01*
X56400Y-199167D01*
X53700Y-202083D01*
X51900Y-206251D01*
X51300Y-210000D01*
X63900D01*
G01X81900Y-185000D02*
X79500Y-185833D01*
X77700Y-187917D01*
X76500Y-190416D01*
X75600Y-193750D01*
X75300Y-197500D01*
X75600Y-201250D01*
X76500Y-204584D01*
X77700Y-207084D01*
X79500Y-209167D01*
X81900Y-210000D01*
X84300Y-209167D01*
X86100Y-207084D01*
X87300Y-204584D01*
X88200Y-201250D01*
X88500Y-197500D01*
X88200Y-193750D01*
X87300Y-190416D01*
X86100Y-187917D01*
X84300Y-185833D01*
X81900Y-185000D01*
G01X109800Y-210000D02*
Y-185000D01*
X98700Y-202917D01*
X113700D01*
G01X124800Y-189167D02*
X126600Y-186667D01*
X128700Y-185417D01*
X131100Y-185000D01*
X134100Y-185833D01*
X136200Y-187917D01*
X136800Y-190416D01*
X136500Y-192917D01*
X135300Y-195000D01*
X129300Y-199167D01*
X126600Y-202083D01*
X124800Y-206251D01*
X124200Y-210000D01*
X136800D01*
G01X145800Y-218333D02*
X163800D01*
G01X185100Y-210000D02*
X173100D01*
Y-185000D01*
X185100D01*
G01X180300Y-197083D02*
X173100D01*
G01X195900Y-185000D02*
X203400Y-210000D01*
X210900Y-185000D01*
G01X230100Y-196666D02*
X231300Y-195417D01*
X232200Y-193334D01*
X232800Y-190416D01*
X232200Y-187917D01*
X231000Y-186250D01*
X228900Y-185000D01*
X220800D01*
Y-210000D01*
X230700D01*
X232800Y-208334D01*
X234000Y-205833D01*
X234600Y-202917D01*
X234000Y-200001D01*
X232200Y-197500D01*
X230100Y-196666D01*
X220800D01*
G01X243000Y-218333D02*
X261000D01*
G01X268800Y-185000D02*
X276300Y-210000D01*
X283800Y-185000D01*
G01X294900Y-189167D02*
X296700Y-186667D01*
X298800Y-185417D01*
X301200Y-185000D01*
X304200Y-185833D01*
X306300Y-187917D01*
X306900Y-190416D01*
X306600Y-192917D01*
X305400Y-195000D01*
X299400Y-199167D01*
X296700Y-202083D01*
X294900Y-206251D01*
X294300Y-210000D01*
X306900D01*
G01X315900Y-218333D02*
X333900D01*
G01X349200Y-185000D02*
X346800Y-185833D01*
X345000Y-187917D01*
X343800Y-190416D01*
X342900Y-193750D01*
X342600Y-197500D01*
X342900Y-201250D01*
X343800Y-204584D01*
X345000Y-207084D01*
X346800Y-209167D01*
X349200Y-210000D01*
X351600Y-209167D01*
X353400Y-207084D01*
X354600Y-204584D01*
X355500Y-201250D01*
X355800Y-197500D01*
X355500Y-193750D01*
X354600Y-190416D01*
X353400Y-187917D01*
X351600Y-185833D01*
X349200Y-185000D01*
G01X414600Y-210000D02*
X422100Y-185000D01*
X429600Y-210000D01*
G01X426900Y-201250D02*
X417300D01*
G01X440400Y-210000D02*
Y-185000D01*
X447900D01*
X450300Y-186250D01*
X451800Y-187917D01*
X452400Y-191250D01*
X451800Y-194584D01*
X450000Y-196666D01*
X447900Y-197917D01*
X440400D01*
G01X447900D02*
X452400Y-210000D01*
G01X470700Y-185000D02*
Y-210000D01*
G01X463800Y-185000D02*
X477600D01*
G01X486000D02*
X490200Y-210000D01*
X495000Y-185000D01*
X499800Y-210000D01*
X504000Y-185000D01*
G01X519300Y-210000D02*
X516900Y-209583D01*
X514800Y-207917D01*
X513000Y-205417D01*
X511800Y-202500D01*
X511200Y-199167D01*
Y-195833D01*
X511800Y-192500D01*
X513000Y-189583D01*
X514800Y-187084D01*
X516900Y-185417D01*
X519300Y-185000D01*
X521700Y-185417D01*
X523800Y-187084D01*
X525600Y-189583D01*
X526800Y-192500D01*
X527400Y-195833D01*
Y-199167D01*
X526800Y-202500D01*
X525600Y-205417D01*
X523800Y-207917D01*
X521700Y-209583D01*
X519300Y-210000D01*
G01X537600D02*
Y-185000D01*
X545100D01*
X547500Y-186250D01*
X549000Y-187917D01*
X549600Y-191250D01*
X549000Y-194584D01*
X547200Y-196666D01*
X545100Y-197917D01*
X537600D01*
G01X545100D02*
X549600Y-210000D01*
G01X561300D02*
Y-185000D01*
G01X572700D02*
X561300Y-200417D01*
G01X574500Y-210000D02*
X566400Y-193334D01*
G01X634800Y-210000D02*
Y-185000D01*
X642000D01*
X644400Y-186250D01*
X646200Y-189167D01*
X646800Y-192500D01*
X646200Y-195833D01*
X644700Y-198334D01*
X642000Y-199584D01*
X634800D01*
G01X657600Y-210000D02*
X665100Y-185000D01*
X672600Y-210000D01*
G01X669900Y-201250D02*
X660300D01*
G01X683100Y-206667D02*
X685500Y-208750D01*
X688200Y-210000D01*
X690600D01*
X693000Y-208750D01*
X694800Y-206667D01*
X695700Y-203750D01*
X695100Y-200834D01*
X693600Y-198334D01*
X690900Y-196666D01*
X687300Y-195833D01*
X685200Y-194167D01*
X684300Y-191250D01*
X684900Y-188333D01*
X686400Y-186250D01*
X688500Y-185000D01*
X690600D01*
X692700Y-185833D01*
X694500Y-187917D01*
G01X713700Y-185000D02*
Y-210000D01*
G01X706800Y-185000D02*
X720600D01*
G01X744000Y-210000D02*
X732000D01*
Y-185000D01*
X744000D01*
G01X739200Y-197083D02*
X732000D01*
G01X754500Y-210000D02*
Y-185000D01*
X762300Y-205833D01*
X770100Y-185000D01*
Y-210000D01*
G01X779100D02*
X786600Y-185000D01*
X794100Y-210000D01*
G01X791400Y-201250D02*
X781800D01*
G01X804600Y-206667D02*
X807000Y-208750D01*
X809700Y-210000D01*
X812100D01*
X814500Y-208750D01*
X816300Y-206667D01*
X817200Y-203750D01*
X816600Y-200834D01*
X815100Y-198334D01*
X812400Y-196666D01*
X808800Y-195833D01*
X806700Y-194167D01*
X805800Y-191250D01*
X806400Y-188333D01*
X807900Y-186250D01*
X810000Y-185000D01*
X812100D01*
X814200Y-185833D01*
X816000Y-187917D01*
G01X828600Y-210000D02*
Y-185000D01*
G01X840000D02*
X828600Y-200417D01*
G01X841800Y-210000D02*
X833700Y-193334D01*
G01X850500Y-218333D02*
X868500D01*
G01X886200Y-196666D02*
X887400Y-195417D01*
X888300Y-193334D01*
X888900Y-190416D01*
X888300Y-187917D01*
X887100Y-186250D01*
X885000Y-185000D01*
X876900D01*
Y-210000D01*
X886800D01*
X888900Y-208334D01*
X890100Y-205833D01*
X890700Y-202917D01*
X890100Y-200001D01*
X888300Y-197500D01*
X886200Y-196666D01*
X876900D01*
G01X908100Y-210000D02*
X905700Y-209583D01*
X903600Y-207917D01*
X901800Y-205417D01*
X900600Y-202500D01*
X900000Y-199167D01*
Y-195833D01*
X900600Y-192500D01*
X901800Y-189583D01*
X903600Y-187084D01*
X905700Y-185417D01*
X908100Y-185000D01*
X910500Y-185417D01*
X912600Y-187084D01*
X914400Y-189583D01*
X915600Y-192500D01*
X916200Y-195833D01*
Y-199167D01*
X915600Y-202500D01*
X914400Y-205417D01*
X912600Y-207917D01*
X910500Y-209583D01*
X908100Y-210000D01*
G01X932400Y-185000D02*
Y-210000D01*
G01X925500Y-185000D02*
X939300D01*
G01X956700D02*
Y-210000D01*
G01X949800Y-185000D02*
X963600D01*
G01X981000Y-210000D02*
X978600Y-209583D01*
X976500Y-207917D01*
X974700Y-205417D01*
X973500Y-202500D01*
X972900Y-199167D01*
Y-195833D01*
X973500Y-192500D01*
X974700Y-189583D01*
X976500Y-187084D01*
X978600Y-185417D01*
X981000Y-185000D01*
X983400Y-185417D01*
X985500Y-187084D01*
X987300Y-189583D01*
X988500Y-192500D01*
X989100Y-195833D01*
Y-199167D01*
X988500Y-202500D01*
X987300Y-205417D01*
X985500Y-207917D01*
X983400Y-209583D01*
X981000Y-210000D01*
G01X997500D02*
Y-185000D01*
X1005300Y-205833D01*
X1013100Y-185000D01*
Y-210000D01*
G54D15*
X89300Y660176D03*
Y662224D03*
Y666624D03*
Y664576D03*
Y668976D03*
Y671024D03*
Y675424D03*
Y673376D03*
Y684224D03*
Y682176D03*
Y677776D03*
Y679824D03*
Y686576D03*
Y688624D03*
Y693024D03*
Y690976D03*
X100200Y756376D03*
Y768276D03*
Y770324D03*
Y758424D03*
Y762824D03*
Y760776D03*
Y774724D03*
Y772676D03*
Y780076D03*
Y782124D03*
Y784476D03*
Y786524D03*
Y826876D03*
Y828924D03*
Y843076D03*
Y833324D03*
Y831276D03*
Y838676D03*
Y840724D03*
Y845124D03*
Y850476D03*
Y852524D03*
Y856924D03*
Y854876D03*
G54D16*
X103958Y769925D03*
X111242D03*
X103958Y773075D03*
X111242D03*
X103958Y843475D03*
X111242D03*
X103958Y840325D03*
X111242D03*
G54D17*
X155400Y770792D03*
Y794808D03*
X175200Y770792D03*
Y794808D03*
X349000Y1108792D03*
Y1132808D03*
X368800Y1108792D03*
Y1132808D03*
X389300Y1108792D03*
Y1132808D03*
X399500Y597192D03*
Y621208D03*
X409100Y1108792D03*
Y1132808D03*
X419300Y597192D03*
Y621208D03*
X429600Y1108792D03*
Y1132808D03*
X454000Y606192D03*
Y630208D03*
X449400Y1108792D03*
Y1132808D03*
X469900Y1108792D03*
Y1132808D03*
X489700Y1108792D03*
Y1132808D03*
X510200Y1108792D03*
Y1132808D03*
X530000Y1108792D03*
Y1132808D03*
X550500Y1108792D03*
Y1132808D03*
X570300Y1108792D03*
Y1132808D03*
X744000Y770792D03*
Y794808D03*
X763800Y770792D03*
Y794808D03*
G54D18*
X169600Y731300D03*
X162600D03*
X169600Y738200D03*
X162600D03*
X758200Y731300D03*
X751200D03*
X758200Y738200D03*
X751200D03*
G54D19*
X355315Y797410D03*
Y801410D03*
X351378Y927332D03*
Y931332D03*
Y951016D03*
Y947016D03*
X363189Y797410D03*
Y801410D03*
Y805284D03*
Y809284D03*
X367126Y828906D03*
Y832906D03*
X359252Y927332D03*
X367126D03*
X359252Y943080D03*
X367126Y939142D03*
Y943142D03*
X359252Y931332D03*
X367126D03*
X359252Y947080D03*
X375000Y797410D03*
X378937D03*
X382874D03*
X378937Y813158D03*
X382874D03*
X371063Y809284D03*
Y805284D03*
X375000D03*
Y809284D03*
X382874Y805284D03*
Y809284D03*
X375000Y801410D03*
X378937D03*
X382874D03*
X375000Y828906D03*
X378937D03*
X382874D03*
Y821032D03*
Y825032D03*
X378937Y817158D03*
X382874D03*
X378937Y840780D03*
Y836780D03*
X382874D03*
Y840780D03*
X375000Y832906D03*
X378937D03*
X382874D03*
X375000Y836780D03*
Y840780D03*
X382874Y852528D03*
Y856528D03*
X378937Y848654D03*
Y844654D03*
X382874D03*
Y848654D03*
Y868276D03*
Y872276D03*
Y860402D03*
Y864402D03*
Y884024D03*
Y876150D03*
Y880150D03*
Y899772D03*
Y891898D03*
Y895898D03*
Y888024D03*
Y915520D03*
X378937Y911646D03*
Y907646D03*
X382874D03*
Y911646D03*
Y903772D03*
X375000Y927332D03*
X382874Y923394D03*
Y927394D03*
Y919520D03*
X371063Y927332D03*
X378937Y943142D03*
Y939142D03*
X382874D03*
Y943142D03*
X375000Y931332D03*
X382874Y931268D03*
Y935268D03*
X371063Y931332D03*
X378937Y951016D03*
Y947016D03*
X382874D03*
Y951016D03*
X386811Y797410D03*
Y813158D03*
X390748D03*
X386811Y809284D03*
Y805284D03*
X390748D03*
Y809284D03*
X386811Y801410D03*
X398622Y805284D03*
Y809284D03*
X394685D03*
Y805284D03*
X398622Y813158D03*
X394685D03*
X386811Y828906D03*
X390748D03*
X386811Y825032D03*
Y821032D03*
X390748D03*
Y825032D03*
X386811Y817158D03*
X390748D03*
X398622Y821032D03*
Y825032D03*
Y817158D03*
X394685D03*
Y825032D03*
Y821032D03*
X398622Y828906D03*
X394685D03*
X386811Y840780D03*
Y836780D03*
X390748D03*
Y840780D03*
X386811Y832906D03*
X390748D03*
X398622D03*
X394685D03*
X398622Y836780D03*
Y840780D03*
X394685D03*
Y836780D03*
X386811Y856528D03*
Y852528D03*
X390748D03*
Y856528D03*
X386811Y848654D03*
Y844654D03*
X390748D03*
Y848654D03*
X398622Y852528D03*
Y856528D03*
Y844654D03*
Y848654D03*
X394685D03*
Y844654D03*
Y856528D03*
Y852528D03*
X386811Y872276D03*
Y868276D03*
X390748D03*
Y872276D03*
X386811Y864402D03*
Y860402D03*
X390748D03*
Y864402D03*
X398622Y860402D03*
Y864402D03*
X394685D03*
Y860402D03*
X398622Y868276D03*
Y872276D03*
X394685D03*
Y868276D03*
X386811Y884024D03*
X390748D03*
X386811Y880150D03*
Y876150D03*
X390748D03*
Y880150D03*
X398622Y884024D03*
Y876150D03*
Y880150D03*
X394685D03*
Y876150D03*
Y884024D03*
X386811Y899772D03*
X390748D03*
X386811Y895898D03*
Y891898D03*
X390748D03*
Y895898D03*
X386811Y888024D03*
X390748D03*
X398622D03*
X394685D03*
X398622Y891898D03*
Y895898D03*
X394685D03*
Y891898D03*
X398622Y899772D03*
X394685D03*
X386811Y915520D03*
X390748D03*
X386811Y911646D03*
Y907646D03*
X390748D03*
Y911646D03*
X386811Y903772D03*
X390748D03*
X394685Y915520D03*
X398622D03*
Y903772D03*
X394685D03*
X398622Y907646D03*
Y911646D03*
X394685D03*
Y907646D03*
X386811Y927394D03*
Y923394D03*
X390748D03*
Y927394D03*
X386811Y919520D03*
X390748D03*
X394685Y927394D03*
Y923394D03*
X398622D03*
Y927394D03*
X394685Y919520D03*
X398622D03*
X386811Y943142D03*
Y939142D03*
X390748D03*
Y943142D03*
X386811Y935268D03*
Y931268D03*
X390748D03*
Y935268D03*
X394685Y943142D03*
Y939142D03*
X398622D03*
Y943142D03*
X394685Y935268D03*
Y931268D03*
X398622D03*
Y935268D03*
X386811Y951016D03*
Y947016D03*
X390748D03*
Y951016D03*
X410433Y801346D03*
Y805346D03*
X402559Y813158D03*
Y809284D03*
Y805284D03*
X410433Y813158D03*
X402559Y828906D03*
Y825032D03*
Y821032D03*
Y817158D03*
X410433Y828906D03*
Y817158D03*
Y825032D03*
Y821032D03*
X402559Y840780D03*
Y836780D03*
Y832906D03*
X410433D03*
Y840780D03*
Y836780D03*
Y856464D03*
X402559Y848654D03*
Y844654D03*
X410433Y848654D03*
Y844654D03*
X402559Y856528D03*
Y852528D03*
X410433Y868338D03*
Y864338D03*
Y860464D03*
Y872214D03*
X402559Y864402D03*
Y860402D03*
Y868276D03*
Y872276D03*
X410433Y880088D03*
Y884088D03*
Y876214D03*
X402559Y880150D03*
Y876150D03*
Y884024D03*
X410433Y899836D03*
Y895836D03*
Y887962D03*
Y891962D03*
X402559Y888024D03*
Y895898D03*
Y891898D03*
Y899772D03*
Y915520D03*
X410433Y911646D03*
Y907646D03*
Y915520D03*
X402559Y903772D03*
Y911646D03*
Y907646D03*
Y927394D03*
Y923394D03*
Y919520D03*
X410433Y927394D03*
Y923394D03*
Y919520D03*
X402559Y943142D03*
Y939142D03*
Y935268D03*
Y931268D03*
X410433Y943142D03*
Y939142D03*
Y935268D03*
Y931268D03*
X418307Y801346D03*
Y805346D03*
X422244D03*
Y801346D03*
X426181D03*
Y805346D03*
X414370D03*
Y801346D03*
X418307Y813158D03*
X426181D03*
X414370D03*
X422244D03*
X419007Y828906D03*
X426681D03*
X418307Y817158D03*
X426181D03*
X422844Y828906D03*
X414370Y817158D03*
X422244D03*
X419007Y832906D03*
X426681D03*
X422844Y836780D03*
Y840780D03*
Y832906D03*
X419007Y840780D03*
Y836780D03*
X426681Y840780D03*
Y836780D03*
X422844Y852528D03*
Y856528D03*
X419007Y848654D03*
Y844654D03*
X426681Y848654D03*
Y844654D03*
X419007Y856528D03*
Y852528D03*
X426681Y856528D03*
Y852528D03*
X422844Y844654D03*
Y848654D03*
X419007Y872276D03*
Y868276D03*
X422844D03*
Y872276D03*
X426681D03*
Y868276D03*
X419007Y864402D03*
Y860402D03*
X426681Y864402D03*
Y860402D03*
X422844D03*
Y864402D03*
Y884024D03*
X419007Y880150D03*
Y876150D03*
X426681Y880150D03*
Y876150D03*
X419007Y884024D03*
X426681D03*
X422844Y876150D03*
Y880150D03*
Y899772D03*
X419007Y895898D03*
Y891898D03*
X426681Y895898D03*
Y891898D03*
X422844Y888024D03*
X419007Y899772D03*
X426681D03*
X422844Y891898D03*
Y895898D03*
X419007Y888024D03*
X426681D03*
X419007Y911646D03*
Y907646D03*
X426681Y911646D03*
Y907646D03*
X422844Y903772D03*
Y907646D03*
Y911646D03*
X419007Y903772D03*
X426681D03*
X418307Y927394D03*
Y923394D03*
X426181Y927394D03*
Y923394D03*
X414370D03*
Y927394D03*
X422244Y923394D03*
Y927394D03*
X418307Y943142D03*
Y939142D03*
X426181Y943142D03*
Y939142D03*
X414370Y931268D03*
Y935268D03*
X422244Y931268D03*
Y935268D03*
X414370Y939142D03*
Y943142D03*
X422244Y939142D03*
Y943142D03*
X418307Y935268D03*
Y931268D03*
X426181Y935268D03*
Y931268D03*
X430118Y805346D03*
Y801346D03*
X434055D03*
Y805346D03*
X437992D03*
Y801346D03*
X441929D03*
Y805346D03*
X430118Y813158D03*
X434055D03*
X437992D03*
X441929D03*
X430118Y817158D03*
X434055D03*
X437992D03*
X441929D03*
X434355Y828906D03*
X442029D03*
X430518D03*
X438192D03*
X434355Y832906D03*
X442029D03*
X430518Y836780D03*
Y840780D03*
X438192Y836780D03*
Y840780D03*
X434355D03*
Y836780D03*
X442029Y840780D03*
Y836780D03*
X430518Y832906D03*
X438192D03*
X430518Y852528D03*
Y856528D03*
X438192Y852528D03*
Y856528D03*
X434355Y848654D03*
Y844654D03*
X442029Y848654D03*
Y844654D03*
X434355Y856528D03*
Y852528D03*
X442029Y856528D03*
Y852528D03*
X430518Y844654D03*
Y848654D03*
X438192Y844654D03*
Y848654D03*
X430518Y868276D03*
Y872276D03*
X434355D03*
Y868276D03*
X438192D03*
Y872276D03*
X442029D03*
Y868276D03*
X434355Y864402D03*
Y860402D03*
X442029Y864402D03*
Y860402D03*
X430518D03*
Y864402D03*
X438192Y860402D03*
Y864402D03*
X430518Y884024D03*
X438192D03*
X434355Y880150D03*
Y876150D03*
X442029Y880150D03*
Y876150D03*
X434355Y884024D03*
X442029D03*
X430518Y876150D03*
Y880150D03*
X438192Y876150D03*
Y880150D03*
X430518Y899772D03*
X438192D03*
X434355Y895898D03*
Y891898D03*
X442029Y895898D03*
Y891898D03*
X430518Y888024D03*
X438192D03*
X434355Y899772D03*
X442029D03*
X430518Y891898D03*
Y895898D03*
X438192Y891898D03*
Y895898D03*
X434355Y888024D03*
X442029D03*
X434355Y911646D03*
Y907646D03*
X442029Y911646D03*
Y907646D03*
X430518Y903772D03*
X438192D03*
X430518Y907646D03*
Y911646D03*
X438192Y907646D03*
Y911646D03*
X434355Y903772D03*
X442029D03*
X434055Y927394D03*
Y923394D03*
X441929Y927394D03*
Y923394D03*
X430118D03*
Y927394D03*
X437992Y923394D03*
Y927394D03*
X434055Y943142D03*
Y939142D03*
X441929Y943142D03*
Y939142D03*
X430118Y931268D03*
Y935268D03*
X437992Y931268D03*
Y935268D03*
X430118Y939142D03*
Y943142D03*
X437992Y939142D03*
Y943142D03*
X434055Y935268D03*
Y931268D03*
X441929Y935268D03*
Y931268D03*
X445866Y805346D03*
Y801346D03*
X449803D03*
Y805346D03*
X453740D03*
Y801346D03*
X449803Y813158D03*
X445866D03*
X453740D03*
X449803Y817158D03*
X445866D03*
X453740D03*
X445866Y828906D03*
X453640D03*
X449803D03*
X453640Y836780D03*
Y840780D03*
X445866Y836780D03*
Y840780D03*
X449803D03*
Y836780D03*
X445866Y832906D03*
X453640D03*
X449803D03*
X445866Y852528D03*
Y856528D03*
X453640Y852528D03*
Y856528D03*
X449803Y848654D03*
Y844654D03*
Y856528D03*
Y852528D03*
X445866Y844654D03*
Y848654D03*
X453640Y844654D03*
Y848654D03*
X445866Y868276D03*
Y872276D03*
X449803D03*
Y868276D03*
X453640D03*
Y872276D03*
X449803Y864402D03*
Y860402D03*
X445866D03*
Y864402D03*
X453640Y860402D03*
Y864402D03*
X445866Y884024D03*
X453640D03*
X449803Y880150D03*
Y876150D03*
Y884024D03*
X445866Y876150D03*
Y880150D03*
X453640Y876150D03*
Y880150D03*
X445866Y899772D03*
X453640D03*
X449803Y895898D03*
Y891898D03*
X445866Y888024D03*
X453640D03*
X449803Y899772D03*
X445866Y891898D03*
Y895898D03*
X453640Y891898D03*
Y895898D03*
X449803Y888024D03*
Y911646D03*
Y907646D03*
X445866Y903772D03*
X453640D03*
X445866Y907646D03*
Y911646D03*
X453640Y907646D03*
Y911646D03*
X449803Y903772D03*
Y927394D03*
Y923394D03*
X445866D03*
Y927394D03*
X453640Y923394D03*
Y927394D03*
X449803Y943142D03*
Y939142D03*
X445866Y931268D03*
Y935268D03*
X453640Y931268D03*
Y935268D03*
X445866Y939142D03*
Y943142D03*
X453640Y939142D03*
Y943142D03*
X449803Y935268D03*
Y931268D03*
X457677Y801346D03*
Y805346D03*
X465552Y801346D03*
Y805346D03*
X469489D03*
Y801346D03*
X461615Y813158D03*
X469489D03*
X457677D03*
X461615Y805346D03*
Y801346D03*
Y817158D03*
X469489D03*
X457677D03*
X465652Y828906D03*
X457477D03*
X461815D03*
X469489D03*
X465652Y832906D03*
X457477Y840780D03*
Y836780D03*
X461815D03*
Y840780D03*
X457477Y832906D03*
X461815D03*
X465652Y840780D03*
Y836780D03*
X469489Y832906D03*
Y836780D03*
Y840780D03*
X457477Y856528D03*
Y852528D03*
X461815D03*
Y856528D03*
X457477Y848654D03*
Y844654D03*
X461815D03*
Y848654D03*
X469489Y852528D03*
Y856528D03*
X465652Y848654D03*
Y844654D03*
Y856528D03*
Y852528D03*
X469489Y844654D03*
Y848654D03*
X465652Y872276D03*
Y868276D03*
X469489D03*
Y872276D03*
X457477Y864402D03*
Y860402D03*
X461815D03*
Y864402D03*
X465652D03*
Y860402D03*
X469489D03*
Y864402D03*
X457477Y884024D03*
X461815D03*
X457477Y880150D03*
Y876150D03*
X461815D03*
Y880150D03*
X469489Y884024D03*
X465652Y880150D03*
Y876150D03*
Y884024D03*
X469489Y876150D03*
Y880150D03*
X457477Y899772D03*
Y895898D03*
Y891898D03*
X461815D03*
Y895898D03*
X457477Y888024D03*
X461815D03*
Y899772D03*
X469489D03*
X465652Y895898D03*
Y891898D03*
X469489Y888024D03*
X465652Y899772D03*
X469489Y891898D03*
Y895898D03*
X465652Y888024D03*
X457477Y911646D03*
Y907646D03*
X461815D03*
Y911646D03*
X457477Y903772D03*
X461815D03*
X465652Y911646D03*
Y907646D03*
X469489Y903772D03*
Y907646D03*
Y911646D03*
X465652Y903772D03*
X457477Y927394D03*
Y923394D03*
X465652Y927394D03*
Y923394D03*
X461815D03*
Y927394D03*
X469489Y923394D03*
Y927394D03*
X457477Y943142D03*
Y939142D03*
X465652Y943142D03*
Y939142D03*
X461815Y931268D03*
Y935268D03*
X469489Y931268D03*
Y935268D03*
X461815Y939142D03*
Y943142D03*
X469489Y939142D03*
Y943142D03*
X457477Y935268D03*
Y931268D03*
X465652Y935268D03*
Y931268D03*
X473426Y801346D03*
Y805346D03*
X477363D03*
Y801346D03*
X481300D03*
Y805346D03*
X473426Y813158D03*
X481300D03*
X477363D03*
X473426Y817158D03*
X481300D03*
X481100Y828906D03*
X473426D03*
X477363Y817158D03*
X477263Y828906D03*
X484937D03*
Y836780D03*
Y840780D03*
X481100Y832906D03*
X477263Y836780D03*
Y840780D03*
X473426Y832906D03*
Y840780D03*
Y836780D03*
X481100Y840780D03*
Y836780D03*
X477263Y832906D03*
X484937D03*
X477263Y852528D03*
Y856528D03*
X484937Y852528D03*
Y856528D03*
X473426Y848654D03*
Y844654D03*
X481100Y848654D03*
Y844654D03*
X473426Y856528D03*
Y852528D03*
X481100Y856528D03*
Y852528D03*
X477263Y844654D03*
Y848654D03*
X484937Y844654D03*
Y848654D03*
X473426Y872276D03*
Y868276D03*
X477263D03*
Y872276D03*
X481100D03*
Y868276D03*
X484937D03*
Y872276D03*
X473426Y864402D03*
Y860402D03*
X481100Y864402D03*
Y860402D03*
X477263D03*
Y864402D03*
X484937Y860402D03*
Y864402D03*
X477263Y884024D03*
X484937D03*
X473426Y880150D03*
Y876150D03*
X481100Y880150D03*
Y876150D03*
X473426Y884024D03*
X481100D03*
X477263Y876150D03*
Y880150D03*
X484937Y876150D03*
Y880150D03*
X477263Y899772D03*
X484937D03*
X473426Y895898D03*
Y891898D03*
X481100Y895898D03*
Y891898D03*
X477263Y888024D03*
X484937D03*
X473426Y899772D03*
X481100D03*
X477263Y891898D03*
Y895898D03*
X484937Y891898D03*
Y895898D03*
X473426Y888024D03*
X481100D03*
X473426Y911646D03*
Y907646D03*
X481100Y911646D03*
Y907646D03*
X477263Y903772D03*
X484937D03*
X477263Y907646D03*
Y911646D03*
X484937Y907646D03*
Y911646D03*
X473426Y903772D03*
X481100D03*
X473426Y927394D03*
Y923394D03*
X481300Y927394D03*
Y923394D03*
X477363D03*
Y927394D03*
X473426Y943142D03*
Y939142D03*
X481300Y943142D03*
Y939142D03*
X477363Y931268D03*
Y935268D03*
Y939142D03*
Y943142D03*
X473426Y935268D03*
Y931268D03*
X481300Y935268D03*
Y931268D03*
X485237Y805346D03*
Y801346D03*
X489174D03*
Y805346D03*
X493111D03*
Y801346D03*
X497048D03*
Y805346D03*
X485237Y813158D03*
X489174D03*
X485237Y817158D03*
X489174D03*
X488774Y828906D03*
X496448D03*
X492611D03*
Y836780D03*
Y840780D03*
X488774Y832906D03*
X496448D03*
X488774Y840780D03*
Y836780D03*
X496448Y840780D03*
Y836780D03*
X492611Y832906D03*
Y852528D03*
Y856528D03*
X488774Y848654D03*
Y844654D03*
X496448Y848654D03*
Y844654D03*
X488774Y856528D03*
Y852528D03*
X496448Y856528D03*
Y852528D03*
X492611Y844654D03*
Y848654D03*
X488774Y872276D03*
Y868276D03*
X492611D03*
Y872276D03*
X496448D03*
Y868276D03*
X488774Y864402D03*
Y860402D03*
X496448Y864402D03*
Y860402D03*
X492611D03*
Y864402D03*
Y884024D03*
X488774Y880150D03*
Y876150D03*
X496448Y880150D03*
Y876150D03*
X488774Y884024D03*
X496448D03*
X492611Y876150D03*
Y880150D03*
Y899772D03*
X488774Y895898D03*
Y891898D03*
X496448Y895898D03*
Y891898D03*
X492611Y888024D03*
X488774Y899772D03*
X496448D03*
X492611Y891898D03*
Y895898D03*
X488774Y888024D03*
X496448D03*
X488774Y911646D03*
Y907646D03*
X496448Y911646D03*
Y907646D03*
X492611Y903772D03*
Y907646D03*
Y911646D03*
X488774Y903772D03*
X496448D03*
X489174Y927394D03*
Y923394D03*
X497048Y927394D03*
Y923394D03*
X485237D03*
Y927394D03*
X493111Y923394D03*
Y927394D03*
X489174Y943142D03*
Y939142D03*
X497048Y943142D03*
Y939142D03*
X485237Y931268D03*
Y935268D03*
X493111Y931268D03*
Y935268D03*
X485237Y939142D03*
Y943142D03*
X493111Y939142D03*
Y943142D03*
X489174Y935268D03*
Y931268D03*
X497048Y935268D03*
Y931268D03*
X500985Y805346D03*
Y801346D03*
X504922D03*
Y805346D03*
X508859D03*
Y801346D03*
X512796D03*
Y805346D03*
X508859Y813158D03*
X500285Y828906D03*
X508859D03*
Y817158D03*
Y821032D03*
Y825032D03*
X500285Y836780D03*
Y840780D03*
X508859Y836780D03*
Y840780D03*
X500285Y832906D03*
X508859D03*
Y856464D03*
X500285Y852528D03*
Y856528D03*
Y844654D03*
Y848654D03*
X508859Y844654D03*
Y848654D03*
Y868338D03*
Y864338D03*
Y860464D03*
X500285Y868276D03*
Y872276D03*
X508859Y872214D03*
X500285Y860402D03*
Y864402D03*
Y884024D03*
X508859Y876214D03*
Y880088D03*
Y884088D03*
X500285Y876150D03*
Y880150D03*
X508859Y899836D03*
Y895836D03*
Y887962D03*
Y891962D03*
X500285Y899772D03*
Y888024D03*
Y891898D03*
Y895898D03*
X508859Y915520D03*
X500285Y903772D03*
Y907646D03*
Y911646D03*
X508859Y907646D03*
Y911646D03*
X504922Y927394D03*
Y923394D03*
X508859Y919520D03*
X500985Y923394D03*
Y927394D03*
X508859Y923394D03*
Y927394D03*
X504922Y943142D03*
Y939142D03*
X500985Y931268D03*
Y935268D03*
X508859Y931268D03*
Y935268D03*
X500985Y939142D03*
Y943142D03*
X508859Y939142D03*
Y943142D03*
X504922Y935268D03*
Y931268D03*
X516733Y813158D03*
Y805346D03*
Y801346D03*
X524607Y809284D03*
Y805284D03*
X520670D03*
Y809284D03*
X524607Y813158D03*
X520670D03*
X516733Y825032D03*
Y821032D03*
Y817158D03*
Y828906D03*
X520670D03*
Y821032D03*
Y825032D03*
X524607Y817158D03*
X520670D03*
X524607Y825032D03*
Y821032D03*
Y828906D03*
X516733Y840780D03*
Y836780D03*
Y832906D03*
X520670D03*
X524607Y840780D03*
Y836780D03*
X520670D03*
Y840780D03*
X524607Y832906D03*
X516733Y848654D03*
Y844654D03*
X520670Y852528D03*
Y856528D03*
X524607Y848654D03*
Y844654D03*
X520670D03*
Y848654D03*
X524607Y856528D03*
Y852528D03*
X516733Y856528D03*
Y852528D03*
X520670Y868276D03*
Y872276D03*
X516733Y868276D03*
Y872276D03*
X524607Y864402D03*
Y860402D03*
X520670D03*
Y864402D03*
X516733D03*
Y860402D03*
X524607Y872276D03*
Y868276D03*
X520670Y884024D03*
X524607Y880150D03*
Y876150D03*
X520670D03*
Y880150D03*
X516733D03*
Y876150D03*
X524607Y884024D03*
X516733D03*
X520670Y888024D03*
X524607D03*
X516733D03*
X524607Y895898D03*
Y891898D03*
X520670D03*
Y895898D03*
X516733D03*
Y891898D03*
X524607Y899772D03*
X520670D03*
X516733D03*
X520670Y915520D03*
X524607Y903772D03*
X520670D03*
X516733D03*
X524607Y911646D03*
Y907646D03*
X520670D03*
Y911646D03*
X516733D03*
Y907646D03*
X524607Y915520D03*
X516733D03*
X520670Y919520D03*
X524607D03*
X516733D03*
X524607Y927394D03*
Y923394D03*
X520670D03*
Y927394D03*
X516733D03*
Y923394D03*
X524607Y935268D03*
Y931268D03*
X520670D03*
Y935268D03*
X516733D03*
Y931268D03*
X524607Y943142D03*
Y939142D03*
X520670D03*
Y943142D03*
X516733D03*
Y939142D03*
X528544Y797410D03*
X532481D03*
X536418D03*
X540355D03*
X528544Y813158D03*
X532481D03*
X536418D03*
X540355D03*
X528544Y805284D03*
Y809284D03*
X536418Y805284D03*
Y809284D03*
X528544Y801410D03*
X532481D03*
X536418D03*
X540355D03*
X532481Y809284D03*
Y805284D03*
X528544Y828906D03*
X532481D03*
X536418D03*
X540355D03*
X528544Y821032D03*
Y825032D03*
X532481D03*
Y821032D03*
X536418D03*
Y825032D03*
X528544Y817158D03*
X532481D03*
X536418D03*
X540355D03*
X528544Y836780D03*
Y840780D03*
X532481D03*
Y836780D03*
X536418D03*
Y840780D03*
X540355D03*
Y836780D03*
X528544Y832906D03*
X532481D03*
X536418D03*
X540355D03*
X528544Y852528D03*
Y856528D03*
Y844654D03*
Y848654D03*
X532481D03*
Y844654D03*
X536418D03*
Y848654D03*
X540355D03*
Y844654D03*
X532481Y856528D03*
Y852528D03*
X536418D03*
Y856528D03*
X528544Y868276D03*
Y872276D03*
X532481D03*
Y868276D03*
X536418D03*
Y872276D03*
X528544Y860402D03*
Y864402D03*
X532481D03*
Y860402D03*
X536418D03*
Y864402D03*
X528544Y884024D03*
X532481D03*
X536418D03*
X528544Y876150D03*
Y880150D03*
X536418Y876150D03*
Y880150D03*
X532481D03*
Y876150D03*
X528544Y899772D03*
X532481D03*
X536418D03*
X528544Y891898D03*
Y895898D03*
X532481D03*
Y891898D03*
X536418D03*
Y895898D03*
X528544Y888024D03*
X532481D03*
X536418D03*
X528544Y915520D03*
X536418D03*
X528544Y907646D03*
Y911646D03*
X532481D03*
Y907646D03*
X540355Y911646D03*
Y907646D03*
X532481Y915520D03*
X528544Y903772D03*
X532481D03*
X536418D03*
Y907646D03*
Y911646D03*
X528544Y923394D03*
Y927394D03*
X532481D03*
Y923394D03*
X536418D03*
Y927394D03*
X528544Y919520D03*
X536418D03*
X532481D03*
X528544Y939142D03*
Y943142D03*
X536418Y939142D03*
Y943142D03*
X540355D03*
Y939142D03*
X532481Y943142D03*
Y939142D03*
Y935268D03*
Y931268D03*
X528544D03*
Y935268D03*
X536418Y931268D03*
Y935268D03*
X532481Y951016D03*
Y947016D03*
X540355Y951016D03*
Y947016D03*
X536418D03*
Y951016D03*
X528544Y947016D03*
Y951016D03*
X544292Y797410D03*
X556103D03*
X544292Y805284D03*
Y809284D03*
X548229D03*
Y805284D03*
X544292Y801410D03*
X556103Y805284D03*
Y809284D03*
Y801410D03*
X544292Y828906D03*
X552166D03*
X544292Y836780D03*
Y840780D03*
Y832906D03*
X552166D03*
X544292Y927332D03*
X548229D03*
X552166D03*
X544292Y931332D03*
X552166Y939142D03*
Y943142D03*
X548229Y931332D03*
X552166D03*
X563977Y797410D03*
Y801410D03*
X560040Y927332D03*
X567914D03*
X560040Y943080D03*
Y931332D03*
X567914D03*
Y951016D03*
Y947016D03*
X560040Y947080D03*
M02*
