M48
INCH,TZ
T01C.008
T02C.02402
T03C.026
T04C.02756
T05C.0315
T06C.03543
T07C.04
T08C.04016
T09C.04724
T10C.05118
T11C.05315
T12C.06693
T13C.07087
T14C.09055
T15C.15748
T16C.18898
T17C.016
T18C.02559
T19C.03202
T20C.034
T21C.03556
T22C.0395
T23C.04
T24C.04331
T25C.04343
T26C.04528
T27C.04724
T28C.048
T29C.04816
T30C.052
T31C.05524
T32C.05918
T33C.06115
T34C.06299
T35C.07493
T36C.07874
T37C.07887
T38C.09646
T39C.09855
T40C.11811
T41C.12795
T42C.16548
T43C.19698
;LEADER: 12 
;HEADER: 
;CODE  : ASCII 
;FILE  : SG2042_EVB_V2_0-bd-16-13.drl for backdrilling of board D:/Project/2023/1_SG2042_EVB_V_2_0/Gerber/#Taaaage16292.tmp ... from layer BOTTOM to layer GND13
;MUST-NOT-CUT-LAYER = ART12,  MAX_DRILL_DEPTH = 18.900000 MILS,  MFG_STUB_LENGTH = 8.000000 MILS
;T17 BackdrillSize 1. = 16.000000 Tolerance = +0.000000/-0.000000 NON_PLATED MILS Quantity = 40
%
G90
T17
X247225Y262266
X249626
X266910
X269311
X247225Y422266
X249626
X266910
X269311
X282658
X285059
X298406
X300807
X546705Y315802
X543555
X549854Y309502
Y306353
X546705Y303203
X543555
X549855Y296904
Y293754
X571902Y287456
Y290605
X575051Y293755
X578201
X606546Y309502
Y312651
X609695Y315801
X612844
X640300Y308500
X646300
X640300Y310900
X646300
X640300Y321000
X646300
X640300Y323400
X646300
X750696Y335000
Y337400
X763295
Y335000
M30
