M48
INCH,TZ
T01C.008
T02C.02402
T03C.026
T04C.02756
T05C.0315
T06C.03543
T07C.04
T08C.04016
T09C.04724
T10C.05118
T11C.05315
T12C.06693
T13C.07087
T14C.09055
T15C.15748
T16C.18898
T17C.016
T18C.02559
T19C.03202
T20C.034
T21C.03556
T22C.0395
T23C.04
T24C.04331
T25C.04343
T26C.04528
T27C.04724
T28C.048
T29C.04816
T30C.052
T31C.05524
T32C.05918
T33C.06115
T34C.06299
T35C.07493
T36C.07874
T37C.07887
T38C.09646
T39C.09855
T40C.11811
T41C.12795
T42C.16548
T43C.19698
;LEADER: 12 
;HEADER: 
;CODE  : ASCII 
;FILE  : SG2042_EVB_V2_0-1-16.drl for board D:/Project/2023/1_SG2042_EVB_V_2_0/Gerber/#Taaaage16292.tmp ... layers TOP and BOTTOM
;T01 Holesize 1. = 8.000000 Tolerance = +0.000000/-0.000000 PLATED MILS Quantity = 9537
;T02 Holesize 2. = 24.020000 Tolerance = +0.000000/-0.000000 PLATED MILS Quantity = 14
;T03 Holesize 3. = 26.000000 Tolerance = +3.000000/-3.000000 PLATED MILS Quantity = 1152
;T04 Holesize 4. = 27.560000 Tolerance = +0.000000/-0.000000 PLATED MILS Quantity = 36
;T05 Holesize 5. = 31.500000 Tolerance = +0.000000/-0.000000 PLATED MILS Quantity = 46
;T06 Holesize 6. = 35.430000 Tolerance = +0.000000/-0.000000 PLATED MILS Quantity = 12
;T07 Holesize 7. = 40.000000 Tolerance = +0.000000/-0.000000 PLATED MILS Quantity = 150
;T08 Holesize 8. = 40.160000 Tolerance = +2.760000/-2.760000 PLATED MILS Quantity = 8
;T09 Holesize 9. = 47.240000 Tolerance = +1.970000/-1.970000 PLATED MILS Quantity = 16
;T10 Holesize 10. = 51.180000 Tolerance = +0.000000/-0.000000 PLATED MILS Quantity = 2
;T11 Holesize 11. = 53.150000 Tolerance = +0.000000/-0.000000 PLATED MILS Quantity = 4
;T12 Holesize 12. = 66.930000 Tolerance = +0.000000/-0.000000 PLATED MILS Quantity = 2
;T13 Holesize 13. = 70.870000 Tolerance = +0.000000/-0.000000 PLATED MILS Quantity = 24
;T14 Holesize 14. = 90.550000 Tolerance = +3.940000/-3.940000 PLATED MILS Quantity = 8
;T15 Holesize 15. = 157.480000 Tolerance = +0.000000/-0.000000 PLATED MILS Quantity = 10
;T16 Holesize 16. = 188.980000 Tolerance = +0.000000/-0.000000 PLATED MILS Quantity = 7
;T18 Holesize 17. = 25.590000 Tolerance = +0.000000/-0.000000 NON_PLATED MILS Quantity = 2
;T23 Holesize 18. = 40.000000 Tolerance = +0.000000/-0.000000 NON_PLATED MILS Quantity = 2
;T24 Holesize 19. = 43.310000 Tolerance = +0.000000/-0.000000 NON_PLATED MILS Quantity = 1
;T26 Holesize 20. = 45.280000 Tolerance = +0.000000/-0.000000 NON_PLATED MILS Quantity = 6
;T27 Holesize 21. = 47.240000 Tolerance = +1.970000/-1.970000 NON_PLATED MILS Quantity = 4
;T30 Holesize 22. = 52.000000 Tolerance = +2.000000/-2.000000 NON_PLATED MILS Quantity = 2
;T34 Holesize 23. = 62.990000 Tolerance = +0.000000/-0.000000 NON_PLATED MILS Quantity = 1
;T36 Holesize 24. = 78.740000 Tolerance = +0.000000/-0.000000 NON_PLATED MILS Quantity = 5
;T38 Holesize 25. = 96.460000 Tolerance = +0.000000/-0.000000 NON_PLATED MILS Quantity = 8
;T40 Holesize 26. = 118.110000 Tolerance = +0.000000/-0.000000 NON_PLATED MILS Quantity = 6
;T41 Holesize 27. = 127.950000 Tolerance = +0.000000/-0.000000 NON_PLATED MILS Quantity = 2
%
G90
T01
X2100Y12309
R03Y5000
X3149Y7421
X6481Y3693
X11227Y2118
X16227Y2100
X21227
R98X5000
X516227
R51X5000
X774700Y23100
R02Y2200
X776227Y2100
R16X5000
X860500Y23100
R02Y2200
X861227Y2100
R17X5000
X951204Y2580
X955397Y5303
X957679Y9752
X957900Y14747
Y19747
R02Y5000
Y59747
R05Y-5000
X838300Y58800
X834900
X821040Y55300
X813600Y48200
X807100
X752500Y58800
X749100
X735240Y55300
X727800Y48200
X721300
X520800Y41000
X512100Y39500
X510240Y56000
X508400Y47900
X496840Y56000
X495000Y47900
X483440Y56000
X481600Y47900
X470040Y56000
X468200Y47900
X449160Y54100
X447300Y44500
X435760Y54100
X433900Y44500
X422360Y54100
X420500Y44500
X415500Y37000
X408960Y54100
X407100Y44500
X73700Y37200
X71300
Y34800
X69100Y44400
Y39600
X65100Y44400
Y39600
Y37200
X61900Y44400
Y42000
X2100Y57309
Y52309
R04Y-5000
Y62309
R05Y5000
X61900Y67900
Y71400
X65100Y67900
Y71400
X70700Y67900
X410800Y62100
X424200
R02X13400
X469200Y60834
R03X13400
X516200Y87100
X521800Y84700
X585700Y85800
X623100Y89100
X655400
X670000
X714360Y66900
X721000Y82000
X721800Y74000
X741400Y67800
X744600
X765200Y78400
X768400
R02X3200
X793800Y84500
X800160Y66900
X807600Y74000
X826200Y67800
X829400
X851000Y78400
X854200
R02X3200
X957900Y64747
R05Y5000
Y119747
R05Y-5000
X667700Y117200
R06Y-2200
X647200Y103200
R02X-2400
X640100Y111300
X621500Y96100
Y90700
X619900Y94500
Y92300
X591000Y96100
X588400Y90700
X552900Y92200
X552200Y100600
X548900Y102000
X544900Y95900
X542200Y118500
Y108500
Y98500
X536500Y97300
Y95100
Y92700
Y90500
X534500Y118200
R02Y-3400
X528900Y109000
X519800Y96853
X512600Y92900
X510822Y106000
X509200Y92900
X508654Y106000
X505800Y92900
X502848Y106000
X502400Y92900
R04X-3400
X488500Y114100
X485400Y92900
X485100Y114100
X485131Y106000
X483600Y119800
X482000Y92900
X480700Y119800
X479600Y98500
X479200Y106000
X474800Y92900
X471400
X468000
X467515Y106000
X465346
X463478Y113500
X73000Y119200
Y116800
X70600Y119200
X2100Y117309
R05Y-5000
Y122309
R05Y5000
X70600Y121600
Y124000
X155000Y138200
R02Y2200
X157200Y138200
R02Y2200
X159400Y138200
R02Y2200
X181000Y136000
R02X2200
X191338Y140096
X193400Y136000
X195275Y140096
X196000Y130800
Y133000
X198400Y130800
Y133000
X199212Y140096
X201500Y136000
X203149Y140096
X207100Y128900
X211800Y130200
Y138400
X217400Y132600
X234646Y140096
X236551Y132976
X239351
X241752
X244552
X246457Y140096
X254331
X335800Y136800
X439700Y135100
X440540Y147700
X445400Y147000
X452800Y123600
Y127500
Y138331
Y144137
Y146306
X460900Y134800
Y138200
X462600Y129600
X463300Y134800
Y138200
X463500Y121500
X466900
X512200Y138600
X521400Y124552
Y148174
X523600Y124552
X526500Y121600
Y128400
X534500Y121600
Y128400
R03Y3400
Y145400
X542200Y128500
X573200Y126285
Y128485
Y130885
Y133085
Y138096
Y140296
Y142696
Y144896
Y149907
X594500Y134400
Y136800
Y146200
Y148600
X595500Y132400
Y138800
Y144200
X601700Y124564
Y126732
Y132638
Y138543
Y144449
X610600Y124564
Y126732
Y132638
Y138543
Y144449
X632900Y123500
X642000Y140900
X644400Y138500
X650000Y140900
X957900Y124747
R05Y5000
Y179747
R05Y-5000
X708700Y165100
X698200Y159300
X696600Y157700
X695000Y156100
X652400Y163200
X650000Y170000
Y166600
Y163200
X610600Y179882
Y173976
Y168071
Y162165
Y156260
Y150354
X601700Y179882
Y173976
Y168071
Y162165
Y156260
Y150354
X595500Y174200
Y167800
Y162400
Y156000
Y150600
X594500Y172200
Y169800
Y160400
Y158000
X573200Y168518
Y166318
Y163918
Y161718
Y156707
Y154507
Y152107
X564850Y178750
X543400Y155300
X541800Y164000
X534500Y176000
Y172600
R02Y-3400
Y152200
X528900Y154600
X526500Y176000
X521400Y164022
Y161854
X505800Y174600
X496900
X486100
X475289
X475300Y166500
X471900
X465546Y174600
X463378
X460900Y154100
X458600Y174000
X452800Y154080
X450600
X431900Y172700
X424460Y159100
X254331Y152148
X246457
X234646
X230709Y170214
X203149Y152148
X191338Y170214
Y152148
X90100Y171000
R03Y-3100
X2100Y177309
R05Y-5000
Y182309
R05Y5000
X93200Y200000
R02Y2400
X174800Y185500
Y187700
X183200Y183500
R02X2200
X191338Y182266
X193400Y185900
X198600Y189600
X200800
X207100Y208900
X210100Y184500
Y196100
X212300Y184500
Y196100
X218500Y188300
X222000Y191400
X230709Y182266
X231701Y188300
X233851Y196550
X235451Y194950
X237851
X239451Y196550
X241601Y188300
X244225Y182266
X247225
X249626
X252626
X426600Y181100
X436100Y189400
X451000Y180000
X453200
X465100Y187700
X476300Y182100
X478700Y187700
X482100
Y202800
X487200
X497900Y191500
X502500Y187700
X511700Y185300
X513340Y193200
X525160Y192800
X564850Y184350
X566450Y180350
Y182750
X595500Y188900
X601700Y193461
Y195630
Y197798
X641900Y193100
R02Y2200
X650000Y180200
Y193100
X651600Y200400
X653800Y198200
Y200400
X957900Y184747
Y189747
R04Y5000
Y239747
R05Y-5000
X934900Y238900
Y236700
X932700Y238900
Y236700
X770600Y227000
X769000Y225400
X767400Y223800
X656200Y221800
X654000
X651800
X644800Y217100
X644300Y238100
X642600Y217100
Y214900
X642100Y238100
X640400Y217100
Y212200
Y210000
X639900Y238100
X638200Y217068
Y212200
X633600
X631100Y235000
R02Y-2200
X628300Y239200
X623100Y226300
Y224100
Y221900
X572200Y232500
X567900Y229900
X560100Y232400
X559200Y216200
X532200Y237400
X531700Y229900
X526900Y232500
X514400Y239800
X309449Y232148
Y220096
X297638Y232148
Y220096
X285827Y232148
Y220096
X281890Y232148
Y220096
X270079Y232148
Y220096
X266142Y232148
Y220096
X264237Y212976
X261437
X259036
X256236
X254331Y232148
Y220096
X246457Y232148
Y220096
X244551Y212976
X241751
X239350
X236550
X234645Y232148
Y220096
X217400Y212600
X211800Y218400
Y210200
X203149Y232148
Y220096
X201500Y216000
X199212Y220096
X198400Y213000
Y210800
X196000Y213000
Y210800
X195275Y220096
X193400Y216000
X191338Y232148
Y220096
X185400Y216000
X183200
X181000
X159400Y222600
R02Y-2200
X157200Y222600
R02Y-2200
X155000Y222600
R02Y-2200
X2100Y237309
R05Y-5000
Y242309
R05Y5000
X76100Y251200
X88600Y242800
X94100Y247800
Y262600
X174800Y265500
Y267700
X183200Y263500
R02X2200
X191338Y250214
Y262266
X193400Y265900
X204900
X210500Y263500
X212700
X230708Y250214
Y262266
X231700Y268300
X241600
X242519Y250214
X244225Y262266
X247225
X249626
X252626
X254331Y250214
X262205
X263910Y262266
X266910
X269311
X272311
X274016Y250214
X277953
Y262266
X289764Y250214
Y262266
X293701Y250214
Y262266
X305512Y250214
Y262266
X430800Y252700
R05Y3400
X436400Y250300
X445000Y241900
X446800Y257900
Y264500
X448400Y241900
X449116Y251084
X450100Y261200
X451800Y241900
X453400Y257900
Y264500
X455200Y241900
X457600Y247500
X463800Y246900
X469400Y249300
Y252700
R05Y3400
X520200Y242300
X532200Y242400
X562300Y247300
X565500
X572200Y240700
X644100Y268500
X647300
R03X3200
X699600Y261300
X703000
X705400Y268000
X711800Y261200
X724500Y267000
X819300Y261700
Y264900
Y268100
X822000Y258300
X830900Y261700
X858800Y268973
X860400Y247400
X862000Y249000
X864400
X866000Y247400
X868310Y263700
X868400Y247400
X870000Y249000
X872400
X874000Y247400
X875200Y255400
X876184Y263700
X876400Y247400
X878000Y249000
X880400
X882000Y247400
X882090Y263700
X884400Y247400
X886000Y249000
X888400
X890000Y247400
X890900Y263200
X891600Y269273
X895450Y252500
X897050Y254100
X899450
X901050Y252500
X905600Y263200
X957900Y244747
R05Y5000
Y299747
R05Y-5000
X912000Y277542
X908851Y280900
X906500Y292100
Y289700
Y285700
Y283300
X905500Y294100
R02Y-6400
X899600Y270258
X897000Y296100
X893800Y290927
Y279116
X891600Y290927
Y285021
Y279116
X886000Y297000
X882300Y279100
X882200Y287100
Y273100
X878700Y283600
Y276600
X876484Y296500
X876200Y273000
X875200Y280100
X874900Y287200
X874216Y296500
X871947
X871700Y283600
Y276600
X871500Y287100
X868100Y279000
Y275600
Y273000
X864373Y298700
Y296500
X861617Y292800
X858800Y286990
Y279116
Y275179
Y271242
X856000Y277147
Y273210
X849800Y282100
X847600
X846000Y273800
Y271600
X834769Y290100
X826700Y294200
X823100Y298000
Y283600
X819900Y298000
Y283600
X740800Y290500
Y279900
Y277700
X738600Y279900
Y277700
X737200Y294300
X734000
X730300
X727100
X723400
X720200
X717700Y279500
Y276700
X712700Y291700
X709500
X708869Y274100
X706300Y291700
X704700Y298800
Y295400
X703100Y291700
X700994Y274100
X645500Y288300
X642500Y298800
Y296600
X640300Y298800
Y296600
X628300Y298700
X619144Y287455
X619145Y281155
X615994Y296904
Y284306
X612845Y290605
X609695Y284306
X606547Y296904
Y293755
Y290605
X603398Y293755
X603397Y290605
X603396Y287455
Y284306
X603397Y281155
X600997Y275800
X600248Y293755
X599797Y273900
X597397
X597098Y293755
X597097Y290605
Y287456
Y284306
X596197Y275800
X593949Y293755
X593948Y290605
X592400Y298300
X590799Y293755
Y290605
X590798Y287455
Y284306
Y281156
X588100Y298300
X587650Y293755
X585399Y275800
X584700Y298300
X584500Y293755
X584498Y290605
Y287456
Y284306
X584199Y273900
X581799
X581350Y293755
Y290605
X581300Y298300
X580599Y275800
X578201Y293755
X578200Y290605
Y287455
Y284306
Y281156
X575200Y298300
X575051Y293755
X572025Y275300
X571902Y293755
Y290605
Y287456
Y284306
X571800Y298300
X570825Y273400
X568752Y293755
Y290605
X568425Y273400
X567300Y298300
X567225Y275300
X565602Y293755
Y290605
Y287455
Y284306
Y281156
X562453Y293755
X560625Y275300
X559425Y273400
X559303Y296904
Y293755
R02Y-3150
Y284306
X557025Y273400
X556154Y296904
Y293755
X555825Y275300
X553004Y296904
Y293754
Y290605
Y287455
X553003Y281155
X549855Y296904
Y293754
X549854Y290605
Y284306
Y281156
X546705Y296904
Y290605
X543554Y296903
X543556Y290605
X543500Y275600
X540405Y296903
X540406Y290605
X537255Y296903
Y281155
X530000Y290900
X522000Y294300
Y290900
Y286500
Y283100
X513800Y286500
Y283100
X513600Y290900
X505600Y294300
Y290900
Y286500
Y283100
X456900Y280500
Y272500
X453500Y280500
Y272500
X451084
X448900
X446700Y280500
R02X-3400
X407700Y281600
X366600Y294576
X363800
X361399
X358599
X350852
X348052
X345651
X342851
X335103
X332303
X329902
X327102
X319355
X316555
X314154
X311354
X295733
X292933
X290532
X287732
X279985
X277185
X274784
X271984
X264237
X261437
X259036
X256236
X244552
X241752
X239351
X239450Y276550
X237850Y274950
X236551Y294576
X235450Y274950
X233850Y276550
X226600Y271400
X223400Y278200
Y276000
X222900Y296000
Y292600
X221200Y278200
Y276000
X214200Y283500
R04Y-2200
X213800Y290200
X210600Y298400
Y290200
X207100Y293600
X201500Y296000
X196000Y293000
Y290800
X193400Y296000
X185400Y298200
Y296000
X183200Y298200
Y296000
X181000Y298200
Y296000
X159400Y298200
R02X-2200
X140300Y283500
R04Y-2200
X88600Y273200
X86100
X83600Y287000
R02Y-2400
Y273200
X79200Y274900
X73600Y277300
X2100Y297309
Y292309
R04Y-5000
Y302309
R05Y5000
X155000Y300400
Y302600
X157200Y300400
Y302600
X159400Y300400
Y302600
X191339Y301671
Y312345
X195276Y301671
R02X3937
Y312345
X218898Y301671
X230709
X234646
Y312345
X246457Y301671
Y312345
X254331Y301671
Y312345
X265342Y301671
Y312345
X270879Y301671
Y312345
X281090Y301671
Y312345
X286627Y301671
Y312345
X297638Y301671
Y312345
X309449Y301671
Y312345
X320460Y301671
Y312345
X325997Y301671
Y312345
X336208Y301671
Y312345
X341745Y301671
Y312345
X351956Y301671
Y312345
X357493Y301671
Y312345
X368504Y301671
Y312345
X376378Y301671
Y312345
X476300Y318500
X481100Y317600
Y320800
X484900Y324400
X495500Y317600
Y320800
X511000Y317000
X513200Y328600
X514200Y317000
X515300Y328600
X517400Y317000
Y328600
X520800Y319600
X531800Y302002
Y304402
Y314601
Y317001
X533700Y300802
Y305602
Y313401
Y318201
X537256Y309502
Y322099
Y325249
X540406Y303203
Y309502
Y315802
Y322099
Y325249
X543555Y303203
Y309502
Y315802
Y322099
Y325249
X546705Y300054
Y303203
Y309502
Y312652
Y315802
Y322099
Y325249
X549855Y300054
Y303204
X549854Y306353
Y309502
X549855Y312652
Y315802
X549854Y322099
Y325249
X553004Y306353
Y309502
Y315802
Y318951
Y322099
Y325249
X557600Y309100
R03Y3400
Y325300
X565602Y306353
Y309502
X565601Y312651
X565602Y315802
Y318951
X565601Y325250
X568752Y306353
Y309502
X568751Y312651
X568752Y315802
Y318951
Y325249
Y328398
X571902Y306353
Y309502
Y312652
Y315802
Y318951
Y325249
Y328398
X575051Y306353
Y309502
R02Y3150
Y318951
Y325249
Y328398
X581349Y306353
Y309502
R02Y3150
Y318951
Y325249
Y328398
X584498Y306353
Y309502
R02Y3150
Y318951
Y325249
Y328398
X587648Y306353
Y309502
X587649Y312651
X587648Y315802
Y318951
Y325249
Y328398
X590798Y306353
Y309502
Y312652
Y315802
Y318951
Y325249
Y328398
X593947Y306353
Y309502
R02Y3150
Y318951
X596400Y326100
X603397Y303202
Y309502
Y312651
Y315801
Y322099
Y325249
Y328398
X606547Y300054
X606546Y303203
Y309502
Y312651
X606545Y315801
Y318951
X606546Y322099
Y325249
Y328398
X609695Y303203
X609696Y309502
X609695Y315801
R02Y3150
X609696Y328398
X612845Y303203
Y309502
X612844Y315801
Y322101
X612845Y328398
X615994Y303203
X615995Y309502
X615994Y315802
Y322101
Y328398
X619144Y300054
Y303203
Y309502
Y322099
X622700Y313401
Y318201
X624600Y314601
Y317001
X628300Y301100
Y303300
X640300Y301000
Y308500
Y310900
Y321000
Y323400
X641300Y306500
Y312900
Y319000
Y325400
X642500Y301000
Y303200
X644700Y301000
Y303200
X645300Y306500
Y312900
Y319000
Y325400
X646300Y308500
Y310900
Y321000
Y323400
X649400Y300000
X651600
X654100
X656300
X691600Y319800
X694000Y325400
X694100Y317400
X694900Y304900
X697400Y325400
X699700Y304000
Y307200
X703500Y310800
X707600Y318869
X714100Y304000
Y307200
X729600Y303400
X731800Y315000
Y317100
X732800Y303400
X733900Y315000
Y317100
X736000Y303400
Y315000
Y317100
X739500Y309100
X746700Y304100
Y314100
Y319100
X759200Y325300
X772900Y309100
X782700Y304100
X784300Y321500
X789900Y319100
X820800Y302800
X833300Y303600
X835700Y306100
X841300Y300300
Y303700
X858800Y306300
X862200
X869600Y314200
X872100Y319600
X875200Y305100
Y310400
Y313800
X881000Y306800
X889700Y303500
X905500Y319600
X957900Y304747
R05Y5000
Y359747
R05Y-5000
X938000Y359200
Y357000
X929000Y354700
X926800
X924600Y356900
Y354700
X897900Y359200
Y357000
X888900Y354700
X886700
X884500Y356900
Y354700
X794500Y350031
X790746Y354200
X784054Y337200
X779000Y353100
Y338300
X765495Y337400
Y335000
X763295Y337400
Y335000
X759195Y346700
Y344300
X756995Y346700
Y344300
X752896Y337400
Y335000
X750696Y337400
Y335000
X746597Y346700
Y344300
X744397Y346700
Y344300
X738800Y356800
Y335400
X735000Y347200
X733400Y348800
X731000
X729400Y347200
X719200Y348800
X638000Y349000
X635600Y354600
X634400Y341700
Y338300
X632200Y354600
X628600Y333700
Y331300
X626400Y333700
Y331300
X620500Y333124
X619144Y350445
Y344146
Y340997
X615994Y359894
Y356745
Y344146
Y340997
X612845Y347296
Y344146
Y340997
X609695Y347296
Y344146
Y340997
Y331548
X606546Y359894
Y347296
Y344146
Y340997
Y331548
X603398Y353595
Y350445
X603396Y347296
Y344146
Y340997
X603397Y331548
X600246Y359894
Y356745
X600248Y353595
Y350445
X600246Y347296
X599600Y334900
X597098Y350445
X593947Y359894
X593948Y356745
Y353595
X593949Y350445
X593947Y340997
Y337847
Y334698
Y331548
X590800Y353595
X590799Y350445
X590798Y340997
Y337847
Y334698
Y331548
X587648Y359894
Y356745
X587650Y353595
Y350445
X587649Y340998
X587648Y337847
Y334698
X587649Y331549
X584500Y350445
X584498Y340997
Y337847
Y334698
Y331548
X581350Y350445
X581349Y359894
Y356745
Y353595
Y340997
Y337847
Y334698
Y331548
X578201Y353595
Y350445
X575051Y359894
Y356745
R02Y-3150
Y340997
Y337847
Y334698
Y331548
X571902Y350445
Y340997
Y337847
Y334698
Y331548
X568752Y359894
Y356745
X568751Y353596
X568752Y350445
X568751Y340998
X568752Y337847
Y334698
X568751Y331549
X565602Y353595
Y350445
X565601Y340998
X565602Y337847
Y334698
X562453Y359894
Y356745
Y353595
Y350445
X559303
X557600Y341100
Y337700
X556154Y359894
Y356745
R02Y-3150
X553004Y353595
Y350446
X553031Y347269
Y344119
Y340970
Y337820
X549854Y359894
Y356745
Y353595
X549881Y347269
Y340970
Y334671
Y331521
X546705Y353595
Y347296
X546732Y340970
Y334671
Y331521
X543555Y359894
X543582Y353568
X543555Y350446
X543582Y347269
X543555Y344146
X543582Y340970
Y337820
Y334671
Y331521
X540406Y359894
X540433Y353568
Y350419
Y347269
X540406Y344146
X540433Y340970
Y334671
Y331521
X537256Y353595
X537283Y350419
Y340970
Y334671
Y331521
X527100Y352800
X517400Y330700
X516600Y358950
Y356550
X515300Y330700
X514400Y358950
Y356550
Y352200
X513200Y330700
X489000Y332469
X478800Y339000
X475500Y331000
X475400Y339000
X473000Y333400
X376378Y330017
X374673Y340691
X371673
X369272
X366272
X365367Y330017
X359830
X358925Y340691
X355925
X353524
X350524
X349619Y330017
X344082
X343177Y340691
X340177
X337776
X334776
X333871Y330017
X328334
X327429Y340691
X324429
X322028
X319028
X317323Y330017
X305512
X303807Y340691
X300807
X298406
X295406
X294501Y330017
X288964
X288059Y340691
X285059
X282658
X279658
X278753Y330017
X273216
X272311Y340691
X269311
X266910
X263910
X262205Y330017
X254331
X252626Y340691
X249626
X247225
X244225
X242520Y330017
X239450Y348400
X237850Y346800
X235450
X233850Y348400
X230709Y340691
Y330017
X220900Y344400
X218898Y340691
X214700Y357100
X212900Y344400
X210700
X210000Y357100
X208500Y344400
X198600Y353500
Y351300
X196400Y353500
Y351300
X191339Y340691
Y330017
X185400Y348000
Y345800
X183200Y348000
Y345800
X181000Y348000
Y345800
X155200Y359500
Y357300
R03Y-2200
X2100Y357309
R05Y-5000
Y362309
R05Y5000
X90600Y360900
R02Y2400
X155000Y378200
R02Y2200
X157200Y378200
R02Y2200
X159400Y378200
R02Y2200
X181000Y376000
R02X2200
X191338Y380096
X193400Y376000
X195275Y380096
X196000Y370800
Y373000
X198400Y370800
Y373000
X199212Y380096
X201500Y376000
X203149Y380096
X207100Y368900
X211800Y370200
Y378400
X217400Y372600
X234645Y380096
X236550Y372976
X239350
X241751
X244551
X246457Y380096
X254331
X256236Y372976
X259036
X261437
X264237
X265342Y380096
X270879
X271984Y372976
X274784
X277185
X279985
X281090Y380096
X286627
X287732Y372976
X290532
X292933
X295733
X297638Y380096
X309449
X411800Y380600
X426800Y382900
X431800Y388232
X501200Y369200
X515600Y369969
X519354Y365800
X526046Y382800
X527100Y362700
X540406Y363044
X543555
X547700Y374748
Y386100
X549700Y375700
Y385100
X549854Y363044
X552100Y375700
Y385100
X554100Y374700
Y386052
X562453Y363044
X563800Y374748
Y386100
X565800Y375700
Y385100
X568200Y375700
Y385100
X570200Y374700
Y386052
X575051Y363044
X579900Y374748
Y386100
X581900Y375700
Y385100
X584300Y375700
Y385100
X586300Y374700
Y386052
X587649Y363045
X596000Y374748
Y386100
X598000Y375700
Y385100
X600246Y363044
X600400Y375700
Y385100
X602400Y374700
Y386052
X612845Y363044
X616000Y364600
X619100
X620100Y378600
X622500
X662800Y368700
X691500Y363900
X703507Y360807
Y367107
X706657Y360807
X709807Y363957
X712956
X716106
Y367107
X722405Y360807
Y363957
X725555Y382855
Y386004
Y389154
X728704Y376555
Y382855
Y386004
Y389154
X731854Y360807
Y363957
Y382855
Y386004
Y389154
X735003Y367107
Y382855
Y386004
Y389154
X738153Y382855
Y389154
X741247Y360807
R02Y3150
X741303Y389154
X744397Y367107
Y373406
Y382855
Y386004
X747546Y360807
Y363957
Y367107
Y376555
Y382855
Y386004
Y389154
X750696Y367107
Y373406
Y376555
Y382855
Y386004
Y389154
X753845Y360807
Y363957
Y373406
Y382855
Y386004
Y389154
X756995Y367107
Y376555
X760145Y360807
Y363957
Y373406
Y386004
Y389154
X766444Y360807
Y363957
X772743
X775893
Y382855
X780200Y369000
Y371200
X787900Y362400
Y381300
X788300Y384900
Y387300
X793500Y379600
X793900Y388000
X796900Y363100
Y365300
X797000Y369800
Y372000
X801500Y379600
X806700Y384900
X814000Y360300
Y366300
X850200Y385600
X853600
X868700Y388700
R04X2200
X884500Y380100
Y382300
X886400Y368000
Y373000
X886700Y380100
Y382300
X889800Y387800
X890300Y370500
X893200Y387800
X894200Y368000
Y373000
X899100Y370500
X906100Y378700
R04Y2200
X924600Y380100
Y382300
X926500Y368000
Y373000
X926800Y380100
Y382300
X929900Y387800
X930400Y370500
X933300Y387800
X934300Y368000
Y373000
X939200Y370500
X957900Y364747
R05Y5000
Y419747
R05Y-5000
X891100Y393300
X884800Y418800
X881000Y407500
R02X-3400
Y404100
X867400Y407500
X864000
Y404100
X860600Y407500
Y404100
X856000Y391200
X853500Y393600
X852700Y406100
X847900Y407000
Y403800
X844257Y415000
X844100Y400200
X840000Y392131
X833500Y407000
Y403800
X823784Y415000
X818000Y407600
X815800Y396000
Y393900
X814800Y407600
X813700Y396000
Y393900
X813000Y419000
X811600Y407600
Y396000
Y393900
X806700Y394900
X801500Y400200
X800400Y392200
X793500Y400200
X791900Y415900
X788300Y394900
X787900Y398600
X783900Y415900
X782900Y392000
X775893Y414295
X772743Y407996
X769593
X766443
X763294Y417445
R02Y-3150
Y407996
X760145Y417445
Y414295
X753845Y411145
Y407996
Y404846
Y401697
Y398547
Y392303
X750696Y417445
Y411145
Y407996
Y404846
Y401697
Y398547
Y392303
X747546Y411145
Y407996
Y404846
Y401697
Y398547
Y392303
X744397Y417445
Y411145
Y407996
Y404846
Y401697
Y398547
X741303Y392303
X738153Y411145
Y407996
Y404846
Y401697
Y398547
Y392303
X738097Y417445
X735003Y411145
Y407996
Y404846
Y401697
Y398547
Y392303
X731854Y417445
Y411145
Y407996
Y404846
Y401697
Y398547
Y392303
X728704Y417445
Y411145
Y407996
Y398547
Y392303
X725555Y411145
Y407996
Y398547
Y392303
X719255Y417445
Y404846
X716106
X709807Y417445
Y414295
Y411145
Y407996
Y404846
Y401697
X706657Y417445
Y414295
Y411145
Y407996
Y404846
Y395397
X703507Y417445
Y414295
Y411145
Y407996
Y404846
X695100Y408100
Y404700
X659800Y402900
R02Y-2100
X657700Y402900
R02Y-2100
X646100Y405100
R02Y-3200
X602400Y400052
Y390300
X600400Y407500
Y405300
Y399100
Y391300
X598000Y407500
Y405300
Y399100
Y391300
X596000Y400100
Y390300
X586300Y400052
Y390300
X584300Y407500
Y405300
Y399100
Y391300
X581900Y407500
Y405300
Y399100
Y391300
X579900Y400100
Y390300
X570200Y400052
Y390300
X568200Y407500
Y405300
Y399100
Y391300
X565800Y407500
Y405300
Y399100
Y391300
X563800Y400100
Y390300
X554100Y400052
Y390300
X552100Y407500
Y405300
Y399100
Y391300
X549700Y407500
Y405300
Y399100
Y391300
X547700Y400100
Y390300
X454400Y419200
X432590Y418700
X429100Y415000
X428653Y418700
X424716
X418810
X414400Y415000
X414200Y418200
X412400Y411600
X408200Y418200
X404400Y411600
X397000Y419200
X309449Y392148
X305512Y410214
X297638Y392148
X293701Y410214
X289764
X286627Y392148
X281090
X277953Y410214
X274016
X270879Y392148
X265342
X262205Y410214
X254331
Y392148
X246457
X242519Y410214
X234645Y392148
X230708Y410214
X203149Y392148
X191338Y410214
Y392148
X2100Y417309
Y412309
R04Y-5000
Y422309
R05Y5000
X75800Y437700
X80600Y436800
Y440000
X84400Y443600
X95000Y436800
Y440000
X110500Y436200
X112700Y447800
Y449900
X113700Y436200
X114800Y447800
Y449900
X116900Y436200
Y447800
Y449900
X140300Y436700
Y438900
R03Y2200
X174800Y425500
Y427700
X183200Y423500
R02X2200
X191338Y422266
X193400Y425900
X204900
X210500Y423500
X212700
X214200Y436700
Y438900
R03Y2200
X221800Y436900
R02Y2200
X223600Y425100
Y427300
X226600Y431400
X230708Y422266
X231700Y428300
X233850Y436550
X235450Y434950
X237850
X239450Y436550
X241600Y428300
X244225Y422266
X247225
X249626
X252626
X263910
X266910
X269311
X272311
X279658
X282658
X285059
X288059
X295406
X298406
X300807
X303807
X378900Y442700
X381100
X383500
X385700
X389100Y434800
Y440400
X397000Y424800
Y427000
Y432600
Y434800
Y440400
X398600Y420800
Y423200
Y428600
Y431000
Y436400
Y438800
X406600Y441500
X409500Y427779
Y433684
X411700Y427779
Y433684
X416842Y446700
X417500Y430200
Y436100
X420779Y446700
X421200Y424500
X421600Y428600
Y436800
X424700Y426800
X425000Y440900
X425700Y432700
X426684Y446700
X428100Y426800
X429800Y436800
X430200Y440900
X432590Y446700
X433900Y424500
Y430200
Y436100
X439700Y427779
Y433684
X441900Y427779
Y433684
X444700Y441500
X452800Y420800
Y423200
X454400Y424800
X459400Y442000
X461500Y428100
X465000Y431500
Y441400
X536900Y424800
X538500Y426400
X540200Y428100
X541800Y429700
X543400Y431300
X545000Y432900
X546700Y434600
X548300Y436200
X646700Y420600
Y435000
X647600Y439800
X649900Y420600
Y435000
X653500Y431200
X660100Y440600
X661569Y427100
X662500Y443100
X668100Y437300
Y440700
X690100Y422200
X703507Y420594
X706657
X712700Y445200
X716106Y433193
X719500Y445200
X722405Y426893
Y430043
Y433193
X725555Y430043
X728704Y420594
Y430043
X731854Y426893
Y433193
X732700Y442900
X733700Y444900
X735003Y420594
Y426893
Y433193
X736100Y444900
X737100Y442900
X741247Y420594
Y426893
Y430043
X744397Y420594
Y426893
Y430043
X745300Y442900
X746300Y444900
X747546Y420594
Y426893
Y430043
Y433193
X748700Y444900
X749700Y442900
X750696Y420594
Y426893
Y430043
X753845Y420594
Y426893
Y430043
X756995Y420594
Y426893
Y430043
X760145Y420594
Y426893
Y433193
X760900Y437200
Y445200
Y447600
X763294Y420594
X764300Y437200
Y447600
X767700Y437200
Y447600
X771100Y437200
Y447600
X789500Y421700
X823784Y447200
X842200Y449300
X844257Y447200
X857584Y424300
X884800Y426800
Y435400
Y443400
X914900Y429600
X921000
Y441600
X957900Y424747
Y429747
R04Y5000
Y479747
R05Y-5000
X925100Y459700
X924300Y469000
X923600Y478400
X917500Y476100
X916700Y466900
X915900Y455500
X888000Y474100
X881000Y454700
X877600
X874300Y463500
X874200Y454700
R05X-3400
X839700Y456700
X785900Y477400
X782500Y474900
Y466900
X779100Y474900
Y466900
X765560Y459000
X759500Y475200
Y460400
X757000Y471700
X753800Y476600
X750600Y471700
X744400
X741200Y476600
X738000Y471700
X497626Y472345
Y461671
X496521Y454576
X493721
X491320
X488520
X487415Y472345
Y461671
X481878Y472345
Y461671
X480773Y454576
X477973
X475572
X472772
X471667Y472345
Y461671
X466130Y472345
Y461671
X465025Y454576
X462225
X459824
X457024
X455919Y472345
Y461671
X450382Y472345
Y461671
X449277Y454576
X446477
X444076
X441276
X440171Y472345
Y461671
X434634Y472345
Y461671
X433529Y454576
X430729
X428328
X425528
X424423Y472345
Y461671
X418886Y472345
Y461671
X417781Y454576
X414981
X412580
X409780
X408675Y472345
Y461671
X403138Y472345
Y461671
X402033Y454576
X399233
X396832
X394032
X392927Y472345
Y461671
X391500Y450500
X387390Y472345
Y461671
X386285Y454576
X383485
X381084
X378284
X377179Y472345
Y461671
X367705Y472345
Y461671
X366600Y454576
X363800
X361399
X358599
X357494Y472345
Y461671
X351957Y472345
Y461671
X350852Y454576
X348052
X345651
X342851
X341745Y472345
Y461671
X336208Y472345
Y461671
X335103Y454576
X332303
X329902
X327102
X325997Y472345
Y461671
X320460Y472345
Y461671
X319355Y454576
X316555
X314154
X311354
X309449Y472345
Y461671
X297638Y472345
Y461671
X295733Y454576
X292933
X290532
X287732
X286627Y472345
Y461671
X281090Y472345
Y461671
X279985Y454576
X277185
X274784
X271984
X270879Y472345
Y461671
X265342Y472345
Y461671
X264237Y454576
X261437
X259036
X256236
X254331Y472345
Y461671
X246457Y472345
Y461671
X244552Y454576
X241752
X239351
X236551
X235446Y472345
Y461671
X230709
X227800Y467100
X222900Y454600
X221800Y467100
X218898Y461671
X217300Y457000
X210600Y460400
Y452200
X207100Y455600
X203150Y472345
Y461671
X201500Y458000
X199213Y461671
X196000Y455000
Y452800
X195276Y461671
X193400Y458000
X191339Y472345
Y461671
X185400Y460200
Y458000
X183200Y460200
Y458000
X181000Y460200
Y458000
X159400Y464600
Y462400
Y460200
X157200Y464600
R02Y-2200
X155000Y464600
R02Y-2200
X88500Y451669
X78300Y458200
X75000Y450200
X74900Y458200
X72500Y452600
X2100Y477309
Y472309
R04Y-5000
Y482309
R05Y5000
X136500Y508300
X181000Y505300
Y507500
X183200Y505300
Y507500
X185400Y505300
Y507500
X191339Y490017
Y500691
X208500Y504400
X210700
X212900
X218898Y500691
X220900Y504400
X230709Y490017
Y500691
X233850Y508400
X235450Y506800
X237850
X239450Y508400
X242520Y490017
X244225Y500691
X247225
X249626
X252626
X254331Y490017
X262205
X263910Y500691
X266910
X269311
X272311
X273216Y490017
X278753
X279658Y500691
X282658
X285059
X288059
X288964Y490017
X294501
X295406Y500691
X298406
X300807
X303807
X305512Y490017
X317323
X319028Y500691
X322028
X324429
X327429
X328334Y490017
X333871
X334776Y500691
X337776
X340177
X343177
X344083Y490017
X349620
X350525Y500691
X353525
X355926
X358926
X359831Y490017
X365368
X366273Y500691
X369273
X371674
X374674
X375579Y490017
X385053
X385958Y500691
X388958
X391359
X394359
X395264Y490017
X400801
X401706Y500691
X404706
X407107
X410107
X411012Y490017
X416549
X417454Y500691
X420454
X422855
X425855
X426760Y490017
X432297
X433202Y500691
X436202
X438603
X441603
X442508Y490017
X448045
X448950Y500691
X451950
X454351
X457351
X458256Y490017
X463793
X464698Y500691
X467698
X470099
X473099
X474004Y490017
X479541
X480446Y500691
X483446
X485847
X488847
X489752Y490017
X495289
X496194Y500691
X499194
X501595
X504595
X505500Y490017
X730100Y506300
X734900Y480500
X747500
X766400Y489100
X808400Y483000
X815900Y491400
Y496400
R02Y5000
X817100Y481700
X823784Y487800
X826343Y485800
X828902Y487800
X831461Y485800
X834020Y487800
X836580Y485800
X842800Y503300
X844257Y487800
X846100Y485700
X846800Y499700
X848600Y508200
X857200Y480300
X857584Y497100
X860600Y480300
X870800
X874200
X884800Y491600
Y499600
Y508200
X957900Y484747
R05Y5000
Y539747
R05Y-5000
X884800Y516200
X874200Y527500
X870800
X860600
X857200
X844257Y510700
X839139Y522000
X836580Y520000
X834020Y522000
X831461Y520000
X828902Y522000
X826343Y520000
X823784Y510700
X821900Y538100
X816600Y523800
X815900Y516400
Y511400
X778000Y513900
X774600Y522200
X770700Y521000
X739800Y518400
X635200Y535200
Y533000
X633000Y535200
Y533000
X630800Y535200
Y533000
X221200Y522100
X219000
X217400Y537100
Y534900
Y532700
X216800Y522100
X214700Y517100
X214600Y527600
Y524300
Y522100
X212400Y524300
X210400Y536600
Y534400
Y530700
X210200Y524300
X210000Y517100
X206300Y530700
X203700Y513500
X202700Y532900
Y530700
X198600Y513500
Y511300
X196400Y513500
Y511300
X195900Y530700
X184100Y538800
X178500Y536400
X173000Y528200
R02X-2200
X166400Y538800
X155200Y519000
Y516800
R03Y-2200
X136500Y514700
Y511500
X2100Y537309
R05Y-5000
Y542309
R05Y5000
X74000Y563500
X75800Y568100
X79600Y560900
X80800Y548500
X81200Y556000
X83200Y568100
X86600
X100200
X118000Y550900
Y556100
X121600Y563300
X123500Y558500
X123600Y553500
X126454Y562200
X143300Y555800
Y559000
X146100Y547900
Y551300
X165060Y555100
X172500Y562200
X179000
X185940Y543500
X188300Y558300
X196400Y547500
Y569200
X199400Y552600
X202700Y550400
Y552600
X210000Y542900
X212200
X215200
X217400
X394200Y551200
X396600Y553600
Y557100
R03Y2200
Y568300
X398800Y557100
Y559300
X401494Y568472
X402076Y562271
Y565071
X404676Y563671
X404694Y568472
X405463Y555300
X407276Y562271
Y565071
X407894Y568472
X409400Y555300
X410800Y550500
X411040Y562271
Y565071
X413140Y563671
X414000Y550500
X415240Y562271
Y565071
X415306Y555300
X417474Y552900
Y555300
X423900Y562200
X426300
Y564600
Y567800
X436800Y569600
X447500Y553300
Y555500
X449700Y553300
Y555500
X460300Y553300
X464100Y556900
Y560100
Y563800
Y567000
X606100Y548000
X845000Y569000
X847100Y566900
Y569000
X849200Y566900
Y569000
X873400Y565131
X883600Y558600
X886900Y566600
X887000Y558600
X889400Y564200
X897500Y566800
X901700Y558700
X904100Y564300
X957900Y544747
Y549747
R04Y5000
Y599747
R05Y-5000
X898000Y574900
X896700Y585300
X890000Y599200
Y587400
Y585200
X886900Y594700
X886800Y599700
X886100Y579100
X881300Y597300
Y592100
Y580000
Y576800
X877500Y573200
X866900Y580000
Y576800
X851400Y580600
X848200
X845000
X844100Y589700
X841700Y578000
X813300Y590800
X811700Y584200
X810000Y572300
X606100Y586800
Y579600
Y577000
X515900Y596200
X515000Y591400
X512700Y596200
X507400Y578400
X502500Y590600
X494500Y593900
Y590500
X468600Y589400
X465200
X464100Y573900
Y570700
X461500Y591000
Y587800
R02Y-3200
X449300Y576400
X446500
X443900Y593106
Y585231
X437800Y588700
X431100Y594500
Y591100
X431000Y582300
X428500Y597800
R03Y-3300
X426400Y597800
R03Y-3300
X422200Y574600
Y571400
X417494Y574072
R02X-3200
X409494Y571272
X407894Y574072
X406294Y571272
X404694Y574072
X403094Y571272
X401494Y574072
X396600Y574700
Y571500
X393400Y574700
X392400Y597800
Y594500
R02Y-3300
X390300Y597800
R03Y-3300
X289139Y581800
X286580Y579800
X283600Y574300
R03X-3400
X269600Y593600
Y585600
X195400Y593900
X146800Y597599
Y592875
X144900Y596437
Y594037
X138500Y598762
Y586989
Y584589
X137700Y580400
X136900Y575031
X136600Y597600
Y588151
Y583427
X135500Y580400
X128800Y591713
Y589313
X126900Y597600
Y592876
Y588151
X124700Y597600
Y592876
Y588151
X121600Y578100
X118998Y579300
X116700Y596600
Y592900
Y588200
X115849Y579300
X115800Y572500
X112000Y587300
X111424Y579300
X109250
X108600Y587300
X106400Y597600
X96100Y598600
R02Y-3400
Y588100
X88100Y597600
Y592876
Y588151
X85900Y597600
Y592876
X84400Y583700
X81000
X78200Y597600
X76300Y598800
X68500Y598600
Y596400
Y594000
Y591800
X2100Y597309
R05Y-5000
Y602309
R05Y5000
X25400Y624134
X32693Y614489
Y617638
X32699Y626003
Y628171
X34000Y624273
Y629927
X36000Y621500
X41400Y621200
Y624600
X49900Y629863
X58000Y629900
X59100Y612200
X62500
X63000Y628800
X65850Y606550
Y612150
X67450Y608150
Y610550
X68000Y628800
X74100Y604400
Y614300
X76300Y601200
X78200Y602400
X84400Y617100
X88100Y602324
X90800Y615900
X92227Y629500
X93389Y627600
X95789
X96100Y602300
X96900Y607900
X96951Y615900
Y629500
X100600Y607900
X101676Y615900
Y618100
X102837Y620000
X104000Y607900
X105237Y620000
X106400Y615900
Y618100
Y628000
X107400Y607900
X107562Y626100
X109962
X111100Y607900
X111124Y615900
Y628000
X114000Y607900
X115849Y615900
Y618100
X116700Y600000
Y603400
Y607000
X117011Y620000
X119411
X120574Y618100
X124700Y602324
Y607049
X126400Y620700
X126900Y602324
Y607049
X128800Y603486
Y605886
X136600Y602324
X137100Y608211
Y610611
X138500Y601162
X139000Y607049
Y611773
X152600Y623300
Y625500
X167000Y623300
Y625500
X192000Y613500
X196800Y602100
Y605300
Y610300
Y613500
Y620200
Y625200
Y628400
X229000Y613500
X233800Y602100
Y605300
Y613500
Y620200
Y625200
Y628400
X268700Y615700
X273400Y621500
X276343Y604700
X276800Y621500
X280200
X283600Y621400
X284600Y627100
X287000Y621500
X290400
X296816Y613900
X384900Y625500
X390300Y601100
X391100Y628900
X392400Y601100
X402800Y627400
Y629600
X405000Y627400
Y629600
X407200Y627400
Y629600
X409400Y627400
Y629600
X411600Y627400
Y629600
X413800Y627400
Y629600
X416000Y627400
Y629600
X426400Y601100
X427600Y628300
X428500Y601100
X470100Y612000
Y615400
X476631Y625600
X478100Y612100
X484700Y621500
X488300Y617700
X490600Y612900
X491500Y617700
X501031Y604100
X502800Y628300
X504900
X509100Y600000
X512700Y610600
X514300Y617600
R02Y2200
X515900Y610600
X516500Y617600
Y619800
Y622000
Y626100
Y629300
X685400Y605300
Y613500
Y620200
Y628400
X690200Y602100
Y613500
Y625200
X721800Y602100
Y605300
Y613500
Y620200
Y625200
Y628400
X726600Y613500
X755900Y623300
Y625500
X770300Y623300
Y625500
X837300Y604700
X839600Y609300
X842900Y602100
X844800Y624900
X847000Y609300
X848200Y624900
X851900Y629351
X859900Y629300
X864000Y609300
X872400Y628500
X873050Y620500
X875224
X875800Y628500
X879600Y613700
X879649Y620500
X880500Y629400
X882798Y620500
X885400Y604500
Y619300
X888500Y629351
X890254Y603400
X890700Y629351
X899300Y621400
Y623600
X900700Y616231
X907800Y608000
Y613600
X909400Y609600
Y612000
X919900Y607576
Y614024
Y616376
Y622824
X957900Y604747
Y609747
R04Y5000
Y659747
R05Y-5000
X919900Y654876
Y646424
Y639976
Y637624
Y631176
X909400Y635600
Y633200
X907800Y637200
Y631600
X896400Y651811
Y649411
Y637637
Y635237
X894500Y652974
Y648249
Y643524
Y638800
Y634076
X892600Y647086
Y644686
Y642362
Y639962
X890700Y648249
Y643524
Y638800
X889100Y655900
X888500Y648249
Y643524
Y638800
Y634076
X880500Y648200
Y644600
Y641200
Y637800
Y634100
X879649Y657100
X877800Y649100
X874924Y659300
Y657100
X874900Y649100
X871200
X870200Y659300
Y657100
Y638800
X867800Y649100
X865476Y657100
X864400Y649100
X860751Y659300
Y657100
X860700Y649100
X859900Y643500
Y639800
Y636400
Y633000
X856027Y659300
X851900Y643524
Y638800
Y634076
X849700Y638800
Y634076
X848200Y658300
X841800Y656400
Y646500
X830350Y654850
Y652650
Y650250
Y648050
X829700Y659600
X823500Y658700
X818000Y656700
Y654500
R02X-2200
X793200Y639237
Y633637
X791600Y637637
Y635237
X783100Y643600
Y641200
X780900Y643600
Y641200
X770300Y646200
Y644000
Y639300
Y637100
Y632400
Y630200
X755900Y632400
Y630200
X737700Y639600
Y632800
X729700Y646400
R02Y-3400
X516500Y632500
X512500Y637200
X504900Y632500
Y630400
X503700Y646000
R02Y-2200
X502800Y632500
Y630400
X492100Y654000
R02Y-3200
X491500Y632100
X489400Y657400
X488300Y632100
X480500Y654000
Y651900
Y649800
X478400Y654000
R02Y-2100
X469700Y650000
R04Y-3200
X458200Y643000
R03Y-2100
X456100Y643000
R03Y-2100
X454000Y643000
R03Y-2100
X451900Y643000
R03Y-2100
X449800Y643000
R03Y-2100
X438200Y644700
Y642500
Y640000
Y637800
X427600Y641100
R03Y-3200
X416000Y636200
R02Y-2200
X414900Y658800
Y656600
X413800Y636200
R02Y-2200
X412700Y658800
R02Y-2200
X411600Y636200
R02Y-2200
X410433Y659871
X409400Y636200
Y634000
Y631800
X407200Y636200
R02Y-2200
X405000Y636200
R02Y-2200
X402800Y636200
R02Y-2200
X391100Y635800
Y633600
Y631100
X196800Y650800
X189600Y637500
X184100Y645400
Y634400
X167000Y632400
Y630200
X152600Y646200
Y644000
Y639300
Y637100
Y632400
Y630200
X144500Y658500
X130200Y645000
X115849Y630200
X114686Y632100
X112286
X111124Y630200
X101675Y631700
X100513Y633600
X98113
X96951Y631700
X87300Y641800
Y638500
X76800Y636900
X70900Y645100
X68000Y638800
Y633800
X63000Y638800
Y633800
X58000Y638800
Y633800
X49900Y635769
X32693Y639685
Y636536
X25400Y630040
X2100Y657309
Y652309
R04Y-5000
Y662309
R05Y5000
X73400Y688100
X87300Y660176
Y666624
Y668976
Y675424
Y677776
Y684224
Y686576
X91300Y679800
Y682200
X91900Y660176
Y666624
Y668976
Y675424
Y686576
X93500Y679800
Y682200
X100000Y676800
Y682400
X101600Y678400
Y680800
X115400Y664400
Y666600
Y669000
Y671200
Y686400
Y688600
X144500Y664300
X145900Y660200
Y662600
Y673000
Y675400
X147300Y671300
Y677100
X155000Y689100
X434000Y674400
X436200Y672200
Y674400
X438400Y672200
Y674400
X439600Y681400
R02Y2200
X440600Y672200
Y674400
X442800Y672200
Y674400
X445866Y672200
X449000Y679000
Y681200
X450200Y672200
X452400
X453700Y687200
Y689600
X454600Y672200
X456800
X457200Y675700
X459000Y672200
X460100Y686500
X461200Y672200
X462300Y679600
Y681800
Y686500
X464600Y670000
X467800Y674800
X470200Y672300
X472600Y670000
X475800Y674800
X478200Y672300
X738800Y689100
X818000Y667000
Y669200
R02Y2200
X823500Y660900
X829700Y661800
Y664000
R02Y2200
X857189Y661200
X859589
X871363
X873763
X889100Y661300
Y663500
X907300Y661300
Y663500
X909700Y661300
Y663500
X912100Y670100
Y672300
X914500Y670100
Y672300
X919900Y661324
Y663676
Y670124
X937000Y687400
X957900Y664747
R05Y5000
Y719747
R05Y-5000
X893758Y702300
X893700Y690900
X890300
X887900Y696500
X883700Y690900
X880300
X780100Y712100
Y702000
X780000Y695400
Y691900
X773300Y708900
X768500Y715600
Y698700
X766300Y715600
X763000Y691076
X746100Y702000
Y698600
R02Y-3400
X742800Y718800
Y715400
Y711900
Y708500
X453700Y691700
X196300Y712100
Y702000
X196200Y695400
Y691900
X189500Y708900
X184700Y715600
Y698700
X179300Y703000
X179200Y691076
X162300Y702000
R03Y-3400
X159000Y718800
Y715400
Y711900
Y708500
X130200Y712100
X124600Y714500
X122100Y707900
X115400Y693200
Y691000
X108000Y708000
X103700Y717300
Y700400
Y694700
X103600Y707100
X101500Y717300
Y700400
X101200Y694700
R02X-2400
X91900Y695376
Y693024
X89700Y717300
Y700400
X87300Y693024
X73400Y697000
X63700Y694500
X2100Y717309
Y712309
R04Y-5000
Y722309
R05Y5000
X89700Y734200
X101500
X103600Y724000
Y740900
X103700Y734200
X108000Y724900
Y741800
X122100Y724800
Y741700
X124600Y731400
Y748300
X130200Y729000
Y745900
X146700Y737100
X150100
X159000Y729600
Y733000
Y736500
Y739900
X162600Y722300
X173200Y720300
Y722400
Y729700
Y731800
X175300Y720300
Y722400
Y729700
Y731800
X178900Y732000
X182300
X188000Y741000
X191400Y747800
X312600Y726700
X314800Y724500
Y726700
X317000Y722300
Y724500
Y726700
X500985Y738400
Y740600
Y743000
Y745200
X504922Y735400
Y737600
Y740000
Y742200
X508859Y738400
Y740600
Y743000
Y745200
X512796Y735400
Y737600
Y740000
Y742200
X516733Y738400
Y740600
Y743000
Y745200
X520670Y735400
Y737600
Y740000
Y742200
X524607Y738400
Y740600
Y743000
Y745200
X528544Y735400
Y737600
Y740000
Y742200
X602300Y722300
R02Y2200
X604500Y724500
Y726700
X606700
X735300Y737100
X738700
X746400Y722300
X747600Y729600
Y733000
Y736500
Y739900
X757000Y720300
Y722400
X759100Y720300
Y722400
X761800Y729700
Y731800
X763900Y729700
Y731800
X767500Y732000
X770900
X776600Y741000
X780000Y747800
X826300Y730900
Y733100
Y735600
Y737800
X839900Y734400
R02Y2200
X842100Y734400
R02Y2200
X844300Y734400
R02Y2200
X857800Y725600
R04Y3200
X876042Y748700
X893758
X957900Y724747
R05Y5000
Y779747
R05Y-5000
X773200Y757800
Y754400
X770900Y774100
R03Y-2200
X768100Y751000
X765900Y761600
X741000Y762900
Y752900
Y750525
X736900Y774100
Y771900
R02Y-2200
X733000Y762900
Y756300
Y752900
X569882Y779725
Y775788
R04Y-3937
X565945Y779725
R05Y-3937
X562008Y779725
R05Y-3937
X558071Y779725
R05Y-3937
X554134Y779725
R05Y-3937
X550197Y779725
R05Y-3937
X546260Y779725
R05Y-3937
X542323Y779725
R05Y-3937
X538386Y779725
R05Y-3937
X534449Y779725
R05Y-3937
X530512Y779725
R05Y-3937
X524607Y777756
R02Y-3937
Y758071
X520670Y777756
Y765945
R02Y-3937
X516733Y777756
R02Y-3937
Y758071
X512796Y777756
Y765945
R02Y-3937
X508859Y777756
R02Y-3937
Y758071
X504922Y777756
Y765945
R02Y-3937
X500985Y777756
R02Y-3937
Y758071
X497048Y777756
Y765945
R02Y-3937
X493111Y777756
R05Y-3937
X489174Y777756
R05Y-3937
X485237Y777756
R05Y-3937
X481300Y777756
R05Y-3937
X477363Y777756
R05Y-3937
X473426Y777756
R05Y-3937
X469489Y777756
R05Y-3937
X465552Y777756
R05Y-3937
X461615Y777756
R05Y-3937
X457677Y777756
R05Y-3937
X453740Y777756
R05Y-3937
X449803Y777756
R05Y-3937
X445866Y777756
R05Y-3937
X441929Y777756
R05Y-3937
X437992Y777756
R05Y-3937
X434055Y777756
R05Y-3937
X430118Y777756
R05Y-3937
X426181Y777756
R05Y-3937
X422244Y777756
R05Y-3937
X418307Y777756
R05Y-3937
X414370Y777756
R05Y-3937
X410433Y777756
R05Y-3937
X406496Y777756
R05Y-3937
X402559Y777756
R05Y-3937
X398622Y777756
R05Y-3937
X394685Y777756
R05Y-3937
X388780Y779725
R05Y-3937
X384843Y779725
R05Y-3937
X380906Y779725
R05Y-3937
X376969Y779725
R05Y-3937
X373032Y779725
R05Y-3937
X369095Y779725
R05Y-3937
X365158Y779725
R05Y-3937
X361221Y779725
R05Y-3937
X357284Y779725
R05Y-3937
X353347Y779725
R05Y-3937
X349410Y779725
R05Y-3937
X184600Y757800
Y754400
X182300Y774100
R03Y-2200
X179500Y751000
X177300Y761600
X152400Y762900
Y752900
Y750525
X148300Y774100
Y771900
R02Y-2200
X144400Y762900
Y756300
Y752900
X117000Y762400
Y756800
X115700Y774300
Y768700
X115400Y760800
Y758400
X114100Y772700
Y770300
X98200Y774724
Y768276
Y762824
Y756376
X90200Y762400
Y756800
X88900Y774300
Y768700
X88600Y760800
Y758400
X87300Y772700
Y770300
X71400Y774724
Y768276
Y762824
Y756376
X2100Y777309
Y772309
R04Y-5000
Y782309
R05Y5000
X71400Y779976
Y786424
X77800Y788600
Y797600
Y799800
Y805500
X80000Y797600
Y799800
X88600Y782000
Y784400
X89600Y788600
Y805500
X90200Y780400
Y786000
X91700Y795300
X91800Y788600
Y805500
X98200Y780076
Y786524
X102100Y796600
X110200Y796100
X112700Y802700
X115400Y782100
Y784500
X117000Y780500
Y786100
X118300Y800300
X149500Y803200
X152100Y807300
X161100Y801000
Y803100
R03Y2100
X163200Y801000
R04Y2100
X165300Y801000
R04Y2100
X167400Y801000
R04Y2100
X169500Y801000
R04Y2100
X184100Y801600
Y804800
X187300Y801600
Y804800
X190500Y801600
Y804800
X191400Y791400
X197500Y785100
Y800900
Y804100
X231400Y798500
Y806500
X233800Y785100
X349410Y783662
Y787599
R05Y3937
X353347Y783662
R06Y3937
X357284Y783662
R06Y3937
X361221Y783662
R06Y3937
X365158Y783662
R06Y3937
X369095Y783662
R06Y3937
X373032Y783662
R06Y3937
X376969Y783662
R06Y3937
X380906Y783662
R06Y3937
X384843Y783662
R06Y3937
X388780Y783662
R06Y3937
X392717Y799410
R02Y3937
X394685Y781693
R04Y3937
X396654Y803347
Y807284
X398622Y781693
R05Y3937
X400591Y803347
Y807284
X402559Y781693
R05Y3937
X404528Y803347
Y807284
X406496Y781693
R05Y3937
X410433Y781693
R07Y3937
X414370Y781693
R07Y3937
X418307Y781693
R07Y3937
X422244Y781693
R07Y3937
X426181Y781693
R07Y3937
X430118Y781693
R07Y3937
X434055Y781693
R07Y3937
X437992Y781693
R07Y3937
X441929Y781693
R07Y3937
X445866Y781693
R07Y3937
X449803Y781693
R07Y3937
X453740Y781693
R07Y3937
X457677Y781693
R07Y3937
X461615Y781693
R07Y3937
X465552Y781693
R07Y3937
X469489Y781693
R07Y3937
X473426Y781693
R07Y3937
X477363Y781693
R07Y3937
X481300Y781693
R07Y3937
X485237Y781693
R07Y3937
X489174Y781693
R07Y3937
X493111Y781693
R07Y3937
X497048Y781693
R07Y3937
X500985Y781693
R07Y3937
X504922Y781693
R07Y3937
X508859Y781693
R07Y3937
X512796Y781693
R07Y3937
X516733Y781693
R07Y3937
X520670Y781693
R05Y3937
X522638Y803347
Y807284
X524607Y781693
R03Y3937
X526575Y795473
R03Y3937
X530512Y783662
R06Y3937
X534449Y783662
R06Y3937
X538386Y783662
R06Y3937
X542323Y783662
R06Y3937
X546260Y783662
R06Y3937
X550197Y783662
R06Y3937
X554134Y783662
R06Y3937
X558071Y783662
R06Y3937
X562008Y783662
R06Y3937
X565945Y783662
R06Y3937
X569882Y783662
R06Y3937
X685600Y800900
X688000Y806800
X690400Y785100
X721800
Y800900
Y804100
X728800Y801600
Y804800
X732000Y801600
Y804800
X735200Y801600
Y804800
X749700Y801000
R04Y2100
X751800Y801000
R04Y2100
X753900Y801000
R04Y2100
X756000Y801000
R04Y2100
X758100Y801000
R04Y2100
X767100Y807300
X769700Y803200
X827500Y786200
X830900
X832000Y801700
Y804900
Y808600
X834600Y784600
Y787800
R02Y3200
X846800Y799200
X849600
X852200Y782494
Y790369
X858300Y786900
X859300Y806000
X861700Y800400
X865000Y781100
Y784500
X865100Y793300
X871100Y801200
R02Y2200
X873300Y801200
R02Y2200
X875500Y801200
R02Y2200
X957900Y784747
R05Y5000
Y839747
R05Y-5000
X898400Y822500
R02X-3200
X886900Y817200
X883700
X882400Y837200
R02Y-3200
X880500Y817200
X877300
X873300Y814500
X872200Y837200
Y834000
Y830800
X851400Y839000
X850500Y834200
X848600Y822300
Y820100
X848200Y839000
X846400Y822300
Y820100
X838000Y833400
X835800Y822300
X832400Y834300
X832000Y818700
Y815500
Y811800
X774800Y834500
Y831300
Y828100
X755400Y834500
R02Y-3200
X752200Y834500
R02Y-3200
X735200Y824200
R02X-3200
X724100Y838600
X721800Y832700
Y829500
Y818500
Y815300
X690400Y818500
X688000Y827800
X685600Y835100
Y815300
X573819Y811221
X569882Y838780
R06Y-3937
X565945Y838780
R07Y-3937
X562008Y838780
R07Y-3937
X558071Y838780
R07Y-3937
X554134Y838780
R07Y-3937
X550197Y838780
R07Y-3937
X546260Y838780
R07Y-3937
X542323Y838780
R07Y-3937
X538386Y838780
R07Y-3937
X534449Y838780
R07Y-3937
X530512Y838780
R07Y-3937
X526575Y838780
R07Y-3937
X522638Y838780
R07Y-3937
X518701Y838780
R07Y-3937
X514764Y838780
R07Y-3937
X508859Y836811
R06Y-3937
X505368Y836876
Y831076
Y826676
X504922Y821063
Y817126
Y813189
X503768Y838276
Y832476
Y828076
X500985Y836811
Y832874
Y828937
Y821063
R02Y-3937
X500346Y825177
X498946Y823577
X497048Y836811
R02Y-3937
Y821063
R02Y-3937
X494546Y825177
X493111Y836811
Y832874
Y828937
X493146Y823577
X493111Y821063
Y817126
Y813189
X489946Y825177
X489174Y836811
Y832874
Y828937
Y821063
R02Y-3937
X488546Y823577
X485237Y836811
Y832874
Y828937
Y821063
R02Y-3937
X484146Y825177
X482746Y823577
X481300Y836811
R02Y-3937
Y821063
R02Y-3937
X479546Y825177
X478146Y823577
X477363Y836811
R02Y-3937
Y821063
R02Y-3937
X473746Y825177
X473426Y836811
Y832874
Y828937
Y821063
R02Y-3937
X472346Y823577
X469489Y836811
Y832874
Y828937
Y821063
R02Y-3937
X469146Y825177
X467746Y823577
X465552Y836811
R02Y-3937
Y821063
R02Y-3937
X463346Y825177
X461946Y823577
X461615Y836811
R02Y-3937
Y821063
R02Y-3937
X457677Y836811
R02Y-3937
Y821063
R02Y-3937
X457346Y825177
X455946Y823577
X453740Y836811
R02Y-3937
Y821063
Y817126
X451546Y825177
X450146Y823577
X449803Y836811
R02Y-3937
Y821063
R02Y-3937
X446946Y825177
X445866Y836811
Y832874
Y828937
Y821063
Y817126
X445546Y823577
X441929Y836811
Y832874
Y828937
Y821063
R02Y-3937
X441146Y825177
X439746Y823577
X437992Y836811
R02Y-3937
Y821063
R02Y-3937
X436546Y825177
X435146Y823577
X434055Y836811
R02Y-3937
Y821063
R02Y-3937
X430746Y825177
X430118Y836811
Y832874
Y828937
Y821063
R02Y-3937
X429346Y823577
X426181Y836811
Y832874
Y828937
Y821063
R02Y-3937
X426146Y825177
X424746Y823577
X422244Y836811
R02Y-3937
Y821063
R02Y-3937
X420346Y825177
X418946Y823577
X418307Y836811
R02Y-3937
Y821063
R02Y-3937
X415524Y836876
Y831076
Y826676
X414370Y821063
Y817126
Y813189
X413924Y838276
Y832476
Y828076
X410433Y836811
Y832874
R05Y-3937
X404528Y838780
R07Y-3937
X400591Y838780
R07Y-3937
X396654Y838780
R07Y-3937
X392717Y838780
R07Y-3937
X388780Y838780
R07Y-3937
X384843Y838780
R07Y-3937
X380906Y838780
R07Y-3937
X376969Y838780
R07Y-3937
X373032Y838780
R07Y-3937
X369095Y838780
R07Y-3937
X365158Y838780
R07Y-3937
X361221Y838780
R07Y-3937
X357284Y838780
R07Y-3937
X353347Y838780
R07Y-3937
X349410Y838780
R06Y-3937
X345473Y811221
X233800Y831900
Y818500
X229000Y835100
Y815300
X197500Y832700
Y829500
Y818500
Y815300
X195200Y838600
X190500Y824200
R02X-3200
X167000Y834500
R02Y-3200
X163800Y834500
R02Y-3200
X144400Y834500
R02Y-3200
X118300Y817200
X117000Y832900
Y827300
X115700Y839100
X115400Y831300
Y828900
X112700Y819600
X110200Y813000
X102100Y813500
X98200Y838676
Y833324
Y826876
X91700Y812200
X90200Y832900
Y827300
X88900Y839100
X88600Y831300
Y828900
X80000Y816700
Y814500
X77800Y816700
Y814500
X71400Y838676
Y833324
Y826876
X2100Y837309
Y832309
R04Y-5000
Y842309
R05Y5000
X71400Y845124
Y850476
Y856924
X77800Y859100
Y868100
X80000
X87300Y840700
Y843100
X88600Y852500
Y854900
X88900Y844700
X89600Y859100
X90200Y850900
Y856500
X91700Y865800
X91800Y859100
X98200Y845124
Y850476
Y856924
X102100Y867100
X110200Y866600
X114100Y840700
Y843100
X115400Y852500
Y854900
X115700Y844700
X117000Y850900
Y856500
X156800Y841600
X160000
X162000Y869200
X163200Y841600
X168900
R02X3200
X176500Y868800
X181000Y841600
X184200
X189600Y841000
X195200Y846800
X197400Y852900
Y869800
X228400Y852900
Y869800
X349410Y842717
Y846654
R05Y3937
X353347Y842717
R06Y3937
X357284Y842717
R06Y3937
X361221Y842717
R06Y3937
X365158Y842717
R06Y3937
X369095Y842717
R06Y3937
X373032Y842717
R06Y3937
X376969Y842717
R06Y3937
X380906Y842717
R06Y3937
X384843Y842717
R06Y3937
X388780Y842717
R06Y3937
X392717Y842717
R06Y3937
X396654Y842717
R06Y3937
X400591Y842717
R06Y3937
X404528Y842717
R02Y3937
Y862402
X406496Y856496
X410433Y840748
R03Y3937
Y860433
Y864370
X413924Y842676
Y848476
Y852876
Y858676
Y863076
Y868876
X415524Y841276
Y847076
Y851476
Y857276
Y861676
Y867476
X418307Y840748
R07Y3937
X422244Y840748
R07Y3937
X426181Y840748
R07Y3937
X430118Y840748
R07Y3937
X434055Y840748
R07Y3937
X437992Y840748
R07Y3937
X441929Y840748
R07Y3937
X445866Y840748
R07Y3937
X449803Y840748
R07Y3937
X453740Y840748
R07Y3937
X457677Y840748
R07Y3937
X461615Y840748
R07Y3937
X465552Y840748
R07Y3937
X469489Y840748
R07Y3937
X473426Y840748
R07Y3937
X477363Y840748
R07Y3937
X481300Y840748
R07Y3937
X485237Y840748
R07Y3937
X489174Y840748
R07Y3937
X493111Y840748
R07Y3937
X497048Y840748
R07Y3937
X500985Y840748
R07Y3937
X503768Y842676
Y848476
Y852876
Y858676
Y863076
Y868876
X505368Y841276
Y847076
Y851476
Y857276
Y861676
Y867476
X508859Y840748
R06Y3937
X512796Y852559
Y856496
X514764Y842717
Y846654
Y862402
X518701Y842717
Y846654
R05Y3937
X522638Y842717
R06Y3937
X526575Y842717
R06Y3937
X530512Y842717
R06Y3937
X534449Y842717
R06Y3937
X538386Y842717
R06Y3937
X542323Y842717
R06Y3937
X546260Y842717
R06Y3937
X550197Y842717
R06Y3937
X554134Y842717
R06Y3937
X558071Y842717
R06Y3937
X562008Y842717
R06Y3937
X565945Y842717
R06Y3937
X569882Y842717
R06Y3937
X691000Y852900
Y869800
X721900Y852900
Y869800
X724100Y846800
X729700Y841000
X735100Y841600
X738300
X744000
X747200
X750100Y869200
X750400Y841600
X756100
R02X3200
X764600Y868800
X836531Y846900
X844600Y842800
X848200Y853400
X851400
X852000Y868900
X872200Y840400
Y843600
X882400Y840400
Y843600
X957900Y844747
R05Y5000
Y899747
R05Y-5000
X891240Y899300
X852000Y875300
Y872100
X851600Y893200
Y891000
R02Y-2200
X849400Y893200
R03Y-2200
X847200Y893200
R03Y-2200
X845000Y893200
R02Y-2200
X840400Y875300
R02Y-2100
X838300Y875300
R02Y-2100
X764600Y875600
Y872200
X760900Y891300
X758800Y893800
Y888800
X756700Y899900
Y891300
X755900Y875000
X755600Y881300
X754600Y893800
Y888800
X752500Y891300
X748900Y881300
X747500Y891000
X745000Y899900
X743400Y888400
X742800Y899900
X738300Y879300
X735200Y887000
Y883800
X735100Y879300
X732000Y887000
Y883800
X731900Y879300
X728800Y887000
Y883800
X721800Y898800
Y895600
Y885200
Y882000
X690200Y898800
Y883600
X687800Y887600
X685400Y895600
X569882Y878151
R02Y-3937
X569600Y895867
Y887993
Y884056
X565945Y878151
Y874214
Y870277
X562009Y897835
X562008Y889962
Y886025
R04Y-3937
X558071Y897836
Y889962
Y886025
R04Y-3937
X554134Y897836
R07Y-3937
X550197Y897836
R05Y-3937
Y874213
X546260Y897836
Y893899
R04Y-3937
X546261Y874214
X546260Y870277
X542323Y897836
R05Y-3937
X542324Y874214
X542323Y870277
X538386Y897835
R06Y-3937
X534449Y897835
R06Y-3937
X530512Y897835
R06Y-3937
X526575Y897835
R06Y-3937
X522638Y897835
R06Y-3937
X518701Y897835
R06Y-3937
X514764Y893898
R02Y-7874
X514763Y870276
X512796Y887993
X510827Y886024
Y878150
Y870275
X508859Y895867
Y891930
X505368Y898076
Y892276
Y887876
Y882076
Y877676
Y871876
X503768Y899476
Y893676
Y889276
Y883476
Y879076
Y873276
X500985Y899804
Y895867
R06Y-3937
X497048Y899804
R07Y-3937
X493111Y899804
R07Y-3937
X489174Y899804
R07Y-3937
X485237Y899804
R07Y-3937
X481300Y899804
R07Y-3937
X477363Y899804
R07Y-3937
X473426Y899804
R07Y-3937
X469489Y899804
R07Y-3937
X465552Y899804
R07Y-3937
X461615Y899804
R07Y-3937
X457677Y899804
R07Y-3937
X453740Y899804
R07Y-3937
X449803Y899804
R07Y-3937
X445866Y899804
R07Y-3937
X441929Y899804
R07Y-3937
X437992Y899804
R07Y-3937
X434055Y899804
R07Y-3937
X430118Y899804
R07Y-3937
X426181Y899804
R07Y-3937
X422244Y899804
R07Y-3937
X418307Y899804
R07Y-3937
X415524Y898076
Y892276
Y887876
Y882076
Y877676
Y871876
X413924Y899476
Y893676
Y889276
Y883476
Y879076
Y873276
X410433Y895867
Y891930
X408465Y886024
Y878150
Y870275
X406496Y887993
X404528Y893898
R02Y-7874
X404529Y870276
X400591Y897835
Y893898
R05Y-3937
X396654Y897835
R06Y-3937
X392717Y897835
R06Y-3937
X388780Y897835
R06Y-3937
X384843Y897835
R06Y-3937
X380906Y897835
R06Y-3937
X376969Y897836
R05Y-3937
X376968Y874214
X376969Y870277
X373032Y897836
R05Y-3937
X373031Y874214
X373032Y870277
X369095Y897836
R05Y-3937
Y874213
X365158Y897836
Y893899
R06Y-3937
X361221Y897836
Y889962
Y886025
R04Y-3937
X357283Y897835
X357284Y889962
Y886025
R04Y-3937
X353347Y878151
R02Y-3937
X349692Y895867
Y887993
Y884056
X349410Y878151
Y874214
Y870277
X233800Y898800
Y885200
X229000Y895600
Y882000
X197500Y898800
Y895600
Y885200
Y882000
X190500Y887000
Y883800
X187400Y879300
X187300Y887000
Y883800
X184200Y879300
X184100Y887000
Y883800
X181000Y879300
X176500Y875600
Y872200
X172800Y891300
X170700Y893800
Y888800
X168600Y899900
Y891300
X167800Y875000
X167500Y881300
X166500Y893800
Y888800
X164400Y891300
X160800Y881300
X159400Y891000
X156900Y899900
X155300Y888400
X154700Y899900
X118300Y887700
Y870800
X112700Y890100
Y873200
X110200Y883500
X102100Y884000
X91800Y876000
X91700Y882700
X89600Y876000
X80000Y887200
Y885000
Y870300
X77800Y887200
Y885000
Y876000
Y870300
X66600Y897200
X59500Y890100
X52400Y883000
X2100Y897309
Y892309
R02Y-5000
Y872309
Y902309
Y907309
R04Y5000
X73700Y904300
X80800Y911400
X87900Y918500
X95000Y925600
X145400Y912200
X145784Y929000
X148800Y912200
R06X3400
X173000Y923500
X173500Y909000
X184000Y916400
Y919600
X184100Y906400
X187200Y916400
Y919600
X187300Y906400
X190400Y916400
Y919600
X190500Y906400
X197500Y915600
Y918800
Y925600
Y928800
X229000Y915600
Y928800
X231400Y923200
X233800Y918800
X349410Y925394
X349692Y903741
Y907678
X353347Y917520
R02Y3937
X357284Y901772
R02Y3937
Y921457
R02Y3937
X361221Y901773
Y905710
X361220Y909647
X361221Y921457
Y925394
Y929331
X365158Y901772
R07Y3937
X369095Y901772
R07Y3937
X373032Y901772
R07Y3937
X376969Y901772
R07Y3937
X380906Y901772
R07Y3937
X384843Y901772
R07Y3937
X388780Y901772
R07Y3937
X392717Y901772
R07Y3937
X396654Y901772
R07Y3937
X400591Y901772
R07Y3937
X404528Y901772
Y909646
Y913583
R04Y3937
X408465Y901772
X410433Y903741
Y907678
R05Y3937
X413924Y903876
Y909676
Y914076
X414370Y919489
Y923426
Y927363
X415524Y902476
Y908276
Y912676
X418307Y903741
Y907678
Y911615
Y919489
R02Y3937
X418946Y915375
X420346Y916975
X422244Y903741
R02Y3937
Y919489
R02Y3937
X424746Y915375
X426146Y916975
X426181Y903741
R02Y3937
Y919489
R02Y3937
X429346Y915375
X430118Y903741
Y907678
Y911615
Y919489
R02Y3937
X430746Y916975
X434055Y903741
Y907678
Y911615
Y919489
R02Y3937
X435146Y915375
X436546Y916975
X437992Y903741
R02Y3937
Y919489
R02Y3937
X439746Y915375
X441146Y916975
X441929Y903741
R02Y3937
Y919489
R02Y3937
X445546Y915375
X445866Y903741
Y907678
Y911615
Y919489
R02Y3937
X446946Y916975
X449803Y903741
Y907678
Y911615
Y919489
R02Y3937
X450146Y915375
X451546Y916975
X453740Y903741
R02Y3937
Y919489
R02Y3937
X455946Y915375
X457346Y916975
X457677Y903741
R02Y3937
Y919489
R02Y3937
X461615Y903741
R02Y3937
Y919489
R02Y3937
X461946Y915375
X463346Y916975
X465552Y903741
R02Y3937
Y919489
R02Y3937
X467746Y915375
X469146Y916975
X469489Y903741
R02Y3937
Y919489
R02Y3937
X472346Y915375
X473426Y903741
Y907678
Y911615
Y919489
R02Y3937
X473746Y916975
X477363Y903741
Y907678
Y911615
Y919489
R02Y3937
X478146Y915375
X479546Y916975
X481300Y903741
R02Y3937
Y919489
R02Y3937
X482746Y915375
X484146Y916975
X485237Y903741
R02Y3937
Y919489
R02Y3937
X488546Y915375
X489174Y903741
Y907678
Y911615
Y919489
R02Y3937
X489946Y916975
X493111Y903741
Y907678
Y911615
X493146Y915375
X493111Y919489
Y923426
Y927363
X494546Y916975
X497048Y903741
Y907678
Y911615
Y919489
R02Y3937
X498946Y915375
X500346Y916975
X500985Y903741
R02Y3937
Y919489
R02Y3937
X503768Y903876
Y909676
Y914076
X504922Y919489
Y923426
Y927363
X505368Y902476
Y908276
Y912676
X508859Y903741
Y907678
R05Y3937
X514764Y901772
R07Y3937
X518701Y901772
R07Y3937
X522638Y901772
R07Y3937
X526575Y901772
R07Y3937
X530512Y901772
R07Y3937
X534449Y901772
R07Y3937
X538386Y901772
R07Y3937
X542323Y901773
Y905709
Y909646
R05Y3937
X546260Y901773
Y905709
Y909646
R05Y3937
X550197Y901773
Y905709
Y909646
R05Y3937
X554134Y901772
R07Y3937
X558071Y901773
R02Y3937
Y921457
R02Y3937
X562008Y901772
R02Y3937
Y921457
R02Y3937
X565945Y917520
R02Y3937
X569600Y903741
Y907678
X569882Y925394
X685400Y915600
Y928800
X690200Y918800
Y925600
X721800Y915600
Y918800
Y925600
Y928800
X728800Y906400
Y916400
Y919600
X732000Y906400
Y916400
Y919600
X735200Y906400
Y916400
Y919600
X748000Y920500
R02Y3400
X759300Y916700
X761600Y909000
X767300Y916700
X775900
X783900
X795200Y920500
Y923900
Y927300
X809300Y929900
X813100Y918600
X816500
R03X3400
X833500
X836900
X842400Y902200
X846400Y904800
X849600
R02X3200
X857300Y920700
X860900Y916800
X861100Y910100
X864100Y916800
X864300Y910100
X867500
X867800Y916800
X871000
X872700Y901800
X876000Y909500
Y922300
X880000Y907300
X883700Y911000
X883841Y917100
X891700Y911000
X894800Y901300
Y909300
X897700Y914747
X901200Y917400
X957900Y904747
Y909747
R04Y5000
Y959747
R05Y-5000
X902100Y953200
R06Y-2200
X899900Y953200
R06Y-2200
X897700Y951000
R05Y-2200
X895500Y948800
R04Y-2200
X867200
R04Y-2200
X865000Y937800
R03Y-2200
X862800Y935600
R02Y-2200
X860600Y933400
Y931200
X858400
X841700Y931300
X836516Y949000
X809300Y954500
Y946500
Y940100
Y937900
X796400Y956400
X795200Y944300
R04Y-3400
X790600Y958800
X787200
X764800Y943916
X748000Y944300
Y940900
R03Y-3400
X735200Y939000
X732000
X729000Y957500
Y955100
X728800Y939000
X569882Y949016
Y937205
X569600Y958859
X565945Y952953
R05Y-3937
X562008Y956890
X562009Y952954
X562008Y949016
R04Y-3937
X558071Y956890
R06Y-3937
X554134Y956890
R06Y-3937
X550197Y956890
R06Y-3937
X546260Y956890
R06Y-3937
X542323Y956890
R06Y-3937
X538387Y956890
X538386Y952953
Y949016
R04Y-3937
X534450Y956890
Y952953
X534449Y949016
R04Y-3937
X530513Y956890
Y952953
X530512Y949016
R04Y-3937
X526576Y956890
Y952953
X526575Y949016
R04Y-3937
X522639Y956890
Y952953
X522638Y949016
R04Y-3937
X518702Y956890
Y952953
X518701Y949016
R04Y-3937
X514764Y956890
X514765Y952953
X514764Y949016
R04Y-3937
X510827Y956890
R02Y-3937
X508859Y943111
R03Y-3937
X506890Y956890
R02Y-3937
X504922Y943111
R03Y-3937
X502953Y956890
R02Y-3937
X500985Y943111
R03Y-3937
X499016Y952953
Y949016
X497048Y943111
R03Y-3937
X495079Y956890
R02Y-3937
X493111Y943111
R03Y-3937
X491142Y956890
R02Y-3937
X489174Y943111
R03Y-3937
X487205Y956890
Y952953
X485237Y943111
R03Y-3937
X483268Y956890
R02Y-3937
X481300Y943111
R03Y-3937
X479331Y956890
R02Y-3937
X477363Y943111
R03Y-3937
X475394Y956890
R02Y-3937
X473426Y943111
R03Y-3937
X471457Y956890
R02Y-3937
X469489Y943111
R03Y-3937
X467520Y956890
R02Y-3937
X465552Y943111
R03Y-3937
X463583Y956890
R02Y-3937
X461615Y943111
R03Y-3937
X457677Y943111
R03Y-3937
X455709Y956890
R02Y-3937
X453740Y943111
R03Y-3937
X451772Y956890
R02Y-3937
X449803Y943111
R03Y-3937
X447835Y956890
R02Y-3937
X445866Y943111
R03Y-3937
X443898Y956890
R02Y-3937
X441929Y943111
R03Y-3937
X439961Y956890
R02Y-3937
X437992Y943111
R03Y-3937
X436024Y956890
R02Y-3937
X434055Y943111
R03Y-3937
X432087Y956890
R02Y-3937
X430118Y943111
R03Y-3937
X428150Y956890
R02Y-3937
X426181Y943111
R03Y-3937
X424213Y956890
R02Y-3937
X422244Y943111
R03Y-3937
X420276Y956890
R02Y-3937
X418307Y943111
R03Y-3937
X416339Y956890
R02Y-3937
X414370Y943111
R03Y-3937
X412402Y956890
R02Y-3937
X410433Y943111
R03Y-3937
X408465Y956890
R02Y-3937
X404527Y956890
Y952953
X404528Y949016
R04Y-3937
X400590Y956890
Y952953
X400591Y949016
R04Y-3937
X396653Y956890
Y952953
X396654Y949016
R04Y-3937
X392716Y956890
Y952953
X392717Y949016
R04Y-3937
X388779Y956890
Y952953
X388780Y949016
R04Y-3937
X384842Y956890
X384843Y952953
Y949016
R04Y-3937
X380906Y956890
R06Y-3937
X376969Y956890
R06Y-3937
X373032Y956890
R06Y-3937
X369095Y956890
R06Y-3937
X365158Y956890
R06Y-3937
X361221Y956890
R06Y-3937
X357284Y956890
X357283Y952954
X357284Y949016
R04Y-3937
X353347Y952953
R05Y-3937
X349692Y958859
X349410Y949016
Y937205
X190400Y939000
X187200
X184000
X173000Y948100
Y940100
Y931500
X171600Y959700
X168816Y951900
X165800Y953900
X163698Y951900
X161139Y953900
X158580Y951900
X156020Y956100
Y953900
X153461Y951900
X150902Y953900
X148343Y951900
X95000Y955600
X2100Y957309
Y952309
R04Y-5000
Y962309
Y972309
Y977309
R02Y5000
X10500Y972700
Y977400
X28900Y977000
X30500Y975400
X32900
X34500Y977000
X39200Y978300
X43900Y977000
X45500Y975400
X47900
X49500Y977000
X54200Y978300
X58900Y977000
X60500Y975400
X62900
X64500Y977000
X69200Y978300
X73900Y977000
X75500Y975400
X77900
X79500Y977000
X84200Y978300
X95000Y965600
X103100Y972700
Y977400
X105100Y981700
Y983900
Y986100
X106500Y970300
Y978300
X109900Y970300
Y978300
X138200Y965700
X145400Y973100
X145784Y984800
X148343Y975500
X150902Y973500
X153461Y975500
X156020Y973500
X158580Y975500
X159000Y962100
Y965300
X161139Y973500
X162400Y965300
X163698Y975500
X165800Y965300
X168816Y975500
X169200Y965300
X173000Y970200
Y979300
Y987300
X175600Y963700
X179600Y979300
X182100Y970200
X189300Y987500
X349692Y974607
Y978544
X353347Y964764
Y980512
X357284Y964764
Y972638
Y976575
X361220Y960827
X361221Y964764
Y972638
R02Y3937
X365157Y960827
X365158Y964764
Y968701
R02Y3937
X369095Y960827
Y964764
X369094Y968701
X369095Y972639
X369094Y976575
X373032Y960827
Y964764
X376969Y960827
Y964764
X376968Y968701
Y972638
X378937Y980230
X380906Y960827
Y964764
X380905Y968701
X380906Y972638
X382874Y980230
X384843Y960827
X384842Y964765
Y968701
X384843Y972639
X388779Y960827
Y964764
Y968701
X388780Y972639
X388779Y976575
X392716Y960827
Y964764
X396653Y960827
Y964764
Y968702
X396654Y972638
X398622Y980230
X400590Y960827
Y964764
Y968701
X400591Y972638
X402559Y980230
X404527Y960827
Y964764
X404528Y968701
Y972638
X406496Y980230
X408465Y960827
Y964764
R02Y3937
X412402Y960827
R03Y3937
X416339Y960827
R03Y3937
X420276Y960827
R02Y3937
X424213Y960827
R05Y3937
X428150Y960827
R05Y3937
X432087Y960827
R05Y3937
X436024Y960827
R05Y3937
X439961Y960827
R05Y3937
X443898Y960827
R05Y3937
X447835Y960827
R05Y3937
X451772Y960827
R05Y3937
X455709Y960827
R05Y3937
X463583Y960827
R05Y3937
X467520Y960827
R03Y3937
X471457Y960827
R03Y3937
X475394Y960827
R05Y3937
X479331Y960827
R05Y3937
X483268Y960827
R05Y3937
X487205Y960827
R02Y3937
X491142Y960827
R03Y3937
X495079Y960827
Y964764
X499016Y960827
Y964764
X502953Y960827
R03Y3937
X506890Y960827
Y964764
X510827Y960827
R04Y3937
X512796Y980230
X514765Y960827
Y964764
X514764Y968701
Y972638
X516733Y980230
X518702Y960827
R02Y3937
X518701Y972638
X520670Y980230
X522639Y960827
Y964764
Y968702
X522638Y972638
X526576Y960827
Y964764
X530513Y960827
R02Y3937
X530512Y972639
X530513Y976575
X534450Y960827
Y964765
X534449Y968701
Y972638
X536418Y980230
X538386Y960827
Y964764
X538387Y968701
X538386Y972638
X540355Y980230
X542323Y960827
Y964764
X542324Y968701
X542323Y972638
X546260Y960827
Y964764
X550197Y960827
Y964764
X550198Y968701
X550197Y972639
X550198Y976575
X554134Y960827
Y964764
R03Y3937
X558072Y960827
X558071Y964764
Y972638
R02Y3937
X562008Y964764
Y972638
Y976575
X565945Y964764
Y980512
X569600Y974607
Y978544
X729000Y985100
Y987500
Y989900
X752600Y972400
Y982500
Y985700
Y989300
X787200Y973500
X790600
X792700Y982500
X796400Y961200
Y965800
Y971100
Y975900
X806000Y986200
Y989400
X811000Y986200
Y989400
X813100Y965800
X816000Y986200
Y989400
X816500Y965800
X819900
X821800Y983800
X823300Y965800
X826700
X827600Y986200
Y989400
X833500Y965800
X836900
X872200Y979300
Y982500
R02Y3200
X882400Y979300
R03Y3200
X957900Y964747
R05Y5000
Y1019747
R05Y-5000
X902900Y1008500
X900500Y1002900
X900400Y1010900
X897100Y1002900
X891000Y1017500
X886900Y1009431
X882400Y992100
X872200
X862700Y1013300
Y1011200
X860600Y1013300
Y1011200
X858500Y1013300
Y1011200
X810900Y993500
X806000Y991700
X792700Y1017500
R02Y-5000
Y999900
Y997500
Y992500
Y990100
X790300Y1004900
X761000Y1019300
Y1011700
Y1009300
Y1002500
X729000Y1006300
Y1003900
X606700Y1013900
X604500Y1016100
Y1013900
X602300Y1018300
R02Y-2200
X317000Y1018300
R02Y-2200
X314800Y1016100
Y1013900
X312600
X191700Y1017100
Y1014900
Y995300
Y993100
X189300Y1011500
Y1003500
X187100
X175700Y1002100
Y999900
X173000Y1003900
Y995900
X171600Y1015500
Y1013300
X169200Y991800
X168816Y1007700
X165800Y1017900
X163698Y1007700
X162400Y1017900
X161139Y1009700
X159000Y1017900
X158580Y1007700
X156020Y1009700
X155600Y1017900
X153461Y1007700
X150902Y1009700
X148343Y1007700
X141300Y1018300
X139700Y1016700
X138100Y1015100
X130200Y1014500
X2100Y1017309
Y1012309
R04Y-5000
Y1022309
R05Y5000
X16100Y1049100
X19500
X39200Y1048700
R03X15000
X92200
X96700Y1042600
Y1048000
X98400Y1044100
Y1046500
Y1049500
X100100Y1042600
Y1048000
X104100Y1049463
X107700Y1038200
X109413Y1041000
X110100Y1032600
X111800Y1047200
X113500Y1032600
X114138Y1041000
X116500Y1047200
X117300Y1037800
Y1041000
X120500Y1037800
Y1041000
X120900Y1047200
Y1049800
X123700Y1037800
Y1041000
X128900Y1046313
X130600Y1039800
X135000Y1036800
X140000Y1040600
Y1044000
Y1047400
X148000Y1044000
X159000Y1024700
Y1031500
X162400Y1021300
Y1024700
X167100Y1034100
X189300Y1039500
Y1049700
X191700Y1025100
Y1027300
Y1045100
X422300Y1029676
X426160Y1025500
X429900Y1045600
Y1049000
X436000Y1020100
X440500Y1029676
X444360Y1025500
X448100Y1045600
Y1049000
X454200Y1020100
X470000Y1045600
X470400Y1029676
X474260Y1025500
X488600Y1029676
X492460Y1025500
X496200Y1045600
Y1049000
X729000Y1023900
Y1026300
Y1035100
Y1037500
Y1046300
Y1048700
X752600Y1029300
R02Y2400
Y1042100
Y1044500
X757800Y1032100
Y1034500
X761000Y1021700
Y1034500
Y1039700
R02Y2400
X792700Y1022500
R05Y5000
X800800Y1022500
X805200Y1029000
X806600Y1038200
X808400Y1029000
X810000Y1038200
Y1041800
X813400Y1038200
Y1044900
X816000Y1032600
X818400Y1038200
X821000Y1032600
X823400Y1038200
X826800
X858500Y1024900
Y1037300
Y1039400
X860600Y1037300
Y1039400
X861700Y1024900
X862700Y1037300
Y1039400
X864900Y1024900
X880400Y1021100
Y1024300
Y1047200
X886900Y1035531
X891000Y1043600
X894800Y1021100
Y1024300
Y1047200
X897100Y1029000
X899600Y1023400
Y1049500
X900400Y1037000
X900500Y1029000
X902900Y1034600
X909300Y1045700
X912700Y1043500
X957900Y1024747
R05Y5000
Y1079747
R05Y-5000
X915100Y1061500
X912700Y1079700
Y1070700
Y1052500
X909300Y1072900
Y1063900
Y1054700
X905900Y1072900
Y1054700
X897800Y1078400
X894800Y1050400
X880700Y1074000
X880400Y1050400
X878300Y1079700
X872300Y1076300
R02X-3400
X864900Y1051000
X862984Y1076336
X861700Y1051000
X858500
X846300Y1070100
X840700Y1063100
Y1059100
Y1056900
X838500Y1063100
Y1059100
X836300Y1066300
Y1063100
X833900Y1066300
X832300Y1072700
Y1070400
Y1063100
Y1059100
X828200Y1074900
Y1072700
Y1070500
Y1063200
X826600Y1064800
X824500Y1074900
X822900Y1076500
X822500Y1068900
X821300Y1078100
X820100Y1071300
X819700Y1079700
X818900Y1063000
X817700Y1073700
X814300Y1077100
X813400Y1057500
Y1050000
X812700Y1078700
X811800Y1055900
X805700Y1067500
X803400Y1077800
Y1072100
Y1065200
X800200Y1070700
X792700Y1072500
Y1064900
Y1062500
Y1054900
Y1052500
X787000Y1078200
X761000Y1057500
Y1055100
X535200Y1078100
X531200Y1075400
X529000
X526800
X522100Y1066800
R04Y-2200
X501800Y1051400
X498800Y1078100
X496600
X485700Y1066800
Y1064600
R03Y-2200
X480500Y1066800
X480400Y1070000
X472300
Y1066800
X470850Y1064100
R02Y-3200
X468600Y1075400
X467650Y1064100
Y1060900
Y1057700
X466400Y1075400
X464450Y1064100
Y1060900
Y1057700
X464200Y1075400
X461250Y1064100
Y1060900
Y1057700
X459650Y1078100
X458050Y1064100
Y1060900
Y1057700
X455100Y1075400
X454850Y1064100
Y1060900
Y1057700
X453700Y1051400
X452900Y1075400
X451650Y1064100
R02Y-3200
X450700Y1075400
X448450Y1064100
Y1060900
Y1057700
X445250Y1064100
R02Y-3200
X442050Y1064100
R02Y-3200
X435500Y1051400
X433600Y1066800
Y1064600
R03Y-2200
X422700Y1078100
X420500
X405600Y1069500
R02X-2200
X397200Y1066800
R04Y-2200
X392500Y1075400
R02X-2200
X384100Y1078100
X193300Y1067500
X191700Y1069100
X189300Y1079500
Y1063500
Y1057700
Y1055500
X186900Y1079500
X167100Y1076600
X159100Y1079500
Y1077100
X152000Y1079500
Y1074100
Y1068200
Y1065800
R06Y-2400
X148000Y1057600
Y1050800
X140000Y1069000
Y1057600
Y1054200
Y1050800
X137200Y1064700
Y1061300
X131600Y1058912
Y1055362
X128900Y1060687
Y1057137
X126200Y1071800
X124400Y1065800
X123100Y1075200
X122212Y1065800
X120900Y1056600
Y1053200
X120437Y1068500
X118662Y1065800
X118700Y1057800
X116500Y1053400
X114400Y1057800
X112563Y1065800
X112100Y1056700
Y1050100
X110300Y1053400
X109413Y1065800
X108300Y1075200
X107000Y1071800
X104100Y1057337
X100100Y1064200
Y1058800
Y1053400
X98400Y1062700
Y1060300
Y1057300
Y1054900
Y1051900
X96700Y1064200
Y1058800
Y1053400
X79500Y1065700
X77900Y1064100
X75500
X73900Y1065700
X64500
X62900Y1064100
X60500
X58900Y1065700
X49500
X47900Y1064100
X45500
X43900Y1065700
X34500
X32900Y1064100
X30500
X28900Y1065700
X19500Y1057100
X16100
X2100Y1077309
R05Y-5000
Y1082309
R05Y5000
X61010Y1093227
R02Y4400
X71500Y1091600
R02Y4400
X83300Y1107200
X85884Y1093524
X86500Y1103900
X90000Y1089200
X92400Y1101500
X107200Y1086946
X111369Y1093100
X124200Y1080254
X143300Y1087100
Y1090300
Y1093700
R04Y3400
X151300Y1087100
Y1090300
Y1093700
R03Y3400
X152000Y1081900
X159100Y1083900
Y1087100
Y1090300
Y1093700
R04Y3400
X167100Y1083900
Y1087100
Y1093700
Y1100500
Y1103900
Y1107300
X171700Y1083900
Y1090300
Y1093700
R04Y3400
X179700Y1090300
R05Y3400
X188300Y1089800
Y1092800
Y1101000
X188800Y1109300
X190500Y1101000
X191000Y1109300
X193400Y1084700
X195100Y1092800
Y1101000
X354500Y1096000
Y1098200
R02Y2200
X356700Y1093800
R04Y2200
X358900Y1091600
R05Y2200
X361100Y1089400
R06Y2200
X363300Y1089400
R06Y2200
X365500Y1089400
R06Y2200
X377200Y1084800
Y1087000
Y1089500
Y1091700
Y1094200
Y1096400
Y1098900
Y1101100
X380900Y1094200
Y1096400
Y1098900
Y1101100
X384100Y1080300
R03Y2200
X392600Y1093800
R04Y2200
X394800Y1093800
R04Y2200
X397000Y1093800
R04Y2200
X399200Y1093800
R04Y2200
X401400Y1093800
R04Y2200
X403600Y1093800
R04Y2200
X405800Y1093800
R04Y2200
X417500Y1094200
Y1096400
Y1098900
Y1101100
X420500Y1080300
R03Y2200
X421200Y1094200
Y1096400
Y1098900
Y1101100
X422700Y1080300
R03Y2200
X432900Y1093800
R04Y2200
X435100Y1093800
R04Y2200
X437300Y1093800
R04Y2200
X439500Y1093800
R04Y2200
X441700Y1093800
R04Y2200
X443900Y1093800
R04Y2200
X446100Y1093800
R04Y2200
X457800Y1094200
Y1096400
Y1098900
Y1101100
X459650Y1080300
R03Y2200
X461500Y1094200
Y1096400
Y1098900
Y1101100
X473200Y1093800
R04Y2200
X475400Y1093800
R04Y2200
X477600Y1093800
R04Y2200
X479800Y1093800
R04Y2200
X482000Y1093800
R04Y2200
X484200Y1093800
R04Y2200
X486400Y1093800
R04Y2200
X496600Y1080300
R03Y2200
X498100Y1094200
Y1096400
Y1098900
Y1101100
X498800Y1080300
R03Y2200
X501800Y1094200
Y1096400
Y1098900
Y1101100
X513500Y1093800
R04Y2200
X515700Y1093800
R04Y2200
X517900Y1093800
R04Y2200
X520100Y1093800
R04Y2200
X522300Y1093800
R04Y2200
X524500Y1093800
R04Y2200
X526700Y1093800
R04Y2200
X535200Y1080300
R03Y2200
X538400Y1094200
Y1096400
Y1098900
Y1101100
X542100Y1084800
Y1087000
Y1089500
Y1091700
Y1094200
Y1096400
Y1098900
Y1101100
X553800Y1089400
R06Y2200
X556000Y1089400
R06Y2200
X558200Y1089400
R06Y2200
X560400Y1091600
R05Y2200
X562600Y1093800
R04Y2200
X564800Y1096000
R03Y2200
X724200Y1092800
Y1101000
X728300Y1109300
X730500
X731000Y1092800
Y1101000
X734300Y1093700
R02Y6800
X742300Y1090300
R05Y3400
X747100Y1093700
R02Y6800
X755100Y1090300
R05Y3400
X759900Y1093700
R02Y6800
X767900Y1090300
R05Y3400
X772700Y1093700
R02Y6800
X780700Y1090300
R05Y3400
X797000Y1098000
Y1100200
X800200Y1081000
Y1089200
Y1091400
Y1095800
Y1098000
Y1103400
X801800Y1101800
X803400Y1083800
Y1086000
Y1095800
X811100Y1080300
X818100Y1081300
X821900Y1084400
R07Y3400
X829900Y1087800
R03Y3400
Y1108200
X834700Y1084400
X836300Y1082800
X848000Y1107300
X850200
X855111Y1092084
X855110Y1096022
X858900Y1108300
X859046Y1088148
X859047Y1097990
X861016Y1094052
X862984Y1084211
Y1097989
X864953Y1090116
Y1094053
Y1105863
X865937Y1097989
X866921Y1084211
Y1108690
X868890Y1086178
Y1090115
Y1094052
Y1097990
Y1105863
X872827Y1101927
Y1105864
X876900Y1090100
Y1098000
X878300Y1083100
X880700Y1088700
X897800Y1087500
X898700Y1094900
X902500Y1098300
X905900Y1081900
Y1090100
Y1098300
X909300Y1081900
R03Y8200
X912700Y1087900
Y1096100
X957900Y1084747
R05Y5000
Y1139747
R05Y-5000
X889700Y1139300
X846300Y1135100
X843100
R02X-3200
X836600Y1115000
X829900Y1111600
X829100Y1123300
X821900Y1115000
Y1111600
X810400Y1136100
Y1133900
Y1131700
X806900Y1116700
X804500Y1118900
Y1116700
Y1114500
X803700Y1136100
R02Y-2200
X797000Y1136100
R02Y-2200
X790300Y1136100
R02Y-2200
X783600Y1136100
R02Y-2200
X776900Y1136100
R02Y-2200
X770200Y1136100
R02Y-2200
X740000Y1127600
Y1125400
X725500Y1121100
X724200Y1113100
X723300Y1121100
X721100
Y1118900
X713600Y1138200
X690200Y1115500
X686600Y1138200
X684200
X681800
X661500
X654000Y1120600
X605600Y1128800
X602200Y1135100
X600700Y1123900
X598900Y1122100
X594900Y1129600
X592700Y1124100
X589300Y1132100
Y1124100
X585900Y1132100
Y1124100
X579500Y1138800
R03Y-3300
X577400Y1138800
R03Y-3300
X543400Y1138800
R03Y-3300
X541300Y1138800
R03Y-3300
X539200Y1138800
R03Y-3300
X537100Y1138800
R03Y-3300
X503100Y1138800
R03Y-3300
X501000Y1138800
R03Y-3300
X498900Y1138800
R03Y-3300
X496800Y1138800
R03Y-3300
X462800Y1138800
R03Y-3300
X460700Y1138800
R03Y-3300
X458600Y1138800
R03Y-3300
X456500Y1138800
R03Y-3300
X422500Y1138800
R03Y-3300
X420400Y1138800
R03Y-3300
X418300Y1138800
R03Y-3300
X416200Y1138800
R03Y-3300
X382200Y1138800
R03Y-3300
X380100Y1138800
R03Y-3300
X378000Y1138800
R03Y-3300
X375900Y1138800
R03Y-3300
X341900Y1138800
R03Y-3300
X339800Y1138800
R03Y-3300
X333700Y1117700
X274400Y1137700
X256900
X243000
X229000Y1115500
X220100Y1137700
X204400Y1139800
X195100Y1113100
X194100Y1125300
X192500Y1123700
X191000Y1138100
X188800
X180600Y1137400
X180000Y1127900
X179700Y1117500
R02Y-3400
X175500Y1123400
X174400Y1130300
X172000Y1127900
X171700Y1114100
Y1110700
X170400Y1126300
X167100Y1123000
X159100Y1114100
Y1110700
X152200Y1130500
Y1128300
X151300Y1114100
Y1110700
X150000Y1130500
X148500Y1137000
X144400Y1136900
X143300Y1110700
X136400Y1136900
X134000
R03Y-3400
X133100Y1121600
X126000Y1136900
Y1133500
Y1126700
X114460Y1118500
X78100Y1129000
X76600Y1110500
X73200
X71500Y1130500
R03Y-4400
X69100Y1110500
X66400
X63500Y1130500
X63000Y1110500
X61010Y1127727
R03Y-4400
X49700Y1113386
X2100Y1137309
Y1132309
R04Y-5000
Y1142309
R05Y5000
X126000Y1140300
Y1146300
X134000Y1140300
Y1146300
X136400Y1142900
Y1146300
X144400Y1142900
Y1146300
X153200Y1164800
X154200Y1142900
X155800Y1144500
X156600Y1151500
X161200Y1141900
X162800Y1143500
X166500Y1147200
X168100Y1148800
X183900Y1147000
X185500Y1148600
X196500Y1146900
X219300Y1169700
X220100Y1146000
X243000
X256900
X339800Y1142100
X341900
X342000Y1168700
X346100Y1161900
Y1165100
X350806Y1162428
R02X3200
X358806Y1165228
X360406Y1162428
Y1168028
X362006Y1165228
X363606Y1162428
Y1168028
X365206Y1165228
X366806Y1162428
Y1168028
X371700Y1161800
Y1165000
Y1168200
X374900Y1161800
X375900Y1142100
X378000
R02X2100
X382300Y1168700
X386400Y1161900
Y1165100
X391106Y1162428
X394306
X397506
X399106Y1165228
X400706Y1162428
Y1168028
X402306Y1165228
X403906Y1162428
Y1168028
X405506Y1165228
X407106Y1162428
Y1168028
X412000Y1161800
Y1165000
Y1168200
X415200Y1161800
X416200Y1142100
X418300
R02X2100
X422600Y1168700
X426700Y1161900
Y1165100
X431406Y1162428
X434606
X437806
X439406Y1165228
X441006Y1162428
Y1168028
X442606Y1165228
X444206Y1162428
Y1168028
X445806Y1165228
X447406Y1162428
Y1168028
X452300Y1161800
Y1165000
Y1168200
X455500Y1161800
X456500Y1142100
X458600
R02X2100
X462900Y1168700
X467000Y1161900
Y1165100
X471706Y1162428
X474906
X478106
X479706Y1165228
X481306Y1162428
Y1168028
X482906Y1165228
X484506Y1162428
Y1168028
X486106Y1165228
X487706Y1162428
Y1168028
X492600Y1161800
Y1165000
Y1168200
X495800Y1161800
X496800Y1142100
X498900
R02X2100
X503200Y1168700
X507300Y1161900
Y1165100
X512006Y1162428
X515206
X518406
X520006Y1165228
X521606Y1162428
Y1168028
X523206Y1165228
X524806Y1162428
Y1168028
X526406Y1165228
X528006Y1162428
Y1168028
X532900Y1161800
Y1165000
Y1168200
X536100Y1161800
X537100Y1142100
X539200
R02X2100
X543500Y1168700
X547600Y1161900
Y1165100
X552306Y1162428
X555506
X558706
X560306Y1165228
X561906Y1162428
Y1168028
X563506Y1165228
X565106Y1162428
Y1168028
X566706Y1165228
X568306Y1162428
Y1168028
X573200Y1161800
Y1165000
Y1168200
X576400Y1161800
X577400Y1142100
X579500
X633000Y1156200
X641100Y1150300
X643500
Y1153500
X679800Y1145400
X699000
X724000Y1149900
X726200
X727800Y1148300
X730500Y1152000
X741300Y1148300
X742400Y1164400
X745300Y1161000
Y1164400
Y1167800
X746000Y1154100
X750400Y1149700
Y1154100
X752100Y1148000
X753300Y1162700
Y1166100
X755400Y1154800
X761200Y1152400
X762400Y1161500
Y1167100
X765600Y1148100
Y1151300
X770400Y1154800
X771400Y1167462
X773600
X780700Y1157300
Y1165100
X784600Y1161200
Y1169000
X788500Y1157300
Y1165100
X792400Y1161200
Y1169000
X796300Y1157300
Y1165100
X801300Y1152500
X806600Y1166200
X811300Y1156100
Y1159300
X814600Y1166200
X818200Y1169500
X825000Y1146100
X859000Y1154500
X862400
X866900Y1145500
X870100
X876260Y1158000
X877600Y1141700
X883700Y1165100
X890200
X895300Y1141700
X897140Y1146400
X957900Y1144747
R05Y5000
Y1184747
R02Y-5000
X957774Y1189746
X955729Y1194308
X951685Y1197249
X946728Y1197900
X941728
R18X-5000
X846800Y1181800
X846728Y1197900
X841728
X836800Y1190400
Y1188200
Y1186000
X836728Y1197900
X831728
X831700Y1194800
Y1192400
Y1183900
X828300Y1185000
X826728Y1197900
X822400Y1186500
X821728Y1197900
X818200Y1172900
X816728Y1197900
X812200Y1182000
X811728Y1197900
X806728
X806600Y1179600
R02Y-3400
X801728Y1197900
X799412Y1181200
X796728Y1197900
X794812Y1187600
Y1184400
Y1181200
X791728Y1197900
X790062Y1187600
Y1184400
Y1181200
X788500Y1172900
X786728Y1197900
X785462Y1187600
R02Y-3200
X782988Y1180200
X781728Y1197900
X780700Y1172900
X776728Y1197900
X771728
X766728
X764800Y1183100
X762400Y1177300
Y1173900
Y1170500
X761728Y1197900
X756728
X753800Y1180400
X751728Y1197900
X746728
R06X-5000
X714700Y1183900
X711728Y1197900
X706728
R26X-5000
X575600Y1185300
X573200Y1182900
Y1179400
R03Y-2200
X571728Y1197900
X571000Y1179400
Y1177200
X567724Y1174229
Y1171429
X566728Y1197900
X565124Y1172829
X564337Y1181200
X562524Y1174229
Y1171429
X561728Y1197900
X560400Y1181200
X559000Y1186000
X558760Y1174229
Y1171429
X556728Y1197900
X556660Y1172829
X555800Y1186000
X554560Y1174229
Y1171429
X554494Y1181200
X552326
X551728Y1197900
X546728
X545900Y1174300
X543500
Y1171900
X541728Y1197900
X536728
X535300Y1185300
X532900Y1182900
Y1179400
Y1177200
R02Y-2200
X531728Y1197900
X530700Y1179400
Y1177200
X527424Y1174229
Y1171429
X526728Y1197900
X524824Y1172829
X524037Y1181200
X522224Y1174229
Y1171429
X521728Y1197900
X520100Y1181200
X518700Y1186000
X518460Y1174229
Y1171429
X516728Y1197900
X516360Y1172829
X515500Y1186000
X514260Y1174229
Y1171429
X514194Y1181200
X512026
X511728Y1197900
X506728
X505600Y1174300
X503200
Y1171900
X501728Y1197900
X496728
X495000Y1185300
X492600Y1182900
Y1179400
Y1177200
R02Y-2200
X491728Y1197900
X490400Y1179400
Y1177200
X487124Y1174229
Y1171429
X486728Y1197900
X484524Y1172829
X483737Y1181200
X481924Y1174229
Y1171429
X481728Y1197900
X479800Y1181200
X478400Y1186000
X478160Y1174229
Y1171429
X476728Y1197900
X476060Y1172829
X475200Y1186000
X473960Y1174229
Y1171429
X473894Y1181200
X471728Y1197900
X471726Y1181200
X466728Y1197900
X465300Y1174300
X462900
Y1171900
X461728Y1197900
X456728
X454700Y1185300
X452300Y1182900
Y1179400
Y1177200
R02Y-2200
X451728Y1197900
X450100Y1179400
Y1177200
X446824Y1174229
Y1171429
X446728Y1197900
X444224Y1172829
X443437Y1181200
X441728Y1197900
X441624Y1174229
Y1171429
X439500Y1181200
X438100Y1186000
X437860Y1174229
Y1171429
X436728Y1197900
X435760Y1172829
X434900Y1186000
X433660Y1174229
Y1171429
X433594Y1181200
X431728Y1197900
X431426Y1181200
X426728Y1197900
X425000Y1174300
X422600
Y1171900
X421728Y1197900
X416728
X414400Y1185300
X412000Y1182900
Y1179400
Y1177200
R02Y-2200
X411728Y1197900
X409800Y1179400
Y1177200
X406728Y1197900
X406524Y1174229
Y1171429
X403924Y1172829
X403137Y1181200
X401728Y1197900
X401324Y1174229
Y1171429
X399200Y1181200
X397800Y1186000
X397560Y1174229
Y1171429
X396728Y1197900
X395460Y1172829
X394600Y1186000
X393360Y1174229
Y1171429
X393294Y1181200
X391728Y1197900
X391126Y1181200
X386728Y1197900
X384700Y1174300
X382300
Y1171900
X381728Y1197900
X376728
X374100Y1185300
X371728Y1197900
X371700Y1182900
Y1179400
R03Y-2200
X369500Y1179400
Y1177200
X366728Y1197900
X366224Y1174229
Y1171429
X363624Y1172829
X362837Y1181200
X361728Y1197900
X361024Y1174229
Y1171429
X358900Y1181200
X357500Y1186000
X357260Y1174229
Y1171429
X356728Y1197900
X355160Y1172829
X354300Y1186000
X353060Y1174229
Y1171429
X352994Y1181200
X351728Y1197900
X350826Y1181200
X346728Y1197900
X344400Y1174300
X342000
Y1171900
X341728Y1197900
R30X-5000
X190400Y1177140
X186728Y1197900
X181728
X179100Y1187000
X176728Y1197900
X171728
X170400Y1181800
X166728Y1197900
X166500Y1179300
X161728Y1197900
X156728
R29X-5000
X6908Y1196571
X3387Y1193021
X2100Y1188189
Y1182309
Y1177309
Y1172309
T02
X788366Y228544
X792520Y234450
X799213
X803366Y228544
X807520Y234450
X814213
X818366Y228544
X868799
X872953Y234450
X879646
X883799Y228544
X887953Y234450
X894646
X898799Y228544
T03
X208615Y620965
X202316Y624311
X208615Y627658
X202316Y631004
X208615Y634351
X202316Y637697
X208615Y641044
X202316Y644390
X208615Y647737
X202316Y651083
X208615Y654430
X202316Y657776
X208615Y661122
X202316Y664469
X208615Y667815
X202316Y671162
X208615Y674508
X202316Y677855
X208615Y681201
X202316Y684548
X208615Y687894
X202316Y691241
X208615Y694587
X202316Y697933
X208615Y701280
X202316Y704626
X208615Y707973
X202316Y711319
X208615Y714666
X202316Y718012
X208615Y721359
X202316Y724705
X208615Y728052
X202316Y731398
X208615Y734745
X202316Y738091
X208615Y741437
X202316Y744784
X208615Y748130
X202316Y751477
X208615Y754823
X202316Y758170
X208615Y761516
X202316Y764863
X208615Y768209
X202316Y771556
X208615Y774902
X202316Y778248
X208615Y781595
X202316Y784941
X208615Y788288
X202316Y791634
X208615Y794981
X202316Y798327
X208615Y801674
X202316Y805020
X208615Y808367
X202316Y811713
X208615Y815059
X202316Y818406
X208615Y821752
X202316Y825099
X208615Y828445
X202316Y831792
X208615Y835138
X202316Y838485
X208615Y841831
X202316Y865256
X208615Y868603
X202316Y871949
X208615Y875296
X202316Y878642
X208615Y881989
X202316Y885335
X208615Y888682
X202316Y892028
X208615Y895374
X202316Y898721
X208615Y902067
X202316Y905414
X208615Y908760
X202316Y912107
X208615Y915453
X202316Y918800
X208615Y922146
X202316Y925493
X208615Y928839
X202316Y932185
X208615Y935532
X202316Y938878
X208615Y942225
X202316Y945571
X208615Y948918
X202316Y952264
X208615Y955611
X202316Y958957
X208615Y962304
X202316Y965650
X208615Y968996
X202316Y972343
X208615Y975689
X202316Y979036
X208615Y982382
X202316Y985729
X208615Y989075
X202316Y992422
X208615Y995768
X202316Y999115
X208615Y1002461
X202316Y1005807
X208615Y1009154
X202316Y1012500
X208615Y1015847
X202316Y1019193
X208615Y1022540
X202316Y1025886
X208615Y1029233
X202316Y1032579
X208615Y1035926
X202316Y1039272
X208615Y1042619
X202316Y1045965
X208615Y1049311
X202316Y1052658
X208615Y1056004
X202316Y1059351
X208615Y1062697
X202316Y1066044
X208615Y1069390
X202316Y1072737
X208615Y1076083
X202316Y1079430
X208615Y1082776
X202316Y1086122
X208615Y1089469
X202316Y1092815
X208615Y1096162
X202316Y1099508
X208615Y1102855
X202316Y1106201
X208615Y1109548
X202316Y1112894
X208615Y1116241
X202316Y1119587
X217277
R05Y-6693
Y1079430
R11Y-6693
Y999115
R10Y-6693
Y925493
R09Y-6693
Y838485
R09Y-6693
Y771556
R11Y-6693
Y691241
R10Y-6693
X223576Y620965
R05Y6693
Y661122
R11Y6693
Y741437
R10Y6693
Y815059
R04Y6693
Y868603
R03Y6693
Y895374
R10Y6693
Y968996
R11Y6693
Y1049311
R10Y6693
X239316Y1119587
R05Y-6693
Y1079430
R11Y-6693
Y999115
R10Y-6693
Y925493
R09Y-6693
Y838485
R09Y-6693
Y771556
R11Y-6693
Y691241
R10Y-6693
X245615Y620965
R05Y6693
Y661122
R11Y6693
Y741437
R10Y6693
Y815059
R04Y6693
Y868603
R03Y6693
Y895374
R10Y6693
Y968996
R11Y6693
Y1049311
R10Y6693
X254277Y1119587
R05Y-6693
Y1079430
R11Y-6693
Y999115
R10Y-6693
Y925493
R09Y-6693
Y838485
R09Y-6693
Y771556
R11Y-6693
Y691241
R10Y-6693
X260576Y620965
R05Y6693
Y661122
R11Y6693
Y741437
R10Y6693
Y815059
R04Y6693
Y868603
R03Y6693
Y895374
R10Y6693
Y968996
R11Y6693
Y1049311
R10Y6693
X658716Y1119587
R05Y-6693
Y1079430
R11Y-6693
Y999115
R10Y-6693
Y925493
R09Y-6693
Y838485
R09Y-6693
Y771556
R11Y-6693
Y691241
R10Y-6693
X665015Y620965
R05Y6693
Y661122
R11Y6693
Y741437
R10Y6693
Y815059
R04Y6693
Y868603
R03Y6693
Y895374
R10Y6693
Y968996
R11Y6693
Y1049311
R10Y6693
X673677Y1119587
R05Y-6693
Y1079430
R11Y-6693
Y999115
R10Y-6693
Y925493
R09Y-6693
Y838485
R09Y-6693
Y771556
R11Y-6693
Y691241
R10Y-6693
X679976Y620965
R05Y6693
Y661122
R11Y6693
Y741437
R10Y6693
Y815059
R04Y6693
Y868603
R03Y6693
Y895374
R10Y6693
Y968996
R11Y6693
Y1049311
R10Y6693
X695716Y1119587
R05Y-6693
Y1079430
R11Y-6693
Y999115
R10Y-6693
Y925493
R09Y-6693
Y838485
R09Y-6693
Y771556
R11Y-6693
Y691241
R10Y-6693
X702015Y620965
R05Y6693
Y661122
R11Y6693
Y741437
R10Y6693
Y815059
R04Y6693
Y868603
R03Y6693
Y895374
R10Y6693
Y968996
R11Y6693
Y1049311
R10Y6693
X710677Y1119587
X716976Y1116241
X710677Y1112894
X716976Y1109548
X710677Y1106201
X716976Y1102855
X710677Y1099508
X716976Y1096162
X710677Y1092815
X716976Y1089469
X710677Y1086122
X716976Y1082776
X710677Y1079430
X716976Y1076083
X710677Y1072737
X716976Y1069390
X710677Y1066044
X716976Y1062697
X710677Y1059351
X716976Y1056004
X710677Y1052658
X716976Y1049311
X710677Y1045965
X716976Y1042619
X710677Y1039272
X716976Y1035926
X710677Y1032579
X716976Y1029233
X710677Y1025886
X716976Y1022540
X710677Y1019193
X716976Y1015847
X710677Y1012500
X716976Y1009154
X710677Y1005807
X716976Y1002461
X710677Y999115
X716976Y995768
X710677Y992422
X716976Y989075
X710677Y985729
X716976Y982382
X710677Y979036
X716976Y975689
X710677Y972343
X716976Y968996
X710677Y965650
X716976Y962304
X710677Y958957
X716976Y955611
X710677Y952264
X716976Y948918
X710677Y945571
X716976Y942225
X710677Y938878
X716976Y935532
X710677Y932185
X716976Y928839
X710677Y925493
X716976Y922146
X710677Y918800
X716976Y915453
X710677Y912107
X716976Y908760
X710677Y905414
X716976Y902067
X710677Y898721
X716976Y895374
X710677Y892028
X716976Y888682
X710677Y885335
X716976Y881989
X710677Y878642
X716976Y875296
X710677Y871949
X716976Y868603
X710677Y865256
X716976Y841831
X710677Y838485
X716976Y835138
X710677Y831792
X716976Y828445
X710677Y825099
X716976Y821752
X710677Y818406
X716976Y815059
X710677Y811713
X716976Y808367
X710677Y805020
X716976Y801674
X710677Y798327
X716976Y794981
X710677Y791634
X716976Y788288
X710677Y784941
X716976Y781595
X710677Y778248
X716976Y774902
X710677Y771556
X716976Y768209
X710677Y764863
X716976Y761516
X710677Y758170
X716976Y754823
X710677Y751477
X716976Y748130
X710677Y744784
X716976Y741437
X710677Y738091
X716976Y734745
X710677Y731398
X716976Y728052
X710677Y724705
X716976Y721359
X710677Y718012
X716976Y714666
X710677Y711319
X716976Y707973
X710677Y704626
X716976Y701280
X710677Y697933
X716976Y694587
X710677Y691241
X716976Y687894
X710677Y684548
X716976Y681201
X710677Y677855
X716976Y674508
X710677Y671162
X716976Y667815
X710677Y664469
X716976Y661122
X710677Y657776
X716976Y654430
X710677Y651083
X716976Y647737
X710677Y644390
X716976Y641044
X710677Y637697
X716976Y634351
X710677Y631004
X716976Y627658
X710677Y624311
X716976Y620965
T04
X45000Y757677
X50906Y755709
X57599Y757677
X63504Y755709
Y763583
X57599Y767520
X50906Y763583
X45000Y767520
Y775394
X50906Y771457
Y779331
X57599Y775394
X63504Y771457
R02Y7874
X57599Y785237
X50906Y787205
X45000Y785237
Y828149
X50906Y826181
X57599Y828149
X63504Y826181
Y834055
X57599Y837992
X50906Y834055
X45000Y837992
Y845866
X50906Y841929
Y849803
X57599Y845866
X63504Y841929
Y849803
Y857677
X57599Y855709
X50906Y857677
X45000Y855709
T05
X35039Y681595
Y687500
Y693406
Y699311
Y705217
Y711122
X46850
X40945Y708170
X46850Y705217
X40945Y702264
X46850Y699311
X40945Y696359
X46850Y693406
X40945Y690453
X46850Y687500
X40945Y684547
X46850Y681595
X40945Y678642
X46850Y675689
X58582Y680610
Y690453
Y698327
Y708170
X68897
Y698327
Y690453
Y680610
X932363Y670333
Y662459
R08Y-7874
X940237Y607341
R08Y7874
T06
X51338Y892677
Y901693
X32362Y909646
X25354Y905630
Y913661
X32362Y917677
Y925709
X25354Y929724
Y921693
X32362Y933740
X51338Y937677
Y946693
T07
X424600Y24600
Y34600
X434600Y24600
Y34600
X444600Y24600
Y34600
X454600Y24600
Y34600
X464600Y24600
Y34600
X474600Y24600
Y34600
X484600Y24600
Y34600
X494600Y24600
Y34600
X504600Y24600
Y34600
X514600Y24600
Y34600
X524600Y24600
Y34600
X534600Y24600
Y34600
X557800Y98500
R05Y10000
X898800Y412500
R08Y10000
X908800Y412500
R08Y10000
X930300Y412500
R08Y10000
X940300Y412500
R08Y10000
Y522500
R02Y-10000
X930300Y522500
R02Y-10000
X908800Y522500
R02Y-10000
X898800Y522500
R02Y-10000
X735800Y962500
R03Y10000
X745800Y962500
R03Y10000
X767300Y962500
R03Y10000
X777300Y962500
R03Y10000
X735800Y1002500
R07Y10000
X745800Y1002500
R07Y10000
X767300Y1002500
R07Y10000
X777300Y1002500
R07Y10000
X930300Y1017300
R08Y10000
X940300Y1017300
R09Y10000
X930300
X735900Y1180300
Y1170300
R02Y-10000
T08
X940275Y237914
R03Y10000
Y289803
R03Y10000
T09
X717500Y32781
R03X10000
X803300
R03X10000
X182800Y577619
R03X-10000
X864000Y1180519
R03X10000
T10
X14173Y663484
Y725296
T11
X778110Y232481
X828622Y228544
X858543Y232481
X909055Y228544
T12
X28858Y887697
Y951673
T13
X923386Y783009
X939922
Y799545
X923386
Y816080
X939922
Y832615
X923386
Y849151
X939922
Y865686
X923386
Y882222
X939922
Y898757
X923386
Y915293
X939922
Y931828
X923386
Y948363
X939922
Y964899
X923386
T14
X37126Y745591
X59488
Y797323
X37126
Y816063
X59488
Y867795
X37126
T15
X40000Y65000
Y375000
Y555000
X130000Y1175000
X650000
Y555000
Y65000
X935000
Y555000
Y1175000
T16
X302166Y712795
Y1027756
X617126
Y712795
X785393Y161181
X856260
X935000
T18
X24803Y615709
Y638465
T23
X12992Y1088583
Y1120079
T24
X626929Y121811
T26
X225394Y161181
X261417
X225394Y241181
X316535
Y401181
X225394
T27
X225394Y321181
Y481181
X383465Y321181
X513386Y481181
T30
X83600Y183120
Y212648
T34
X626929Y200551
T36
X-17716Y19685
X977716Y39370
X21260Y694390
X-17716Y1180315
X977716Y1160630
T38
X212946Y598721
X249946
X669346
X706346
Y1141831
X669346
X249946
X212946
T40
X519932Y263832
X636468Y380367
X681432Y338732
X797968Y455267
X603351Y1172338
X315949
T41
X15354Y894685
Y944685
M30
