G04 ================== begin FILE IDENTIFICATION RECORD ==================*
G04 Layout Name:  D:/Project/2023/1_SG2042_EVB_V_2_0/PCB/SG2042_EVB_V2_0_030318.brd*
G04 Film Name:    PASTEMASK_TOP*
G04 File Format:  Gerber RS274X*
G04 File Origin:  Cadence Allegro 17.4-S029*
G04 Origin Date:  Fri Mar  3 19:19:37 2023*
G04 *
G04 Layer:  BOARD GEOMETRY/DESIGN_OUTLINE*
G04 Layer:  BOARD GEOMETRY/CUTOUT*
G04 Layer:  PIN/PASTEMASK_TOP*
G04 Layer:  PACKAGE GEOMETRY/PASTEMASK_TOP*
G04 *
G04 Offset:    (0.00 0.00)*
G04 Mirror:    No*
G04 Mode:      Positive*
G04 Rotation:  0*
G04 FullContactRelief:  No*
G04 UndefLineWidth:     6.00*
G04 ================== end FILE IDENTIFICATION RECORD ====================*
%FSLAX25Y25*MOIN*%
%IR0*IPPOS*OFA0.00000B0.00000*MIA0B0*SFA1.00000B1.00000*%
%ADD136R,.05X.1*%
%AMMACRO88*
4,1,6,.01575,.0246,
.01575,-.02461,
.00394,-.02461,
.00394,.01476,
-.01575,.01476,
-.01575,.0246,
.01575,.0246,
0.0*
%
%ADD88MACRO88*%
%AMMACRO80*
4,1,6,-.07382,.01575,
.07382,.01575,
.07382,.00394,
-.06398,.00394,
-.06398,-.01575,
-.07382,-.01575,
-.07382,.01575,
0.0*
%
%ADD80MACRO80*%
%AMMACRO93*
4,1,5,.00001,.03937,
-.03544,.03937,
-.03544,-.03937,
.03544,-.03937,
.03544,.00394,
.00001,.03937,
0.0*
%
%ADD93MACRO93*%
%AMMACRO129*
4,1,7,-.00886,-.03937,
-.00886,.03937,
.00098,.03937,
.00098,0.0,
.00886,-.00787,
.00886,-.03937,
-.00837,-.03937,
-.00886,-.03937,
0.0*
%
%ADD129MACRO129*%
%AMMACRO123*
4,1,5,-.0875,-.0875,
.0875,-.0875,
.0875,.0675,
.0675,.0875,
-.0875,.0875,
-.0875,-.0875,
0.0*
%
%ADD123MACRO123*%
%ADD10C,.04*%
%ADD125O,.035X.008*%
%ADD124O,.008X.035*%
%ADD48R,.114X.095*%
%ADD49R,.095X.114*%
%AMMACRO87*
4,1,26,-.05906,.09843,
.05906,.09843,
.05906,-.09843,
-.05906,-.09843,
-.05906,-.0315,
-.04724,-.0315,
-.04177,-.031021,
-.036467,-.029599,
-.031491,-.027278,
-.026993,-.024128,
-.023111,-.020245,
-.019962,-.015746,
-.017642,-.01077,
-.016222,-.005466,
-.015744,.000004,
-.016223,.005474,
-.017645,.010777,
-.019966,.015754,
-.023116,.020251,
-.026999,.024133,
-.031498,.027282,
-.036474,.029602,
-.041778,.031022,
-.04724,.0315,
-.04747,.0315,
-.05906,.0315,
-.05906,.09843,
0.0*
%
%ADD87MACRO87*%
%AMMACRO75*
4,1,37,-.07283,.09843,
.07283,.09843,
.07283,-.09843,
-.07283,-.09843,
-.07283,-.01969,
-.06489,-.01969,
-.061023,-.024506,
-.056379,-.028577,
-.051099,-.031779,
-.045343,-.034017,
-.039285,-.03522,
-.03543,-.03543,
-.029278,-.034891,
-.023312,-.033292,
-.017715,-.030682,
-.012657,-.027139,
-.00829,-.022772,
-.004748,-.017712,
-.002139,-.012115,
-.000541,-.006149,
-.000003,.000003,
-.000542,.006155,
-.002141,.012121,
-.004751,.017718,
-.008294,.022776,
-.012661,.027143,
-.017721,.030685,
-.023318,.033294,
-.029284,.034892,
-.03543,.03543,
-.041582,.034893,
-.047548,.033295,
-.053146,.030686,
-.058205,.027144,
-.062573,.022778,
-.06489,.01969,
-.07283,.01969,
-.07283,.09843,
0.0*
%
%ADD75MACRO75*%
%ADD45R,.028X.008*%
%ADD15R,.02X.02*%
%ADD43R,.008X.028*%
%ADD77C,.01772*%
%ADD24R,.055X.055*%
%ADD112C,.01575*%
%ADD107R,.12598X.0315*%
%ADD39R,.0315X.00866*%
%ADD114R,.10827X.04724*%
%ADD84R,.0315X.00984*%
%ADD68R,.10236X.0689*%
%ADD60R,.01969X.12402*%
%ADD38R,.00866X.0315*%
%ADD37R,.0315X.12598*%
%ADD137R,.0748X.17323*%
%ADD79R,.00984X.0315*%
%ADD62R,.0315X.00787*%
%ADD135R,.00945X.02362*%
%ADD16R,.01181X.00787*%
%ADD96R,.00984X.02362*%
%ADD97R,.02362X.00984*%
%AMMACRO82*
4,1,21,-.02263,.03987,
.08957,.03987,
.08957,-.03984,
.08956,-.03986,
.08563,-.03986,
.07874,-.03297,
-.07578,-.03297,
-.07775,-.03493,
-.07775,-.03965,
-.07795,-.03986,
-.08955,-.03986,
-.08956,-.03985,
-.08956,-.03965,
-.08956,.00758,
-.08956,.00935,
-.08955,.00935,
-.07952,.00935,
-.07775,.00758,
-.07775,-.00541,
-.02657,-.00541,
-.02263,-.00147,
-.02263,.03987,
0.0*
%
%ADD82MACRO82*%
%ADD110R,.03543X.00984*%
%ADD63R,.03543X.00787*%
%ADD59R,.1378X.09843*%
%ADD138R,.07087X.13386*%
%ADD115R,.09843X.1378*%
%ADD102R,.08268X.08268*%
%ADD132R,.02756X.00984*%
%ADD131R,.00984X.02756*%
%ADD78R,.09843X.12992*%
%ADD26R,.00984X.03937*%
%ADD21R,.03937X.00984*%
%AMMACRO89*
4,1,23,0.0,.03937,
-.006152,.038833,
-.012118,.037235,
-.017716,.034626,
-.022775,.031084,
-.027143,.026718,
-.030686,.021659,
-.033297,.016062,
-.034896,.010097,
-.035435,.003945,
-.03543,.00394,
-.03543,-.03937,
.03543,-.03937,
.03543,.00394,
.034897,.010092,
.033298,.016058,
.030688,.021655,
.027146,.026714,
.022779,.031081,
.01772,.034623,
.012123,.037233,
.006157,.038832,
.000005,.03937,
0.0,.03937,
0.0*
%
%ADD89MACRO89*%
%AMMACRO92*
4,1,6,.07382,-.01575,
-.07382,-.01575,
-.07382,-.00394,
.06398,-.00394,
.06398,.01575,
.07382,.01575,
.07382,-.01575,
0.0*
%
%ADD92MACRO92*%
%ADD126R,.01X.03*%
%ADD27R,.102X.16*%
%ADD72R,.04X.03*%
%ADD36R,.024X.01*%
%ADD101R,.01X.024*%
%ADD58R,.03X.04*%
%ADD34R,.032X.03*%
%AMMACRO86*
4,1,6,-.01575,-.0246,
-.01575,.02461,
-.00394,.02461,
-.00394,-.01476,
.01575,-.01476,
.01575,-.0246,
-.01575,-.0246,
0.0*
%
%ADD86MACRO86*%
%ADD51R,.03X.032*%
%ADD127R,.024X.04*%
%ADD99R,.05X.042*%
%ADD17R,.042X.05*%
%ADD20R,.03X.09*%
%ADD12R,.09X.04*%
%AMMACRO118*
4,1,7,-.03937,.00886,
.03937,.00886,
.03937,-.00098,
0.0,-.00098,
-.00787,-.00886,
-.03937,-.00886,
-.03937,.00837,
-.03937,.00886,
0.0*
%
%ADD118MACRO118*%
%ADD74R,.05X.045*%
%ADD30R,.07X.025*%
%AMMACRO103*
4,1,7,.00886,.03937,
.00886,-.03937,
-.00098,-.03937,
-.00098,0.0,
-.00886,.00787,
-.00886,.03937,
.00837,.03937,
.00886,.03937,
0.0*
%
%ADD103MACRO103*%
%ADD98R,.05X.055*%
%ADD29R,.045X.05*%
%ADD120R,.065X.014*%
%AMMACRO109*
4,1,35,.05906,-.09843,
-.05906,-.09843,
-.05906,-.03341,
-.057097,-.034039,
-.055101,-.034553,
-.053079,-.03495,
-.051036,-.035229,
-.048981,-.035389,
-.04724,-.03543,
-.041088,-.034891,
-.035122,-.033292,
-.029526,-.030681,
-.024467,-.027138,
-.020101,-.022771,
-.016559,-.017711,
-.013949,-.012114,
-.012352,-.006148,
-.011814,.000004,
-.012353,.006156,
-.013952,.012122,
-.016563,.017719,
-.020106,.022777,
-.024473,.027144,
-.029533,.030685,
-.03513,.033295,
-.041096,.034892,
-.04724,.03543,
-.0493,.035372,
-.051354,.035194,
-.053393,.034896,
-.055412,.034481,
-.057404,.033949,
-.05906,.03341,
-.05906,.09843,
.05906,.09843,
.05906,-.09843,
0.0*
%
%ADD109MACRO109*%
%ADD53R,.014X.065*%
%ADD13R,.09X.055*%
%ADD113R,.06102X.01181*%
%ADD61R,.0315X.01181*%
%ADD121R,.065X.055*%
%ADD23R,.065X.028*%
%ADD22R,.055X.065*%
%ADD54R,.055X.065*%
%ADD32R,.01181X.01181*%
%ADD141R,.02165X.0315*%
%ADD31R,.01181X.01181*%
%ADD108R,.03543X.0315*%
%ADD66R,.095X.055*%
%ADD42R,.0315X.02165*%
%ADD122R,.05118X.0315*%
%ADD73R,.0315X.03543*%
%ADD52R,.055X.095*%
%ADD94R,.063X.079*%
%ADD64R,.03543X.01181*%
%ADD106R,.01181X.04724*%
%ADD100R,.04724X.01181*%
%ADD128R,.17323X.1378*%
%ADD111R,.04724X.02362*%
%ADD46R,.05512X.04724*%
%ADD18R,.04528X.01181*%
%ADD139R,.02362X.01575*%
%ADD133R,.159X.159*%
%ADD67R,.01181X.02953*%
%ADD47R,.04724X.05512*%
%ADD140R,.01575X.02362*%
%ADD130C,.00945*%
%ADD76C,.31496*%
%ADD44R,.14173X.14173*%
%ADD35R,.07087X.04331*%
%ADD117R,.05138X.01772*%
%AMMACRO91*
4,1,21,.02263,-.03987,
-.08957,-.03987,
-.08957,.03984,
-.08956,.03986,
-.08563,.03986,
-.07874,.03297,
.07578,.03297,
.07775,.03493,
.07775,.03965,
.07795,.03986,
.08955,.03986,
.08956,.03985,
.08956,.03965,
.08956,-.00758,
.08956,-.00935,
.08955,-.00935,
.07952,-.00935,
.07775,-.00758,
.07775,.00541,
.02657,.00541,
.02263,.00147,
.02263,-.03987,
0.0*
%
%ADD91MACRO91*%
%ADD28R,.02362X.05906*%
%ADD104R,.01772X.05138*%
%ADD41C,.00984*%
%ADD40R,.24409X.24409*%
%ADD81R,.01969X.01181*%
%ADD56R,.11811X.19685*%
%ADD19R,.04528X.01772*%
%ADD142R,.03543X.03937*%
%ADD119R,.05906X.04724*%
%ADD57R,.11811X.19685*%
%ADD33R,.02953X.01575*%
%ADD71R,.01181X.07874*%
%ADD69R,.02953X.09252*%
%ADD50R,.04724X.05906*%
%ADD83R,.05906X.04528*%
%ADD25R,.12598X.12598*%
%ADD11O,.07087X.03937*%
%ADD65R,.01575X.08268*%
%ADD14O,.08268X.03937*%
%ADD85R,.07874X.04528*%
%ADD116R,.09764X.01299*%
%ADD70R,.02756X.07874*%
%ADD105R,.01299X.09764*%
%ADD55R,.14567X.19685*%
%ADD90R,.07087X.07874*%
%ADD134R,.09449X.06693*%
%ADD143C,.006*%
G75*
%LPD*%
G75*
G54D100*
X456588Y116678D03*
Y118646D03*
Y120615D03*
Y122583D03*
Y124552D03*
Y126520D03*
Y128489D03*
Y130457D03*
Y132426D03*
Y134394D03*
Y136363D03*
Y138331D03*
Y140300D03*
Y142269D03*
Y144237D03*
Y146206D03*
Y148174D03*
Y150143D03*
Y152111D03*
Y154080D03*
Y156048D03*
Y158017D03*
Y159985D03*
Y161954D03*
Y163922D03*
X517612Y124552D03*
Y122583D03*
Y120615D03*
Y118646D03*
Y116678D03*
Y138331D03*
Y136363D03*
Y134394D03*
Y132426D03*
Y130457D03*
Y128489D03*
Y126520D03*
Y154080D03*
Y152111D03*
Y150143D03*
Y148174D03*
Y146206D03*
Y144237D03*
Y142269D03*
Y140300D03*
Y163922D03*
Y161954D03*
Y159985D03*
Y158017D03*
Y156048D03*
G54D101*
X455021Y253720D03*
X453053D03*
X451084D03*
X449116D03*
X447147D03*
X445179D03*
Y268680D03*
X447147D03*
X449116D03*
X451084D03*
X453053D03*
X455021D03*
X480569Y622744D03*
X478600D03*
X476631D03*
Y628256D03*
X478600D03*
X480569D03*
X504969Y601244D03*
X503000D03*
X501031D03*
Y606756D03*
X503000D03*
X504969D03*
X661569Y424444D03*
X659600D03*
X657631D03*
Y429956D03*
X659600D03*
X661569D03*
X830831Y292956D03*
X832800D03*
X834769D03*
Y287444D03*
X832800D03*
X830831D03*
X840469Y844044D03*
X838500D03*
X836531D03*
Y849556D03*
X838500D03*
X840469D03*
G54D110*
X522953Y90947D03*
G54D111*
X535470Y229900D03*
Y234900D03*
Y239900D03*
Y244900D03*
X556730Y239900D03*
Y234900D03*
Y229900D03*
Y244900D03*
G54D120*
X760183Y928561D03*
Y926002D03*
Y923443D03*
Y920884D03*
Y943916D03*
Y941357D03*
Y938798D03*
Y936239D03*
Y933680D03*
Y931120D03*
X783017Y920884D03*
Y923443D03*
Y926002D03*
Y928561D03*
Y931120D03*
Y933680D03*
Y936239D03*
Y938798D03*
Y941357D03*
Y943916D03*
G54D102*
X450100Y261200D03*
G54D130*
X857079Y1078305D03*
X855110D03*
X853142D03*
X851173D03*
X849205D03*
X857079Y1080273D03*
X855110D03*
X853142D03*
X851173D03*
X849205D03*
X857079Y1082242D03*
X855110D03*
X853142D03*
X851173D03*
X849205D03*
X853142Y1084210D03*
X851173D03*
X849205D03*
X857079Y1086179D03*
X853142D03*
X851173D03*
X849205D03*
X857079Y1088147D03*
X853142D03*
X851173D03*
X849205D03*
X857079Y1090116D03*
X853142D03*
X851173D03*
X849205D03*
X857079Y1092084D03*
X853142D03*
X851173D03*
X849205D03*
X857079Y1094053D03*
X853142D03*
X851173D03*
X849205D03*
X857079Y1096021D03*
X853142D03*
X851173D03*
X849205D03*
X853142Y1097990D03*
X851173D03*
X849205D03*
X857079Y1099958D03*
X855110D03*
X853142D03*
X851173D03*
X849205D03*
X857079Y1101927D03*
X855110D03*
X853142D03*
X851173D03*
X849205D03*
X857079Y1103895D03*
X855110D03*
X853142D03*
X851173D03*
X849205D03*
X870858Y1078305D03*
X868890D03*
X866921D03*
X864953D03*
X862984D03*
X861016D03*
X859047D03*
X870858Y1080273D03*
X868890D03*
X866921D03*
X864953D03*
X862984D03*
X861016D03*
X859047D03*
X870858Y1082242D03*
X868890D03*
X866921D03*
X864953D03*
X862984D03*
X861016D03*
X859047D03*
X870858Y1084210D03*
X868890D03*
X870858Y1086179D03*
X866921D03*
X864953D03*
X862984D03*
X861016D03*
X859047D03*
X870858Y1088147D03*
X866921D03*
X870858Y1090116D03*
X866921D03*
X870858Y1092084D03*
X866921D03*
X870858Y1094053D03*
X866921D03*
X870858Y1096021D03*
X866921D03*
X864953D03*
X862984D03*
X861016D03*
X859047D03*
X870858Y1097990D03*
Y1099958D03*
X868890D03*
X866921D03*
X864953D03*
X862984D03*
X861016D03*
X859047D03*
X870858Y1101927D03*
X868890D03*
X866921D03*
X864953D03*
X862984D03*
X861016D03*
X859047D03*
X870858Y1103895D03*
X868890D03*
X866921D03*
X864953D03*
X862984D03*
X861016D03*
X859047D03*
X874795Y1084210D03*
Y1080273D03*
Y1082242D03*
Y1078305D03*
X872827D03*
Y1080273D03*
Y1082242D03*
Y1084210D03*
X874795Y1086179D03*
X872827D03*
X874795Y1088147D03*
X872827D03*
X874795Y1090116D03*
X872827D03*
X874795Y1092084D03*
X872827D03*
X874795Y1094053D03*
X872827D03*
X874795Y1096021D03*
X872827D03*
X874795Y1097990D03*
X872827D03*
X874795Y1099958D03*
X872827D03*
X874795Y1101927D03*
X872827D03*
X874795Y1103895D03*
X872827D03*
G54D121*
X770000Y25700D03*
Y36700D03*
X841500Y1176800D03*
Y1187800D03*
X855800Y25700D03*
Y36700D03*
G54D103*
X451519Y581787D03*
G54D112*
X538830Y282730D03*
X541980D03*
X538830Y285880D03*
Y289029D03*
Y292179D03*
Y295328D03*
X541980Y285880D03*
Y289029D03*
Y292179D03*
Y295328D03*
X538830Y298478D03*
Y301628D03*
Y304777D03*
Y307927D03*
Y311076D03*
X541980Y298478D03*
Y301628D03*
Y304777D03*
Y307927D03*
Y311076D03*
X538830Y314226D03*
Y317376D03*
Y320525D03*
Y323675D03*
Y326824D03*
X541980Y314226D03*
Y317376D03*
Y320525D03*
Y323675D03*
Y326824D03*
X538830Y329974D03*
Y333124D03*
Y336273D03*
Y339423D03*
X541980Y329974D03*
Y333124D03*
Y336273D03*
Y339423D03*
X538830Y342572D03*
Y345722D03*
Y348872D03*
Y352021D03*
Y355171D03*
X541980Y342572D03*
Y345722D03*
Y348872D03*
Y352021D03*
Y355171D03*
X538830Y358320D03*
Y361470D03*
X541980Y358320D03*
Y361470D03*
X545129Y282730D03*
X548279D03*
X551428D03*
X554578D03*
X545129Y285880D03*
Y289029D03*
Y292179D03*
Y295328D03*
X548279Y285880D03*
Y289029D03*
Y292179D03*
Y295328D03*
X551428Y285880D03*
Y289029D03*
Y292179D03*
Y295328D03*
X554578Y285880D03*
Y289029D03*
X545129Y298478D03*
Y301628D03*
Y304777D03*
Y307927D03*
Y311076D03*
X548279Y298478D03*
Y301628D03*
Y304777D03*
Y307927D03*
Y311076D03*
X551428Y298478D03*
Y307927D03*
Y311076D03*
X545129Y314226D03*
Y317376D03*
Y320525D03*
Y323675D03*
Y326824D03*
X548279Y314226D03*
Y317376D03*
Y320525D03*
Y323675D03*
Y326824D03*
X551428Y320525D03*
Y323675D03*
Y326824D03*
X554578Y314226D03*
Y317376D03*
Y320525D03*
Y323675D03*
Y326824D03*
X545129Y329974D03*
Y333124D03*
Y336273D03*
Y339423D03*
X548279Y329974D03*
Y333124D03*
Y336273D03*
Y339423D03*
X551428Y329974D03*
Y333124D03*
Y336273D03*
Y339423D03*
X554578Y336273D03*
Y339423D03*
X545129Y342572D03*
Y345722D03*
Y348872D03*
Y352021D03*
Y355171D03*
X548279Y342572D03*
Y345722D03*
Y348872D03*
Y352021D03*
Y355171D03*
X551428Y342572D03*
Y345722D03*
Y348872D03*
Y352021D03*
Y355171D03*
X554578Y342572D03*
Y345722D03*
Y348872D03*
Y352021D03*
Y355171D03*
X545129Y358320D03*
Y361470D03*
X548279Y358320D03*
Y361470D03*
X551428Y358320D03*
Y361470D03*
X554578Y358320D03*
Y361470D03*
X557728Y282730D03*
X560877D03*
X564027D03*
X567176D03*
X570326D03*
X557728Y285880D03*
Y289029D03*
Y292179D03*
Y295328D03*
X560877Y285880D03*
Y289029D03*
Y292179D03*
Y295328D03*
X564027Y285880D03*
Y289029D03*
Y292179D03*
X567176Y285880D03*
Y289029D03*
Y292179D03*
X570326Y285880D03*
Y289029D03*
Y292179D03*
X567176Y307927D03*
Y311076D03*
X570326Y307927D03*
Y311076D03*
X567176Y314226D03*
Y317376D03*
Y320525D03*
Y323675D03*
X570326Y314226D03*
Y317376D03*
Y320525D03*
Y323675D03*
Y326824D03*
X567176Y333124D03*
Y336273D03*
Y339423D03*
X570326Y329974D03*
Y333124D03*
Y336273D03*
Y339423D03*
X557728Y352021D03*
Y355171D03*
X560877Y352021D03*
Y355171D03*
X564027Y352021D03*
Y355171D03*
X567176Y352021D03*
Y355171D03*
X570326Y352021D03*
Y355171D03*
X557728Y358320D03*
Y361470D03*
X560877Y358320D03*
Y361470D03*
X564027Y358320D03*
Y361470D03*
X567176Y358320D03*
Y361470D03*
X570326Y358320D03*
Y361470D03*
X573476Y282730D03*
X576625D03*
X579775D03*
X582924D03*
X573476Y285880D03*
Y289029D03*
Y292179D03*
X576625Y285880D03*
Y289029D03*
Y292179D03*
X579775Y285880D03*
Y289029D03*
Y292179D03*
X582924Y285880D03*
Y289029D03*
Y292179D03*
X573476Y307927D03*
Y311076D03*
X576625Y307927D03*
Y311076D03*
X579775Y307927D03*
Y311076D03*
X582924Y307927D03*
Y311076D03*
X573476Y314226D03*
Y317376D03*
Y320525D03*
Y323675D03*
Y326824D03*
X576625Y314226D03*
Y317376D03*
Y320525D03*
Y323675D03*
Y326824D03*
X579775Y314226D03*
Y317376D03*
Y320525D03*
Y323675D03*
Y326824D03*
X582924Y314226D03*
Y317376D03*
Y320525D03*
Y323675D03*
Y326824D03*
X573476Y329974D03*
Y333124D03*
Y336273D03*
Y339423D03*
X576625Y329974D03*
Y333124D03*
Y336273D03*
Y339423D03*
X579775Y329974D03*
Y333124D03*
Y336273D03*
Y339423D03*
X582924Y329974D03*
Y333124D03*
Y336273D03*
Y339423D03*
X573476Y352021D03*
Y355171D03*
X576625Y352021D03*
Y355171D03*
X579775Y352021D03*
Y355171D03*
X582924Y352021D03*
Y355171D03*
X573476Y358320D03*
Y361470D03*
X576625Y358320D03*
Y361470D03*
X579775Y358320D03*
Y361470D03*
X582924Y358320D03*
Y361470D03*
X586074Y282730D03*
X589224D03*
X592373D03*
X595523D03*
X598672D03*
X586074Y285880D03*
Y289029D03*
Y292179D03*
X589224Y285880D03*
Y289029D03*
Y292179D03*
X592373Y285880D03*
Y289029D03*
Y292179D03*
X595523Y285880D03*
Y289029D03*
Y292179D03*
X598672Y285880D03*
Y289029D03*
Y292179D03*
X586074Y307927D03*
Y311076D03*
X589224Y307927D03*
Y311076D03*
X592373Y307927D03*
Y311076D03*
X586074Y314226D03*
Y317376D03*
Y320525D03*
Y323675D03*
Y326824D03*
X589224Y314226D03*
Y317376D03*
Y320525D03*
Y323675D03*
Y326824D03*
X592373Y314226D03*
Y317376D03*
Y320525D03*
X586074Y329974D03*
Y333124D03*
Y336273D03*
Y339423D03*
X589224Y329974D03*
Y333124D03*
Y336273D03*
Y339423D03*
X592373Y329974D03*
Y333124D03*
Y336273D03*
Y339423D03*
X586074Y352021D03*
Y355171D03*
X589224Y352021D03*
Y355171D03*
X592373Y352021D03*
Y355171D03*
X595523Y352021D03*
Y355171D03*
X598672Y348872D03*
Y352021D03*
Y355171D03*
X586074Y358320D03*
Y361470D03*
X589224Y358320D03*
Y361470D03*
X592373Y358320D03*
Y361470D03*
X595523Y358320D03*
Y361470D03*
X598672Y358320D03*
Y361470D03*
X601822Y282730D03*
X604972D03*
X608121D03*
X611271D03*
X601822Y285880D03*
Y289029D03*
Y292179D03*
X604972Y285880D03*
Y289029D03*
Y292179D03*
X608121Y285880D03*
Y289029D03*
Y292179D03*
Y295328D03*
X611271Y285880D03*
Y289029D03*
Y292179D03*
Y295328D03*
X601822Y304777D03*
X604972D03*
Y307927D03*
Y311076D03*
X608121Y298478D03*
Y301628D03*
Y304777D03*
Y307927D03*
Y311076D03*
X611271Y298478D03*
Y301628D03*
Y304777D03*
Y307927D03*
Y311076D03*
X604972Y314226D03*
Y320525D03*
Y323675D03*
Y326824D03*
X608121Y314226D03*
Y317376D03*
Y320525D03*
Y323675D03*
Y326824D03*
X611271Y314226D03*
Y317376D03*
Y320525D03*
Y323675D03*
Y326824D03*
X601822Y339423D03*
X604972Y329974D03*
Y333124D03*
Y336273D03*
Y339423D03*
X608121Y329974D03*
Y333124D03*
Y336273D03*
Y339423D03*
X611271Y329974D03*
Y333124D03*
Y336273D03*
Y339423D03*
X601822Y342572D03*
Y345722D03*
Y348872D03*
Y352021D03*
Y355171D03*
X604972Y342572D03*
Y345722D03*
Y348872D03*
Y352021D03*
Y355171D03*
X608121Y342572D03*
Y345722D03*
Y348872D03*
Y352021D03*
Y355171D03*
X611271Y342572D03*
Y345722D03*
Y348872D03*
Y352021D03*
Y355171D03*
X601822Y358320D03*
Y361470D03*
X604972Y358320D03*
Y361470D03*
X608121Y358320D03*
Y361470D03*
X611271Y358320D03*
Y361470D03*
X614420Y282730D03*
X617570D03*
X614420Y285880D03*
Y289029D03*
Y292179D03*
Y295328D03*
X617570Y285880D03*
Y289029D03*
Y292179D03*
Y295328D03*
X614420Y298478D03*
Y301628D03*
Y304777D03*
Y307927D03*
Y311076D03*
X617570Y298478D03*
Y301628D03*
Y304777D03*
Y307927D03*
Y311076D03*
X614420Y314226D03*
Y317376D03*
Y320525D03*
Y323675D03*
Y326824D03*
X617570Y314226D03*
Y317376D03*
Y320525D03*
Y323675D03*
Y326824D03*
X614420Y329974D03*
Y333124D03*
Y336273D03*
Y339423D03*
X617570Y329974D03*
Y333124D03*
Y336273D03*
Y339423D03*
X614420Y342572D03*
Y345722D03*
Y348872D03*
Y352021D03*
Y355171D03*
X617570Y342572D03*
Y345722D03*
Y348872D03*
Y352021D03*
Y355171D03*
X614420Y358320D03*
Y361470D03*
X617570Y358320D03*
Y361470D03*
X705054Y368654D03*
X708204D03*
X711354D03*
X714503D03*
X705054Y365504D03*
X708204D03*
X711354D03*
X714503D03*
X705054Y362354D03*
X708204D03*
X711354D03*
X714503D03*
X705054Y384402D03*
X708204D03*
X711354D03*
X705054Y381252D03*
X708204D03*
X711354D03*
X705054Y378102D03*
X708204D03*
X711354D03*
X705054Y374953D03*
X708204D03*
X711354D03*
X705054Y371803D03*
X708204D03*
X711354D03*
X705054Y397000D03*
X708204D03*
X711354D03*
X705054Y393850D03*
X708204D03*
X711354D03*
X705054Y390701D03*
X708204D03*
X711354D03*
X705054Y387551D03*
X708204D03*
X711354D03*
X705054Y412748D03*
X708204D03*
X711354D03*
X705054Y409598D03*
X708204D03*
X711354D03*
X705054Y406449D03*
X708204D03*
X711354D03*
X705054Y403299D03*
X708204D03*
X711354D03*
X705054Y400150D03*
X708204D03*
X711354D03*
X705054Y425346D03*
X708204D03*
X711354D03*
X714503D03*
X705054Y422197D03*
X708204D03*
X711354D03*
X705054Y419047D03*
X708204D03*
X711354D03*
X705054Y415898D03*
X708204D03*
X711354D03*
X705054Y431646D03*
X708204D03*
X711354D03*
X714503D03*
X705054Y428496D03*
X708204D03*
X711354D03*
X714503D03*
X717653Y368654D03*
X720802D03*
X723952D03*
X727102D03*
X717653Y365504D03*
X720802D03*
X723952D03*
X727102D03*
X717653Y362354D03*
X720802D03*
X723952D03*
X727102D03*
X717653Y384402D03*
X720802D03*
X727102D03*
X717653Y381252D03*
X720802D03*
X717653Y378102D03*
X720802D03*
X723952D03*
X727102D03*
X717653Y374953D03*
X720802D03*
X723952D03*
X727102D03*
X717653Y397000D03*
X720802D03*
X727102D03*
X717653Y393850D03*
X720802D03*
X727102D03*
X717653Y390701D03*
X720802D03*
X727102D03*
X717653Y387551D03*
X720802D03*
X727102D03*
X717653Y412748D03*
X720802D03*
X717653Y409598D03*
X720802D03*
X727102D03*
X717653Y406449D03*
X720802D03*
X727102D03*
X717653Y403299D03*
X720802D03*
X727102D03*
X717653Y400150D03*
X720802D03*
X727102D03*
X717653Y425346D03*
X720802D03*
X723952D03*
X727102D03*
X717653Y419047D03*
X720802D03*
X723952D03*
X727102D03*
X717653Y415898D03*
X720802D03*
X723952D03*
X727102D03*
X717653Y431646D03*
X720802D03*
X723952D03*
X727102D03*
X717653Y428496D03*
X720802D03*
X723952D03*
X727102D03*
X730251Y368654D03*
X733401D03*
X736550D03*
X739700D03*
X742850D03*
X730251Y365504D03*
X733401D03*
X736550D03*
X739700D03*
X742850D03*
X730251Y362354D03*
X733401D03*
X736550D03*
X739700D03*
X742850D03*
X730251Y384402D03*
X733401D03*
X736550D03*
X739700D03*
X742850D03*
X730251Y378102D03*
X733401D03*
X736550D03*
X739700D03*
X742850D03*
X730251Y374953D03*
X733401D03*
X736550D03*
X739700D03*
X742850D03*
X730251Y397000D03*
X733401D03*
X736550D03*
X739700D03*
X742850D03*
X730251Y393850D03*
X733401D03*
X736550D03*
X739700D03*
X742850D03*
X730251Y390701D03*
X733401D03*
X736550D03*
X739700D03*
X742850D03*
X730251Y387551D03*
X733401D03*
X736550D03*
X739700D03*
X742850D03*
X730251Y409598D03*
X733401D03*
X736550D03*
X739700D03*
X742850D03*
X730251Y406449D03*
X733401D03*
X736550D03*
X739700D03*
X742850D03*
X730251Y403299D03*
X733401D03*
X736550D03*
X739700D03*
X742850D03*
X730251Y400150D03*
X733401D03*
X736550D03*
X739700D03*
X742850D03*
X730251Y425346D03*
X733401D03*
X736550D03*
X739700D03*
X742850D03*
X730251Y419047D03*
X733401D03*
X736550D03*
X739700D03*
X742850D03*
X730251Y415898D03*
X733401D03*
X736550D03*
X739700D03*
X742850D03*
X730251Y431646D03*
X733401D03*
X736550D03*
X739700D03*
X742850D03*
X730251Y428496D03*
X733401D03*
X736550D03*
X739700D03*
X742850D03*
X745999Y368654D03*
X749149D03*
X752298D03*
X755448D03*
X745999Y365504D03*
X749149D03*
X752298D03*
X755448D03*
X745999Y362354D03*
X749149D03*
X752298D03*
X755448D03*
X745999Y384402D03*
X749149D03*
X752298D03*
X745999Y378102D03*
X749149D03*
X752298D03*
X755448D03*
X745999Y374953D03*
X749149D03*
X752298D03*
X755448D03*
X745999Y397000D03*
X749149D03*
X752298D03*
X745999Y393850D03*
X749149D03*
X752298D03*
X745999Y390701D03*
X749149D03*
X752298D03*
X745999Y387551D03*
X749149D03*
X752298D03*
X745999Y409598D03*
X749149D03*
X752298D03*
X745999Y406449D03*
X749149D03*
X752298D03*
X745999Y403299D03*
X749149D03*
X752298D03*
X745999Y400150D03*
X749149D03*
X752298D03*
X745999Y425346D03*
X749149D03*
X752298D03*
X755448D03*
X745999Y419047D03*
X749149D03*
X752298D03*
X755448D03*
X745999Y415898D03*
X749149D03*
X752298D03*
X755448D03*
X745999Y431646D03*
X749149D03*
X752298D03*
X755448D03*
X745999Y428496D03*
X749149D03*
X752298D03*
X755448D03*
X758598Y368654D03*
X761747D03*
X764897D03*
X768046D03*
X771196D03*
X758598Y365504D03*
X761747D03*
X764897D03*
X768046D03*
X771196D03*
X758598Y362354D03*
X761747D03*
X764897D03*
X768046D03*
X771196D03*
X758598Y384402D03*
X761747D03*
X768046D03*
X771196D03*
X758598Y381252D03*
X761747D03*
X768046D03*
X771196D03*
X758598Y378102D03*
X761747D03*
X768046D03*
X771196D03*
X758598Y374953D03*
X761747D03*
X768046D03*
X771196D03*
X768046Y371803D03*
X771196D03*
X758598Y397000D03*
X761747D03*
X768046D03*
X771196D03*
X758598Y393850D03*
X761747D03*
X768046D03*
X771196D03*
X758598Y390701D03*
X761747D03*
X768046D03*
X771196D03*
X758598Y387551D03*
X761747D03*
X768046D03*
X771196D03*
X758598Y412748D03*
X761747D03*
X768046D03*
X771196D03*
X758598Y409598D03*
X761747D03*
X768046D03*
X771196D03*
X758598Y406449D03*
X761747D03*
X768046D03*
X771196D03*
X758598Y403299D03*
X761747D03*
X768046D03*
X771196D03*
X758598Y400150D03*
X761747D03*
X768046D03*
X771196D03*
X758598Y425346D03*
X761747D03*
X764897D03*
X768046D03*
X771196D03*
X768046Y422197D03*
X771196D03*
X758598Y419047D03*
X761747D03*
X768046D03*
X771196D03*
X758598Y415898D03*
X761747D03*
X768046D03*
X771196D03*
X758598Y431646D03*
X761747D03*
X764897D03*
X768046D03*
X771196D03*
X758598Y428496D03*
X761747D03*
X764897D03*
X768046D03*
X771196D03*
X774346Y368654D03*
Y365504D03*
Y362354D03*
Y384402D03*
Y381252D03*
Y378102D03*
Y374953D03*
Y371803D03*
Y397000D03*
Y393850D03*
Y390701D03*
Y387551D03*
Y412748D03*
Y409598D03*
Y406449D03*
Y403299D03*
Y400150D03*
Y425346D03*
Y422197D03*
Y419047D03*
Y415898D03*
Y431646D03*
Y428496D03*
G54D10*
X-13748Y31496D03*
Y1168504D03*
X20000Y20000D03*
Y1180000D03*
X910000Y40000D03*
X973748Y51181D03*
Y1148819D03*
G54D11*
X10315Y610079D03*
Y644095D03*
G54D104*
X451519Y589356D03*
X844581Y786244D03*
G54D140*
X886400Y914560D03*
X883841D03*
X886400Y922040D03*
X883841D03*
X888959Y914560D03*
Y922040D03*
G54D122*
X781900Y496400D03*
Y491400D03*
Y511400D03*
Y506400D03*
Y501400D03*
Y516400D03*
X811900Y491400D03*
Y496400D03*
Y501400D03*
Y506400D03*
Y511400D03*
Y516400D03*
G54D113*
X606161Y124764D03*
Y138543D03*
Y136575D03*
Y134606D03*
Y132638D03*
Y130669D03*
Y128701D03*
Y126732D03*
Y154291D03*
Y152323D03*
Y150354D03*
Y148386D03*
Y146417D03*
Y144449D03*
Y142480D03*
Y140512D03*
Y168071D03*
Y166102D03*
Y164134D03*
Y162165D03*
Y160197D03*
Y158228D03*
Y156260D03*
Y179882D03*
Y177913D03*
Y175945D03*
Y173976D03*
Y172008D03*
Y170039D03*
Y197598D03*
Y195630D03*
Y193661D03*
Y191693D03*
Y189724D03*
X635886Y125748D03*
Y139527D03*
Y137559D03*
Y135590D03*
Y133622D03*
Y131653D03*
Y129685D03*
Y127716D03*
Y153307D03*
Y151338D03*
Y149370D03*
Y147401D03*
Y145433D03*
Y143464D03*
Y141496D03*
Y167087D03*
Y165118D03*
Y163150D03*
Y161181D03*
Y159212D03*
Y157244D03*
Y155275D03*
Y180866D03*
Y178898D03*
Y176929D03*
Y174961D03*
Y172992D03*
Y171024D03*
Y169055D03*
Y196614D03*
Y194646D03*
Y192677D03*
Y190709D03*
G54D20*
X39200Y984150D03*
X34200D03*
X29200D03*
Y1042850D03*
X34200D03*
X39200D03*
X54200Y984150D03*
X49200D03*
X44200D03*
Y1042850D03*
X49200D03*
X54200D03*
X69200Y984150D03*
X64200D03*
X59200D03*
Y1042850D03*
X64200D03*
X69200D03*
X79200Y984150D03*
X74200D03*
Y1042850D03*
X79200D03*
X84200Y984150D03*
Y1042850D03*
G54D131*
X872247Y266517D03*
X870279D03*
X868310D03*
X866342D03*
X864373D03*
Y293683D03*
X866342D03*
X868310D03*
X870279D03*
X872247D03*
X886027Y266517D03*
X884058D03*
X882090D03*
X880121D03*
X878153D03*
X876184D03*
X874216D03*
Y293683D03*
X876184D03*
X878153D03*
X880121D03*
X882090D03*
X884058D03*
X886027D03*
G54D105*
X454039Y591669D03*
X842061Y783931D03*
G54D141*
X894260Y568476D03*
X898000Y577924D03*
X894260D03*
X901740Y568476D03*
Y577924D03*
G54D30*
X85690Y548500D03*
Y553500D03*
Y558500D03*
Y563500D03*
X111910Y553500D03*
Y548500D03*
Y563500D03*
Y558500D03*
X751590Y304100D03*
Y309100D03*
Y314100D03*
Y319100D03*
X777810Y309100D03*
Y304100D03*
Y319100D03*
Y314100D03*
X848990Y589700D03*
Y594700D03*
Y599700D03*
Y604700D03*
X875210Y599700D03*
Y594700D03*
Y589700D03*
Y604700D03*
X884190Y309600D03*
Y314600D03*
Y319600D03*
Y324600D03*
X910410Y309600D03*
Y324600D03*
Y319600D03*
Y314600D03*
G54D12*
X14567Y1070355D03*
G54D21*
X53256Y627894D03*
Y639706D03*
Y637737D03*
Y635769D03*
Y633800D03*
Y631831D03*
Y629863D03*
X72744Y627894D03*
Y629863D03*
Y631831D03*
Y633800D03*
Y635769D03*
Y637737D03*
Y639706D03*
G54D132*
X861617Y269273D03*
Y271242D03*
Y273210D03*
Y275179D03*
Y277147D03*
Y279116D03*
Y281084D03*
Y283053D03*
Y285021D03*
Y286990D03*
Y288958D03*
Y290927D03*
X888783Y269273D03*
Y283053D03*
Y281084D03*
Y279116D03*
Y277147D03*
Y275179D03*
Y273210D03*
Y271242D03*
Y290927D03*
Y288958D03*
Y286990D03*
Y285021D03*
G54D114*
X609212Y120433D03*
Y201929D03*
G54D123*
X788500Y1165100D03*
G54D142*
X908851Y270258D03*
X902749D03*
X908851Y277542D03*
X902749D03*
G54D40*
X106400Y597600D03*
X870200Y638800D03*
G54D133*
X875200Y280100D03*
G54D106*
X469383Y109788D03*
X467415D03*
X465446D03*
X463478D03*
Y170812D03*
X465446D03*
X467415D03*
X469383D03*
X483163Y109788D03*
X481194D03*
X479226D03*
X477257D03*
X475289D03*
X473320D03*
X471352D03*
Y170812D03*
X473320D03*
X475289D03*
X477257D03*
X479226D03*
X481194D03*
X483163D03*
X498911Y109788D03*
X496943D03*
X494974D03*
X493006D03*
X491037D03*
X489069D03*
X487100D03*
X485131D03*
Y170812D03*
X487100D03*
X489069D03*
X491037D03*
X493006D03*
X494974D03*
X496943D03*
X498911D03*
X510722Y109788D03*
X508754D03*
X506785D03*
X504817D03*
X502848D03*
X500880D03*
Y170812D03*
X502848D03*
X504817D03*
X506785D03*
X508754D03*
X510722D03*
G54D31*
X81776Y596400D03*
Y598800D03*
Y594000D03*
Y601200D03*
X83824Y596400D03*
Y598800D03*
Y594000D03*
Y601200D03*
X596476Y134400D03*
X598524D03*
X596476Y136800D03*
X598524D03*
X596476Y146200D03*
X598524D03*
X596476Y148600D03*
X598524D03*
X596476Y158000D03*
X598524D03*
X596476Y160400D03*
X598524D03*
X596476Y169800D03*
X598524D03*
X596476Y172200D03*
X598524D03*
X642276Y308500D03*
Y310900D03*
Y321000D03*
Y323400D03*
X644324Y308500D03*
Y310900D03*
Y321000D03*
Y323400D03*
X842676Y641200D03*
Y637600D03*
Y635200D03*
Y643600D03*
X844724Y641200D03*
Y637600D03*
Y635200D03*
Y643600D03*
X902476Y283300D03*
X904524D03*
Y292100D03*
X902476D03*
X904524Y289700D03*
X902476D03*
Y285700D03*
X904524D03*
G54D22*
X52362Y1073622D03*
G54D13*
X14567Y1131496D03*
G54D115*
X663695Y284200D03*
X688105D03*
G54D124*
X784563Y1153368D03*
X782988D03*
X781413D03*
X779839D03*
Y1176832D03*
X781413D03*
X782988D03*
X784563D03*
X797161Y1153368D03*
X795587D03*
X794012D03*
X792437D03*
X790862D03*
X789287D03*
X787713D03*
X786138D03*
Y1176832D03*
X787713D03*
X789287D03*
X790862D03*
X792437D03*
X794012D03*
X795587D03*
X797161D03*
G54D143*
G01X0Y11811D02*
Y1188189D01*
G02X11811Y1200000I11811J0D01*
G01X948189D01*
G02X960000Y1188189I0J-11811D01*
G01Y11811D01*
G02X948189Y0I-11811J0D01*
G01X11811D01*
G02X0Y11811I0J11811D01*
G01X2700Y-206667D02*
X5100Y-208750D01*
X7800Y-210000D01*
X10200D01*
X12600Y-208750D01*
X14400Y-206667D01*
X15300Y-203750D01*
X14700Y-200834D01*
X13200Y-198334D01*
X10500Y-196666D01*
X6900Y-195833D01*
X4800Y-194167D01*
X3900Y-191250D01*
X4500Y-188333D01*
X6000Y-186250D01*
X8100Y-185000D01*
X10200D01*
X12300Y-185833D01*
X14100Y-187917D01*
G01X35100Y-197500D02*
X41100D01*
Y-205000D01*
X39300Y-207501D01*
X37200Y-209167D01*
X34200Y-210000D01*
X31200Y-209167D01*
X29100Y-207501D01*
X27300Y-205000D01*
X26100Y-202083D01*
X25500Y-198750D01*
Y-195833D01*
X26100Y-193334D01*
X27300Y-190416D01*
X29100Y-187917D01*
X30900Y-186250D01*
X33300Y-185000D01*
X35400D01*
X37800Y-185833D01*
X39600Y-187500D01*
G01X51900Y-189167D02*
X53700Y-186667D01*
X55800Y-185417D01*
X58200Y-185000D01*
X61200Y-185833D01*
X63300Y-187917D01*
X63900Y-190416D01*
X63600Y-192917D01*
X62400Y-195000D01*
X56400Y-199167D01*
X53700Y-202083D01*
X51900Y-206251D01*
X51300Y-210000D01*
X63900D01*
G01X81900Y-185000D02*
X79500Y-185833D01*
X77700Y-187917D01*
X76500Y-190416D01*
X75600Y-193750D01*
X75300Y-197500D01*
X75600Y-201250D01*
X76500Y-204584D01*
X77700Y-207084D01*
X79500Y-209167D01*
X81900Y-210000D01*
X84300Y-209167D01*
X86100Y-207084D01*
X87300Y-204584D01*
X88200Y-201250D01*
X88500Y-197500D01*
X88200Y-193750D01*
X87300Y-190416D01*
X86100Y-187917D01*
X84300Y-185833D01*
X81900Y-185000D01*
G01X109800Y-210000D02*
Y-185000D01*
X98700Y-202917D01*
X113700D01*
G01X124800Y-189167D02*
X126600Y-186667D01*
X128700Y-185417D01*
X131100Y-185000D01*
X134100Y-185833D01*
X136200Y-187917D01*
X136800Y-190416D01*
X136500Y-192917D01*
X135300Y-195000D01*
X129300Y-199167D01*
X126600Y-202083D01*
X124800Y-206251D01*
X124200Y-210000D01*
X136800D01*
G01X145800Y-218333D02*
X163800D01*
G01X185100Y-210000D02*
X173100D01*
Y-185000D01*
X185100D01*
G01X180300Y-197083D02*
X173100D01*
G01X195900Y-185000D02*
X203400Y-210000D01*
X210900Y-185000D01*
G01X230100Y-196666D02*
X231300Y-195417D01*
X232200Y-193334D01*
X232800Y-190416D01*
X232200Y-187917D01*
X231000Y-186250D01*
X228900Y-185000D01*
X220800D01*
Y-210000D01*
X230700D01*
X232800Y-208334D01*
X234000Y-205833D01*
X234600Y-202917D01*
X234000Y-200001D01*
X232200Y-197500D01*
X230100Y-196666D01*
X220800D01*
G01X243000Y-218333D02*
X261000D01*
G01X268800Y-185000D02*
X276300Y-210000D01*
X283800Y-185000D01*
G01X294900Y-189167D02*
X296700Y-186667D01*
X298800Y-185417D01*
X301200Y-185000D01*
X304200Y-185833D01*
X306300Y-187917D01*
X306900Y-190416D01*
X306600Y-192917D01*
X305400Y-195000D01*
X299400Y-199167D01*
X296700Y-202083D01*
X294900Y-206251D01*
X294300Y-210000D01*
X306900D01*
G01X315900Y-218333D02*
X333900D01*
G01X349200Y-185000D02*
X346800Y-185833D01*
X345000Y-187917D01*
X343800Y-190416D01*
X342900Y-193750D01*
X342600Y-197500D01*
X342900Y-201250D01*
X343800Y-204584D01*
X345000Y-207084D01*
X346800Y-209167D01*
X349200Y-210000D01*
X351600Y-209167D01*
X353400Y-207084D01*
X354600Y-204584D01*
X355500Y-201250D01*
X355800Y-197500D01*
X355500Y-193750D01*
X354600Y-190416D01*
X353400Y-187917D01*
X351600Y-185833D01*
X349200Y-185000D01*
G01X414600Y-210000D02*
X422100Y-185000D01*
X429600Y-210000D01*
G01X426900Y-201250D02*
X417300D01*
G01X440400Y-210000D02*
Y-185000D01*
X447900D01*
X450300Y-186250D01*
X451800Y-187917D01*
X452400Y-191250D01*
X451800Y-194584D01*
X450000Y-196666D01*
X447900Y-197917D01*
X440400D01*
G01X447900D02*
X452400Y-210000D01*
G01X470700Y-185000D02*
Y-210000D01*
G01X463800Y-185000D02*
X477600D01*
G01X486000D02*
X490200Y-210000D01*
X495000Y-185000D01*
X499800Y-210000D01*
X504000Y-185000D01*
G01X519300Y-210000D02*
X516900Y-209583D01*
X514800Y-207917D01*
X513000Y-205417D01*
X511800Y-202500D01*
X511200Y-199167D01*
Y-195833D01*
X511800Y-192500D01*
X513000Y-189583D01*
X514800Y-187084D01*
X516900Y-185417D01*
X519300Y-185000D01*
X521700Y-185417D01*
X523800Y-187084D01*
X525600Y-189583D01*
X526800Y-192500D01*
X527400Y-195833D01*
Y-199167D01*
X526800Y-202500D01*
X525600Y-205417D01*
X523800Y-207917D01*
X521700Y-209583D01*
X519300Y-210000D01*
G01X537600D02*
Y-185000D01*
X545100D01*
X547500Y-186250D01*
X549000Y-187917D01*
X549600Y-191250D01*
X549000Y-194584D01*
X547200Y-196666D01*
X545100Y-197917D01*
X537600D01*
G01X545100D02*
X549600Y-210000D01*
G01X561300D02*
Y-185000D01*
G01X572700D02*
X561300Y-200417D01*
G01X574500Y-210000D02*
X566400Y-193334D01*
G01X634800Y-210000D02*
Y-185000D01*
X642000D01*
X644400Y-186250D01*
X646200Y-189167D01*
X646800Y-192500D01*
X646200Y-195833D01*
X644700Y-198334D01*
X642000Y-199584D01*
X634800D01*
G01X657600Y-210000D02*
X665100Y-185000D01*
X672600Y-210000D01*
G01X669900Y-201250D02*
X660300D01*
G01X683100Y-206667D02*
X685500Y-208750D01*
X688200Y-210000D01*
X690600D01*
X693000Y-208750D01*
X694800Y-206667D01*
X695700Y-203750D01*
X695100Y-200834D01*
X693600Y-198334D01*
X690900Y-196666D01*
X687300Y-195833D01*
X685200Y-194167D01*
X684300Y-191250D01*
X684900Y-188333D01*
X686400Y-186250D01*
X688500Y-185000D01*
X690600D01*
X692700Y-185833D01*
X694500Y-187917D01*
G01X713700Y-185000D02*
Y-210000D01*
G01X706800Y-185000D02*
X720600D01*
G01X744000Y-210000D02*
X732000D01*
Y-185000D01*
X744000D01*
G01X739200Y-197083D02*
X732000D01*
G01X754500Y-210000D02*
Y-185000D01*
X762300Y-205833D01*
X770100Y-185000D01*
Y-210000D01*
G01X779100D02*
X786600Y-185000D01*
X794100Y-210000D01*
G01X791400Y-201250D02*
X781800D01*
G01X804600Y-206667D02*
X807000Y-208750D01*
X809700Y-210000D01*
X812100D01*
X814500Y-208750D01*
X816300Y-206667D01*
X817200Y-203750D01*
X816600Y-200834D01*
X815100Y-198334D01*
X812400Y-196666D01*
X808800Y-195833D01*
X806700Y-194167D01*
X805800Y-191250D01*
X806400Y-188333D01*
X807900Y-186250D01*
X810000Y-185000D01*
X812100D01*
X814200Y-185833D01*
X816000Y-187917D01*
G01X828600Y-210000D02*
Y-185000D01*
G01X840000D02*
X828600Y-200417D01*
G01X841800Y-210000D02*
X833700Y-193334D01*
G01X850500Y-218333D02*
X868500D01*
G01X883800Y-185000D02*
Y-210000D01*
G01X876900Y-185000D02*
X890700D01*
G01X908100Y-210000D02*
X905700Y-209583D01*
X903600Y-207917D01*
X901800Y-205417D01*
X900600Y-202500D01*
X900000Y-199167D01*
Y-195833D01*
X900600Y-192500D01*
X901800Y-189583D01*
X903600Y-187084D01*
X905700Y-185417D01*
X908100Y-185000D01*
X910500Y-185417D01*
X912600Y-187084D01*
X914400Y-189583D01*
X915600Y-192500D01*
X916200Y-195833D01*
Y-199167D01*
X915600Y-202500D01*
X914400Y-205417D01*
X912600Y-207917D01*
X910500Y-209583D01*
X908100Y-210000D01*
G01X926400D02*
Y-185000D01*
X933600D01*
X936000Y-186250D01*
X937800Y-189167D01*
X938400Y-192500D01*
X937800Y-195833D01*
X936300Y-198334D01*
X933600Y-199584D01*
X926400D01*
G54D134*
X890300Y370500D03*
X930400D03*
G54D116*
X702431Y284239D03*
G54D14*
X26771Y610079D03*
Y644095D03*
G54D50*
X147098Y557400D03*
X159302D03*
G54D41*
X83916Y1095416D03*
X85884D03*
X83916Y1097384D03*
X85884D03*
X459784Y684184D03*
X457816D03*
X459784Y682216D03*
X457816D03*
G54D32*
X73400Y756376D03*
Y768276D03*
Y770324D03*
Y758424D03*
Y762824D03*
Y760776D03*
Y774724D03*
Y772676D03*
Y779976D03*
Y782024D03*
Y784376D03*
Y786424D03*
Y826876D03*
Y828924D03*
Y838676D03*
Y840724D03*
Y843076D03*
Y833324D03*
Y831276D03*
Y845124D03*
Y850476D03*
Y852524D03*
Y856924D03*
Y854876D03*
X93900Y668976D03*
Y671024D03*
Y660176D03*
Y662224D03*
Y666624D03*
Y664576D03*
Y675424D03*
Y673376D03*
Y695376D03*
Y697424D03*
Y693024D03*
Y690976D03*
Y686576D03*
Y688624D03*
X239351Y136924D03*
Y134876D03*
X239350Y216924D03*
Y214876D03*
X239351Y296476D03*
Y298524D03*
X239350Y376924D03*
Y374876D03*
X239351Y456476D03*
Y458524D03*
X241752Y136924D03*
Y134876D03*
X241751Y216924D03*
Y214876D03*
X241752Y296476D03*
Y298524D03*
X241751Y376924D03*
Y374876D03*
X241752Y456476D03*
Y458524D03*
X261437Y216924D03*
Y214876D03*
X259036Y216924D03*
Y214876D03*
Y296476D03*
X261437D03*
X259036Y298524D03*
X261437D03*
Y376924D03*
Y374876D03*
X259036Y376924D03*
Y374876D03*
Y456476D03*
Y458524D03*
X261437Y456476D03*
Y458524D03*
X274784Y296476D03*
X277185D03*
X274784Y298524D03*
X277185D03*
Y376924D03*
Y374876D03*
X274784Y376924D03*
Y374876D03*
Y456476D03*
Y458524D03*
X277185Y456476D03*
Y458524D03*
X290532Y296476D03*
X292933D03*
X290532Y298524D03*
X292933D03*
Y376924D03*
Y374876D03*
X290532Y376924D03*
Y374876D03*
Y456476D03*
Y458524D03*
X292933Y456476D03*
Y458524D03*
X314154Y296476D03*
X316555D03*
X314154Y298524D03*
X316555D03*
X314154Y456476D03*
Y458524D03*
X316555Y456476D03*
Y458524D03*
X329902Y296476D03*
X332303D03*
X329902Y298524D03*
X332303D03*
X329902Y456476D03*
Y458524D03*
X332303Y456476D03*
Y458524D03*
X345651Y296476D03*
X348052D03*
X345651Y298524D03*
X348052D03*
X345651Y456476D03*
Y458524D03*
X348052Y456476D03*
Y458524D03*
X361399Y296476D03*
X363800D03*
X361399Y298524D03*
X363800D03*
X361399Y456476D03*
Y458524D03*
X363800Y456476D03*
Y458524D03*
X381084Y456476D03*
Y458524D03*
X383485Y456476D03*
Y458524D03*
X396832Y456476D03*
Y458524D03*
X399233Y456476D03*
Y458524D03*
X412580Y456476D03*
Y458524D03*
X414981Y456476D03*
Y458524D03*
X428328Y456476D03*
Y458524D03*
X430729Y456476D03*
Y458524D03*
X444076Y456476D03*
Y458524D03*
X446477Y456476D03*
Y458524D03*
X459824Y456476D03*
Y458524D03*
X462225Y456476D03*
Y458524D03*
X475572Y456476D03*
Y458524D03*
X477973Y456476D03*
Y458524D03*
X491320Y456476D03*
Y458524D03*
X493721Y456476D03*
Y458524D03*
X497817Y753524D03*
Y751476D03*
X509628Y749224D03*
Y747176D03*
X512028Y749224D03*
Y747176D03*
X501754Y749224D03*
Y747176D03*
X500217Y753524D03*
Y751476D03*
X505691Y753524D03*
Y751476D03*
X508091Y753524D03*
Y751476D03*
X504154Y749224D03*
Y747176D03*
X513565Y753524D03*
Y751476D03*
X515965Y753524D03*
Y751476D03*
X525376Y749224D03*
Y747176D03*
X527776Y749224D03*
Y747176D03*
X521439Y753524D03*
Y751476D03*
X523839Y753524D03*
Y751476D03*
X517502Y749224D03*
Y747176D03*
X519902Y749224D03*
Y747176D03*
X549700Y389224D03*
Y387176D03*
X552100Y389224D03*
Y387176D03*
Y403224D03*
Y401176D03*
X549700Y403224D03*
Y401176D03*
X565800Y389224D03*
Y387176D03*
X568200Y389224D03*
Y387176D03*
Y403224D03*
Y401176D03*
X565800Y403224D03*
Y401176D03*
X581900Y389224D03*
Y387176D03*
X584300Y389224D03*
Y387176D03*
Y403224D03*
Y401176D03*
X581900Y403224D03*
Y401176D03*
X598000Y389224D03*
Y387176D03*
Y403224D03*
Y401176D03*
X600400Y389224D03*
Y387176D03*
Y403224D03*
Y401176D03*
X742700Y354824D03*
Y352776D03*
X745100Y354824D03*
Y352776D03*
X755300Y354824D03*
Y352776D03*
X757700Y354824D03*
Y352776D03*
X917900Y607576D03*
Y609624D03*
Y611976D03*
Y622824D03*
Y620776D03*
Y616376D03*
Y618424D03*
Y614024D03*
Y639976D03*
Y642024D03*
Y631176D03*
Y633224D03*
Y637624D03*
Y635576D03*
Y646424D03*
Y644376D03*
Y654876D03*
Y656924D03*
Y670124D03*
Y668076D03*
Y663676D03*
Y665724D03*
Y661324D03*
Y659276D03*
G54D23*
X54330Y1100394D03*
Y1096063D03*
Y1091733D03*
Y1113386D03*
Y1109055D03*
Y1104725D03*
Y1126378D03*
Y1122048D03*
Y1117717D03*
G54D107*
X478600Y643628D03*
Y634572D03*
X503000Y613072D03*
Y622128D03*
X659600Y409072D03*
Y418128D03*
X832800Y272072D03*
Y281128D03*
X838500Y855872D03*
Y864928D03*
X850000Y290872D03*
Y299928D03*
G54D125*
X776768Y1156439D03*
Y1158013D03*
Y1159588D03*
Y1161163D03*
Y1162738D03*
Y1164313D03*
Y1165887D03*
Y1167462D03*
Y1169037D03*
Y1170612D03*
Y1172187D03*
Y1173761D03*
X800232Y1158013D03*
Y1156439D03*
Y1172187D03*
Y1170612D03*
Y1169037D03*
Y1167462D03*
Y1165887D03*
Y1164313D03*
Y1162738D03*
Y1161163D03*
Y1159588D03*
Y1173761D03*
G54D33*
X77158Y769925D03*
Y773075D03*
Y840325D03*
Y843475D03*
X97658Y661825D03*
Y664975D03*
Y670625D03*
Y673775D03*
X84442Y769925D03*
Y773075D03*
Y840325D03*
Y843475D03*
X104942Y661825D03*
Y664975D03*
Y670625D03*
Y673775D03*
G54D117*
X704744Y281719D03*
G54D42*
X110976Y712140D03*
Y708400D03*
Y704660D03*
Y729040D03*
Y725300D03*
Y721560D03*
Y742200D03*
Y738460D03*
Y745940D03*
X99076Y800340D03*
Y796600D03*
Y792860D03*
X108524D03*
Y800340D03*
X99076Y813500D03*
Y809760D03*
X108524D03*
X99076Y817240D03*
X108524D03*
X99076Y870840D03*
Y867100D03*
Y863360D03*
X108524D03*
Y870840D03*
X99076Y884000D03*
Y880260D03*
X108524D03*
X99076Y887740D03*
X108524D03*
X120424Y704660D03*
Y712140D03*
Y721560D03*
Y729040D03*
Y738460D03*
Y745940D03*
G54D108*
X500300Y204853D03*
Y198947D03*
X866200Y316147D03*
Y322053D03*
X894500Y914747D03*
Y920653D03*
G54D51*
X152400Y803200D03*
X158200D03*
X183500Y186600D03*
X177700D03*
X183500Y266600D03*
X177700D03*
X183500Y426600D03*
X177700D03*
X187300Y131900D03*
X193100D03*
X187300Y211900D03*
X193100D03*
X187300Y291900D03*
X193100D03*
X187300Y371900D03*
X193100D03*
X187300Y453900D03*
X193100D03*
X207100Y131900D03*
X201300D03*
X206300Y186600D03*
X200300D03*
X207100Y211900D03*
X201300D03*
X207100Y371900D03*
X201300D03*
X214900Y426600D03*
X220700D03*
X368400Y1085900D03*
Y1090600D03*
Y1095300D03*
Y1100000D03*
X374200Y1085900D03*
X383900Y1095300D03*
Y1100000D03*
X374200Y1090600D03*
Y1095300D03*
Y1100000D03*
X394100Y634700D03*
Y630000D03*
X389700Y1095300D03*
Y1100000D03*
X399900Y634700D03*
Y630000D03*
X408700Y1100000D03*
Y1095300D03*
X424700Y639400D03*
X418900D03*
X424700Y634700D03*
X418900D03*
X424700Y630000D03*
X418900D03*
X424200Y1095300D03*
Y1100000D03*
X414500D03*
Y1095300D03*
X441200Y638900D03*
Y643600D03*
X430000Y1095300D03*
Y1100000D03*
X447000Y638900D03*
Y643600D03*
X454800Y1095300D03*
X449000D03*
X454800Y1100000D03*
X449000D03*
X461000Y638900D03*
X466800D03*
X461000Y643600D03*
X466800D03*
X461000Y648300D03*
X466800D03*
X464500Y1095300D03*
X470300D03*
X464500Y1100000D03*
X470300D03*
X483400Y648600D03*
Y653300D03*
X489200Y648600D03*
Y653300D03*
X495100Y1100000D03*
X489300D03*
X495100Y1095300D03*
X489300D03*
X513600Y627100D03*
X507800D03*
X513600Y631800D03*
X507800D03*
X504800Y1095300D03*
X510600D03*
X504800Y1100000D03*
X510600D03*
X535400Y1095300D03*
X529600D03*
X535400Y1100000D03*
X529600D03*
X545100Y1085900D03*
X550900D03*
X545100Y1090600D03*
X550900D03*
X545100Y1095300D03*
X550900D03*
X545100Y1100000D03*
X550900D03*
X644900Y197400D03*
X650900D03*
X649000Y399400D03*
X654800D03*
X649000Y404100D03*
X654800D03*
X766800Y803200D03*
X761000D03*
X783100Y370500D03*
X789100D03*
X822200Y267200D03*
X828000D03*
X822200Y262500D03*
X828000D03*
X829300Y736700D03*
Y732000D03*
X835100Y736700D03*
Y732000D03*
X843300Y869800D03*
Y874500D03*
X854900Y267100D03*
X848900D03*
X849000Y285100D03*
X854800D03*
X849100Y727300D03*
X854900D03*
X849100Y736700D03*
X854900D03*
X849100Y732000D03*
X854900D03*
X849100Y869800D03*
Y874500D03*
X889400Y358100D03*
X895200D03*
X896100Y590400D03*
X890300D03*
X896100Y595100D03*
X890300D03*
X929300Y358100D03*
X935100D03*
G54D126*
X800453Y383798D03*
X798484D03*
X796516D03*
X794547D03*
Y396002D03*
X796516D03*
X798484D03*
X800453D03*
G54D135*
X886363Y364988D03*
Y376012D03*
X894237Y364988D03*
X892269D03*
X890300D03*
X888331D03*
Y376012D03*
X890300D03*
X892269D03*
X894237D03*
X928431Y364988D03*
X926463D03*
Y376012D03*
X928431D03*
X934337Y364988D03*
X932369D03*
X930400D03*
Y376012D03*
X932369D03*
X934337D03*
G54D60*
X165779Y696883D03*
X749579D03*
G54D24*
X52362Y1131496D03*
G54D15*
X16100Y1054700D03*
Y1051500D03*
X19500Y1054700D03*
Y1051500D03*
X43800Y624600D03*
X47000D03*
X43800Y621200D03*
X47000D03*
Y631100D03*
X43800D03*
X47000Y634500D03*
X43800D03*
X59100Y614600D03*
Y617800D03*
X62500D03*
Y614600D03*
X65900Y1100400D03*
Y1096000D03*
Y1091600D03*
X66400Y1104900D03*
Y1108100D03*
X63000Y1104900D03*
Y1108100D03*
X65900Y1112900D03*
Y1130500D03*
Y1117300D03*
Y1121700D03*
Y1126100D03*
X76800Y274900D03*
X73600D03*
X78200Y440900D03*
Y437700D03*
Y447800D03*
X75000D03*
X81700Y455800D03*
Y452600D03*
X74900Y455800D03*
Y452600D03*
X81700Y444500D03*
Y447700D03*
X75000Y444400D03*
X78200D03*
X78300Y455800D03*
Y452600D03*
X76400Y553500D03*
X79600D03*
Y563500D03*
X76400D03*
Y558500D03*
X79600D03*
X75800Y570500D03*
X83200D03*
X79800D03*
X75800Y573700D03*
X83200D03*
X79800D03*
X81000Y589300D03*
Y586100D03*
X76500Y611100D03*
Y614300D03*
Y607600D03*
Y604400D03*
X73050Y611050D03*
X69850D03*
X73050Y607650D03*
X69850D03*
X80100Y640100D03*
Y643500D03*
X83000Y757900D03*
X76300D03*
X79500D03*
X83000Y761300D03*
X76300D03*
X79500D03*
X79200Y769800D03*
X82400D03*
X83000Y781500D03*
Y784900D03*
X76300Y781500D03*
X79500D03*
X76300Y784900D03*
X79500D03*
X79200Y773200D03*
X82400D03*
X77800Y791000D03*
Y794200D03*
Y807900D03*
Y811100D03*
X83000Y828400D03*
X76300D03*
X79500D03*
X83000Y831800D03*
X76300D03*
X79500D03*
X79200Y843600D03*
X82400D03*
X79200Y840200D03*
X82400D03*
X83000Y852000D03*
Y855400D03*
X76300Y852000D03*
X79500D03*
X76300Y855400D03*
X79500D03*
X77800Y861500D03*
Y864700D03*
Y878400D03*
Y881600D03*
X73900Y1100400D03*
Y1097200D03*
X69100Y1100400D03*
Y1096000D03*
Y1091600D03*
X76600Y1104900D03*
Y1108100D03*
X73200Y1104900D03*
Y1108100D03*
X69800Y1104900D03*
Y1108100D03*
X69100Y1112900D03*
X80100Y1104900D03*
X69100Y1130500D03*
Y1117300D03*
Y1121700D03*
Y1126100D03*
X73900D03*
Y1122900D03*
X94100Y250200D03*
Y253400D03*
Y260200D03*
Y257000D03*
X86800Y443600D03*
X90000D03*
X85200Y455800D03*
X88400D03*
X96800Y570500D03*
X90000D03*
X93400D03*
X86600D03*
X96800Y573700D03*
X90000D03*
X93400D03*
X86600D03*
X84400Y589300D03*
Y586100D03*
Y611500D03*
Y614700D03*
X83300Y640100D03*
Y643500D03*
X96800Y684800D03*
X89700Y702800D03*
Y706000D03*
Y719700D03*
Y722900D03*
Y736600D03*
Y739800D03*
X86200Y757900D03*
Y761300D03*
Y781500D03*
Y784900D03*
X91700Y792900D03*
X94900D03*
X91700Y809800D03*
X94900D03*
X86200Y828400D03*
Y831800D03*
Y852000D03*
Y855400D03*
X91700Y863400D03*
X94900D03*
X91700Y880300D03*
X94900D03*
X83300Y1101500D03*
X86500D03*
X90000Y1094800D03*
Y1091600D03*
Y1098300D03*
Y1101500D03*
X83300Y1104900D03*
X110400Y570500D03*
X103600D03*
X107000D03*
X100200D03*
X110400Y573700D03*
X103600D03*
X107000D03*
X100200D03*
X99700Y665100D03*
X102900D03*
X99700Y670500D03*
X102900D03*
X99700Y661700D03*
X102900D03*
X100000Y684800D03*
X99700Y673900D03*
X102900D03*
X103600Y704700D03*
X106800D03*
X103600Y721600D03*
X106800D03*
X103600Y738500D03*
X106800D03*
X109900Y972700D03*
X106500D03*
X109900Y975900D03*
X106500D03*
X110100Y1035000D03*
Y1038200D03*
X109400Y1068600D03*
Y1071800D03*
X110700Y1075200D03*
X118000Y553500D03*
X121200D03*
X118000Y548500D03*
X121200D03*
X121600Y565700D03*
Y568900D03*
X121200Y558500D03*
X118000D03*
X118100Y569000D03*
X114900D03*
X121600Y572500D03*
Y575700D03*
X118200D03*
Y572500D03*
X124600Y712100D03*
X124500Y707900D03*
Y704700D03*
X124600Y729000D03*
X124500Y724800D03*
Y721600D03*
Y741700D03*
Y738500D03*
X124600Y745900D03*
X112600Y796100D03*
Y792900D03*
X115900Y800300D03*
X112700D03*
X116000Y792900D03*
Y796100D03*
X112600Y813000D03*
Y809800D03*
X116000D03*
Y813000D03*
X115900Y817200D03*
X112700D03*
X112600Y866600D03*
Y863400D03*
X115900Y870800D03*
X112700D03*
X116000Y863400D03*
Y866600D03*
X112600Y883500D03*
Y880300D03*
X116000D03*
Y883500D03*
X115900Y887700D03*
X112700D03*
X113500Y1038200D03*
Y1035000D03*
X113900Y1071800D03*
Y1068600D03*
X123800D03*
Y1071800D03*
X113900Y1075200D03*
X120700D03*
X117500D03*
X127800Y712100D03*
X127900Y704700D03*
Y707900D03*
X127800Y729000D03*
X127900Y721600D03*
Y724800D03*
Y738500D03*
Y741700D03*
X127800Y745900D03*
X137600Y1044000D03*
X134400D03*
X137600Y1040600D03*
X134400D03*
X137600Y1057600D03*
X134400D03*
X137600Y1054200D03*
X134400D03*
X137600Y1050800D03*
X134400D03*
X137600Y1047400D03*
X134400D03*
X131600Y1126700D03*
X128400D03*
X131600Y1130100D03*
X128400D03*
X131600Y1133500D03*
X128400D03*
X131600Y1140300D03*
X128400D03*
X138800Y1142900D03*
Y1136900D03*
X131600D03*
X128400D03*
X131600Y1146300D03*
X128400D03*
X138800D03*
X148500Y547900D03*
X151700D03*
X148500Y551300D03*
X151700D03*
X150100Y739500D03*
Y742700D03*
X146700Y739500D03*
Y742700D03*
X150000Y756300D03*
X146800D03*
Y752900D03*
X150000D03*
X150100Y746200D03*
Y749400D03*
Y759700D03*
Y762900D03*
X146700Y759700D03*
Y762900D03*
X154500Y807300D03*
X152200Y914600D03*
X148800D03*
X145400D03*
X152200Y917800D03*
X148800D03*
X145400D03*
X152200Y956500D03*
Y959700D03*
Y1015500D03*
Y1012300D03*
X148800Y1015500D03*
Y1012300D03*
X145400Y1015500D03*
Y1012300D03*
X142400Y1044000D03*
X145600D03*
X142400Y1040600D03*
X145600D03*
X142400Y1057600D03*
X145600D03*
X142400Y1054200D03*
X145600D03*
X142400Y1050800D03*
X145600D03*
X142400Y1047400D03*
X145600D03*
X149000Y1087100D03*
X145600D03*
X148900Y1100500D03*
X145700D03*
X148900Y1097100D03*
X145700D03*
X148900Y1093700D03*
X145700D03*
X149000Y1090300D03*
X145600D03*
X148900Y1114100D03*
X145700D03*
X148900Y1110700D03*
X145700D03*
X142000Y1142900D03*
Y1136900D03*
Y1146300D03*
X168800Y538800D03*
X169300Y556400D03*
Y559800D03*
X157400Y689100D03*
X160600D03*
X165000Y722300D03*
X168200D03*
X157700Y807300D03*
X157600Y872200D03*
X160800D03*
X157600Y879000D03*
X160800D03*
X167500D03*
X164300D03*
X160800Y875600D03*
X157600D03*
X159400Y893300D03*
Y896500D03*
X169200Y914600D03*
X159000D03*
X165800D03*
X162400D03*
X155600D03*
X166700Y903500D03*
Y906700D03*
X169200Y917800D03*
X159000D03*
X165800D03*
X162400D03*
X155600D03*
X169200Y956500D03*
X159000D03*
X162400Y967700D03*
Y970900D03*
X159000Y967700D03*
Y970900D03*
X169200Y959700D03*
Y967700D03*
Y970900D03*
X165800Y967700D03*
Y970900D03*
X159000Y959700D03*
X169200Y1015500D03*
Y1012300D03*
X165800Y1015500D03*
Y1012300D03*
X162400Y1015500D03*
Y1012300D03*
X159000Y1015500D03*
Y1012300D03*
X155600Y1015500D03*
Y1012300D03*
X161500Y1090300D03*
X164700D03*
X161500Y1097100D03*
X164700D03*
Y1093700D03*
X161500D03*
X164700Y1100500D03*
X161500D03*
Y1103900D03*
X164700D03*
X161500Y1110700D03*
X164700D03*
Y1114100D03*
X161500D03*
X164700Y1107300D03*
X161500D03*
X172000Y538800D03*
X178500D03*
X181700D03*
Y542200D03*
X178500D03*
X172500Y556400D03*
Y559800D03*
X179000D03*
X182200D03*
X179400Y685200D03*
X182600D03*
X182400Y741000D03*
X182300Y734400D03*
Y737600D03*
X178900Y734400D03*
Y737600D03*
X182300Y757700D03*
Y754500D03*
X182400Y744400D03*
X182300Y751000D03*
Y747800D03*
Y761200D03*
Y764400D03*
X175700D03*
X178900D03*
X174200Y868800D03*
X171000D03*
X174200Y872200D03*
X171000D03*
X174200Y875600D03*
X171000D03*
Y879000D03*
X174200D03*
X173500Y906700D03*
Y903500D03*
X170100Y906700D03*
Y903500D03*
X173000Y925900D03*
Y929100D03*
Y942500D03*
Y945700D03*
Y984900D03*
Y981700D03*
Y998300D03*
Y1001500D03*
X174100Y1090300D03*
X177300D03*
X174100Y1097100D03*
X177300D03*
Y1093700D03*
X174100D03*
X177300Y1100500D03*
X174100D03*
Y1103900D03*
X177300D03*
X174100Y1110700D03*
X177300D03*
Y1107300D03*
X174100D03*
X177300Y1114100D03*
X174100D03*
X177600Y1127900D03*
X174400D03*
X181500Y1187000D03*
X191000Y136000D03*
X187800D03*
X191000Y185900D03*
X187800D03*
X191000Y216000D03*
X187800D03*
X191000Y265900D03*
X187800D03*
Y296000D03*
X191000D03*
Y376000D03*
X187800D03*
X191000Y425900D03*
X187800D03*
Y458000D03*
X191000D03*
X194400Y613500D03*
Y610300D03*
Y602100D03*
Y605300D03*
Y617000D03*
Y620200D03*
Y625200D03*
Y628400D03*
X187300Y628600D03*
X184100D03*
X192000Y634100D03*
X195200D03*
X192000Y637500D03*
X195200D03*
X187300Y639600D03*
X184100D03*
X187300Y632000D03*
X184100D03*
X187300Y643000D03*
X184100D03*
X192000Y645100D03*
X195200D03*
X192000Y648500D03*
X195200D03*
X186100Y685200D03*
X189300D03*
X190600Y695400D03*
X193800D03*
X187100Y698700D03*
Y695500D03*
X193900Y698800D03*
X193800Y688700D03*
Y691900D03*
X190300Y692000D03*
X187100D03*
X190500Y698800D03*
X193900Y702000D03*
X193800Y712100D03*
X190600D03*
X193800Y705400D03*
X190600D03*
X190500Y702000D03*
X187100Y708900D03*
Y712100D03*
Y705400D03*
Y702200D03*
Y715600D03*
Y718800D03*
X193800Y715500D03*
X190600D03*
X185600Y741000D03*
X189000Y747800D03*
X185800D03*
X189000Y751200D03*
X185800D03*
X185600Y744400D03*
X195100Y785100D03*
Y800900D03*
Y788300D03*
Y815300D03*
Y804100D03*
Y829500D03*
Y818500D03*
Y832700D03*
X192000Y841000D03*
X195200D03*
X192000Y844400D03*
X195200D03*
X195100Y885200D03*
Y882000D03*
Y895600D03*
Y898800D03*
Y915600D03*
Y905600D03*
Y908800D03*
Y918800D03*
Y928800D03*
Y925600D03*
X186100Y985100D03*
X189300D03*
X186100Y1001100D03*
X189300D03*
X186100Y993100D03*
X189300D03*
X186100Y1009100D03*
X189300D03*
X186100Y1025100D03*
X189300D03*
X186100Y1017100D03*
X189300D03*
X186100Y1037100D03*
X189300D03*
X186100Y1053100D03*
X189300D03*
X186100Y1045100D03*
X189300D03*
X186100Y1069100D03*
X189300D03*
X186100Y1061100D03*
X189300D03*
X186100Y1077100D03*
X189300D03*
X195100Y1095200D03*
Y1098400D03*
X188300Y1095200D03*
Y1098400D03*
X191700Y1095200D03*
Y1098400D03*
X195100Y1115500D03*
Y1103400D03*
Y1106600D03*
X188300Y1103400D03*
Y1106600D03*
X191700Y1103400D03*
Y1106600D03*
X195100Y1118700D03*
X191700Y1172900D03*
Y1169700D03*
X195100Y1172900D03*
Y1169700D03*
X184700Y1187000D03*
X211800Y136000D03*
X203900D03*
X207100D03*
X211800Y132600D03*
Y216000D03*
X203900D03*
X207100D03*
X211800Y212600D03*
X207300Y265900D03*
X210500D03*
X203900Y296000D03*
X207100D03*
X210600D03*
Y292600D03*
X211800Y376000D03*
X203900D03*
X207100D03*
X211800Y372600D03*
X207300Y425900D03*
X210500D03*
X210600Y454600D03*
X203900Y458000D03*
X207100D03*
X210600D03*
X215000Y136000D03*
Y132600D03*
X218500Y185900D03*
X215300D03*
X222000Y185800D03*
Y189000D03*
X215000Y216000D03*
Y212600D03*
X226600Y265800D03*
Y269000D03*
X213800Y296000D03*
X220500D03*
X217300D03*
X213800Y292600D03*
X220500D03*
X217300D03*
X218500Y344400D03*
X215300D03*
X215000Y376000D03*
Y372600D03*
X226600Y425800D03*
Y429000D03*
X213800Y454600D03*
X220500D03*
X217300D03*
X213800Y458000D03*
X218500Y504400D03*
X215300D03*
X238401Y185900D03*
X234901D03*
X231701D03*
X238351Y189350D03*
Y192550D03*
X234951Y189350D03*
Y192550D03*
X238400Y265900D03*
X234900D03*
X231700D03*
X238350Y269350D03*
X234950D03*
X238350Y272550D03*
X234950D03*
X238400Y344400D03*
X231700D03*
X234900D03*
X238400Y425900D03*
X234900D03*
X231700D03*
X238350Y429350D03*
Y432550D03*
X234950Y429350D03*
Y432550D03*
X238400Y504400D03*
X231700D03*
X234900D03*
X231400Y613500D03*
Y610300D03*
Y602100D03*
Y605300D03*
Y617000D03*
Y620200D03*
Y625200D03*
Y628400D03*
Y785100D03*
Y800900D03*
Y788300D03*
Y815300D03*
Y804100D03*
Y818500D03*
Y835100D03*
Y831900D03*
Y885200D03*
Y882000D03*
Y898800D03*
Y895600D03*
Y915600D03*
Y905600D03*
Y908800D03*
Y918800D03*
Y928800D03*
Y925600D03*
Y1115500D03*
Y1118700D03*
X241601Y185900D03*
X241600Y265900D03*
Y344400D03*
Y425900D03*
Y504400D03*
X269600Y591200D03*
Y588000D03*
X268700Y610100D03*
Y613300D03*
X273400Y579900D03*
Y576700D03*
X276800Y579900D03*
Y576700D03*
X280200Y579900D03*
Y576700D03*
X283600Y579900D03*
Y576700D03*
X273400Y619100D03*
Y615900D03*
X276800Y619100D03*
Y615900D03*
X280200Y619100D03*
Y615900D03*
X283600Y619100D03*
Y615900D03*
X287000Y627100D03*
Y623900D03*
X290400Y627100D03*
Y623900D03*
X287000Y619100D03*
Y615900D03*
X290400Y619100D03*
Y615900D03*
X344400Y1171900D03*
Y1168700D03*
X354300Y1183600D03*
X357500D03*
X367400D03*
X364200D03*
X374100Y1179700D03*
Y1182900D03*
X391500Y439300D03*
X394700D03*
X391500Y435900D03*
X394700D03*
X391500Y448100D03*
X394700D03*
X391500Y442700D03*
X394700D03*
X394200Y556800D03*
Y553600D03*
X384700Y1171900D03*
Y1168700D03*
X394600Y1183600D03*
X397800D03*
X409500Y44500D03*
X412700D03*
X413200Y62100D03*
X409400Y380600D03*
X406200D03*
X406800Y411600D03*
X410000D03*
X401000Y420300D03*
X404200D03*
X401000Y423700D03*
X404200D03*
X401000Y428100D03*
X404200D03*
X401000Y431500D03*
X404200D03*
X401000Y435900D03*
X404200D03*
X401000Y439300D03*
X404200D03*
X401000Y443700D03*
X404200D03*
X401000Y447100D03*
X404200D03*
X410800Y552900D03*
X400900D03*
X404100D03*
X407700Y1183600D03*
X404500D03*
X422900Y44500D03*
X426100D03*
X426600Y62100D03*
X416400D03*
X417400Y380600D03*
X414200D03*
X426700Y411600D03*
X423500D03*
X416800D03*
X420000D03*
X423500Y415000D03*
X426700D03*
X420000D03*
X416800D03*
X414000Y552900D03*
X423900Y564600D03*
Y567800D03*
X427500Y1045600D03*
X424300D03*
X427500Y1049000D03*
X424300D03*
X425000Y1171900D03*
Y1168700D03*
X414400Y1179700D03*
Y1182900D03*
X436300Y44500D03*
X439500D03*
X429800Y62100D03*
X440000D03*
X442100Y135100D03*
Y131700D03*
X428200Y144300D03*
Y147500D03*
X442100Y159500D03*
Y166300D03*
Y162900D03*
Y156100D03*
X431900Y167100D03*
X442100Y169700D03*
X431900Y170300D03*
X433200Y252700D03*
X436400D03*
X433200Y269700D03*
X436400D03*
X433200Y266300D03*
X436400D03*
X433200Y259500D03*
X436400D03*
X433200Y262900D03*
X436400D03*
X433200Y256100D03*
X436400D03*
X439900Y278100D03*
Y274900D03*
X433400Y582300D03*
Y585500D03*
X440200D03*
X436800D03*
Y582300D03*
X433500Y578800D03*
X436700D03*
X436800Y575200D03*
Y572000D03*
X440200D03*
Y575200D03*
Y578800D03*
Y582000D03*
Y598800D03*
Y595600D03*
Y588700D03*
X436700Y591100D03*
X433500D03*
X436700Y594500D03*
X433500D03*
X433600Y1020100D03*
Y1023300D03*
X435500Y1045600D03*
X432300D03*
X435500Y1049000D03*
X432300D03*
X434900Y1183600D03*
X438100D03*
X449700Y44500D03*
X452900D03*
X453400Y62100D03*
X443200D03*
X445300Y135100D03*
Y131700D03*
X445400Y149400D03*
Y152600D03*
X445300Y159500D03*
Y166300D03*
Y162900D03*
Y156100D03*
Y169700D03*
X448400Y244300D03*
Y247500D03*
X445000Y244300D03*
Y247500D03*
X455200Y244300D03*
Y247500D03*
X451800Y244300D03*
Y247500D03*
X443300Y274900D03*
Y278100D03*
X453500D03*
Y274900D03*
X446700D03*
Y278100D03*
X450400Y420300D03*
X447200D03*
X450400Y423700D03*
X447200D03*
X450400Y428100D03*
X447200D03*
X450400Y431500D03*
X447200D03*
X450400Y435900D03*
X447200D03*
X450400Y439300D03*
X447200D03*
X455900Y431500D03*
Y428100D03*
X450400Y443700D03*
X447200D03*
X450400Y447100D03*
X447200D03*
X454700Y553300D03*
X453700Y678100D03*
Y674900D03*
Y681600D03*
Y684800D03*
X451800Y1020100D03*
Y1023300D03*
X453700Y1045600D03*
X450500D03*
X445700D03*
X442500D03*
X453700Y1049000D03*
X450500D03*
X445700D03*
X442500D03*
X448000Y1183600D03*
X444800D03*
X454700Y1179700D03*
Y1182900D03*
X462600Y44500D03*
X465800D03*
Y47900D03*
X462600D03*
X456600Y62100D03*
X468000Y95300D03*
Y98500D03*
X465100Y182100D03*
X468500D03*
X465100Y185300D03*
X468500D03*
X467000Y252700D03*
X463800D03*
X467000Y249300D03*
X463800D03*
Y269700D03*
X467000D03*
Y256100D03*
X463800D03*
X467000Y259500D03*
X463800D03*
X467000Y266300D03*
X463800D03*
X467000Y262900D03*
X463800D03*
X456900Y278100D03*
Y274900D03*
X457000Y442000D03*
X462600Y441400D03*
Y438200D03*
Y431500D03*
Y434700D03*
X459100Y431500D03*
Y428100D03*
X457000Y451900D03*
Y448700D03*
Y445200D03*
X457900Y553300D03*
X465200Y591800D03*
Y595000D03*
X468600D03*
Y591800D03*
X467800Y668900D03*
Y665700D03*
X460400Y678100D03*
X457200D03*
X467800Y672400D03*
X464600D03*
X465300Y1171900D03*
Y1168700D03*
X476000Y44500D03*
X479200D03*
Y47900D03*
X476000D03*
X482000Y95300D03*
X471400D03*
X474800D03*
X482000Y98500D03*
X471400D03*
X474800D03*
X478700Y182100D03*
X482100D03*
X478700Y185300D03*
X482100D03*
X478700Y321700D03*
Y318500D03*
X475500Y325200D03*
X478700D03*
X482200Y325300D03*
X478700Y328600D03*
X475500D03*
X482200Y336600D03*
Y333400D03*
Y328500D03*
X475400Y336600D03*
Y333400D03*
X478800Y336600D03*
Y333400D03*
X480500Y612100D03*
X483900D03*
X472500Y612000D03*
X475700D03*
X472500Y622300D03*
Y625500D03*
X480500Y615300D03*
X484700Y623900D03*
Y627100D03*
X483900Y615300D03*
X472500Y618800D03*
X475700D03*
X483800D03*
X480600D03*
X472500Y615400D03*
X475700D03*
X483800Y657400D03*
X475800Y668900D03*
Y665700D03*
Y672400D03*
X472600D03*
X476400Y1023200D03*
X479600D03*
X472400Y1045600D03*
X475600D03*
X483600D03*
X480400D03*
X475200Y1183600D03*
X478400D03*
X485100D03*
X489400Y44500D03*
X492600D03*
Y47900D03*
X489400D03*
X485400Y95300D03*
X488800D03*
X492200D03*
X495600D03*
X499000D03*
X485400Y98500D03*
X488800D03*
X492200D03*
X495600D03*
X499000D03*
X485500Y182100D03*
X488900D03*
X485500Y185300D03*
X488900D03*
X487300Y324400D03*
X490500D03*
X485700Y336600D03*
X488900D03*
X496900Y597300D03*
Y590500D03*
Y593900D03*
Y600800D03*
Y604000D03*
X487400Y615300D03*
X490600D03*
X487000Y657400D03*
X494600Y1023200D03*
X497800D03*
X498600Y1045600D03*
X493800D03*
X490600D03*
X498600Y1049000D03*
X493800D03*
X490600D03*
X488300Y1183600D03*
X495000Y1179700D03*
Y1182900D03*
X502800Y44500D03*
X506000D03*
Y47900D03*
X502800D03*
X509200Y95300D03*
X512600D03*
X502400D03*
X505800D03*
X509200Y98500D03*
X512600D03*
X502400D03*
X505800D03*
X509300Y182100D03*
X505900D03*
X502500D03*
X509300Y185300D03*
X505900D03*
X502500D03*
X505900Y192000D03*
Y188800D03*
X500300Y191500D03*
Y194700D03*
X508000Y283100D03*
X511200D03*
X508000Y294300D03*
X511200D03*
X508000Y286500D03*
X511200D03*
X508000Y290900D03*
X511200D03*
X504900Y593800D03*
Y590600D03*
X500100Y597300D03*
X508300Y590600D03*
Y593800D03*
X500100Y590500D03*
Y593900D03*
X508200Y597300D03*
X505000D03*
X511800Y593800D03*
X509100Y602400D03*
Y605600D03*
X501800Y1045600D03*
Y1049000D03*
X505600Y1171900D03*
Y1168700D03*
X521800Y87100D03*
X518600D03*
X527400Y92300D03*
Y95500D03*
X516800Y239800D03*
Y236600D03*
X520200Y236500D03*
X523400D03*
X526900Y234900D03*
X523400Y233100D03*
X520200D03*
X526900Y239900D03*
X520200D03*
X523400D03*
X526900Y244900D03*
X516200Y283100D03*
X519400D03*
X524400D03*
X527600D03*
X524400Y294300D03*
X527600D03*
X524400Y286500D03*
X527600D03*
X516200D03*
X519400D03*
X524400Y290900D03*
X527600D03*
X520800Y322000D03*
Y325200D03*
X520000Y352200D03*
X516800D03*
X515000Y593800D03*
X515500Y1183600D03*
X518700D03*
X525400D03*
X530900Y92200D03*
X534100D03*
X530900Y95600D03*
X534100D03*
X532100Y111400D03*
X528900D03*
Y125000D03*
X532100D03*
Y114800D03*
X528900D03*
X532100Y121600D03*
X528900D03*
X532100Y118200D03*
X528900D03*
X532100Y138600D03*
X528900D03*
X532100Y135200D03*
X528900D03*
X532100Y131800D03*
X528900D03*
X532100Y128400D03*
X528900D03*
X532100Y148800D03*
X528900D03*
X532100Y145400D03*
X528900D03*
X532100Y142000D03*
X528900D03*
X532100Y152200D03*
X528900D03*
Y162400D03*
X532100D03*
Y159000D03*
X528900D03*
X532100Y169200D03*
X528900D03*
X532100Y165800D03*
X528900D03*
X532100Y172600D03*
X528900D03*
X532100Y176000D03*
X528900D03*
X532600Y194700D03*
Y197900D03*
X530100Y234900D03*
Y239900D03*
Y244900D03*
X529500Y352800D03*
Y356000D03*
Y362700D03*
Y359500D03*
X537700Y375900D03*
Y372700D03*
X531000Y372600D03*
X534200D03*
X531000Y376000D03*
X534200D03*
X535300Y1179700D03*
Y1182900D03*
X528600Y1183600D03*
X547800Y98500D03*
X544600D03*
X547800Y108500D03*
X544600D03*
X547800Y118500D03*
X544600D03*
X547800Y128500D03*
X544600D03*
X545900Y1171900D03*
Y1168700D03*
X555800Y1183600D03*
X568850Y179850D03*
Y183250D03*
X569000Y234900D03*
X565600Y238300D03*
X569000D03*
X565500Y234900D03*
X562300D03*
X565500Y229900D03*
X562300D03*
X562200Y238300D03*
X565500Y244900D03*
X562300D03*
X565600Y241500D03*
X562200D03*
X559000Y1183600D03*
X568900D03*
X565700D03*
X572050Y179850D03*
Y183250D03*
X572200Y234900D03*
Y238300D03*
X575600Y1179700D03*
Y1182900D03*
X595500Y179800D03*
Y176600D03*
Y183300D03*
Y186500D03*
X589300Y1129700D03*
Y1126500D03*
X585900Y1129700D03*
Y1126500D03*
X599000Y1132700D03*
X614300Y368700D03*
Y375400D03*
Y378600D03*
Y371900D03*
X602200Y1132700D03*
X617700Y368700D03*
Y375400D03*
Y378600D03*
Y371900D03*
X636500Y108200D03*
X639700D03*
X632000Y338300D03*
X628800D03*
X632200Y352200D03*
Y349000D03*
X632000Y341700D03*
X628800D03*
X635600Y352200D03*
Y349000D03*
X628800D03*
Y352200D03*
X636800Y341700D03*
Y344900D03*
X640200Y341700D03*
Y344900D03*
X632200Y357000D03*
Y360200D03*
X639100D03*
X642300D03*
X635600Y357000D03*
Y360200D03*
X647600Y140900D03*
X644400D03*
Y163200D03*
X647600D03*
X644400Y159800D03*
X647600D03*
X644400Y166600D03*
X647600D03*
X644400Y170000D03*
X647600D03*
X644400Y176800D03*
X647600D03*
X644400Y180200D03*
X647600D03*
X644400Y173400D03*
X647600D03*
Y193100D03*
X644400D03*
X653500Y425600D03*
Y428800D03*
X654400Y433900D03*
X654300Y440600D03*
Y437400D03*
X650800D03*
X647600D03*
X665700Y427200D03*
Y430400D03*
X657700Y437400D03*
Y440600D03*
X657600Y433900D03*
X665700D03*
X662500D03*
X665700Y437300D03*
X662500D03*
X665700Y440700D03*
X662500D03*
X699600Y266900D03*
Y263700D03*
X695300Y270400D03*
X698500D03*
X699100Y295400D03*
Y298800D03*
X697300Y308100D03*
Y304900D03*
X694100Y311600D03*
X697300D03*
Y315000D03*
X694100D03*
X697400Y323000D03*
Y319800D03*
X694000Y323000D03*
Y319800D03*
X693900Y363900D03*
X697100D03*
X692500Y422200D03*
X695700D03*
X687800Y613500D03*
Y610300D03*
Y602100D03*
Y605300D03*
Y617000D03*
Y620200D03*
Y625200D03*
Y628400D03*
X688000Y785100D03*
Y800900D03*
Y788300D03*
Y815300D03*
Y804100D03*
Y818500D03*
Y835100D03*
Y831900D03*
X687800Y885200D03*
Y882000D03*
Y898800D03*
Y895600D03*
Y915600D03*
Y905600D03*
Y908800D03*
Y918800D03*
Y928800D03*
Y925600D03*
Y1115500D03*
Y1118700D03*
X711800Y263600D03*
X708600D03*
Y267000D03*
X711800D03*
X703000Y266900D03*
Y263700D03*
X705400Y270400D03*
X708600D03*
X712100D03*
X702300Y295400D03*
X705900Y310800D03*
X709100D03*
X702300Y298800D03*
X700800Y311700D03*
X704300Y323000D03*
X707500D03*
X700800D03*
Y319800D03*
Y314900D03*
X712700Y439600D03*
Y442800D03*
X721300Y50600D03*
X718100D03*
X727800D03*
Y54000D03*
X718600Y68200D03*
X721800D03*
Y71600D03*
X718600D03*
X728300D03*
X715300Y263700D03*
Y266900D03*
X718900Y267000D03*
X722100D03*
Y270400D03*
X718900D03*
X715300D03*
X719200Y351200D03*
Y354400D03*
X719500Y439600D03*
X716100D03*
X719500Y442800D03*
X716100D03*
X724200Y613500D03*
Y610300D03*
Y602100D03*
Y605300D03*
Y617000D03*
Y620200D03*
Y625200D03*
Y628400D03*
X727300Y639600D03*
X724100D03*
X727300Y643000D03*
X724100D03*
X727300Y646400D03*
X724100D03*
X727300Y649800D03*
X724100D03*
X724200Y785100D03*
Y800900D03*
Y788300D03*
Y815300D03*
Y804100D03*
Y818500D03*
Y829500D03*
Y832700D03*
X727300Y841000D03*
X724100D03*
X727300Y844400D03*
X724100D03*
X724200Y885200D03*
Y882000D03*
Y898800D03*
Y895600D03*
Y915600D03*
Y905600D03*
Y908800D03*
Y928800D03*
Y925600D03*
Y918800D03*
Y1095200D03*
Y1098400D03*
X727600Y1095200D03*
Y1098400D03*
X724200Y1115500D03*
Y1103400D03*
Y1106600D03*
X727600Y1103400D03*
Y1106600D03*
X724200Y1118700D03*
X731000Y50600D03*
Y54000D03*
X731500Y71600D03*
X740800Y288100D03*
Y284900D03*
X741900Y309100D03*
X738800Y337800D03*
Y341000D03*
X730500Y354400D03*
Y351200D03*
X733900Y354400D03*
Y351200D03*
X738800D03*
Y354400D03*
Y344500D03*
Y347700D03*
X742900Y439600D03*
X739500D03*
X742900Y442800D03*
X739500D03*
X736600Y450500D03*
Y447300D03*
X733200Y450500D03*
Y447300D03*
X732100Y639600D03*
X735300D03*
X732100Y636200D03*
X735300D03*
X732100Y643000D03*
X735300D03*
X732100Y632800D03*
X735300D03*
X741200Y689100D03*
X738700Y739500D03*
Y742700D03*
X735300Y739500D03*
Y742700D03*
X738600Y756300D03*
X735400D03*
Y752900D03*
X738600D03*
X738700Y746200D03*
Y749400D03*
Y759700D03*
Y762900D03*
X735300Y759700D03*
Y762900D03*
X731000Y1095200D03*
Y1098400D03*
X739900Y1097100D03*
X736700D03*
X739900Y1090300D03*
X736700D03*
Y1100500D03*
X739900D03*
X736700Y1093700D03*
X739900D03*
X731000Y1103400D03*
Y1106600D03*
X739900Y1103900D03*
X736700D03*
Y1107300D03*
X739900D03*
X752500Y53200D03*
X749100D03*
X752500Y56400D03*
X749100D03*
X745100Y309100D03*
X755500Y439600D03*
X752100D03*
X749200Y450500D03*
Y447300D03*
X745800Y450500D03*
Y447300D03*
X755500Y442800D03*
X752100D03*
X744400Y689100D03*
X748800Y722300D03*
X752000D03*
X745700Y872200D03*
X748900D03*
X745700Y879000D03*
X748900D03*
X755600D03*
X752400D03*
X748900Y875600D03*
X745700D03*
X747500Y893300D03*
Y896500D03*
X754800Y903500D03*
Y906700D03*
X750400Y920500D03*
X753600D03*
X750400Y923900D03*
X753600D03*
X750400Y927300D03*
X753600D03*
X750400Y930700D03*
X753600D03*
X750400Y934100D03*
X753600D03*
X750400Y937500D03*
X753600D03*
X750400Y940900D03*
X753600D03*
X750400Y944300D03*
X753600D03*
X752700Y1100500D03*
X749500D03*
X752700Y1090300D03*
X749500D03*
Y1093700D03*
X752700D03*
Y1097100D03*
X749500D03*
X752700Y1103900D03*
X749500D03*
Y1107300D03*
X752700D03*
X757800Y1154800D03*
Y1158000D03*
X747700Y1161000D03*
X750900D03*
X747700Y1164400D03*
X750900D03*
X747700Y1167800D03*
X750900D03*
X767700Y439600D03*
X764300D03*
X771100D03*
X760900D03*
X767700Y442800D03*
X764300D03*
X771100D03*
X760900D03*
X771100Y453200D03*
Y450000D03*
X767700Y453200D03*
Y450000D03*
X764300Y453200D03*
Y450000D03*
X760900Y453200D03*
Y450000D03*
X759500Y462800D03*
Y466000D03*
Y469600D03*
X767700Y456600D03*
X770900D03*
X759500Y472800D03*
X763200Y685200D03*
X766400D03*
X769900D03*
X770900Y698700D03*
Y695500D03*
Y692000D03*
Y708900D03*
Y712100D03*
Y705400D03*
Y702200D03*
Y715600D03*
Y718800D03*
X771000Y741000D03*
X770900Y734400D03*
Y737600D03*
X767500Y734400D03*
Y737600D03*
X770900Y757700D03*
Y754500D03*
X771000Y744400D03*
X770900Y751000D03*
Y747800D03*
Y761200D03*
Y764400D03*
X764300D03*
X767500D03*
X761500Y807300D03*
X764700D03*
X762300Y868800D03*
X759100D03*
X762300Y872200D03*
X759100D03*
X762300Y875600D03*
X759100D03*
Y879000D03*
X762300D03*
X761600Y906700D03*
Y903500D03*
X758200Y906700D03*
Y903500D03*
X764900Y916700D03*
X761700D03*
X765500Y1097100D03*
X762300D03*
X765500Y1090300D03*
X762300D03*
Y1100500D03*
X765500D03*
X762300Y1093700D03*
X765500D03*
Y1103900D03*
X762300D03*
Y1107300D03*
X765500D03*
X770200Y1140600D03*
X768000Y1158000D03*
Y1154800D03*
X764600Y1158000D03*
Y1154800D03*
X768000Y1148100D03*
Y1151300D03*
X761200Y1158000D03*
Y1154800D03*
X768000Y1173900D03*
X764800D03*
X768000Y1170500D03*
X764800D03*
X768000Y1167100D03*
X764800D03*
X768000Y1161500D03*
X764800D03*
X768000Y1180700D03*
X764800D03*
X768000Y1177300D03*
X764800D03*
X784300Y319100D03*
X779000Y340700D03*
Y350700D03*
Y347500D03*
Y343900D03*
X775600Y347500D03*
X772400D03*
X785500Y362400D03*
X782300D03*
X785500Y381300D03*
X782300D03*
X785500Y395200D03*
X782300D03*
X785500Y384700D03*
X782300D03*
X785500Y398600D03*
X782300D03*
X786300Y419300D03*
Y415900D03*
X779100Y469300D03*
X782500D03*
X779100Y472500D03*
X782500D03*
X773100Y685200D03*
X774400Y695400D03*
X777600D03*
X777700Y698800D03*
X777600Y688700D03*
Y691900D03*
X774100Y692000D03*
X774300Y698800D03*
X777700Y702000D03*
X777600Y712100D03*
X774400D03*
X777600Y705400D03*
X774400D03*
X774300Y702000D03*
X777600Y715500D03*
X774400D03*
X774200Y741000D03*
X777600Y747800D03*
X774400D03*
X777600Y751200D03*
X774400D03*
X774200Y744400D03*
X778300Y916700D03*
X781500D03*
X778300Y1090300D03*
X775100D03*
X778300Y1097100D03*
X775100D03*
Y1093700D03*
X778300D03*
X775100Y1100500D03*
X778300D03*
Y1103900D03*
X775100D03*
Y1107300D03*
X778300D03*
X773400Y1140600D03*
X776900D03*
X780100D03*
X783600D03*
X773400Y1133900D03*
Y1137100D03*
X780100Y1133900D03*
Y1137100D03*
X787500Y319100D03*
X795900Y379600D03*
X799100D03*
X790700Y394900D03*
Y391700D03*
Y384900D03*
Y388100D03*
X799100Y400200D03*
X795900D03*
X789500Y419300D03*
Y415900D03*
X789600Y920500D03*
X792800D03*
X789600Y923900D03*
X792800D03*
X789600Y927300D03*
X792800D03*
X789600Y930700D03*
X792800D03*
X789600Y934100D03*
X792800D03*
X789600Y937500D03*
X792800D03*
X789600Y940900D03*
X792800D03*
X789600Y944300D03*
X792800D03*
X790600Y956400D03*
Y953200D03*
X787200D03*
Y956400D03*
X794000Y953200D03*
Y956400D03*
X790600Y971100D03*
Y967900D03*
Y961200D03*
Y964400D03*
X787200Y967900D03*
Y971100D03*
Y964400D03*
Y961200D03*
X794000Y967900D03*
Y971100D03*
Y964400D03*
Y961200D03*
X790600Y975900D03*
Y979100D03*
X787200D03*
Y975900D03*
X794000Y979100D03*
Y975900D03*
X787100Y982500D03*
X790300D03*
X787100Y997500D03*
X790300D03*
X787100Y992500D03*
X790300D03*
X787100Y1007500D03*
X790300D03*
X787100Y1002500D03*
X790300D03*
X787100Y1012500D03*
X790300D03*
X787100Y1017500D03*
X790300D03*
X787100Y1027500D03*
X790300D03*
X787100Y1022500D03*
X790300D03*
X800800Y1020100D03*
Y1016900D03*
X787100Y1037500D03*
X790300D03*
X787100Y1032500D03*
X790300D03*
X787100Y1042500D03*
X790300D03*
X787100Y1047500D03*
X790300D03*
X787100Y1052500D03*
X790300D03*
X787100Y1062500D03*
X790300D03*
X787100Y1072500D03*
X790300D03*
X786800Y1140600D03*
X790300D03*
X793500D03*
X797000D03*
X800200D03*
Y1133900D03*
Y1137100D03*
X793500Y1133900D03*
Y1137100D03*
X786800Y1133900D03*
Y1137100D03*
X813600Y50600D03*
X807100D03*
X803900D03*
X813600Y54000D03*
X804400Y68200D03*
X807600D03*
X814100Y71600D03*
X807600D03*
X804400D03*
X804300Y394900D03*
Y391700D03*
Y384900D03*
Y388100D03*
X813100Y924200D03*
Y921000D03*
X809300Y935500D03*
Y932300D03*
Y948900D03*
Y952100D03*
X813100Y963400D03*
Y960200D03*
X813400Y986200D03*
X808400D03*
X813400Y989400D03*
X808400D03*
X810000Y1035800D03*
Y1032600D03*
X813400D03*
Y1035800D03*
X806600Y1032600D03*
Y1035800D03*
X810400Y1140600D03*
X813600D03*
X803700D03*
X806900D03*
X813600Y1133900D03*
Y1137100D03*
X806900Y1133900D03*
Y1137100D03*
X808900Y1156100D03*
Y1159300D03*
X812200Y1166200D03*
X809000D03*
Y1169600D03*
Y1172800D03*
Y1162800D03*
X812200D03*
X812400Y1172800D03*
Y1169600D03*
X809000Y1179600D03*
X812200D03*
X809000Y1176200D03*
X812200D03*
X816800Y50600D03*
Y54000D03*
X817300Y71600D03*
X824400Y258300D03*
X827600D03*
X826700Y291800D03*
Y288600D03*
X827600Y296900D03*
X824000Y300400D03*
X820800D03*
X827500Y303600D03*
Y300400D03*
Y780600D03*
Y783800D03*
X816500Y924200D03*
Y921000D03*
X819900Y924200D03*
Y921000D03*
X823300Y924200D03*
Y921000D03*
X826700Y924200D03*
Y921000D03*
X816500Y963400D03*
Y960200D03*
X819900Y963400D03*
Y960200D03*
X823300Y963400D03*
Y960200D03*
X826700Y963400D03*
Y960200D03*
X825200Y986200D03*
X818400D03*
X821800D03*
X825200Y989400D03*
X818400D03*
X821800D03*
X826800Y1035800D03*
Y1032600D03*
X823400D03*
Y1035800D03*
X818400Y1032600D03*
Y1035800D03*
X824300Y1087800D03*
X827500D03*
X824300Y1084400D03*
X827500D03*
X824300Y1094600D03*
X827500D03*
X824300Y1091200D03*
X827500D03*
X824300Y1098000D03*
X827500D03*
X824300Y1101400D03*
X827500D03*
X824300Y1111600D03*
X827500D03*
X824300Y1104800D03*
X827500D03*
X824300Y1108200D03*
X827500D03*
X824300Y1115000D03*
X827500D03*
X815800Y1172800D03*
Y1169600D03*
X838300Y53200D03*
X834900D03*
X838300Y56400D03*
X834900D03*
X838900Y293400D03*
Y290200D03*
Y296900D03*
X835700D03*
X830800D03*
X830900Y300400D03*
Y303600D03*
X838900Y303700D03*
X835700D03*
X838900Y300300D03*
X835700D03*
X843300Y388000D03*
X840100D03*
X841700Y400200D03*
X838500D03*
X833400Y483400D03*
X836600D03*
X841700Y575600D03*
Y572400D03*
X839700Y594700D03*
X842900D03*
X839700Y599700D03*
X842900D03*
Y604700D03*
X839700D03*
X839600Y611700D03*
X843600D03*
X839600Y614900D03*
X843600D03*
X839400Y649700D03*
Y646500D03*
Y653200D03*
Y656400D03*
X835950Y653150D03*
X832750D03*
X835950Y649750D03*
X832750D03*
X830900Y783800D03*
Y780600D03*
X838200Y822300D03*
X841400D03*
X832400Y843600D03*
X840400Y836600D03*
Y833400D03*
X832400Y840100D03*
X835600D03*
X832400Y836700D03*
X835600D03*
X843700Y840100D03*
X840500D03*
X843800Y833400D03*
Y836600D03*
X832400Y846800D03*
X842400Y899800D03*
Y896600D03*
X836900Y924200D03*
Y921000D03*
X833500Y963400D03*
Y960200D03*
X836900Y963400D03*
Y960200D03*
X834200Y1101400D03*
X831000D03*
X834200Y1115000D03*
X831000D03*
X850300Y396000D03*
X853500D03*
X846800Y388000D03*
Y391200D03*
Y396100D03*
X853600Y388000D03*
Y391200D03*
X850200Y388000D03*
Y391200D03*
X857200Y409900D03*
Y413100D03*
X853500Y399400D03*
X850300D03*
Y402900D03*
Y406100D03*
X846800Y399300D03*
X857200Y452300D03*
Y449100D03*
Y482700D03*
Y485900D03*
Y525100D03*
Y521900D03*
X853800Y611700D03*
X857200D03*
X850400D03*
X847000D03*
X848200Y627300D03*
X844800D03*
X853800Y614900D03*
X857200D03*
X850400D03*
X847000D03*
X848200Y630500D03*
X844800D03*
X848200Y652700D03*
Y655900D03*
X855900Y776800D03*
Y780000D03*
Y786900D03*
Y790100D03*
Y796800D03*
Y793600D03*
Y800400D03*
Y803600D03*
X847300Y836600D03*
X850500D03*
X844600Y845200D03*
Y848400D03*
X857300Y923100D03*
Y926300D03*
X869500Y251400D03*
Y254600D03*
X864900Y251400D03*
Y254600D03*
X861500Y251400D03*
Y254600D03*
X862200Y303900D03*
Y300700D03*
X858800Y303900D03*
Y300700D03*
X866200Y308600D03*
Y311800D03*
X869600Y308600D03*
Y311800D03*
Y301700D03*
X872800D03*
Y305100D03*
X869600D03*
X870800Y409900D03*
Y413100D03*
X867400Y409900D03*
Y413100D03*
X864000Y409900D03*
Y413100D03*
X860600Y409900D03*
Y413100D03*
X870800Y452300D03*
Y449100D03*
X867400Y452300D03*
Y449100D03*
X864000Y452300D03*
Y449100D03*
X860600Y452300D03*
Y449100D03*
X870800Y482700D03*
X860600D03*
X870800Y485900D03*
X860600D03*
X870800Y525100D03*
Y521900D03*
X860600Y525100D03*
Y521900D03*
X871900Y573200D03*
X867400Y611700D03*
X870800D03*
X864000D03*
X860600D03*
X867400Y614900D03*
X870800D03*
X864000D03*
X860600D03*
X859400Y784500D03*
X862600D03*
X859400Y781100D03*
X862600D03*
X862700Y793300D03*
Y790100D03*
X859300D03*
Y793300D03*
Y800400D03*
X862600Y796800D03*
X859400D03*
X859300Y803600D03*
X862400Y1156900D03*
X859000D03*
X862400Y1160100D03*
X859000D03*
X877500Y254600D03*
Y251400D03*
X872900D03*
Y254600D03*
X880900D03*
Y251400D03*
X885500Y254600D03*
Y251400D03*
X875200Y258100D03*
Y261300D03*
X877600Y310500D03*
X884100Y300100D03*
Y303500D03*
X877600Y313700D03*
X877700Y319600D03*
X874500D03*
X881000Y409900D03*
Y413100D03*
X877600Y409900D03*
Y413100D03*
X874200Y409900D03*
Y413100D03*
X884800Y424400D03*
Y421200D03*
Y437800D03*
Y441000D03*
X881000Y452300D03*
Y449100D03*
X877600Y452300D03*
Y449100D03*
X874200Y452300D03*
Y449100D03*
X881000Y482700D03*
X877600D03*
X874200D03*
X884800Y497200D03*
Y494000D03*
X881000Y485900D03*
X877600D03*
X874200D03*
X884800Y510600D03*
Y513800D03*
X874200Y525100D03*
Y521900D03*
X876700Y561000D03*
X873500D03*
X883700Y569000D03*
X886900D03*
X880200Y561000D03*
Y564200D03*
Y569100D03*
X887000Y561000D03*
Y564200D03*
X883600Y561000D03*
Y564200D03*
X875100Y573200D03*
X883700Y575900D03*
Y579100D03*
X886900Y572400D03*
X883700D03*
X880200Y572300D03*
X884500Y599700D03*
X881300D03*
Y589700D03*
X884500D03*
X881300Y594700D03*
X884500D03*
X885400Y606900D03*
Y610100D03*
Y613700D03*
X882000D03*
X881900Y610200D03*
X878700D03*
X874200Y611700D03*
X885400Y616900D03*
X882000D03*
X874200Y614900D03*
X883700Y693300D03*
Y696500D03*
X880300Y693300D03*
Y696500D03*
X873300Y812100D03*
Y808900D03*
X876800Y901500D03*
X880000D03*
X876800Y904900D03*
X880000D03*
X886100Y911000D03*
X876000Y916700D03*
Y919900D03*
X879400Y916700D03*
Y919900D03*
X887000Y1005300D03*
X885400Y1017500D03*
Y1043600D03*
X887000Y1031400D03*
X883200Y1141700D03*
X880000D03*
X880500Y1159300D03*
X883700D03*
Y1162700D03*
X880500D03*
X888900Y254600D03*
Y251400D03*
X900000Y263200D03*
X896500D03*
X893300D03*
X899950Y259750D03*
Y256550D03*
X896550Y259750D03*
Y256550D03*
X898400Y276600D03*
Y273400D03*
X897000Y293700D03*
X893800D03*
X887300Y300100D03*
Y303500D03*
X899100Y368100D03*
Y364900D03*
Y376100D03*
Y372900D03*
X889800Y382200D03*
X893200D03*
X889800Y385400D03*
X893200D03*
X897500Y564400D03*
X894300D03*
Y561000D03*
X897500D03*
X894300Y585300D03*
Y582100D03*
X892400Y599200D03*
X895600D03*
X893700Y693300D03*
Y696500D03*
X890300D03*
Y693300D03*
X894800Y906900D03*
Y903700D03*
X889300Y911000D03*
X898800Y917400D03*
Y920600D03*
X890200Y1005300D03*
X897200Y1013300D03*
X900400D03*
X893700Y1005300D03*
Y1008500D03*
X900500Y1005300D03*
Y1008500D03*
X897100Y1005300D03*
Y1008500D03*
X893700Y1013400D03*
X888600Y1017500D03*
X900400Y1016700D03*
X897200D03*
X893700Y1016600D03*
X897200Y1020200D03*
Y1023400D03*
X888600Y1043600D03*
X890200Y1031400D03*
X897200Y1039400D03*
X900400D03*
X893700Y1031400D03*
Y1034600D03*
Y1042700D03*
Y1039500D03*
X900400Y1042800D03*
X897200D03*
X900500Y1031400D03*
Y1034600D03*
X897100Y1031400D03*
Y1034600D03*
X897200Y1046300D03*
Y1049500D03*
X889700Y1141700D03*
X892900D03*
Y1145100D03*
X889700D03*
X890200Y1162700D03*
X893400D03*
X903200Y263200D03*
X901700Y561100D03*
Y564300D03*
X915000Y612500D03*
X911800D03*
X915000Y609100D03*
X911800D03*
Y621300D03*
X915000D03*
X911800Y617900D03*
X915000D03*
X911800Y641500D03*
X915000D03*
X911800Y636100D03*
X915000D03*
X911800Y632700D03*
X915000D03*
X911800Y644900D03*
X915000D03*
X909300Y1040100D03*
Y1043300D03*
Y1052300D03*
Y1049100D03*
X912700Y1058300D03*
X905900Y1049100D03*
Y1052300D03*
X909300Y1058300D03*
X912700Y1061500D03*
X905900Y1067300D03*
Y1070500D03*
X909300Y1067300D03*
Y1070500D03*
Y1061500D03*
Y1079500D03*
Y1076300D03*
Y1087700D03*
Y1084500D03*
X905900D03*
Y1087700D03*
Y1076300D03*
Y1079500D03*
X909300Y1095900D03*
Y1092700D03*
Y1100900D03*
X902500Y1092700D03*
Y1095900D03*
X905900Y1092700D03*
Y1095900D03*
X909300Y1104100D03*
X929900Y382200D03*
Y385400D03*
X939200Y368100D03*
Y364900D03*
Y376100D03*
Y372900D03*
X933300Y382200D03*
Y385400D03*
G54D70*
X179528Y307008D03*
X183465D03*
X179528Y335354D03*
X183465D03*
X179528Y467008D03*
X183465D03*
X179528Y495354D03*
X183465D03*
X187402Y307008D03*
X191339D03*
X195276D03*
X187402Y335354D03*
X191339D03*
X195276D03*
X187402Y467008D03*
X191339D03*
X195276D03*
X187402Y495354D03*
X191339D03*
X195276D03*
X199213Y307008D03*
X203150D03*
X207087D03*
X211024D03*
X199213Y335354D03*
X203150D03*
X207087D03*
X211024D03*
X199213Y467008D03*
X203150D03*
X207087D03*
X211024D03*
X199213Y495354D03*
X203150D03*
X207087D03*
X211024D03*
X214961Y307008D03*
X218898D03*
X214961Y335354D03*
X218898D03*
X214961Y467008D03*
X218898D03*
X214961Y495354D03*
X218898D03*
X230709Y307008D03*
X234646D03*
X238583D03*
X230709Y335354D03*
X234646D03*
X238583D03*
X230709Y467008D03*
X234646D03*
X238583D03*
X230709Y495354D03*
X234646D03*
X238583D03*
X242520Y307008D03*
X246457D03*
X250394D03*
X254331D03*
X242520Y335354D03*
X246457D03*
X250394D03*
X254331D03*
X242520Y467008D03*
X246457D03*
X250394D03*
X254331D03*
X242520Y495354D03*
X246457D03*
X250394D03*
X254331D03*
X258268Y307008D03*
X262205D03*
X266142D03*
X270079D03*
X258268Y335354D03*
X262205D03*
X266142D03*
X270079D03*
X258268Y467008D03*
X262205D03*
X266142D03*
X270079D03*
X258268Y495354D03*
X262205D03*
X266142D03*
X270079D03*
X274016Y307008D03*
X277953D03*
X281890D03*
X274016Y335354D03*
X277953D03*
X281890D03*
X274016Y467008D03*
X277953D03*
X281890D03*
X274016Y495354D03*
X277953D03*
X281890D03*
X285827Y307008D03*
X289764D03*
X293701D03*
X297638D03*
X285827Y335354D03*
X289764D03*
X293701D03*
X297638D03*
X285827Y467008D03*
X289764D03*
X293701D03*
X297638D03*
X285827Y495354D03*
X289764D03*
X293701D03*
X297638D03*
X301575Y307008D03*
X305512D03*
X309449D03*
X301575Y335354D03*
X305512D03*
X309449D03*
X301575Y467008D03*
X305512D03*
X309449D03*
X301575Y495354D03*
X305512D03*
X309449D03*
X313386Y307008D03*
X317323D03*
X321260D03*
X325197D03*
X313386Y335354D03*
X317323D03*
X321260D03*
X325197D03*
X313386Y467008D03*
X317323D03*
X321260D03*
X325197D03*
X313386Y495354D03*
X317323D03*
X321260D03*
X325197D03*
X329134Y307008D03*
X333071D03*
X337008D03*
X340945D03*
X329134Y335354D03*
X333071D03*
X337008D03*
X340945D03*
X329134Y467008D03*
X333071D03*
X337008D03*
X340945D03*
X329134Y495354D03*
X333071D03*
X337008D03*
X340945D03*
X344882Y307008D03*
X348819D03*
X352756D03*
X344882Y335354D03*
X348819D03*
X352756D03*
X344883Y467008D03*
X348820D03*
X352757D03*
X344883Y495354D03*
X348820D03*
X352757D03*
X356693Y307008D03*
X360630D03*
X364567D03*
X368504D03*
X356693Y335354D03*
X360630D03*
X364567D03*
X368504D03*
X356694Y467008D03*
X360631D03*
X364568D03*
X368505D03*
X356694Y495354D03*
X360631D03*
X364568D03*
X368505D03*
X372441Y307008D03*
X376378D03*
X372441Y335354D03*
X376378D03*
X372442Y467008D03*
X376379D03*
X380316D03*
X384253D03*
X372442Y495354D03*
X376379D03*
X380316D03*
X384253D03*
X388190Y467008D03*
X392127D03*
X396064D03*
X388190Y495354D03*
X392127D03*
X396064D03*
X400001Y467008D03*
X403938D03*
X407875D03*
X411812D03*
X400001Y495354D03*
X403938D03*
X407875D03*
X411812D03*
X415749Y467008D03*
X419686D03*
X423623D03*
X427560D03*
X415749Y495354D03*
X419686D03*
X423623D03*
X427560D03*
X431497Y467008D03*
X435434D03*
X439371D03*
X431497Y495354D03*
X435434D03*
X439371D03*
X443308Y467008D03*
X447245D03*
X451182D03*
X455119D03*
X443308Y495354D03*
X447245D03*
X451182D03*
X455119D03*
X459056Y467008D03*
X462993D03*
X466930D03*
X470867D03*
X459056Y495354D03*
X462993D03*
X466930D03*
X470867D03*
X474804Y467008D03*
X478741D03*
X482678D03*
X474804Y495354D03*
X478741D03*
X482678D03*
X486615Y467008D03*
X490552D03*
X494489D03*
X498426D03*
X486615Y495354D03*
X490552D03*
X494489D03*
X498426D03*
X502363Y467008D03*
X506300D03*
X502363Y495354D03*
X506300D03*
G54D25*
X63000Y633800D03*
G54D52*
X148600Y831300D03*
X159600D03*
X759600D03*
X770600D03*
G54D61*
X165188Y689107D03*
Y702493D03*
X176212D03*
X748988Y689107D03*
Y702493D03*
X760012D03*
G54D109*
X518111Y481181D03*
G54D118*
X712313Y281719D03*
G54D127*
X808400Y996433D03*
X813400D03*
X808400Y1025567D03*
X813400D03*
X818400Y996433D03*
X823400D03*
X818400Y1025567D03*
X823400D03*
G54D34*
X81900Y794700D03*
Y788900D03*
Y811600D03*
Y805800D03*
Y865200D03*
Y859400D03*
Y882100D03*
Y876300D03*
X78900Y1099800D03*
Y1093800D03*
X93800Y700700D03*
Y706500D03*
Y723400D03*
Y717600D03*
Y740300D03*
Y734500D03*
X86600Y794700D03*
Y788900D03*
Y811600D03*
Y805800D03*
Y865200D03*
Y859400D03*
Y882100D03*
Y876300D03*
X111400Y439100D03*
Y444900D03*
X98500Y700700D03*
Y706500D03*
Y723400D03*
Y717600D03*
Y740300D03*
Y734500D03*
X116100Y439100D03*
Y444900D03*
X155300Y897000D03*
Y891200D03*
X164900Y869200D03*
Y875000D03*
X194400Y858700D03*
Y852900D03*
Y864000D03*
Y869800D03*
X211200Y187400D03*
Y193200D03*
X210000Y348400D03*
Y354200D03*
Y508400D03*
Y514200D03*
X217300Y267200D03*
X222300D03*
X217300Y273000D03*
X222300Y273200D03*
X214700Y348400D03*
Y354200D03*
X218800Y431500D03*
Y437500D03*
X214700Y508400D03*
Y514200D03*
X231400Y858700D03*
Y852900D03*
Y864000D03*
Y869800D03*
X268700Y599800D03*
Y605800D03*
X512000Y319900D03*
Y325700D03*
X516700Y319900D03*
Y325700D03*
X655200Y277200D03*
Y271400D03*
X650500Y277200D03*
Y271400D03*
X645800Y277200D03*
Y271400D03*
X655200Y291200D03*
Y297000D03*
X650500Y291200D03*
Y297000D03*
X645500Y291200D03*
Y297200D03*
X688000Y858700D03*
Y852900D03*
Y864000D03*
Y869800D03*
X724900Y858700D03*
Y852900D03*
Y864000D03*
Y869800D03*
X730600Y306300D03*
Y312100D03*
X735300Y306300D03*
Y312100D03*
X743400Y897000D03*
Y891200D03*
X753000Y869200D03*
Y875000D03*
X794000Y370500D03*
Y364700D03*
X812300Y398900D03*
Y404700D03*
X817000Y398900D03*
Y404700D03*
X849000Y273200D03*
Y279200D03*
X850500Y577700D03*
Y571900D03*
X845800Y577700D03*
Y571900D03*
X855900Y896100D03*
Y901900D03*
X851200Y896100D03*
Y901900D03*
X846500Y896100D03*
Y901900D03*
X864000Y1016200D03*
X859300D03*
X864000Y1022000D03*
X859300D03*
X864000Y1042300D03*
X859300D03*
X864000Y1048100D03*
X859300D03*
X886800Y808500D03*
Y814300D03*
X882100Y808500D03*
Y814300D03*
X877400Y808500D03*
Y814300D03*
G54D16*
X36000Y618073D03*
Y619727D03*
Y625927D03*
Y624273D03*
Y628273D03*
Y629927D03*
X63000Y1095973D03*
Y1097627D03*
Y1091573D03*
Y1093227D03*
Y1100373D03*
Y1112873D03*
Y1114527D03*
Y1102027D03*
Y1117273D03*
Y1118927D03*
Y1121673D03*
Y1123327D03*
Y1126073D03*
Y1127727D03*
X912700Y1040073D03*
Y1041727D03*
Y1049073D03*
Y1050727D03*
Y1067273D03*
Y1068927D03*
Y1076273D03*
Y1077927D03*
Y1084473D03*
Y1086127D03*
Y1092673D03*
Y1094327D03*
G54D43*
X110988Y1043754D03*
X109413D03*
Y1063046D03*
X110988D03*
X123587Y1043754D03*
X122012D03*
X120437D03*
X118862D03*
X117287D03*
X115713D03*
X114138D03*
X112563D03*
Y1063046D03*
X114138D03*
X115713D03*
X117287D03*
X118862D03*
X120437D03*
X122012D03*
X123587D03*
G54D136*
X876042Y708728D03*
Y742272D03*
X893758Y708728D03*
Y742272D03*
G54D71*
X171881Y690682D03*
X169519D03*
X171881Y700918D03*
X755681Y690682D03*
X753319D03*
X755681Y700918D03*
G54D119*
X743000Y51798D03*
Y64002D03*
X828800Y51798D03*
Y64002D03*
X868500Y1149298D03*
Y1161502D03*
G54D35*
X100100Y250279D03*
Y260121D03*
G54D44*
X116500Y1053400D03*
G54D128*
X815900Y1011000D03*
G54D53*
X145784Y924383D03*
X148343D03*
X150902D03*
X153461D03*
Y947217D03*
X150902D03*
X148343D03*
X145784D03*
Y980183D03*
X148343D03*
X150902D03*
X153461D03*
Y1003017D03*
X150902D03*
X148343D03*
X145784D03*
X156020Y924383D03*
X158580D03*
X161139D03*
X163698D03*
X166257D03*
X168816D03*
Y947217D03*
X166257D03*
X163698D03*
X161139D03*
X158580D03*
X156020D03*
Y980183D03*
X158580D03*
X161139D03*
X163698D03*
X166257D03*
X168816D03*
Y1003017D03*
X166257D03*
X163698D03*
X161139D03*
X158580D03*
X156020D03*
X273784Y586483D03*
X276343D03*
X278902D03*
X281461D03*
Y609317D03*
X278902D03*
X276343D03*
X273784D03*
X284020Y586483D03*
X286580D03*
X289139D03*
X291698D03*
X294257D03*
X296816D03*
Y609317D03*
X294257D03*
X291698D03*
X289139D03*
X286580D03*
X284020D03*
X813484Y930783D03*
Y953617D03*
X823784Y419683D03*
X826343D03*
X828902D03*
Y442517D03*
X826343D03*
X823784D03*
Y492483D03*
X826343D03*
X828902D03*
Y515317D03*
X826343D03*
X823784D03*
X816043Y930783D03*
X818602D03*
X821161D03*
X823720D03*
X826280D03*
X828839D03*
Y953617D03*
X826280D03*
X823720D03*
X821161D03*
X818602D03*
X816043D03*
X831461Y419683D03*
X834020D03*
X836580D03*
X839139D03*
X841698D03*
Y442517D03*
X839139D03*
X836580D03*
X834020D03*
X831461D03*
Y492483D03*
X834020D03*
X836580D03*
X839139D03*
X841698D03*
Y515317D03*
X839139D03*
X836580D03*
X834020D03*
X831461D03*
X831398Y930783D03*
X833957D03*
X836516D03*
Y953617D03*
X833957D03*
X831398D03*
X857584Y419683D03*
X844257D03*
X846816D03*
X857584Y442517D03*
X846816D03*
X844257D03*
X857584Y492483D03*
X844257D03*
X846816D03*
X857584Y515317D03*
X846816D03*
X844257D03*
X860143Y419683D03*
X862702D03*
X865261D03*
X867820D03*
X870380D03*
Y442517D03*
X867820D03*
X865261D03*
X862702D03*
X860143D03*
Y492483D03*
X862702D03*
X865261D03*
X867820D03*
X870380D03*
Y515317D03*
X867820D03*
X865261D03*
X862702D03*
X860143D03*
X872939Y419683D03*
X875498D03*
X878057D03*
X880616D03*
Y442517D03*
X878057D03*
X875498D03*
X872939D03*
Y492483D03*
X875498D03*
X878057D03*
X880616D03*
Y515317D03*
X878057D03*
X875498D03*
X872939D03*
G54D17*
X41000Y616100D03*
X48200D03*
X98500Y712100D03*
Y729000D03*
Y745900D03*
X86600Y800300D03*
X93800D03*
X86600Y817200D03*
X93800D03*
X86600Y870800D03*
X93800D03*
X86600Y887700D03*
X93800D03*
X105700Y712100D03*
Y729000D03*
Y745900D03*
X197500Y347400D03*
Y507400D03*
X204700Y347400D03*
Y507400D03*
G54D26*
X57094Y624056D03*
X59063D03*
X61031D03*
X63000D03*
X64969D03*
X66937D03*
Y643544D03*
X64969D03*
X63000D03*
X61031D03*
X59063D03*
X57094D03*
X68906Y624056D03*
Y643544D03*
G54D62*
X165188Y691076D03*
Y692650D03*
Y694225D03*
Y695800D03*
Y697375D03*
Y698950D03*
Y700524D03*
X176212Y691076D03*
Y692650D03*
Y694225D03*
Y695800D03*
Y697375D03*
Y698950D03*
Y700524D03*
X748988Y691076D03*
Y692650D03*
Y694225D03*
Y695800D03*
Y697375D03*
Y698950D03*
Y700524D03*
X760012Y691076D03*
Y692650D03*
Y694225D03*
Y695800D03*
Y697375D03*
Y698950D03*
Y700524D03*
G54D137*
X877300Y837174D03*
Y871426D03*
Y951474D03*
Y985726D03*
G54D80*
X358900Y1158558D03*
X399200D03*
X439500D03*
X479800D03*
X520100D03*
X560400D03*
G54D90*
X406800Y404768D03*
X426800D03*
G54D81*
X352601Y1167455D03*
X392901D03*
X415699Y569045D03*
X433201Y1167455D03*
X473501D03*
X513801D03*
X554101D03*
G54D18*
X29035Y628071D03*
Y626103D03*
Y624134D03*
Y622166D03*
Y620197D03*
Y633977D03*
Y630040D03*
Y632008D03*
G54D54*
X168600Y133500D03*
X157600D03*
X168600Y213500D03*
X157600D03*
X168600Y293500D03*
X157600D03*
X168600Y373500D03*
X157600D03*
X168600Y455500D03*
X157600D03*
X159400Y532900D03*
X170400D03*
G54D36*
X85644Y447731D03*
Y449700D03*
Y451669D03*
X91156D03*
Y449700D03*
Y447731D03*
X442620Y256279D03*
Y258247D03*
Y260216D03*
Y262184D03*
Y264153D03*
Y266121D03*
X457580D03*
Y264153D03*
Y262184D03*
Y260216D03*
Y258247D03*
Y256279D03*
X486144Y328531D03*
Y330500D03*
Y332469D03*
X491656D03*
Y330500D03*
Y328531D03*
X704744Y314931D03*
Y316900D03*
Y318869D03*
X710256D03*
Y316900D03*
Y314931D03*
X842856Y396069D03*
Y394100D03*
Y392131D03*
X837344D03*
Y394100D03*
Y396069D03*
X870744Y565131D03*
Y567100D03*
Y569069D03*
X876256D03*
Y567100D03*
Y565131D03*
X884244Y1009431D03*
Y1011400D03*
Y1013369D03*
Y1035531D03*
Y1037500D03*
Y1039469D03*
X889756Y1013369D03*
Y1011400D03*
Y1009431D03*
Y1039469D03*
Y1037500D03*
Y1035531D03*
G54D72*
X178766Y1173400D03*
X187034Y1169660D03*
Y1177140D03*
G54D27*
X83600Y166350D03*
Y230300D03*
G54D138*
X877264Y891000D03*
Y931900D03*
X897736Y891000D03*
Y931900D03*
G54D63*
X156048Y747376D03*
Y748950D03*
Y750525D03*
Y752100D03*
Y753675D03*
Y755250D03*
Y756824D03*
X174552D03*
Y755250D03*
Y753675D03*
Y752100D03*
Y750525D03*
Y748950D03*
Y747376D03*
X744648D03*
Y748950D03*
Y750525D03*
Y752100D03*
Y753675D03*
Y755250D03*
Y756824D03*
X763152D03*
Y755250D03*
Y753675D03*
Y752100D03*
Y750525D03*
Y748950D03*
Y747376D03*
G54D45*
X106854Y1046313D03*
Y1047888D03*
Y1049463D03*
Y1051038D03*
Y1052613D03*
Y1054187D03*
Y1055762D03*
Y1057337D03*
Y1058912D03*
Y1060487D03*
X126146Y1057337D03*
Y1055762D03*
Y1054187D03*
Y1052613D03*
Y1051038D03*
Y1049463D03*
Y1047888D03*
Y1046313D03*
Y1060487D03*
Y1058912D03*
G54D129*
X844581Y793813D03*
G54D55*
X168898Y161181D03*
X168897Y241181D03*
Y401181D03*
G54D19*
X29035Y614489D03*
Y617638D03*
Y639685D03*
Y636536D03*
G54D28*
X78600Y247173D03*
X73600D03*
Y268827D03*
X78600D03*
X88600Y247173D03*
X83600D03*
Y268827D03*
X88600D03*
G54D91*
X409695Y571673D03*
G54D139*
X883760Y906559D03*
Y904000D03*
Y901441D03*
X891240Y906559D03*
Y904000D03*
Y901441D03*
G54D46*
X111369Y1086946D03*
Y1080254D03*
X120031Y1086946D03*
Y1080254D03*
G54D64*
X156048Y745407D03*
Y758793D03*
X176015Y689107D03*
X174552Y745407D03*
Y758793D03*
X744648Y745407D03*
Y758793D03*
X759815Y689107D03*
X763152Y745407D03*
Y758793D03*
G54D73*
X178747Y1182700D03*
X184653D03*
X644047Y108200D03*
X649953D03*
G54D82*
X358605Y1164827D03*
X398905D03*
X439205D03*
X479505D03*
X519805D03*
X560105D03*
G54D37*
X97472Y449700D03*
X106528D03*
X497972Y330500D03*
X507028D03*
X725628Y316900D03*
X716572D03*
X821972Y394100D03*
X831028D03*
X855372Y567100D03*
X864428D03*
X868872Y1011400D03*
Y1037500D03*
X877928Y1011400D03*
Y1037500D03*
G54D65*
X165300Y747179D03*
X160576D03*
Y757021D03*
X163135D03*
X167465D03*
X170024Y747179D03*
Y757021D03*
X753900Y747179D03*
X749176D03*
Y757021D03*
X751735D03*
X756065D03*
X758624Y747179D03*
Y757021D03*
G54D83*
X355160Y1172829D03*
X395460D03*
X413140Y563671D03*
X435760Y1172829D03*
X476060D03*
X516360D03*
X556660D03*
G54D56*
X167717Y321181D03*
G54D47*
X126454Y566369D03*
Y575031D03*
X133146Y566369D03*
Y575031D03*
X526046Y369969D03*
X519354D03*
X526046Y378631D03*
X519354D03*
X784054Y341369D03*
Y350031D03*
X790746Y341369D03*
Y350031D03*
X896946Y607569D03*
X890254D03*
X896946Y616231D03*
X890254D03*
G54D29*
X84300Y438400D03*
X91300D03*
X163300Y624400D03*
X156300D03*
X163300Y638200D03*
X156300D03*
X163300Y631300D03*
X156300D03*
X163300Y645100D03*
X156300D03*
X162600Y710200D03*
X169600D03*
X162600Y717100D03*
X169600D03*
Y731300D03*
X162600D03*
X169600Y738200D03*
X162600D03*
X453400Y558500D03*
Y565400D03*
Y572300D03*
X460400Y558500D03*
Y565400D03*
Y572300D03*
X484800Y319200D03*
X491800D03*
X703400Y305600D03*
X710400D03*
X729300Y1126500D03*
X736300D03*
X746400Y710200D03*
X753400D03*
X746400Y717100D03*
X753400D03*
X758200Y731300D03*
X751200D03*
X758200Y738200D03*
X751200D03*
X759600Y624400D03*
X766600D03*
X759600Y638200D03*
X766600D03*
X759600Y631300D03*
X766600D03*
X759600Y645100D03*
X766600D03*
X844200Y405400D03*
X837200D03*
X835700Y803300D03*
X842700D03*
X835700Y810200D03*
X842700D03*
X835700Y817100D03*
X842700D03*
X870600Y578400D03*
X877600D03*
X884100Y1022700D03*
Y1048800D03*
X891100Y1022700D03*
Y1048800D03*
G54D74*
X189900Y1113000D03*
Y1120000D03*
Y1127400D03*
Y1134400D03*
X375600Y1172800D03*
Y1165800D03*
X392700Y563700D03*
Y570700D03*
X415900Y1172800D03*
Y1165800D03*
X456200Y1172800D03*
Y1165800D03*
X489900Y621400D03*
Y628400D03*
X496500Y1172800D03*
Y1165800D03*
X514300Y599900D03*
Y606900D03*
X536800Y1172800D03*
Y1165800D03*
X577100Y1172800D03*
Y1165800D03*
X648300Y424300D03*
Y431300D03*
X728700Y283600D03*
X721800D03*
X728700Y290600D03*
X721800D03*
X729400Y1113000D03*
Y1120000D03*
X735600Y283600D03*
Y290600D03*
X821500Y294300D03*
Y287300D03*
X849800Y842700D03*
Y849700D03*
X869400Y920500D03*
Y927500D03*
X862500Y920500D03*
Y927500D03*
G54D92*
X409400Y577942D03*
G54D38*
X96951Y582246D03*
X95376D03*
X93802D03*
X96951Y612954D03*
X95376D03*
X93802D03*
X111124Y582246D03*
X109550D03*
X107975D03*
X106400D03*
X104825D03*
X103250D03*
X101676D03*
X100101D03*
X98526D03*
X111124Y612954D03*
X109550D03*
X107975D03*
X106400D03*
X104825D03*
X103250D03*
X101676D03*
X100101D03*
X98526D03*
X118998Y582246D03*
X117424D03*
X115849D03*
X114274D03*
X112699D03*
X118998Y612954D03*
X117424D03*
X115849D03*
X114274D03*
X112699D03*
X857602Y623446D03*
Y654154D03*
X871775Y623446D03*
X870200D03*
X868625D03*
X867050D03*
X865476D03*
X863901D03*
X862326D03*
X860751D03*
X859176D03*
X871775Y654154D03*
X870200D03*
X868625D03*
X867050D03*
X865476D03*
X863901D03*
X862326D03*
X860751D03*
X859176D03*
X882798Y623446D03*
X881224D03*
X879649D03*
X878074D03*
X876499D03*
X874924D03*
X873350D03*
X882798Y654154D03*
X881224D03*
X879649D03*
X878074D03*
X876499D03*
X874924D03*
X873350D03*
G54D57*
X167717Y481181D03*
G54D66*
X160000Y845800D03*
X172100D03*
X160000Y856800D03*
X172100D03*
X187300Y809000D03*
Y820000D03*
X184200Y845800D03*
Y856800D03*
Y864100D03*
Y875100D03*
X187300Y902200D03*
Y891200D03*
X187200Y923800D03*
Y934800D03*
X732000Y809000D03*
Y820000D03*
Y902200D03*
Y891200D03*
Y923800D03*
Y934800D03*
X747200Y845800D03*
X735100D03*
X747200Y856800D03*
X735100D03*
Y864100D03*
Y875100D03*
X759300Y845800D03*
Y856800D03*
X864300Y894900D03*
Y905900D03*
X895200Y807300D03*
Y818300D03*
G54D84*
X349058Y1161510D03*
Y1163479D03*
Y1165447D03*
Y1167416D03*
Y1169384D03*
Y1171353D03*
Y1173321D03*
Y1175290D03*
X368742Y1173321D03*
Y1167416D03*
Y1165447D03*
Y1163479D03*
Y1161510D03*
Y1175290D03*
X399558Y561210D03*
Y563179D03*
Y569084D03*
Y571053D03*
Y573021D03*
Y574990D03*
X389358Y1161510D03*
Y1163479D03*
Y1165447D03*
Y1167416D03*
Y1169384D03*
Y1171353D03*
Y1173321D03*
Y1175290D03*
X409042Y1173321D03*
Y1167416D03*
Y1165447D03*
Y1163479D03*
Y1161510D03*
Y1175290D03*
X419242Y569084D03*
Y567116D03*
Y565147D03*
Y563179D03*
Y561210D03*
Y574990D03*
Y573021D03*
Y571053D03*
X429658Y1161510D03*
Y1163479D03*
Y1165447D03*
Y1167416D03*
Y1169384D03*
Y1171353D03*
Y1173321D03*
Y1175290D03*
X446893Y583263D03*
Y581294D03*
Y593106D03*
Y591137D03*
Y589169D03*
Y587200D03*
Y585231D03*
X449342Y1173321D03*
Y1167416D03*
Y1165447D03*
Y1163479D03*
Y1161510D03*
Y1175290D03*
X458507Y583263D03*
Y581294D03*
Y591137D03*
Y589169D03*
Y587200D03*
Y585231D03*
X469958Y1161510D03*
Y1163479D03*
Y1165447D03*
Y1167416D03*
Y1169384D03*
Y1171353D03*
Y1173321D03*
Y1175290D03*
X489642Y1173321D03*
Y1167416D03*
Y1165447D03*
Y1163479D03*
Y1161510D03*
Y1175290D03*
X510258Y1161510D03*
Y1163479D03*
Y1165447D03*
Y1167416D03*
Y1169384D03*
Y1171353D03*
Y1173321D03*
Y1175290D03*
X516850Y90947D03*
Y92916D03*
Y94884D03*
Y96853D03*
X523150D03*
Y94884D03*
Y92916D03*
X529942Y1173321D03*
Y1167416D03*
Y1165447D03*
Y1163479D03*
Y1161510D03*
Y1175290D03*
X550558Y1161510D03*
Y1163479D03*
Y1165447D03*
Y1167416D03*
Y1169384D03*
Y1171353D03*
Y1173321D03*
Y1175290D03*
X570242Y1173321D03*
Y1167416D03*
Y1165447D03*
Y1163479D03*
Y1161510D03*
Y1175290D03*
X699124Y279947D03*
Y286837D03*
X714676Y279947D03*
X837593Y784463D03*
Y786431D03*
Y788400D03*
Y790369D03*
Y792337D03*
Y794306D03*
X849207Y782494D03*
Y784463D03*
Y786431D03*
Y788400D03*
Y790369D03*
Y792337D03*
Y794306D03*
G54D39*
X91046Y585002D03*
Y599175D03*
Y597600D03*
Y596025D03*
Y594450D03*
Y592876D03*
Y591301D03*
Y589726D03*
Y588151D03*
Y586576D03*
Y610198D03*
Y608624D03*
Y607049D03*
Y605474D03*
Y603899D03*
Y602324D03*
Y600750D03*
X121754Y585002D03*
Y599175D03*
Y597600D03*
Y596025D03*
Y594450D03*
Y592876D03*
Y591301D03*
Y589726D03*
Y588151D03*
Y586576D03*
Y610198D03*
Y608624D03*
Y607049D03*
Y605474D03*
Y603899D03*
Y602324D03*
Y600750D03*
X854846Y627776D03*
Y626202D03*
Y641950D03*
Y640375D03*
Y638800D03*
Y637225D03*
Y635650D03*
Y634076D03*
Y632501D03*
Y630926D03*
Y629351D03*
Y651398D03*
Y649824D03*
Y648249D03*
Y646674D03*
Y645099D03*
Y643524D03*
X885554Y627776D03*
Y626202D03*
Y641950D03*
Y640375D03*
Y638800D03*
Y637225D03*
Y635650D03*
Y634076D03*
Y632501D03*
Y630926D03*
Y629351D03*
Y651398D03*
Y649824D03*
Y648249D03*
Y646674D03*
Y645099D03*
Y643524D03*
G54D75*
X264960Y161181D03*
X320079Y241181D03*
Y401181D03*
G54D48*
X143600Y511492D03*
Y535508D03*
X770000Y48192D03*
Y72208D03*
X841500Y1141292D03*
Y1165308D03*
X855800Y48192D03*
Y72208D03*
X873100Y358492D03*
Y382508D03*
X913200Y358492D03*
Y382508D03*
G54D93*
X426800Y388232D03*
G54D85*
X363624Y1172829D03*
X404676Y563671D03*
X403924Y1172829D03*
X444224D03*
X484524D03*
X524824D03*
X565124D03*
G54D76*
X302166Y712795D03*
Y1027756D03*
X617126Y712795D03*
Y1027756D03*
G54D67*
X168600Y885591D03*
X166631D03*
X164663D03*
Y897009D03*
X166631D03*
X168600D03*
X172537Y885591D03*
X170569D03*
Y897009D03*
X172537D03*
X756700Y885591D03*
X754731D03*
X752763D03*
Y897009D03*
X754731D03*
X756700D03*
X760637Y885591D03*
X758669D03*
Y897009D03*
X760637D03*
G54D94*
X416800Y388232D03*
Y404768D03*
G54D58*
X168800Y543466D03*
X165060Y551734D03*
X178460Y546866D03*
X182200Y555134D03*
X172540Y551734D03*
X185940Y546866D03*
X412700Y49166D03*
X408960Y57434D03*
X426100Y49166D03*
X422360Y57434D03*
X416440D03*
X428200Y154266D03*
X424460Y162534D03*
X439500Y49166D03*
X429840Y57434D03*
X435760D03*
X433060Y144266D03*
X440540D03*
X436800Y152534D03*
X431940Y162534D03*
X452900Y49166D03*
X456640Y57434D03*
X449160D03*
X443240D03*
X462560Y52566D03*
X470040D03*
X466300Y60834D03*
X475960Y52566D03*
X483440D03*
X479700Y60834D03*
X489360Y52566D03*
X496840D03*
X493100Y60834D03*
X502760Y52566D03*
X510240D03*
X506500Y60834D03*
X505860Y196566D03*
X513340D03*
X509600Y204834D03*
X525160Y189434D03*
X528900Y181166D03*
X532640Y189434D03*
X714360Y63534D03*
X718100Y55266D03*
X727760Y58666D03*
X721840Y63534D03*
X735240Y58666D03*
X731500Y66934D03*
X800160Y63534D03*
X803900Y55266D03*
X807640Y63534D03*
X813560Y58666D03*
X821040D03*
X817300Y66934D03*
X880000Y1146366D03*
X883740Y1154634D03*
X876260D03*
X889660Y1149766D03*
X897140D03*
X893400Y1158034D03*
G54D49*
X146492Y279100D03*
Y441100D03*
X170508Y279100D03*
X161392Y355100D03*
X170508Y441100D03*
X161392Y514600D03*
X183992Y279100D03*
X185408Y355100D03*
X183992Y441100D03*
X185408Y514600D03*
X208008Y279100D03*
Y441100D03*
X390292Y1082500D03*
X403392Y1062400D03*
X414308Y1082500D03*
X427408Y1062400D03*
X428892Y1082500D03*
X452908D03*
X466392D03*
X491892Y1062400D03*
X490408Y1082500D03*
X515908Y1062400D03*
X504992Y1082500D03*
X529008D03*
G36*
G01X417354Y441046D02*
X422393D01*
Y436007D01*
X419972D01*
Y435220D01*
X422393D01*
Y432798D01*
X423180D01*
Y435220D01*
X425602D01*
Y436007D01*
X423180D01*
Y441046D01*
X428220D01*
Y436007D01*
X425798D01*
Y435220D01*
X428220D01*
Y432798D01*
X429007D01*
Y435220D01*
X431428D01*
Y436007D01*
X429007D01*
Y441046D01*
X434046D01*
Y436007D01*
X431625D01*
Y435220D01*
X434046D01*
Y430180D01*
X431625D01*
Y429393D01*
X434046D01*
Y424354D01*
X429007D01*
Y429393D01*
X431428D01*
Y430180D01*
X429007D01*
Y432602D01*
X428220D01*
Y430180D01*
X425798D01*
Y429393D01*
X428220D01*
Y424354D01*
X423180D01*
Y429393D01*
X425602D01*
Y430180D01*
X423180D01*
Y432602D01*
X422393D01*
Y430180D01*
X419972D01*
Y429393D01*
X422393D01*
Y424354D01*
X417354D01*
Y429393D01*
X419775D01*
Y430180D01*
X417354D01*
Y435220D01*
X419775D01*
Y436007D01*
X417354D01*
Y441046D01*
G37*
G54D86*
X368742Y1173321D03*
X409042D03*
X449342D03*
X489642D03*
X529942D03*
X570242D03*
G54D59*
X169500Y654895D03*
Y679305D03*
X165300Y770295D03*
Y794705D03*
X454000Y605995D03*
Y630405D03*
X753300Y654895D03*
Y679305D03*
X753900Y770295D03*
Y794705D03*
X842100Y745195D03*
Y769605D03*
G54D68*
X168600Y891300D03*
X756700D03*
G54D77*
X351378Y769882D03*
X355315D03*
X351378Y765945D03*
X355315D03*
X351378Y762008D03*
X355315D03*
X351378Y785630D03*
X355315D03*
X351378Y781693D03*
X355315D03*
X351378Y777756D03*
X355315D03*
X351378Y773819D03*
X355315D03*
X351378Y797441D03*
X355315D03*
X351378Y793504D03*
X355315D03*
X351378Y789567D03*
X355315D03*
X351378Y813189D03*
X355315D03*
X351378Y809252D03*
X355315D03*
X351378Y805315D03*
X355315D03*
X351378Y801378D03*
X355315D03*
X351378Y828937D03*
X355315D03*
X351378Y825000D03*
X355315D03*
X351378Y821063D03*
X355315D03*
X351378Y817126D03*
X355315D03*
X351378Y840748D03*
X355315D03*
X351378Y836811D03*
X355315D03*
X351378Y832874D03*
X355315D03*
X351378Y856496D03*
X355315D03*
X351378Y852559D03*
X355315D03*
X351378Y848622D03*
X355315D03*
X351378Y844685D03*
X355315D03*
X351378Y872245D03*
X355315D03*
X351378Y868307D03*
X355315D03*
X351378Y864370D03*
X355315D03*
X351378Y860433D03*
X355315D03*
X351378Y884056D03*
X355315D03*
X351378Y880119D03*
X355315D03*
X351378Y876182D03*
X355315D03*
X351378Y899804D03*
X355315D03*
X351378Y895867D03*
X355315D03*
X351378Y891930D03*
X355315D03*
X351378Y887993D03*
X355315D03*
X351378Y915552D03*
X355315D03*
X351378Y911615D03*
X355315D03*
X351378Y907678D03*
X355315D03*
X351378Y903741D03*
X355315D03*
X351378Y927363D03*
X355315D03*
X351378Y923426D03*
X355315D03*
X351378Y919489D03*
X355315D03*
X351378Y943111D03*
X355315D03*
X351378Y939174D03*
X355315D03*
X351378Y935237D03*
X355315D03*
X351378Y931300D03*
X355315D03*
X351378Y954922D03*
X355315D03*
X351378Y950985D03*
X355315D03*
X351378Y947048D03*
X355315D03*
X351378Y970670D03*
X355315D03*
X351378Y966733D03*
X355315D03*
X351378Y962796D03*
X355315D03*
X351378Y958859D03*
X355315D03*
X351378Y978544D03*
X355315D03*
X351378Y974607D03*
X355315D03*
X359252Y769882D03*
X363189D03*
X367126D03*
X359252Y765945D03*
X363189D03*
X367126D03*
X359252Y762008D03*
X363189D03*
X367126D03*
X359252Y785630D03*
X363189D03*
X367126D03*
X359252Y781693D03*
X363189D03*
X367126D03*
X359252Y777756D03*
X363189D03*
X367126D03*
X359252Y773819D03*
X363189D03*
X367126D03*
X359252Y797441D03*
X363189D03*
X367126D03*
X359252Y793504D03*
X363189D03*
X367126D03*
X359252Y789567D03*
X363189D03*
X367126D03*
X359252Y813189D03*
X363189D03*
X367126D03*
X359252Y809252D03*
X363189D03*
X367126D03*
X359252Y805315D03*
X363189D03*
X367126D03*
X359252Y801378D03*
X363189D03*
X367126D03*
X359252Y828937D03*
X363189D03*
X367126D03*
X359252Y825000D03*
X363189D03*
X367126D03*
X359252Y821063D03*
X363189D03*
X367126D03*
X359252Y817126D03*
X363189D03*
X367126D03*
X359252Y840748D03*
X363189D03*
X367126D03*
X359252Y836811D03*
X363189D03*
X367126D03*
X359252Y832874D03*
X363189D03*
X367126D03*
X359252Y856496D03*
X363189D03*
X367126D03*
X359252Y852559D03*
X363189D03*
X367126D03*
X359252Y848622D03*
X363189D03*
X367126D03*
X359252Y844685D03*
X363189D03*
X367126D03*
X359252Y872245D03*
X363189D03*
X367126D03*
X359252Y868307D03*
X363189D03*
X367126D03*
X359252Y864370D03*
X363189D03*
X367126D03*
X359252Y860433D03*
X363189D03*
X367126D03*
X359252Y884056D03*
X363189D03*
X367126D03*
X359252Y880119D03*
X363189D03*
X367126D03*
X359252Y876182D03*
X363189D03*
X367126D03*
X359252Y899804D03*
X363189D03*
X367126D03*
X359252Y895867D03*
X363189D03*
X367126D03*
X359252Y891930D03*
X363189D03*
X367126D03*
X359252Y887993D03*
X363189D03*
X367126D03*
X359252Y915552D03*
X363189D03*
X367126D03*
X359252Y911615D03*
X363189D03*
X367126D03*
X359252Y907678D03*
X363189D03*
X367126D03*
X359252Y903741D03*
X363189D03*
X367126D03*
X359252Y927363D03*
X363189D03*
X367126D03*
X359252Y923426D03*
X363189D03*
X367126D03*
X359252Y919489D03*
X363189D03*
X367126D03*
X359252Y943111D03*
X363189D03*
X367126D03*
X359252Y939174D03*
X363189D03*
X367126D03*
X359252Y935237D03*
X363189D03*
X367126D03*
X359252Y931300D03*
X363189D03*
X367126D03*
X359252Y954922D03*
X363189D03*
X367126D03*
X359252Y950985D03*
X363189D03*
X367126D03*
X359252Y947048D03*
X363189D03*
X367126D03*
X359252Y970670D03*
X363189D03*
X367126D03*
X359252Y966733D03*
X363189D03*
X367126D03*
X359252Y962796D03*
X363189D03*
X367126D03*
X359252Y958859D03*
X363189D03*
X367126D03*
X359252Y978544D03*
X363189D03*
X367126D03*
X359252Y974607D03*
X363189D03*
X367126D03*
X371063Y769882D03*
X375000D03*
X378937D03*
X382874D03*
X371063Y765945D03*
X375000D03*
X378937D03*
X382874D03*
X371063Y762008D03*
X375000D03*
X378937D03*
X382874D03*
X371063Y785630D03*
X375000D03*
X378937D03*
X382874D03*
X371063Y781693D03*
X375000D03*
X378937D03*
X382874D03*
X371063Y777756D03*
X375000D03*
X378937D03*
X382874D03*
X371063Y773819D03*
X375000D03*
X378937D03*
X382874D03*
X371063Y797441D03*
X375000D03*
X378937D03*
X382874D03*
X371063Y793504D03*
X375000D03*
X378937D03*
X382874D03*
X371063Y789567D03*
X375000D03*
X378937D03*
X382874D03*
X371063Y813189D03*
X375000D03*
X378937D03*
X382874D03*
X371063Y809252D03*
X375000D03*
X378937D03*
X382874D03*
X371063Y805315D03*
X375000D03*
X378937D03*
X382874D03*
X371063Y801378D03*
X375000D03*
X378937D03*
X382874D03*
X371063Y828937D03*
X375000D03*
X378937D03*
X382874D03*
X371063Y825000D03*
X375000D03*
X378937D03*
X382874D03*
X371063Y821063D03*
X375000D03*
X378937D03*
X382874D03*
X371063Y817126D03*
X375000D03*
X378937D03*
X382874D03*
X371063Y840748D03*
X375000D03*
X378937D03*
X382874D03*
X371063Y836811D03*
X375000D03*
X378937D03*
X382874D03*
X371063Y832874D03*
X375000D03*
X378937D03*
X382874D03*
X371063Y856496D03*
X375000D03*
X378937D03*
X382874D03*
X371063Y852559D03*
X375000D03*
X378937D03*
X382874D03*
X371063Y848622D03*
X375000D03*
X378937D03*
X382874D03*
X371063Y844685D03*
X375000D03*
X378937D03*
X382874D03*
X371063Y872245D03*
X375000D03*
X378937D03*
X382874D03*
X371063Y868307D03*
X375000D03*
X378937D03*
X382874D03*
X371063Y864370D03*
X375000D03*
X378937D03*
X382874D03*
X371063Y860433D03*
X375000D03*
X378937D03*
X382874D03*
X371063Y884056D03*
X375000D03*
X378937D03*
X382874D03*
X371063Y880119D03*
X375000D03*
X378937D03*
X382874D03*
X371063Y876182D03*
X375000D03*
X378937D03*
X382874D03*
X371063Y899804D03*
X375000D03*
X378937D03*
X382874D03*
X371063Y895867D03*
X375000D03*
X378937D03*
X382874D03*
X371063Y891930D03*
X375000D03*
X378937D03*
X382874D03*
X371063Y887993D03*
X375000D03*
X378937D03*
X382874D03*
X371063Y915552D03*
X375000D03*
X378937D03*
X382874D03*
X371063Y911615D03*
X375000D03*
X378937D03*
X382874D03*
X371063Y907678D03*
X375000D03*
X378937D03*
X382874D03*
X371063Y903741D03*
X375000D03*
X378937D03*
X382874D03*
X371063Y927363D03*
X375000D03*
X378937D03*
X382874D03*
X371063Y923426D03*
X375000D03*
X378937D03*
X382874D03*
X371063Y919489D03*
X375000D03*
X378937D03*
X382874D03*
X371063Y943111D03*
X375000D03*
X378937D03*
X382874D03*
X371063Y939174D03*
X375000D03*
X378937D03*
X382874D03*
X371063Y935237D03*
X375000D03*
X378937D03*
X382874D03*
X371063Y931300D03*
X375000D03*
X378937D03*
X382874D03*
X371063Y954922D03*
X375000D03*
X378937D03*
X382874D03*
X371063Y950985D03*
X375000D03*
X378937D03*
X382874D03*
X371063Y947048D03*
X375000D03*
X378937D03*
X382874D03*
X371063Y970670D03*
X375000D03*
X378937D03*
X382874D03*
X371063Y966733D03*
X375000D03*
X378937D03*
X382874D03*
X371063Y962796D03*
X375000D03*
X378937D03*
X382874D03*
X371063Y958859D03*
X375000D03*
X378937D03*
X382874D03*
X371063Y978544D03*
X375000D03*
X378937D03*
X382874D03*
X371063Y974607D03*
X375000D03*
X378937D03*
X382874D03*
X386811Y769882D03*
X390748D03*
X394685D03*
X398622D03*
X386811Y765945D03*
X390748D03*
X394685D03*
X398622D03*
X386811Y762008D03*
X390748D03*
X394685D03*
X398622D03*
X386811Y785630D03*
X390748D03*
X394685D03*
X398622D03*
X386811Y781693D03*
X390748D03*
X394685D03*
X398622D03*
X386811Y777756D03*
X390748D03*
X394685D03*
X398622D03*
X386811Y773819D03*
X390748D03*
X394685D03*
X398622D03*
X386811Y797441D03*
X390748D03*
X394685D03*
X398622D03*
X386811Y793504D03*
X390748D03*
X394685D03*
X398622D03*
X386811Y789567D03*
X390748D03*
X394685D03*
X398622D03*
X386811Y813189D03*
X390748D03*
X394685D03*
X398622D03*
X386811Y809252D03*
X390748D03*
X394685D03*
X398622D03*
X386811Y805315D03*
X390748D03*
X394685D03*
X398622D03*
X386811Y801378D03*
X390748D03*
X394685D03*
X398622D03*
X386811Y828937D03*
X390748D03*
X394685D03*
X398622D03*
X386811Y825000D03*
X390748D03*
X394685D03*
X398622D03*
X386811Y821063D03*
X390748D03*
X394685D03*
X398622D03*
X386811Y817126D03*
X390748D03*
X394685D03*
X398622D03*
X386811Y840748D03*
X390748D03*
X394685D03*
X398622D03*
X386811Y836811D03*
X390748D03*
X394685D03*
X398622D03*
X386811Y832874D03*
X390748D03*
X394685D03*
X398622D03*
X386811Y856496D03*
X390748D03*
X394685D03*
X398622D03*
X386811Y852559D03*
X390748D03*
X394685D03*
X398622D03*
X386811Y848622D03*
X390748D03*
X394685D03*
X398622D03*
X386811Y844685D03*
X390748D03*
X394685D03*
X398622D03*
X386811Y872245D03*
X390748D03*
X394685D03*
X398622D03*
X386811Y868307D03*
X390748D03*
X394685D03*
X398622D03*
X386811Y864370D03*
X390748D03*
X394685D03*
X398622D03*
X386811Y860433D03*
X390748D03*
X394685D03*
X398622D03*
X386811Y884056D03*
X390748D03*
X394685D03*
X398622D03*
X386811Y880119D03*
X390748D03*
X394685D03*
X398622D03*
X386811Y876182D03*
X390748D03*
X394685D03*
X398622D03*
X386811Y899804D03*
X390748D03*
X394685D03*
X398622D03*
X386811Y895867D03*
X390748D03*
X394685D03*
X398622D03*
X386811Y891930D03*
X390748D03*
X394685D03*
X398622D03*
X386811Y887993D03*
X390748D03*
X394685D03*
X398622D03*
X386811Y915552D03*
X390748D03*
X394685D03*
X398622D03*
X386811Y911615D03*
X390748D03*
X394685D03*
X398622D03*
X386811Y907678D03*
X390748D03*
X394685D03*
X398622D03*
X386811Y903741D03*
X390748D03*
X394685D03*
X398622D03*
X386811Y927363D03*
X390748D03*
X394685D03*
X398622D03*
X386811Y923426D03*
X390748D03*
X394685D03*
X398622D03*
X386811Y919489D03*
X390748D03*
X394685D03*
X398622D03*
X386811Y943111D03*
X390748D03*
X394685D03*
X398622D03*
X386811Y939174D03*
X390748D03*
X394685D03*
X398622D03*
X386811Y935237D03*
X390748D03*
X394685D03*
X398622D03*
X386811Y931300D03*
X390748D03*
X394685D03*
X398622D03*
X386811Y954922D03*
X390748D03*
X394685D03*
X398622D03*
X386811Y950985D03*
X390748D03*
X394685D03*
X398622D03*
X386811Y947048D03*
X390748D03*
X394685D03*
X398622D03*
X386811Y970670D03*
X390748D03*
X394685D03*
X398622D03*
X386811Y966733D03*
X390748D03*
X394685D03*
X398622D03*
X386811Y962796D03*
X390748D03*
X394685D03*
X398622D03*
X386811Y958859D03*
X390748D03*
X394685D03*
X398622D03*
X386811Y978544D03*
X390748D03*
X394685D03*
X398622D03*
X386811Y974607D03*
X390748D03*
X394685D03*
X398622D03*
X402559Y769882D03*
X406496D03*
X410433D03*
X402559Y765945D03*
X406496D03*
X410433D03*
X402559Y762008D03*
X406496D03*
X410433D03*
X402559Y785630D03*
X406496D03*
X410433D03*
X402559Y781693D03*
X406496D03*
X410433D03*
X402559Y777756D03*
X406496D03*
X410433D03*
X402559Y773819D03*
X406496D03*
X410433D03*
X402559Y797441D03*
X406496D03*
X410433D03*
X402559Y793504D03*
X406496D03*
X410433D03*
X402559Y789567D03*
X406496D03*
X410433D03*
X402559Y813189D03*
X406496D03*
X410433D03*
X402559Y809252D03*
X406496D03*
X410433D03*
X402559Y805315D03*
X406496D03*
X410433D03*
X402559Y801378D03*
X406496D03*
X410433D03*
X402559Y828937D03*
X406496D03*
X410433D03*
X402559Y825000D03*
X406496D03*
X410433D03*
X402559Y821063D03*
X406496D03*
X410433D03*
X402559Y817126D03*
X406496D03*
X410433D03*
X402559Y840748D03*
X406496D03*
X410433D03*
X402559Y836811D03*
X406496D03*
X410433D03*
X402559Y832874D03*
X406496D03*
X410433D03*
X402559Y856496D03*
X406496D03*
X410433D03*
X402559Y852559D03*
X406496D03*
X410433D03*
X402559Y848622D03*
X406496D03*
X410433D03*
X402559Y844685D03*
X406496D03*
X410433D03*
X402559Y872245D03*
X406496D03*
X410433D03*
X402559Y868307D03*
X406496D03*
X410433D03*
X402559Y864370D03*
X406496D03*
X410433D03*
X402559Y860433D03*
X406496D03*
X410433D03*
X402559Y884056D03*
X406496D03*
X410433D03*
X402559Y880119D03*
X406496D03*
X410433D03*
X402559Y876182D03*
X406496D03*
X410433D03*
X402559Y899804D03*
X406496D03*
X410433D03*
X402559Y895867D03*
X406496D03*
X410433D03*
X402559Y891930D03*
X406496D03*
X410433D03*
X402559Y887993D03*
X406496D03*
X410433D03*
X402559Y915552D03*
X406496D03*
X410433D03*
X402559Y911615D03*
X406496D03*
X410433D03*
X402559Y907678D03*
X406496D03*
X410433D03*
X402559Y903741D03*
X406496D03*
X410433D03*
X402559Y927363D03*
X406496D03*
X410433D03*
X402559Y923426D03*
X406496D03*
X410433D03*
X402559Y919489D03*
X406496D03*
X410433D03*
X402559Y943111D03*
X406496D03*
X410433D03*
X402559Y939174D03*
X406496D03*
X410433D03*
X402559Y935237D03*
X406496D03*
X410433D03*
X402559Y931300D03*
X406496D03*
X410433D03*
X402559Y954922D03*
X406496D03*
X410433D03*
X402559Y950985D03*
X406496D03*
X410433D03*
X402559Y947048D03*
X406496D03*
X410433D03*
X402559Y970670D03*
X406496D03*
X410433D03*
X402559Y966733D03*
X406496D03*
X410433D03*
X402559Y962796D03*
X406496D03*
X410433D03*
X402559Y958859D03*
X406496D03*
X410433D03*
X402559Y978544D03*
X406496D03*
X410433D03*
X402559Y974607D03*
X406496D03*
X410433D03*
X414370Y769882D03*
X418307D03*
X422244D03*
X426181D03*
X414370Y765945D03*
X418307D03*
X422244D03*
X426181D03*
X414370Y762008D03*
X418307D03*
X422244D03*
X426181D03*
X414370Y785630D03*
X418307D03*
X422244D03*
X426181D03*
X414370Y781693D03*
X418307D03*
X422244D03*
X426181D03*
X414370Y777756D03*
X418307D03*
X422244D03*
X426181D03*
X414370Y773819D03*
X418307D03*
X422244D03*
X426181D03*
X414370Y797441D03*
X418307D03*
X422244D03*
X426181D03*
X414370Y793504D03*
X418307D03*
X422244D03*
X426181D03*
X414370Y789567D03*
X418307D03*
X422244D03*
X426181D03*
X414370Y813189D03*
X418307D03*
X422244D03*
X426181D03*
X414370Y809252D03*
X418307D03*
X422244D03*
X426181D03*
X414370Y805315D03*
X418307D03*
X422244D03*
X426181D03*
X414370Y801378D03*
X418307D03*
X422244D03*
X426181D03*
X418307Y828937D03*
X422244D03*
X426181D03*
X414370Y821063D03*
X418307D03*
X422244D03*
X426181D03*
X414370Y817126D03*
X418307D03*
X422244D03*
X426181D03*
X418307Y840748D03*
X422244D03*
X426181D03*
X418307Y836811D03*
X422244D03*
X426181D03*
X418307Y832874D03*
X422244D03*
X426181D03*
X418307Y856496D03*
X422244D03*
X426181D03*
X418307Y852559D03*
X422244D03*
X426181D03*
X418307Y848622D03*
X422244D03*
X426181D03*
X418307Y844685D03*
X422244D03*
X426181D03*
X418307Y872245D03*
X422244D03*
X426181D03*
X418307Y868307D03*
X422244D03*
X426181D03*
X418307Y864370D03*
X422244D03*
X426181D03*
X418307Y860433D03*
X422244D03*
X426181D03*
X418307Y884056D03*
X422244D03*
X426181D03*
X418307Y880119D03*
X422244D03*
X426181D03*
X418307Y876182D03*
X422244D03*
X426181D03*
X418307Y899804D03*
X422244D03*
X426181D03*
X418307Y895867D03*
X422244D03*
X426181D03*
X418307Y891930D03*
X422244D03*
X426181D03*
X418307Y887993D03*
X422244D03*
X426181D03*
X418307Y911615D03*
X422244D03*
X426181D03*
X418307Y907678D03*
X422244D03*
X426181D03*
X418307Y903741D03*
X422244D03*
X426181D03*
X414370Y927363D03*
X418307D03*
X422244D03*
X426181D03*
X414370Y923426D03*
X418307D03*
X422244D03*
X426181D03*
X414370Y919489D03*
X418307D03*
X422244D03*
X426181D03*
X414370Y943111D03*
X418307D03*
X422244D03*
X426181D03*
X414370Y939174D03*
X418307D03*
X422244D03*
X426181D03*
X414370Y935237D03*
X418307D03*
X422244D03*
X426181D03*
X414370Y931300D03*
X418307D03*
X422244D03*
X426181D03*
X414370Y954922D03*
X418307D03*
X422244D03*
X426181D03*
X414370Y950985D03*
X418307D03*
X422244D03*
X426181D03*
X414370Y947048D03*
X418307D03*
X422244D03*
X426181D03*
X414370Y970670D03*
X418307D03*
X422244D03*
X426181D03*
X414370Y966733D03*
X418307D03*
X422244D03*
X426181D03*
X414370Y962796D03*
X418307D03*
X422244D03*
X426181D03*
X414370Y958859D03*
X418307D03*
X422244D03*
X426181D03*
X414370Y978544D03*
X418307D03*
X422244D03*
X426181D03*
X414370Y974607D03*
X418307D03*
X422244D03*
X426181D03*
X430118Y769882D03*
X434055D03*
X437992D03*
X441929D03*
X430118Y765945D03*
X434055D03*
X437992D03*
X441929D03*
X430118Y762008D03*
X434055D03*
X437992D03*
X441929D03*
X430118Y785630D03*
X434055D03*
X437992D03*
X441929D03*
X430118Y781693D03*
X434055D03*
X437992D03*
X441929D03*
X430118Y777756D03*
X434055D03*
X437992D03*
X441929D03*
X430118Y773819D03*
X434055D03*
X437992D03*
X441929D03*
X430118Y797441D03*
X434055D03*
X437992D03*
X441929D03*
X430118Y793504D03*
X434055D03*
X437992D03*
X441929D03*
X430118Y789567D03*
X434055D03*
X437992D03*
X441929D03*
X430118Y813189D03*
X434055D03*
X437992D03*
X441929D03*
X430118Y809252D03*
X434055D03*
X437992D03*
X441929D03*
X430118Y805315D03*
X434055D03*
X437992D03*
X441929D03*
X430118Y801378D03*
X434055D03*
X437992D03*
X441929D03*
X430118Y828937D03*
X434055D03*
X437992D03*
X441929D03*
X430118Y821063D03*
X434055D03*
X437992D03*
X441929D03*
X430118Y817126D03*
X434055D03*
X437992D03*
X441929D03*
X430118Y840748D03*
X434055D03*
X437992D03*
X441929D03*
X430118Y836811D03*
X434055D03*
X437992D03*
X441929D03*
X430118Y832874D03*
X434055D03*
X437992D03*
X441929D03*
X430118Y856496D03*
X434055D03*
X437992D03*
X441929D03*
X430118Y852559D03*
X434055D03*
X437992D03*
X441929D03*
X430118Y848622D03*
X434055D03*
X437992D03*
X441929D03*
X430118Y844685D03*
X434055D03*
X437992D03*
X441929D03*
X430118Y872245D03*
X434055D03*
X437992D03*
X441929D03*
X430118Y868307D03*
X434055D03*
X437992D03*
X441929D03*
X430118Y864370D03*
X434055D03*
X437992D03*
X441929D03*
X430118Y860433D03*
X434055D03*
X437992D03*
X441929D03*
X430118Y884056D03*
X434055D03*
X437992D03*
X441929D03*
X430118Y880119D03*
X434055D03*
X437992D03*
X441929D03*
X430118Y876182D03*
X434055D03*
X437992D03*
X441929D03*
X430118Y899804D03*
X434055D03*
X437992D03*
X441929D03*
X430118Y895867D03*
X434055D03*
X437992D03*
X441929D03*
X430118Y891930D03*
X434055D03*
X437992D03*
X441929D03*
X430118Y887993D03*
X434055D03*
X437992D03*
X441929D03*
X430118Y911615D03*
X434055D03*
X437992D03*
X441929D03*
X430118Y907678D03*
X434055D03*
X437992D03*
X441929D03*
X430118Y903741D03*
X434055D03*
X437992D03*
X441929D03*
X430118Y927363D03*
X434055D03*
X437992D03*
X441929D03*
X430118Y923426D03*
X434055D03*
X437992D03*
X441929D03*
X430118Y919489D03*
X434055D03*
X437992D03*
X441929D03*
X430118Y943111D03*
X434055D03*
X437992D03*
X441929D03*
X430118Y939174D03*
X434055D03*
X437992D03*
X441929D03*
X430118Y935237D03*
X434055D03*
X437992D03*
X441929D03*
X430118Y931300D03*
X434055D03*
X437992D03*
X441929D03*
X430118Y954922D03*
X434055D03*
X437992D03*
X441929D03*
X430118Y950985D03*
X434055D03*
X437992D03*
X441929D03*
X430118Y947048D03*
X434055D03*
X437992D03*
X441929D03*
X430118Y970670D03*
X434055D03*
X437992D03*
X441929D03*
X430118Y966733D03*
X434055D03*
X437992D03*
X441929D03*
X430118Y962796D03*
X434055D03*
X437992D03*
X441929D03*
X430118Y958859D03*
X434055D03*
X437992D03*
X441929D03*
X430118Y978544D03*
X434055D03*
X437992D03*
X441929D03*
X430118Y974607D03*
X434055D03*
X437992D03*
X441929D03*
X445866Y769882D03*
X449803D03*
X453740D03*
X445866Y765945D03*
X449803D03*
X453740D03*
X445866Y762008D03*
X449803D03*
X453740D03*
X445866Y785630D03*
X449803D03*
X453740D03*
X445866Y781693D03*
X449803D03*
X453740D03*
X445866Y777756D03*
X449803D03*
X453740D03*
X445866Y773819D03*
X449803D03*
X453740D03*
X445866Y797441D03*
X449803D03*
X453740D03*
X445866Y793504D03*
X449803D03*
X453740D03*
X445866Y789567D03*
X449803D03*
X453740D03*
X445866Y813189D03*
X449803D03*
X453740D03*
X445866Y809252D03*
X449803D03*
X453740D03*
X445866Y805315D03*
X449803D03*
X453740D03*
X445866Y801378D03*
X449803D03*
X453740D03*
X445866Y828937D03*
X449803D03*
X453740D03*
X445866Y821063D03*
X449803D03*
X453740D03*
X445866Y817126D03*
X449803D03*
X453740D03*
X445866Y840748D03*
X449803D03*
X453740D03*
X445866Y836811D03*
X449803D03*
X453740D03*
X445866Y832874D03*
X449803D03*
X453740D03*
X445866Y856496D03*
X449803D03*
X453740D03*
X445866Y852559D03*
X449803D03*
X453740D03*
X445866Y848622D03*
X449803D03*
X453740D03*
X445866Y844685D03*
X449803D03*
X453740D03*
X445866Y872245D03*
X449803D03*
X453740D03*
X445866Y868307D03*
X449803D03*
X453740D03*
X445866Y864370D03*
X449803D03*
X453740D03*
X445866Y860433D03*
X449803D03*
X453740D03*
X445866Y884056D03*
X449803D03*
X453740D03*
X445866Y880119D03*
X449803D03*
X453740D03*
X445866Y876182D03*
X449803D03*
X453740D03*
X445866Y899804D03*
X449803D03*
X453740D03*
X445866Y895867D03*
X449803D03*
X453740D03*
X445866Y891930D03*
X449803D03*
X453740D03*
X445866Y887993D03*
X449803D03*
X453740D03*
X445866Y911615D03*
X449803D03*
X453740D03*
X445866Y907678D03*
X449803D03*
X453740D03*
X445866Y903741D03*
X449803D03*
X453740D03*
X445866Y927363D03*
X449803D03*
X453740D03*
X445866Y923426D03*
X449803D03*
X453740D03*
X445866Y919489D03*
X449803D03*
X453740D03*
X445866Y943111D03*
X449803D03*
X453740D03*
X445866Y939174D03*
X449803D03*
X453740D03*
X445866Y935237D03*
X449803D03*
X453740D03*
X445866Y931300D03*
X449803D03*
X453740D03*
X445866Y954922D03*
X449803D03*
X453740D03*
X445866Y950985D03*
X449803D03*
X453740D03*
X445866Y947048D03*
X449803D03*
X453740D03*
X445866Y970670D03*
X449803D03*
X453740D03*
X445866Y966733D03*
X449803D03*
X453740D03*
X445866Y962796D03*
X449803D03*
X453740D03*
X445866Y958859D03*
X449803D03*
X453740D03*
X445866Y978544D03*
X449803D03*
X453740D03*
X445866Y974607D03*
X449803D03*
X453740D03*
X457677Y769882D03*
X461615D03*
X465552D03*
X469489D03*
X457677Y765945D03*
X461615D03*
X465552D03*
X469489D03*
X457677Y762008D03*
X461615D03*
X465552D03*
X469489D03*
X457677Y785630D03*
X461615D03*
X465552D03*
X469489D03*
X457677Y781693D03*
X461615D03*
X465552D03*
X469489D03*
X457677Y777756D03*
X461615D03*
X465552D03*
X469489D03*
X457677Y773819D03*
X461615D03*
X465552D03*
X469489D03*
X457677Y797441D03*
X461615D03*
X465552D03*
X469489D03*
X457677Y793504D03*
X461615D03*
X465552D03*
X469489D03*
X457677Y789567D03*
X461615D03*
X465552D03*
X469489D03*
X457677Y813189D03*
X461615D03*
X465552D03*
X469489D03*
X457677Y809252D03*
X461615D03*
X465552D03*
X469489D03*
X457677Y805315D03*
X461615D03*
X465552D03*
X469489D03*
X457677Y801378D03*
X461615D03*
X465552D03*
X469489D03*
X457677Y828937D03*
X461615D03*
X465552D03*
X469489D03*
X457677Y821063D03*
X461615D03*
X465552D03*
X469489D03*
X457677Y817126D03*
X461615D03*
X465552D03*
X469489D03*
X457677Y840748D03*
X461615D03*
X465552D03*
X469489D03*
X457677Y836811D03*
X461615D03*
X465552D03*
X469489D03*
X457677Y832874D03*
X461615D03*
X465552D03*
X469489D03*
X457677Y856496D03*
X461615D03*
X465552D03*
X469489D03*
X457677Y852559D03*
X461615D03*
X465552D03*
X469489D03*
X457677Y848622D03*
X461615D03*
X465552D03*
X469489D03*
X457677Y844685D03*
X461615D03*
X465552D03*
X469489D03*
X457677Y872245D03*
X461615D03*
X465552D03*
X469489D03*
X457677Y868307D03*
X461615D03*
X465552D03*
X469489D03*
X457677Y864370D03*
X461615D03*
X465552D03*
X469489D03*
X457677Y860433D03*
X461615D03*
X465552D03*
X469489D03*
X457677Y884056D03*
X461615D03*
X465552D03*
X469489D03*
X457677Y880119D03*
X461615D03*
X465552D03*
X469489D03*
X457677Y876182D03*
X461615D03*
X465552D03*
X469489D03*
X457677Y899804D03*
X461615D03*
X465552D03*
X469489D03*
X457677Y895867D03*
X461615D03*
X465552D03*
X469489D03*
X457677Y891930D03*
X461615D03*
X465552D03*
X469489D03*
X457677Y887993D03*
X461615D03*
X465552D03*
X469489D03*
X457677Y911615D03*
X461615D03*
X465552D03*
X469489D03*
X457677Y907678D03*
X461615D03*
X465552D03*
X469489D03*
X457677Y903741D03*
X461615D03*
X465552D03*
X469489D03*
X457677Y927363D03*
X461615D03*
X465552D03*
X469489D03*
X457677Y923426D03*
X461615D03*
X465552D03*
X469489D03*
X457677Y919489D03*
X461615D03*
X465552D03*
X469489D03*
X457677Y943111D03*
X461615D03*
X465552D03*
X469489D03*
X457677Y939174D03*
X461615D03*
X465552D03*
X469489D03*
X457677Y935237D03*
X461615D03*
X465552D03*
X469489D03*
X457677Y931300D03*
X461615D03*
X465552D03*
X469489D03*
X457677Y954922D03*
X461615D03*
X465552D03*
X469489D03*
X457677Y950985D03*
X461615D03*
X465552D03*
X469489D03*
X457677Y947048D03*
X461615D03*
X465552D03*
X469489D03*
X457677Y970670D03*
X461615D03*
X465552D03*
X469489D03*
X457677Y966733D03*
X461615D03*
X465552D03*
X469489D03*
X457677Y962796D03*
X461615D03*
X465552D03*
X469489D03*
X457677Y958859D03*
X461615D03*
X465552D03*
X469489D03*
X457677Y978544D03*
X461615D03*
X465552D03*
X469489D03*
X457677Y974607D03*
X461615D03*
X465552D03*
X469489D03*
X473426Y769882D03*
X477363D03*
X481300D03*
X473426Y765945D03*
X477363D03*
X481300D03*
X473426Y762008D03*
X477363D03*
X481300D03*
X473426Y785630D03*
X477363D03*
X481300D03*
X473426Y781693D03*
X477363D03*
X481300D03*
X473426Y777756D03*
X477363D03*
X481300D03*
X473426Y773819D03*
X477363D03*
X481300D03*
X473426Y797441D03*
X477363D03*
X481300D03*
X473426Y793504D03*
X477363D03*
X481300D03*
X473426Y789567D03*
X477363D03*
X481300D03*
X473426Y813189D03*
X477363D03*
X481300D03*
X473426Y809252D03*
X477363D03*
X481300D03*
X473426Y805315D03*
X477363D03*
X481300D03*
X473426Y801378D03*
X477363D03*
X481300D03*
X473426Y828937D03*
X477363D03*
X481300D03*
X473426Y821063D03*
X477363D03*
X481300D03*
X473426Y817126D03*
X477363D03*
X481300D03*
X473426Y840748D03*
X477363D03*
X481300D03*
X473426Y836811D03*
X477363D03*
X481300D03*
X473426Y832874D03*
X477363D03*
X481300D03*
X473426Y856496D03*
X477363D03*
X481300D03*
X473426Y852559D03*
X477363D03*
X481300D03*
X473426Y848622D03*
X477363D03*
X481300D03*
X473426Y844685D03*
X477363D03*
X481300D03*
X473426Y872245D03*
X477363D03*
X481300D03*
X473426Y868307D03*
X477363D03*
X481300D03*
X473426Y864370D03*
X477363D03*
X481300D03*
X473426Y860433D03*
X477363D03*
X481300D03*
X473426Y884056D03*
X477363D03*
X481300D03*
X473426Y880119D03*
X477363D03*
X481300D03*
X473426Y876182D03*
X477363D03*
X481300D03*
X473426Y899804D03*
X477363D03*
X481300D03*
X473426Y895867D03*
X477363D03*
X481300D03*
X473426Y891930D03*
X477363D03*
X481300D03*
X473426Y887993D03*
X477363D03*
X481300D03*
X473426Y911615D03*
X477363D03*
X481300D03*
X473426Y907678D03*
X477363D03*
X481300D03*
X473426Y903741D03*
X477363D03*
X481300D03*
X473426Y927363D03*
X477363D03*
X481300D03*
X473426Y923426D03*
X477363D03*
X481300D03*
X473426Y919489D03*
X477363D03*
X481300D03*
X473426Y943111D03*
X477363D03*
X481300D03*
X473426Y939174D03*
X477363D03*
X481300D03*
X473426Y935237D03*
X477363D03*
X481300D03*
X473426Y931300D03*
X477363D03*
X481300D03*
X473426Y954922D03*
X477363D03*
X481300D03*
X473426Y950985D03*
X477363D03*
X481300D03*
X473426Y947048D03*
X477363D03*
X481300D03*
X473426Y970670D03*
X477363D03*
X481300D03*
X473426Y966733D03*
X477363D03*
X481300D03*
X473426Y962796D03*
X477363D03*
X481300D03*
X473426Y958859D03*
X477363D03*
X481300D03*
X473426Y978544D03*
X477363D03*
X481300D03*
X473426Y974607D03*
X477363D03*
X481300D03*
X485237Y769882D03*
X489174D03*
X493111D03*
X497048D03*
X485237Y765945D03*
X489174D03*
X493111D03*
X497048D03*
X485237Y762008D03*
X489174D03*
X493111D03*
X497048D03*
X485237Y785630D03*
X489174D03*
X493111D03*
X497048D03*
X485237Y781693D03*
X489174D03*
X493111D03*
X497048D03*
X485237Y777756D03*
X489174D03*
X493111D03*
X497048D03*
X485237Y773819D03*
X489174D03*
X493111D03*
X497048D03*
X485237Y797441D03*
X489174D03*
X493111D03*
X497048D03*
X485237Y793504D03*
X489174D03*
X493111D03*
X497048D03*
X485237Y789567D03*
X489174D03*
X493111D03*
X497048D03*
X485237Y813189D03*
X489174D03*
X493111D03*
X497048D03*
X485237Y809252D03*
X489174D03*
X493111D03*
X497048D03*
X485237Y805315D03*
X489174D03*
X493111D03*
X497048D03*
X485237Y801378D03*
X489174D03*
X493111D03*
X497048D03*
X485237Y828937D03*
X489174D03*
X493111D03*
X497048D03*
X485237Y821063D03*
X489174D03*
X493111D03*
X497048D03*
X485237Y817126D03*
X489174D03*
X493111D03*
X497048D03*
X485237Y840748D03*
X489174D03*
X493111D03*
X497048D03*
X485237Y836811D03*
X489174D03*
X493111D03*
X497048D03*
X485237Y832874D03*
X489174D03*
X493111D03*
X497048D03*
X485237Y856496D03*
X489174D03*
X493111D03*
X497048D03*
X485237Y852559D03*
X489174D03*
X493111D03*
X497048D03*
X485237Y848622D03*
X489174D03*
X493111D03*
X497048D03*
X485237Y844685D03*
X489174D03*
X493111D03*
X497048D03*
X485237Y872245D03*
X489174D03*
X493111D03*
X497048D03*
X485237Y868307D03*
X489174D03*
X493111D03*
X497048D03*
X485237Y864370D03*
X489174D03*
X493111D03*
X497048D03*
X485237Y860433D03*
X489174D03*
X493111D03*
X497048D03*
X485237Y884056D03*
X489174D03*
X493111D03*
X497048D03*
X485237Y880119D03*
X489174D03*
X493111D03*
X497048D03*
X485237Y876182D03*
X489174D03*
X493111D03*
X497048D03*
X485237Y899804D03*
X489174D03*
X493111D03*
X497048D03*
X485237Y895867D03*
X489174D03*
X493111D03*
X497048D03*
X485237Y891930D03*
X489174D03*
X493111D03*
X497048D03*
X485237Y887993D03*
X489174D03*
X493111D03*
X497048D03*
X485237Y911615D03*
X489174D03*
X493111D03*
X497048D03*
X485237Y907678D03*
X489174D03*
X493111D03*
X497048D03*
X485237Y903741D03*
X489174D03*
X493111D03*
X497048D03*
X485237Y927363D03*
X489174D03*
X493111D03*
X497048D03*
X485237Y923426D03*
X489174D03*
X493111D03*
X497048D03*
X485237Y919489D03*
X489174D03*
X493111D03*
X497048D03*
X485237Y943111D03*
X489174D03*
X493111D03*
X497048D03*
X485237Y939174D03*
X489174D03*
X493111D03*
X497048D03*
X485237Y935237D03*
X489174D03*
X493111D03*
X497048D03*
X485237Y931300D03*
X489174D03*
X493111D03*
X497048D03*
X485237Y954922D03*
X489174D03*
X493111D03*
X497048D03*
X485237Y950985D03*
X489174D03*
X493111D03*
X497048D03*
X485237Y947048D03*
X489174D03*
X493111D03*
X497048D03*
X485237Y970670D03*
X489174D03*
X493111D03*
X497048D03*
X485237Y966733D03*
X489174D03*
X493111D03*
X497048D03*
X485237Y962796D03*
X489174D03*
X493111D03*
X497048D03*
X485237Y958859D03*
X489174D03*
X493111D03*
X497048D03*
X485237Y978544D03*
X489174D03*
X493111D03*
X497048D03*
X485237Y974607D03*
X489174D03*
X493111D03*
X497048D03*
X500985Y769882D03*
X504922D03*
X508859D03*
X512796D03*
X500985Y765945D03*
X504922D03*
X508859D03*
X512796D03*
X500985Y762008D03*
X504922D03*
X508859D03*
X512796D03*
X500985Y785630D03*
X504922D03*
X508859D03*
X512796D03*
X500985Y781693D03*
X504922D03*
X508859D03*
X512796D03*
X500985Y777756D03*
X504922D03*
X508859D03*
X512796D03*
X500985Y773819D03*
X504922D03*
X508859D03*
X512796D03*
X500985Y797441D03*
X504922D03*
X508859D03*
X512796D03*
X500985Y793504D03*
X504922D03*
X508859D03*
X512796D03*
X500985Y789567D03*
X504922D03*
X508859D03*
X512796D03*
X500985Y813189D03*
X504922D03*
X508859D03*
X512796D03*
X500985Y809252D03*
X504922D03*
X508859D03*
X512796D03*
X500985Y805315D03*
X504922D03*
X508859D03*
X512796D03*
X500985Y801378D03*
X504922D03*
X508859D03*
X512796D03*
X500985Y828937D03*
X508859D03*
X512796D03*
X508859Y825000D03*
X512796D03*
X500985Y821063D03*
X504922D03*
X508859D03*
X512796D03*
X500985Y817126D03*
X504922D03*
X508859D03*
X512796D03*
X500985Y840748D03*
X508859D03*
X512796D03*
X500985Y836811D03*
X508859D03*
X512796D03*
X500985Y832874D03*
X508859D03*
X512796D03*
X500985Y856496D03*
X508859D03*
X512796D03*
X500985Y852559D03*
X508859D03*
X512796D03*
X500985Y848622D03*
X508859D03*
X512796D03*
X500985Y844685D03*
X508859D03*
X512796D03*
X500985Y872245D03*
X508859D03*
X512796D03*
X500985Y868307D03*
X508859D03*
X512796D03*
X500985Y864370D03*
X508859D03*
X512796D03*
X500985Y860433D03*
X508859D03*
X512796D03*
X500985Y884056D03*
X508859D03*
X512796D03*
X500985Y880119D03*
X508859D03*
X512796D03*
X500985Y876182D03*
X508859D03*
X512796D03*
X500985Y899804D03*
X508859D03*
X512796D03*
X500985Y895867D03*
X508859D03*
X512796D03*
X500985Y891930D03*
X508859D03*
X512796D03*
X500985Y887993D03*
X508859D03*
X512796D03*
X508859Y915552D03*
X512796D03*
X500985Y911615D03*
X508859D03*
X512796D03*
X500985Y907678D03*
X508859D03*
X512796D03*
X500985Y903741D03*
X508859D03*
X512796D03*
X500985Y927363D03*
X504922D03*
X508859D03*
X512796D03*
X500985Y923426D03*
X504922D03*
X508859D03*
X512796D03*
X500985Y919489D03*
X504922D03*
X508859D03*
X512796D03*
X500985Y943111D03*
X504922D03*
X508859D03*
X512796D03*
X500985Y939174D03*
X504922D03*
X508859D03*
X512796D03*
X500985Y935237D03*
X504922D03*
X508859D03*
X512796D03*
X500985Y931300D03*
X504922D03*
X508859D03*
X512796D03*
X500985Y954922D03*
X504922D03*
X508859D03*
X512796D03*
X500985Y950985D03*
X504922D03*
X508859D03*
X512796D03*
X500985Y947048D03*
X504922D03*
X508859D03*
X512796D03*
X500985Y970670D03*
X504922D03*
X508859D03*
X512796D03*
X500985Y966733D03*
X504922D03*
X508859D03*
X512796D03*
X500985Y962796D03*
X504922D03*
X508859D03*
X512796D03*
X500985Y958859D03*
X504922D03*
X508859D03*
X512796D03*
X500985Y978544D03*
X504922D03*
X508859D03*
X512796D03*
X500985Y974607D03*
X504922D03*
X508859D03*
X512796D03*
X516733Y769882D03*
X520670D03*
X524607D03*
X516733Y765945D03*
X520670D03*
X524607D03*
X516733Y762008D03*
X520670D03*
X524607D03*
X516733Y785630D03*
X520670D03*
X524607D03*
X516733Y781693D03*
X520670D03*
X524607D03*
X516733Y777756D03*
X520670D03*
X524607D03*
X516733Y773819D03*
X520670D03*
X524607D03*
X516733Y797441D03*
X520670D03*
X524607D03*
X516733Y793504D03*
X520670D03*
X524607D03*
X516733Y789567D03*
X520670D03*
X524607D03*
X516733Y813189D03*
X520670D03*
X524607D03*
X516733Y809252D03*
X520670D03*
X524607D03*
X516733Y805315D03*
X520670D03*
X524607D03*
X516733Y801378D03*
X520670D03*
X524607D03*
X516733Y828937D03*
X520670D03*
X524607D03*
X516733Y825000D03*
X520670D03*
X524607D03*
X516733Y821063D03*
X520670D03*
X524607D03*
X516733Y817126D03*
X520670D03*
X524607D03*
X516733Y840748D03*
X520670D03*
X524607D03*
X516733Y836811D03*
X520670D03*
X524607D03*
X516733Y832874D03*
X520670D03*
X524607D03*
X516733Y856496D03*
X520670D03*
X524607D03*
X516733Y852559D03*
X520670D03*
X524607D03*
X516733Y848622D03*
X520670D03*
X524607D03*
X516733Y844685D03*
X520670D03*
X524607D03*
X516733Y872245D03*
X520670D03*
X524607D03*
X516733Y868307D03*
X520670D03*
X524607D03*
X516733Y864370D03*
X520670D03*
X524607D03*
X516733Y860433D03*
X520670D03*
X524607D03*
X516733Y884056D03*
X520670D03*
X524607D03*
X516733Y880119D03*
X520670D03*
X524607D03*
X516733Y876182D03*
X520670D03*
X524607D03*
X516733Y899804D03*
X520670D03*
X524607D03*
X516733Y895867D03*
X520670D03*
X524607D03*
X516733Y891930D03*
X520670D03*
X524607D03*
X516733Y887993D03*
X520670D03*
X524607D03*
X516733Y915552D03*
X520670D03*
X524607D03*
X516733Y911615D03*
X520670D03*
X524607D03*
X516733Y907678D03*
X520670D03*
X524607D03*
X516733Y903741D03*
X520670D03*
X524607D03*
X516733Y927363D03*
X520670D03*
X524607D03*
X516733Y923426D03*
X520670D03*
X524607D03*
X516733Y919489D03*
X520670D03*
X524607D03*
X516733Y943111D03*
X520670D03*
X524607D03*
X516733Y939174D03*
X520670D03*
X524607D03*
X516733Y935237D03*
X520670D03*
X524607D03*
X516733Y931300D03*
X520670D03*
X524607D03*
X516733Y954922D03*
X520670D03*
X524607D03*
X516733Y950985D03*
X520670D03*
X524607D03*
X516733Y947048D03*
X520670D03*
X524607D03*
X516733Y970670D03*
X520670D03*
X524607D03*
X516733Y966733D03*
X520670D03*
X524607D03*
X516733Y962796D03*
X520670D03*
X524607D03*
X516733Y958859D03*
X520670D03*
X524607D03*
X516733Y978544D03*
X520670D03*
X524607D03*
X516733Y974607D03*
X520670D03*
X524607D03*
X528544Y769882D03*
X532481D03*
X536418D03*
X540355D03*
X528544Y765945D03*
X532481D03*
X536418D03*
X540355D03*
X528544Y762008D03*
X532481D03*
X536418D03*
X540355D03*
X528544Y785630D03*
X532481D03*
X536418D03*
X540355D03*
X528544Y781693D03*
X532481D03*
X536418D03*
X540355D03*
X528544Y777756D03*
X532481D03*
X536418D03*
X540355D03*
X528544Y773819D03*
X532481D03*
X536418D03*
X540355D03*
X528544Y797441D03*
X532481D03*
X536418D03*
X540355D03*
X528544Y793504D03*
X532481D03*
X536418D03*
X540355D03*
X528544Y789567D03*
X532481D03*
X536418D03*
X540355D03*
X528544Y813189D03*
X532481D03*
X536418D03*
X540355D03*
X528544Y809252D03*
X532481D03*
X536418D03*
X540355D03*
X528544Y805315D03*
X532481D03*
X536418D03*
X540355D03*
X528544Y801378D03*
X532481D03*
X536418D03*
X540355D03*
X528544Y828937D03*
X532481D03*
X536418D03*
X540355D03*
X528544Y825000D03*
X532481D03*
X536418D03*
X540355D03*
X528544Y821063D03*
X532481D03*
X536418D03*
X540355D03*
X528544Y817126D03*
X532481D03*
X536418D03*
X540355D03*
X528544Y840748D03*
X532481D03*
X536418D03*
X540355D03*
X528544Y836811D03*
X532481D03*
X536418D03*
X540355D03*
X528544Y832874D03*
X532481D03*
X536418D03*
X540355D03*
X528544Y856496D03*
X532481D03*
X536418D03*
X540355D03*
X528544Y852559D03*
X532481D03*
X536418D03*
X540355D03*
X528544Y848622D03*
X532481D03*
X536418D03*
X540355D03*
X528544Y844685D03*
X532481D03*
X536418D03*
X540355D03*
X528544Y872245D03*
X532481D03*
X536418D03*
X540355D03*
X528544Y868307D03*
X532481D03*
X536418D03*
X540355D03*
X528544Y864370D03*
X532481D03*
X536418D03*
X540355D03*
X528544Y860433D03*
X532481D03*
X536418D03*
X540355D03*
X528544Y884056D03*
X532481D03*
X536418D03*
X540355D03*
X528544Y880119D03*
X532481D03*
X536418D03*
X540355D03*
X528544Y876182D03*
X532481D03*
X536418D03*
X540355D03*
X528544Y899804D03*
X532481D03*
X536418D03*
X540355D03*
X528544Y895867D03*
X532481D03*
X536418D03*
X540355D03*
X528544Y891930D03*
X532481D03*
X536418D03*
X540355D03*
X528544Y887993D03*
X532481D03*
X536418D03*
X540355D03*
X528544Y915552D03*
X532481D03*
X536418D03*
X540355D03*
X528544Y911615D03*
X532481D03*
X536418D03*
X540355D03*
X528544Y907678D03*
X532481D03*
X536418D03*
X540355D03*
X528544Y903741D03*
X532481D03*
X536418D03*
X540355D03*
X528544Y927363D03*
X532481D03*
X536418D03*
X540355D03*
X528544Y923426D03*
X532481D03*
X536418D03*
X540355D03*
X528544Y919489D03*
X532481D03*
X536418D03*
X540355D03*
X528544Y943111D03*
X532481D03*
X536418D03*
X540355D03*
X528544Y939174D03*
X532481D03*
X536418D03*
X540355D03*
X528544Y935237D03*
X532481D03*
X536418D03*
X540355D03*
X528544Y931300D03*
X532481D03*
X536418D03*
X540355D03*
X528544Y954922D03*
X532481D03*
X536418D03*
X540355D03*
X528544Y950985D03*
X532481D03*
X536418D03*
X540355D03*
X528544Y947048D03*
X532481D03*
X536418D03*
X540355D03*
X528544Y970670D03*
X532481D03*
X536418D03*
X540355D03*
X528544Y966733D03*
X532481D03*
X536418D03*
X540355D03*
X528544Y962796D03*
X532481D03*
X536418D03*
X540355D03*
X528544Y958859D03*
X532481D03*
X536418D03*
X540355D03*
X528544Y978544D03*
X532481D03*
X536418D03*
X540355D03*
X528544Y974607D03*
X532481D03*
X536418D03*
X540355D03*
X544292Y769882D03*
X548229D03*
X552166D03*
X556103D03*
X544292Y765945D03*
X548229D03*
X552166D03*
X556103D03*
X544292Y762008D03*
X548229D03*
X552166D03*
X556103D03*
X544292Y785630D03*
X548229D03*
X552166D03*
X556103D03*
X544292Y781693D03*
X548229D03*
X552166D03*
X556103D03*
X544292Y777756D03*
X548229D03*
X552166D03*
X556103D03*
X544292Y773819D03*
X548229D03*
X552166D03*
X556103D03*
X544292Y797441D03*
X548229D03*
X552166D03*
X556103D03*
X544292Y793504D03*
X548229D03*
X552166D03*
X556103D03*
X544292Y789567D03*
X548229D03*
X552166D03*
X556103D03*
X544292Y813189D03*
X548229D03*
X552166D03*
X556103D03*
X544292Y809252D03*
X548229D03*
X552166D03*
X556103D03*
X544292Y805315D03*
X548229D03*
X552166D03*
X556103D03*
X544292Y801378D03*
X548229D03*
X552166D03*
X556103D03*
X544292Y828937D03*
X548229D03*
X552166D03*
X556103D03*
X544292Y825000D03*
X548229D03*
X552166D03*
X556103D03*
X544292Y821063D03*
X548229D03*
X552166D03*
X556103D03*
X544292Y817126D03*
X548229D03*
X552166D03*
X556103D03*
X544292Y840748D03*
X548229D03*
X552166D03*
X556103D03*
X544292Y836811D03*
X548229D03*
X552166D03*
X556103D03*
X544292Y832874D03*
X548229D03*
X552166D03*
X556103D03*
X544292Y856496D03*
X548229D03*
X552166D03*
X556103D03*
X544292Y852559D03*
X548229D03*
X552166D03*
X556103D03*
X544292Y848622D03*
X548229D03*
X552166D03*
X556103D03*
X544292Y844685D03*
X548229D03*
X552166D03*
X556103D03*
X544292Y872245D03*
X548229D03*
X552166D03*
X556103D03*
X544292Y868307D03*
X548229D03*
X552166D03*
X556103D03*
X544292Y864370D03*
X548229D03*
X552166D03*
X556103D03*
X544292Y860433D03*
X548229D03*
X552166D03*
X556103D03*
X544292Y884056D03*
X548229D03*
X552166D03*
X556103D03*
X544292Y880119D03*
X548229D03*
X552166D03*
X556103D03*
X544292Y876182D03*
X548229D03*
X552166D03*
X556103D03*
X544292Y899804D03*
X548229D03*
X552166D03*
X556103D03*
X544292Y895867D03*
X548229D03*
X552166D03*
X556103D03*
X544292Y891930D03*
X548229D03*
X552166D03*
X556103D03*
X544292Y887993D03*
X548229D03*
X552166D03*
X556103D03*
X544292Y915552D03*
X548229D03*
X552166D03*
X556103D03*
X544292Y911615D03*
X548229D03*
X552166D03*
X556103D03*
X544292Y907678D03*
X548229D03*
X552166D03*
X556103D03*
X544292Y903741D03*
X548229D03*
X552166D03*
X556103D03*
X544292Y927363D03*
X548229D03*
X552166D03*
X556103D03*
X544292Y923426D03*
X548229D03*
X552166D03*
X556103D03*
X544292Y919489D03*
X548229D03*
X552166D03*
X556103D03*
X544292Y943111D03*
X548229D03*
X552166D03*
X556103D03*
X544292Y939174D03*
X548229D03*
X552166D03*
X556103D03*
X544292Y935237D03*
X548229D03*
X552166D03*
X556103D03*
X544292Y931300D03*
X548229D03*
X552166D03*
X556103D03*
X544292Y954922D03*
X548229D03*
X552166D03*
X556103D03*
X544292Y950985D03*
X548229D03*
X552166D03*
X556103D03*
X544292Y947048D03*
X548229D03*
X552166D03*
X556103D03*
X544292Y970670D03*
X548229D03*
X552166D03*
X556103D03*
X544292Y966733D03*
X548229D03*
X552166D03*
X556103D03*
X544292Y962796D03*
X548229D03*
X552166D03*
X556103D03*
X544292Y958859D03*
X548229D03*
X552166D03*
X556103D03*
X544292Y978544D03*
X548229D03*
X552166D03*
X556103D03*
X544292Y974607D03*
X548229D03*
X552166D03*
X556103D03*
X560040Y769882D03*
X563977D03*
X567914D03*
X560040Y765945D03*
X563977D03*
X567914D03*
X560040Y762008D03*
X563977D03*
X567914D03*
X560040Y785630D03*
X563977D03*
X567914D03*
X560040Y781693D03*
X563977D03*
X567914D03*
X560040Y777756D03*
X563977D03*
X567914D03*
X560040Y773819D03*
X563977D03*
X567914D03*
X560040Y797441D03*
X563977D03*
X567914D03*
X560040Y793504D03*
X563977D03*
X567914D03*
X560040Y789567D03*
X563977D03*
X567914D03*
X560040Y813189D03*
X563977D03*
X567914D03*
X560040Y809252D03*
X563977D03*
X567914D03*
X560040Y805315D03*
X563977D03*
X567914D03*
X560040Y801378D03*
X563977D03*
X567914D03*
X560040Y828937D03*
X563977D03*
X567914D03*
X560040Y825000D03*
X563977D03*
X567914D03*
X560040Y821063D03*
X563977D03*
X567914D03*
X560040Y817126D03*
X563977D03*
X567914D03*
X560040Y840748D03*
X563977D03*
X567914D03*
X560040Y836811D03*
X563977D03*
X567914D03*
X560040Y832874D03*
X563977D03*
X567914D03*
X560040Y856496D03*
X563977D03*
X567914D03*
X560040Y852559D03*
X563977D03*
X567914D03*
X560040Y848622D03*
X563977D03*
X567914D03*
X560040Y844685D03*
X563977D03*
X567914D03*
X560040Y872245D03*
X563977D03*
X567914D03*
X560040Y868307D03*
X563977D03*
X567914D03*
X560040Y864370D03*
X563977D03*
X567914D03*
X560040Y860433D03*
X563977D03*
X567914D03*
X560040Y884056D03*
X563977D03*
X567914D03*
X560040Y880119D03*
X563977D03*
X567914D03*
X560040Y876182D03*
X563977D03*
X567914D03*
X560040Y899804D03*
X563977D03*
X567914D03*
X560040Y895867D03*
X563977D03*
X567914D03*
X560040Y891930D03*
X563977D03*
X567914D03*
X560040Y887993D03*
X563977D03*
X567914D03*
X560040Y915552D03*
X563977D03*
X567914D03*
X560040Y911615D03*
X563977D03*
X567914D03*
X560040Y907678D03*
X563977D03*
X567914D03*
X560040Y903741D03*
X563977D03*
X567914D03*
X560040Y927363D03*
X563977D03*
X567914D03*
X560040Y923426D03*
X563977D03*
X567914D03*
X560040Y919489D03*
X563977D03*
X567914D03*
X560040Y943111D03*
X563977D03*
X567914D03*
X560040Y939174D03*
X563977D03*
X567914D03*
X560040Y935237D03*
X563977D03*
X567914D03*
X560040Y931300D03*
X563977D03*
X567914D03*
X560040Y954922D03*
X563977D03*
X567914D03*
X560040Y950985D03*
X563977D03*
X567914D03*
X560040Y947048D03*
X563977D03*
X567914D03*
X560040Y970670D03*
X563977D03*
X567914D03*
X560040Y966733D03*
X563977D03*
X567914D03*
X560040Y962796D03*
X563977D03*
X567914D03*
X560040Y958859D03*
X563977D03*
X567914D03*
X560040Y978544D03*
X563977D03*
X567914D03*
X560040Y974607D03*
X563977D03*
X567914D03*
G54D69*
X183464Y146122D03*
X179527D03*
X183464Y176240D03*
X179527D03*
X183464Y226122D03*
X179527D03*
X183464Y256240D03*
X179527D03*
X183464Y386122D03*
X179527D03*
X183464Y416240D03*
X179527D03*
X195275Y146122D03*
X191338D03*
X187401D03*
X195275Y176240D03*
X191338D03*
X187401D03*
X195275Y226122D03*
X191338D03*
X187401D03*
X195275Y256240D03*
X191338D03*
X187401D03*
X195275Y386122D03*
X191338D03*
X187401D03*
X195275Y416240D03*
X191338D03*
X187401D03*
X211023Y146122D03*
X207086D03*
X203149D03*
X199212D03*
X211023Y176240D03*
X207086D03*
X203149D03*
X199212D03*
X211023Y226122D03*
X207086D03*
X203149D03*
X199212D03*
X211023Y256240D03*
X207086D03*
X203149D03*
X199212D03*
X211023Y386122D03*
X207086D03*
X203149D03*
X199212D03*
X211023Y416240D03*
X207086D03*
X203149D03*
X199212D03*
X218898Y146122D03*
X214960D03*
X218898Y176240D03*
X214960D03*
X218897Y226122D03*
X214960D03*
X218897Y256240D03*
X214960D03*
X218897Y386122D03*
X214960D03*
X218897Y416240D03*
X214960D03*
X238583Y146122D03*
X234646D03*
X230709D03*
X238583Y176240D03*
X234646D03*
X230709D03*
X238582Y226122D03*
X234645D03*
X230708D03*
X238582Y256240D03*
X234645D03*
X230708D03*
X238582Y386122D03*
X234645D03*
X230708D03*
X238582Y416240D03*
X234645D03*
X230708D03*
X254331Y146122D03*
X250394D03*
X246457D03*
X242520D03*
X254331Y176240D03*
X250394D03*
X246457D03*
X242520D03*
X254331Y226122D03*
X250394D03*
X246457D03*
X242519D03*
X254331Y256240D03*
X250394D03*
X246457D03*
X242519D03*
X254331Y386122D03*
X250394D03*
X246457D03*
X242519D03*
X254331Y416240D03*
X250394D03*
X246457D03*
X242519D03*
X270079Y226122D03*
X266142D03*
X262205D03*
X258268D03*
X270079Y256240D03*
X266142D03*
X262205D03*
X258268D03*
X270079Y386122D03*
X266142D03*
X262205D03*
X258268D03*
X270079Y416240D03*
X266142D03*
X262205D03*
X258268D03*
X281890Y226122D03*
X277953D03*
X274016D03*
X281890Y256240D03*
X277953D03*
X274016D03*
X281890Y386122D03*
X277953D03*
X274016D03*
X281890Y416240D03*
X277953D03*
X274016D03*
X297638Y226122D03*
X293701D03*
X289764D03*
X285827D03*
X297638Y256240D03*
X293701D03*
X289764D03*
X285827D03*
X297638Y386122D03*
X293701D03*
X289764D03*
X285827D03*
X297638Y416240D03*
X293701D03*
X289764D03*
X285827D03*
X309449Y226122D03*
X305512D03*
X301575D03*
X309449Y256240D03*
X305512D03*
X301575D03*
X309449Y386122D03*
X305512D03*
X301575D03*
X309449Y416240D03*
X305512D03*
X301575D03*
G54D78*
X358900Y1110452D03*
Y1141948D03*
X399200Y1110452D03*
Y1141948D03*
X409400Y588052D03*
Y619548D03*
X439500Y1110452D03*
Y1141948D03*
X479800Y1110452D03*
Y1141948D03*
X520100Y1110452D03*
Y1141948D03*
X560400Y1110452D03*
Y1141948D03*
G54D96*
X426684Y421283D03*
X424716D03*
X422747D03*
X420779D03*
X418810D03*
X416842D03*
Y444117D03*
X418810D03*
X420779D03*
X422747D03*
X424716D03*
X426684D03*
X434558Y421283D03*
X432590D03*
X430621D03*
X428653D03*
Y444117D03*
X430621D03*
X432590D03*
X434558D03*
G54D87*
X388189Y321181D03*
G54D97*
X414283Y423842D03*
Y425810D03*
Y427779D03*
Y429747D03*
Y431716D03*
Y433684D03*
Y435653D03*
Y437621D03*
Y439590D03*
Y441558D03*
X437117Y425810D03*
Y423842D03*
Y441558D03*
Y439590D03*
Y437621D03*
Y435653D03*
Y433684D03*
Y431716D03*
Y429747D03*
Y427779D03*
G54D79*
X353979Y1158558D03*
X351026Y1178242D03*
X352994D03*
X354963D03*
X365790Y1158558D03*
X363821D03*
X361853D03*
X359884D03*
X357916D03*
X355947D03*
X356932Y1178242D03*
X358900D03*
X360868D03*
X362837D03*
X364806D03*
X366774D03*
X398216Y1158558D03*
X396247D03*
X394279D03*
X391326Y1178242D03*
X393294D03*
X395263D03*
X397232D03*
X411368Y558258D03*
X409400D03*
X407432D03*
X405463D03*
X403494D03*
X401526D03*
X402510Y577942D03*
X404479D03*
X406447D03*
X408416D03*
X410384D03*
X412353D03*
X406090Y1158558D03*
X404121D03*
X402153D03*
X400184D03*
X399200Y1178242D03*
X401168D03*
X403137D03*
X405106D03*
X407074D03*
X417274Y558258D03*
X415306D03*
X413337D03*
X414321Y577942D03*
X440484Y1158558D03*
X438516D03*
X436547D03*
X434579D03*
X431626Y1178242D03*
X433594D03*
X435563D03*
X437532D03*
X439500D03*
X441468D03*
X449747Y579424D03*
Y594976D03*
X446390Y1158558D03*
X444421D03*
X442453D03*
X443437Y1178242D03*
X445406D03*
X447374D03*
X456637Y594976D03*
X482753Y1158558D03*
X480784D03*
X478816D03*
X476847D03*
X474879D03*
X471926Y1178242D03*
X473894D03*
X475863D03*
X477832D03*
X479800D03*
X481768D03*
X483737D03*
X486690Y1158558D03*
X484721D03*
X485706Y1178242D03*
X487674D03*
X512226D03*
X526990Y1158558D03*
X525021D03*
X523053D03*
X521084D03*
X519116D03*
X517147D03*
X515179D03*
X514194Y1178242D03*
X516163D03*
X518132D03*
X520100D03*
X522068D03*
X524037D03*
X526006D03*
X527974D03*
X555479Y1158558D03*
X552526Y1178242D03*
X554494D03*
X567290Y1158558D03*
X565321D03*
X563353D03*
X561384D03*
X559416D03*
X557447D03*
X556463Y1178242D03*
X558432D03*
X560400D03*
X562368D03*
X564337D03*
X566306D03*
X568274D03*
X700994Y277093D03*
X702963D03*
X704931D03*
X706900D03*
X708869D03*
X710837D03*
X712806D03*
X702963Y288707D03*
X704931D03*
X706900D03*
X708869D03*
X710837D03*
X712806D03*
X839463Y780624D03*
X846353D03*
Y796176D03*
G54D88*
X399558Y563179D03*
G54D98*
X426160Y1029676D03*
Y1039124D03*
X433640Y1029676D03*
Y1039124D03*
X444360Y1029676D03*
X451840D03*
X444360Y1039124D03*
X451840D03*
X474260Y1029676D03*
X481740D03*
X474260Y1039124D03*
X481740D03*
X492460Y1029676D03*
X499940D03*
X492460Y1039124D03*
X499940D03*
X765560Y472524D03*
Y463076D03*
X773040Y472524D03*
Y463076D03*
G54D89*
X406800Y388232D03*
G54D99*
X441100Y668700D03*
Y661500D03*
X434600Y668700D03*
Y661500D03*
X453100Y668700D03*
Y661500D03*
X459600Y668700D03*
Y661500D03*
X901700Y583200D03*
Y590400D03*
M02*
