M48
INCH,TZ
T01C.008
T02C.02402
T03C.026
T04C.02756
T05C.0315
T06C.03543
T07C.04
T08C.04016
T09C.04724
T10C.05118
T11C.05315
T12C.06693
T13C.07087
T14C.09055
T15C.15748
T16C.18898
T17C.016
T18C.02559
T19C.03202
T20C.034
T21C.03556
T22C.0395
T23C.04
T24C.04331
T25C.04343
T26C.04528
T27C.04724
T28C.048
T29C.04816
T30C.052
T31C.05524
T32C.05918
T33C.06115
T34C.06299
T35C.07493
T36C.07874
T37C.07887
T38C.09646
T39C.09855
T40C.11811
T41C.12795
T42C.16548
T43C.19698
;LEADER: 12 
;HEADER: 
;CODE  : ASCII 
;FILE  : SG2042_EVB_V2_0-bd-16-6.drl for backdrilling of board D:/Project/2023/1_SG2042_EVB_V_2_0/Gerber/#Taaaage16292.tmp ... from layer BOTTOM to layer GND06
;MUST-NOT-CUT-LAYER = ART05,  MAX_DRILL_DEPTH = 57.300000 MILS,  MFG_STUB_LENGTH = 8.000000 MILS
;T17 BackdrillSize 1. = 16.000000 Tolerance = +0.000000/-0.000000 NON_PLATED MILS Quantity = 40
%
G90
T17
X68500Y594000
Y596400
X76300Y598800
Y601200
X292933Y372976
X290532
X277185
X274784
X261437
X259036
X241751
X239350
X261437Y212976
X259036
X241751
X239350
X531800Y317001
Y314601
X543555Y309502
X540406
X531800Y304402
Y302002
X543554Y296903
X540405
X578200Y287455
Y284306
X570825Y273400
X568425
X612845Y309502
X615995
X624600Y314601
Y317001
X609696Y328398
X612845
X626400Y331300
Y333700
X744397Y344300
X756995
X744397Y346700
X756995
M30
