M48
INCH,TZ
T01C.008
T02C.02402
T03C.026
T04C.02756
T05C.0315
T06C.03543
T07C.04
T08C.04016
T09C.04724
T10C.05118
T11C.05315
T12C.06693
T13C.07087
T14C.09055
T15C.15748
T16C.18898
T17C.016
T18C.02559
T19C.03202
T20C.034
T21C.03556
T22C.0395
T23C.04
T24C.04331
T25C.04343
T26C.04528
T27C.04724
T28C.048
T29C.04816
T30C.052
T31C.05524
T32C.05918
T33C.06115
T34C.06299
T35C.07493
T36C.07874
T37C.07887
T38C.09646
T39C.09855
T40C.11811
T41C.12795
T42C.16548
T43C.19698
;LEADER: 12 
;HEADER: 
;CODE  : ASCII 
;FILE  : SG2042_EVB_V2_0-bd-16-4.drl for backdrilling of board D:/Project/2023/1_SG2042_EVB_V_2_0/Gerber/#Taaaage16292.tmp ... from layer BOTTOM to layer GND04
;MUST-NOT-CUT-LAYER = ART03,  MAX_DRILL_DEPTH = 67.700000 MILS,  MFG_STUB_LENGTH = 8.000000 MILS
;T17 BackdrillSize 1. = 16.000000 Tolerance = +0.000000/-0.000000 NON_PLATED MILS Quantity = 160
%
G90
T17
X239351Y132976
X241752
X573200Y128485
Y130885
Y140296
Y142696
Y152107
Y154507
Y163918
Y166318
X249626Y182266
X247225
X239351Y294576
X241752
X259036
X261437
X274784
X277185
X290532
X292933
X314154
X316555
X329902
X332303
X345651
X348052
X361399
X363800
X557025Y273400
X559303Y287455
Y290605
X559425Y273400
X584498Y287456
Y290605
X587650Y293755
X590799
X597097Y287456
Y290605
X600248Y293755
X603398
X615994Y322101
X612844
X606546Y325249
Y322099
X562453Y356745
Y359894
X575051Y356745
Y359894
X587648Y356745
Y359894
X600246Y356745
Y359894
X600400Y375700
X598000
X584300
X581900
X568200
X565800
X552100
X549700
X493721Y454576
X491320
X477973
X475572
X462225
X459824
X446477
X444076
X430729
X428328
X414981
X412580
X399233
X396832
X383485
X381084
X363800
X361399
X348052
X345651
X332303
X329902
X316555
X314154
X292933
X290532
X277185
X274784
X261437
X259036
X241752
X239351
X791600Y637637
Y635237
X783100Y643600
Y641200
X528544Y740000
Y737600
X524607Y743000
Y740600
X520670Y740000
Y737600
X516733Y743000
Y740600
X512796Y740000
Y737600
X508859Y743000
Y740600
X504922Y740000
Y737600
X500985Y743000
Y740600
X489174Y793504
Y789567
X485237Y785630
Y781693
X481300Y793504
Y789567
X477363Y785630
Y781693
X473426Y793504
Y789567
X469489Y785630
Y781693
X465552Y793504
Y789567
X461615Y785630
Y781693
X457677Y793504
Y789567
X453740Y785630
Y781693
X449803Y793504
Y789567
X445866Y785630
Y781693
X441929Y793504
Y789567
X437992Y785630
Y781693
X434055Y793504
Y789567
X430118Y785630
Y781693
X422244Y785630
Y781693
X418307Y793504
Y789567
X414370Y785630
Y781693
X410433Y793504
Y789567
X406496Y785630
Y781693
X402559Y793504
Y789567
X398622Y785630
Y781693
X394685Y793504
Y789567
M30
