M48
INCH,TZ
T01C.02362
T02C.0315
T03C.04724
;EXTENTS: -50.000 -50.000 50.000  50.000  
;LEADER: 12 
;HEADER: 
;CODE  : ASCII 
;FILE  : D:/Project/2023/1_SG2042_EVB_V_2_0/Gerber/SG2042_EVB_V2_0_1-16.rou for board D:/Project/2023/1_SG2042_EVB_V_2_0/Gerber/#Taaaagk16292.tmp, layers TOP to BOTTOM
%
G90
F1
M16
T02
M16
G00X53740Y731792
G40
M15
G01X57676
M16
G00X53740Y656988
G40
M15
G01X57676
M16
G00X22441Y731792
G40
M15
G01X26377
M16
G00X22441Y656988
G40
M15
G01X26377
M16
T01
M16
G00X8740Y610079
G40
M15
G01X11890
M16
G00X8740Y644095
G40
M15
G01X11890
M16
G00X24605Y610079
G40
M15
G01X28935
M16
G00X24605Y644095
G40
M15
G01X28935
M16
G00X923317Y721100
G40
M15
G01X937883
M16
G00X923317Y701415
G40
M15
G01X937883
M16
T03
M16
G00X247485Y848327
G40
M15
G01X252407
M16
G00X210485
G40
M15
G01X215407
M16
G00X703885
G40
M15
G01X708807
M16
G00X666885
G40
M15
G01X671807
M16
G40
M30
